<svg width="156" height="634" viewBox="0 0 156 634" fill="none" xmlns="http://www.w3.org/2000/svg">
<path d="M106.278 593.789C116.487 592.956 122.321 586.289 122.321 572.746C122.321 559.621 117.32 553.787 110.237 553.578C102.528 553.37 98.1525 560.454 95.2357 574.413L92.3188 586.914C85.4433 619.416 69.609 633.792 46.4824 634C16.8972 633.792 0.229411 611.082 0.229413 572.955C0.229415 533.994 17.3139 508.784 54.3996 508.367L54.3996 546.286C40.4404 546.911 32.9399 556.704 32.9399 572.33C32.9399 585.872 38.5653 593.164 46.4824 593.373C53.7746 593.164 57.9415 587.122 61.6918 570.246L65.0253 555.037C70.8591 528.577 83.9849 512.326 107.32 512.326C135.863 512.117 155.031 537.327 155.031 572.746C155.031 608.999 135.655 631.709 106.278 631.917L106.278 593.789Z" fill="black" fill-opacity="0.04"/>
<path d="M120.86 366.483L152.945 366.483L152.945 496.492L120.86 496.492L120.86 451.072L2.10206 451.072L2.10206 411.903L120.86 411.903L120.86 366.483Z" fill="black" fill-opacity="0.04"/>
<path d="M152.945 350.439L2.10206 350.439L2.10207 310.854L152.945 310.854L152.945 350.439Z" fill="black" fill-opacity="0.04"/>
<path d="M2.10206 184.595L2.10207 141.676L152.945 191.887L152.945 245.849L2.10206 295.853L2.10206 253.141L31.6873 244.183L31.6873 193.554L2.10206 184.595ZM61.6893 202.721L61.6893 235.015L112.318 219.389L112.318 218.139L61.6893 202.721Z" fill="black" fill-opacity="0.04"/>
<path d="M2.10207 -6.59357e-06L152.945 0L152.945 39.5859L91.2746 39.5859L91.2746 41.6694L152.945 88.3391L152.945 134.801L85.6492 83.1305L2.10206 135.842L2.10206 88.3391L59.3975 53.5452L41.4797 39.5859L2.10206 39.5859L2.10207 -6.59357e-06Z" fill="black" fill-opacity="0.04"/>
</svg>
