<svg width="70" height="70" viewBox="0 0 70 70" fill="none" xmlns="http://www.w3.org/2000/svg">
<path fill-rule="evenodd" clip-rule="evenodd" d="M33.4971 46.9919C33.4856 46.971 33.4741 46.95 33.4626 46.929C33.4741 46.95 33.4856 46.971 33.4971 46.9919M32.5822 36.6752C32.5679 36.6748 32.5538 36.6746 32.5397 36.6746C32.5456 36.6746 32.5515 36.6747 32.5574 36.6747C32.5656 36.6748 32.5739 36.675 32.5822 36.6752ZM26.3781 27.5373C26.3781 25.9209 26.9314 24.5494 28.0445 23.4006C29.157 22.2519 30.4798 21.6855 32.034 21.6855C33.5883 21.6855 34.9111 22.2519 36.0236 23.4006C37.1367 24.5494 37.69 25.9209 37.69 27.5373C37.69 29.1536 37.1367 30.5254 36.0235 31.6745C34.9111 32.8229 33.5883 33.389 32.034 33.389C30.4798 33.389 29.157 32.8229 28.0446 31.6745C26.9314 30.5254 26.3781 29.1536 26.3781 27.5373ZM32.034 37.0746C29.8759 37.0746 27.988 37.3193 26.365 37.8015C24.7188 38.291 23.1893 38.8997 21.7757 39.627L21.7721 39.6289C21.0373 39.9975 20.4725 40.5132 20.0674 41.1781C19.6618 41.8438 19.457 42.588 19.457 43.4207V46.9919H33.0426C32.9181 46.7553 32.7998 46.5092 32.6878 46.2541C32.5191 45.8704 32.3749 45.4899 32.2556 45.1126H31.8339H21.2524V43.4207C21.2524 42.9799 21.3602 42.5736 21.5839 42.2137C21.8102 41.8497 22.1555 41.5531 22.5896 41.3123L22.5944 41.3097C23.7273 40.7016 25.0724 40.1594 26.6256 39.6808C26.9346 39.5856 27.2522 39.4999 27.5783 39.4235C28.8941 39.1154 30.3483 38.9601 31.9383 38.9541C32.0043 38.6036 32.082 38.2576 32.1713 37.9162C32.2455 37.6323 32.3319 37.3518 32.4306 37.0746H32.034ZM40.1044 44.6242L37.9982 45.38L37.0982 43.8002L38.8286 42.3397L38.7626 42.0942C38.6468 41.6632 38.5899 41.2423 38.5899 40.8307C38.5899 40.4194 38.6468 39.9986 38.7626 39.5676L38.8274 39.3264L37.1124 37.8314L38.0135 36.2502L40.1071 37.0236L40.2879 36.8487C40.5799 36.5661 40.8937 36.3359 41.2288 36.1563C41.5745 35.9708 41.9412 35.8186 42.3295 35.7001L42.5676 35.6275L42.9388 33.3477H44.7183L45.0736 35.6269L45.3135 35.7001C45.6991 35.8178 46.0637 35.9733 46.4075 36.1665C46.741 36.3537 47.0541 36.5958 47.3465 36.8955L47.5323 37.0858L49.6297 36.2582L50.5332 37.884L48.8115 39.3848L48.8824 39.6299C48.9958 40.0219 49.0531 40.4318 49.0531 40.8611C49.0531 41.2903 48.9958 41.6981 48.8826 42.086L48.8098 42.3358L50.5448 43.8002L49.6447 45.3801L47.538 44.6242L47.3596 44.7911C47.0532 45.0777 46.7329 45.3135 46.3991 45.5005C46.0613 45.6897 45.6997 45.8434 45.3135 45.9612L45.0736 46.0344L44.7183 48.3141H42.9388L42.5676 46.0339L42.3295 45.9612C41.9433 45.8434 41.5816 45.6897 41.2435 45.5006C40.91 45.3135 40.5896 45.0777 40.2828 44.7909L40.1044 44.6242ZM43.8146 44.6316C44.8321 44.6316 45.7103 44.2525 46.428 43.5103C47.1454 42.7687 47.5073 41.8677 47.5073 40.8293C47.5073 39.7908 47.1448 38.8902 46.4262 38.1497C45.7075 37.4087 44.8288 37.0302 43.8115 37.0302C42.7943 37.0302 41.9161 37.4093 41.1981 38.1515C40.4807 38.8931 40.1188 39.7941 40.1188 40.8325C40.1188 41.8708 40.4813 42.7713 41.1998 43.5121C41.9186 44.2531 42.7973 44.6316 43.8146 44.6316ZM32.034 31.5097C33.0968 31.5097 34.0143 31.1139 34.7653 30.3386C35.516 29.5637 35.8946 28.6226 35.8946 27.5373C35.8946 26.452 35.516 25.5109 34.7653 24.7359C34.0143 23.9606 33.0968 23.5649 32.034 23.5649C30.9713 23.5649 30.0538 23.9606 29.3027 24.7359C28.5521 25.5109 28.1735 26.452 28.1735 27.5373C28.1735 28.6226 28.5521 29.5637 29.3027 30.3386C30.0538 31.1139 30.9713 31.5097 32.034 31.5097Z" fill="white"/>
</svg>
