<svg width="81" height="81" viewBox="0 0 81 81" fill="none" xmlns="http://www.w3.org/2000/svg">
<path d="M70.7647 32.2261V53.9995H67.4773V34.2058V34.0425L67.3318 34.1167L60.695 37.5028L60.6404 37.5306V37.5919V54.2L40.2021 65.386L19.7646 54.2V37.5919V37.5323L19.7122 37.5039L9.8443 32.1663L40.2022 15.6139L70.7647 32.2261ZM40.1541 44.9672L40.202 44.9934L40.25 44.9673L63.5666 32.2545L63.7287 32.1661L63.5661 32.0786L40.2495 19.5371L40.202 19.5116L40.1546 19.5372L16.9333 32.0787L16.7715 32.1661L16.9328 32.2544L40.1541 44.9672ZM40.1539 61.6338L40.2021 61.6603L40.2503 61.6338L57.3019 52.2601L57.3537 52.2316V52.1725V39.7078V39.541L57.2065 39.6197L40.2024 48.7144L23.1989 39.4962L23.0513 39.4162V39.5841V52.1725V52.2316L23.1031 52.2601L40.1539 61.6338Z" fill="white" stroke="white" stroke-width="0.2"/>
</svg>
