<svg width="47" height="47" viewBox="0 0 47 47" fill="none" xmlns="http://www.w3.org/2000/svg">
<path d="M3.8845 41C3.09817 41 2.42083 40.714 1.8525 40.142C1.28417 39.5703 1 38.8886 1 38.0969V13.5358C1 13.2114 1.1095 12.9399 1.3285 12.7215C1.54717 12.5031 1.819 12.3939 2.144 12.3939C2.46867 12.3939 2.73733 12.5031 2.95 12.7215C3.163 12.9399 3.2695 13.2114 3.2695 13.5358V38.0969C3.2695 38.2777 3.32717 38.4262 3.4425 38.5422C3.55783 38.6583 3.70517 38.7163 3.8845 38.7163H37.327C37.649 38.7163 37.9185 38.8266 38.1355 39.047C38.3528 39.267 38.4615 39.5405 38.4615 39.8672C38.4615 40.194 38.3528 40.4646 38.1355 40.6789C37.9185 40.893 37.649 41 37.327 41H3.8845ZM9.423 35.4257C8.63667 35.4257 7.95933 35.1399 7.391 34.5682C6.82267 33.9962 6.5385 33.3144 6.5385 32.5226V7.90313C6.5385 7.11172 6.82267 6.43001 7.391 5.858C7.95933 5.286 8.63667 5 9.423 5H19.6345C20.0365 5 20.4192 5.08068 20.7825 5.24205C21.1455 5.40342 21.4603 5.61176 21.727 5.86706L24.846 9.02583H40.1155C40.9018 9.02583 41.5792 9.31183 42.1475 9.88384C42.7158 10.4558 43 11.1375 43 11.929V32.5226C43 33.3144 42.7158 33.9962 42.1475 34.5682C41.5792 35.1399 40.9018 35.4257 40.1155 35.4257H9.423ZM9.423 33.1421H40.1155C40.2948 33.1421 40.4422 33.084 40.5575 32.968C40.6728 32.8519 40.7305 32.7034 40.7305 32.5226V11.929C40.7305 11.7485 40.6728 11.6002 40.5575 11.4841C40.4422 11.368 40.2948 11.31 40.1155 11.31H23.904L19.904 7.28416H9.423C9.24367 7.28416 9.09633 7.34219 8.981 7.45827C8.86533 7.57435 8.8075 7.72264 8.8075 7.90313V32.5226C8.8075 32.7034 8.86533 32.8519 8.981 32.968C9.09633 33.084 9.24367 33.1421 9.423 33.1421Z" fill="white"/>
</svg>
