<svg width="81" height="81" viewBox="0 0 81 81" fill="none" xmlns="http://www.w3.org/2000/svg">
<path d="M37.6284 68.75H37.3784H17.9636C16.308 68.75 14.8942 68.1698 13.7369 67.0132L13.7368 67.0131C12.5802 65.8558 12 64.442 12 62.7864V53.6623V53.4123H12.25H21.3333V12.5V12.25H21.5833H62.0278H62.2778V12.5V37.7661V38.0074L62.0366 38.016C61.6063 38.0312 61.2056 38.0673 60.8341 38.1237M37.6284 68.75L60.7966 37.8766M37.6284 68.75V68.5V66.1068V65.8568H37.3784H17.8858C17.071 65.8568 16.373 65.566 15.7793 64.9752C15.1888 64.3876 14.8932 63.6636 14.8932 62.7864V56.3056M37.6284 68.75L14.8932 56.3056M60.8341 38.1237L60.7966 37.8766M60.8341 38.1237C60.8341 38.1237 60.8341 38.1237 60.8342 38.1237L60.7966 37.8766M60.8341 38.1237C60.4634 38.1801 60.0863 38.2626 59.7028 38.3714L59.3846 38.4617V38.1309V15.1432M60.7966 37.8766C60.4961 37.9223 60.1921 37.9846 59.8846 38.0634V38.1309H59.6346L59.5663 37.8904C59.5891 37.8839 59.6118 37.8776 59.6346 37.8713V15.1432H59.3846M59.3846 15.1432H24.2266V53.4123H42.4993H43.1029L42.6761 53.8391L40.2829 56.2323L40.2097 56.3056H40.1061H14.8932M59.3846 15.1432L14.8932 56.3056M43.829 68.75V68.5V61.626V61.5221L43.9026 61.4488L60.4929 44.9364C60.493 44.9362 60.4931 44.9361 60.4933 44.9359C60.8212 44.6076 61.1729 44.3753 61.5497 44.2531C61.5499 44.253 61.55 44.253 61.5502 44.2529L61.6272 44.4908M43.829 68.75L63.6611 44.5297C63.3101 44.3959 62.9632 44.329 62.6204 44.329C62.2891 44.329 61.958 44.3829 61.6272 44.4908M43.829 68.75H44.079M43.829 68.75H44.079M61.6272 44.4908C61.2959 44.5981 60.9767 44.8055 60.6698 45.113L44.079 61.626V68.25V68.5H44.329H50.9538L67.4551 51.987L61.6272 44.4908ZM68.2919 48.9361C68.2919 48.9361 68.292 48.9361 68.292 48.9362L68.0587 49.026L68.2919 48.9361ZM68.2919 48.9361C68.4297 49.2935 68.5 49.6547 68.5 50.0184C68.5 50.3895 68.4138 50.7589 68.2473 51.1246C68.0867 51.4773 67.89 51.8137 67.6574 52.1339M68.2919 48.9361L67.6574 52.1339M44.079 68.75H50.9538H51.0574L51.1306 68.6767L67.632 52.1637L67.6458 52.1498M44.079 68.75L67.6458 52.1498M67.6458 52.1498L67.6574 52.1339M67.6458 52.1498L67.6574 52.1339M28.7518 27.816V28.066H29.0018H54.6093H54.8593V27.816V25.4228V25.1728H54.6093H29.0018H28.7518V25.4228V27.816ZM28.7518 36.4314V36.6814H29.0018H54.6093H54.8593V36.4314V34.0382V33.7882H54.6093H29.0018H28.7518V34.0382V36.4314ZM64.5882 45.1309L67.466 48.0686L64.5882 45.1309ZM47.0816 62.8963L57.69 52.3046L58.9314 53.6353L58.9314 53.6354L58.9364 53.6405L60.2218 54.9416L49.6834 65.4982H47.0816V62.8963Z" fill="white" stroke="white" stroke-width="0.5"/>
</svg>
