<svg width="47" height="47" viewBox="0 0 47 47" fill="none" xmlns="http://www.w3.org/2000/svg">
<path d="M23.5 34.354C27.0307 31.5103 29.7018 28.6468 31.5135 25.7635C33.3248 22.8802 34.2305 20.2732 34.2305 17.9425C34.2305 14.8115 33.228 12.2498 31.223 10.2575C29.218 8.2655 26.6437 7.2695 23.5 7.2695C20.3563 7.2695 17.782 8.2655 15.777 10.2575C13.772 12.2498 12.7695 14.8115 12.7695 17.9425C12.7695 20.2525 13.6752 22.8492 15.4865 25.7325C17.2982 28.6158 19.9693 31.4897 23.5 34.354ZM23.5 36.492C23.2 36.492 22.902 36.442 22.606 36.342C22.3103 36.242 22.0378 36.092 21.7885 35.892C17.9935 32.7743 15.1633 29.6878 13.298 26.6325C11.4327 23.5775 10.5 20.6808 10.5 17.9425C10.5 14.1502 11.7187 11.045 14.156 8.627C16.593 6.209 19.7077 5 23.5 5C27.2923 5 30.407 6.209 32.844 8.627C35.2813 11.045 36.5 14.1502 36.5 17.9425C36.5 20.6678 35.5673 23.5582 33.702 26.6135C31.8367 29.6685 29.0063 32.7585 25.211 35.8835C24.9577 36.0892 24.6842 36.242 24.3905 36.342C24.0968 36.442 23.8 36.492 23.5 36.492ZM23.4725 21.6155C24.4882 21.6155 25.3492 21.2612 26.0555 20.5525C26.7622 19.8438 27.1155 18.9918 27.1155 17.9965C27.1155 17.0015 26.7612 16.1508 26.0525 15.4445C25.3438 14.7378 24.4817 14.3845 23.466 14.3845C22.4707 14.3845 21.625 14.7388 20.929 15.4475C20.2327 16.1562 19.8845 17.0082 19.8845 18.0035C19.8845 18.9985 20.2338 19.8492 20.9325 20.5555C21.6308 21.2622 22.4775 21.6155 23.4725 21.6155ZM11.6345 43C11.3045 43 11.033 42.8933 10.82 42.68C10.6067 42.4667 10.5 42.1948 10.5 41.8645C10.5 41.5342 10.6067 41.2627 10.82 41.05C11.033 40.837 11.3045 40.7305 11.6345 40.7305H35.3655C35.6955 40.7305 35.967 40.8372 36.18 41.0505C36.3933 41.2638 36.5 41.5357 36.5 41.866C36.5 42.1963 36.3933 42.4678 36.18 42.6805C35.967 42.8935 35.6955 43 35.3655 43H11.6345Z" fill="white"/>
</svg>
