<svg width="47" height="47" viewBox="0 0 47 47" fill="none" xmlns="http://www.w3.org/2000/svg">
<g clip-path="url(#clip0_366_1201)">
<path d="M10.8502 43.0004C9.60984 43.0004 8.55617 42.5669 7.68917 41.6999C6.82217 40.8329 6.38867 39.7792 6.38867 38.5389V34.8084C6.38867 34.396 6.526 34.0525 6.80067 33.7779C7.07534 33.5032 7.41884 33.3659 7.83117 33.3659H12.6427V6.15037C12.6427 5.98837 12.708 5.8792 12.8387 5.82287C12.9693 5.76687 13.1013 5.7927 13.2347 5.90037L14.9582 7.37337C15.0868 7.5017 15.235 7.56587 15.4027 7.56587C15.5703 7.56587 15.7247 7.5017 15.8657 7.37337L17.7657 5.78137C17.8947 5.65303 18.0428 5.58887 18.2102 5.58887C18.3778 5.58887 18.5322 5.65303 18.6732 5.78137L20.5427 7.37337C20.6713 7.5017 20.8195 7.56587 20.9872 7.56587C21.1548 7.56587 21.3092 7.5017 21.4502 7.37337L23.3502 5.78137C23.4792 5.65303 23.6275 5.58887 23.7952 5.58887C23.9625 5.58887 24.1167 5.65303 24.2577 5.78137L26.1577 7.37337C26.2867 7.5017 26.435 7.56587 26.6027 7.56587C26.7703 7.56587 26.9247 7.5017 27.0657 7.37337L28.9657 5.78137C29.0943 5.65303 29.2425 5.58887 29.4102 5.58887C29.5778 5.58887 29.7322 5.65303 29.8732 5.78137L31.7732 7.37337C31.9022 7.5017 32.0505 7.56587 32.2182 7.56587C32.3855 7.56587 32.5397 7.5017 32.6807 7.37337L34.5807 5.78137C34.7097 5.65303 34.858 5.58887 35.0257 5.58887C35.1933 5.58887 35.3477 5.65303 35.4887 5.78137L37.3887 7.37337C37.5177 7.5017 37.6658 7.56587 37.8332 7.56587C38.0008 7.56587 38.1552 7.5017 38.2962 7.37337L40.0192 5.90037C40.1525 5.7927 40.2847 5.76687 40.4157 5.82287C40.5463 5.8792 40.6117 5.98837 40.6117 6.15037V38.5389C40.6117 39.7792 40.1782 40.8329 39.3112 41.6999C38.4442 42.5669 37.3905 43.0004 36.1502 43.0004H10.8502ZM36.1502 40.7309C36.7912 40.7309 37.3168 40.5259 37.7272 40.1159C38.1375 39.7055 38.3427 39.1799 38.3427 38.5389V9.26987H14.9117V33.3659H32.5347C32.947 33.3659 33.2905 33.5032 33.5652 33.7779C33.8398 34.0525 33.9772 34.396 33.9772 34.8084V38.5309C33.9772 39.1772 34.1823 39.7055 34.5927 40.1159C35.0027 40.5259 35.5218 40.7309 36.1502 40.7309ZM18.9077 14.4199H27.9847C28.3073 14.4199 28.577 14.5292 28.7937 14.7479C29.0107 14.9665 29.1192 15.2382 29.1192 15.5629C29.1192 15.8879 29.0107 16.1567 28.7937 16.3694C28.577 16.5824 28.3073 16.6889 27.9847 16.6889H18.9077C18.5853 16.6889 18.3157 16.5795 18.0987 16.3609C17.8817 16.1422 17.7732 15.8704 17.7732 15.5454C17.7732 15.2204 17.8817 14.9515 18.0987 14.7389C18.3157 14.5262 18.5853 14.4199 18.9077 14.4199ZM18.9077 20.9464H27.9847C28.3073 20.9464 28.577 21.0557 28.7937 21.2744C29.0107 21.493 29.1192 21.7649 29.1192 22.0899C29.1192 22.4149 29.0107 22.6837 28.7937 22.8964C28.577 23.1094 28.3073 23.2159 27.9847 23.2159H18.9077C18.5853 23.2159 18.3157 23.1065 18.0987 22.8879C17.8817 22.6692 17.7732 22.3974 17.7732 22.0724C17.7732 21.7474 17.8817 21.4785 18.0987 21.2659C18.3157 21.0529 18.5853 20.9464 18.9077 20.9464ZM33.7502 16.9579C33.3758 16.9579 33.0483 16.8175 32.7677 16.5369C32.4867 16.2562 32.3462 15.9287 32.3462 15.5544C32.3462 15.18 32.4867 14.8524 32.7677 14.5714C33.0483 14.2907 33.3758 14.1504 33.7502 14.1504C34.1245 14.1504 34.452 14.2907 34.7327 14.5714C35.0137 14.8524 35.1542 15.18 35.1542 15.5544C35.1542 15.9287 35.0137 16.2562 34.7327 16.5369C34.452 16.8175 34.1245 16.9579 33.7502 16.9579ZM33.7502 23.2929C33.3758 23.2929 33.0483 23.1524 32.7677 22.8714C32.4867 22.5907 32.3462 22.2632 32.3462 21.8889C32.3462 21.5145 32.4867 21.187 32.7677 20.9064C33.0483 20.6254 33.3758 20.4849 33.7502 20.4849C34.1245 20.4849 34.452 20.6254 34.7327 20.9064C35.0137 21.187 35.1542 21.5145 35.1542 21.8889C35.1542 22.2632 35.0137 22.5907 34.7327 22.8714C34.452 23.1524 34.1245 23.2929 33.7502 23.2929ZM10.8002 40.7309H31.7077V35.6349H8.65767V38.5389C8.65767 39.1799 8.86534 39.7055 9.28067 40.1159C9.69601 40.5259 10.2025 40.7309 10.8002 40.7309Z" fill="white"/>
<g clip-path="url(#clip1_366_1201)">
<path d="M68.8701 0.719767L9.54012 -25.3102C5.99012 -26.8702 1.86012 -25.2502 0.300117 -21.7102L-6.87988 -5.33024H39.9801C43.8501 -5.33024 46.9901 -2.19024 46.9901 1.67977V66.4598C46.9901 70.2798 43.9401 73.3798 40.1401 73.4598C42.8001 73.4198 45.3101 71.8598 46.4501 69.2698L72.4801 9.93977C74.0401 6.38977 72.4201 2.25977 68.8801 0.699766L68.8701 0.719767Z" fill="url(#paint0_linear_366_1201)"/>
</g>
</g>
<defs>
<linearGradient id="paint0_linear_366_1201" x1="64.8201" y1="44.5698" x2="-8.82989" y2="-9.56022" gradientUnits="userSpaceOnUse">
<stop stop-color="#174AFF"/>
<stop offset="1" stop-color="#037FFF"/>
</linearGradient>
<clipPath id="clip0_366_1201">
<rect width="47" height="47" fill="white"/>
</clipPath>
<clipPath id="clip1_366_1201">
<rect width="171.6" height="171.6" fill="white" transform="translate(-62.5 -62)"/>
</clipPath>
</defs>
</svg>
