<svg width="70" height="70" viewBox="0 0 70 70" fill="none" xmlns="http://www.w3.org/2000/svg">
<path fill-rule="evenodd" clip-rule="evenodd" d="M34.4268 23.2171L34.4268 23.2171L35.16 23.9346L34.4268 23.2171ZM21.1582 47.2905L22.3525 48.4598L23.5214 49.6542L32.0935 41.0822V38.7189H29.7302L21.1582 47.2905ZM45.6994 51.2762L36.398 41.9803C36.2727 41.855 36.1881 41.732 36.1373 41.6125C36.086 41.4915 36.059 41.3554 36.059 41.2017C36.059 41.048 36.086 40.9115 36.1374 40.7898C36.1883 40.6694 36.2729 40.5462 36.398 40.4211L39.5999 37.2192C39.7249 37.0942 39.8485 37.0096 39.9696 36.9587C40.0919 36.9073 40.2295 36.8801 40.3852 36.8801C40.5377 36.8801 40.6725 36.9071 40.7922 36.9583C40.9119 37.0094 41.0387 37.0947 41.1719 37.221L50.4713 46.5208C50.5955 46.6447 50.6773 46.7669 50.7244 46.8862C50.7734 47.0102 50.7992 47.1496 50.7992 47.3068C50.7992 47.4643 50.7734 47.6031 50.7246 47.7256C50.6776 47.8439 50.5957 47.9658 50.4711 48.0904L47.2694 51.2761C47.1451 51.4002 47.0228 51.4822 46.9035 51.5296C46.7796 51.5785 46.6401 51.6043 46.4827 51.6043C46.3255 51.6043 46.187 51.5785 46.0645 51.5298C45.9457 51.4824 45.8236 51.4004 45.6994 51.2762ZM38.0195 41.2038L46.4844 49.6687L48.8476 47.3055L40.3827 38.8406L38.0195 41.2038ZM19.2789 47.7378C19.3294 47.8671 19.4131 47.9935 19.5359 48.1163L22.7115 51.2759C22.8347 51.3988 22.9609 51.4829 23.0891 51.5337C23.2218 51.5859 23.3654 51.6128 23.5217 51.6128C23.6776 51.6128 23.8161 51.5858 23.9393 51.535C24.0606 51.4845 24.183 51.4011 24.3054 51.2786L33.3305 42.2695V38.7038L41.7895 30.2449L43.7862 32.242L46.1691 29.8591L49.6698 33.3602C49.8802 33.0451 50.0475 32.7041 50.1717 32.3366C50.3208 31.8952 50.3952 31.445 50.3952 30.985C50.3952 30.4154 50.2896 29.8778 50.0792 29.3704C49.869 28.8633 49.566 28.4154 49.1688 28.0255L49.1678 28.0246L42.3962 21.2848L40.0572 23.6243V18.9042L39.54 18.3867L34.7112 23.2155L35.2416 23.7346H39.9469L37.6078 26.0733L40.5671 29.0326L34.9986 34.6011L27.5226 27.1251V24.7164L22.952 20.1455L19.3307 23.7664L23.9016 28.3374H26.3103L33.7863 35.8134L32.1343 37.4654H28.5749L19.5336 46.5067C19.4117 46.6286 19.3284 46.7527 19.2781 46.8779C19.2261 47.0067 19.1992 47.1479 19.1992 47.3034C19.1992 47.4589 19.2262 47.6033 19.2789 47.7378Z" fill="white"/>
</svg>
