<svg width="70" height="70" viewBox="0 0 70 70" fill="none" xmlns="http://www.w3.org/2000/svg">
<path fill-rule="evenodd" clip-rule="evenodd" d="M43.095 30.9092L32.9288 41.4319L32.9287 41.4319L43.095 30.9092ZM41.2818 29.0413L43.095 30.9092L43.0951 30.9092L41.2818 29.0413ZM32.904 41.4065L26.8858 35.2076L26.8857 35.2077L32.904 41.4065ZM32.9296 38.2786L41.2826 29.6232L42.5317 30.9099L32.9281 40.8503L27.4497 35.2077L28.699 33.9208L32.9296 38.2786ZM35 53C31.0064 51.8826 27.6819 49.4765 25.0217 45.7601C22.3391 42.0125 21 37.8282 21 33.1951V22.5466L35 17L49 22.5466V33.1951C49 37.8282 47.6609 42.0125 44.9783 45.7601C42.3181 49.4765 38.9936 51.8826 35 53ZM34.8809 51.0605L35 51.0986L35.1191 51.0605C38.6306 49.9389 41.5286 47.6949 43.8101 44.3512C46.0927 41.0058 47.2356 37.2834 47.2356 33.1951V23.77L35 18.9586L22.7644 23.77V33.1951C22.7644 37.2834 23.9073 41.0058 26.1899 44.3512C28.4714 47.6949 31.3694 49.9389 34.8809 51.0605Z" fill="white"/>
</svg>
