<svg width="47" height="47" viewBox="0 0 47 47" fill="none" xmlns="http://www.w3.org/2000/svg">
<path d="M23.404 41C23.0817 41 22.812 40.8905 22.595 40.6715C22.378 40.4528 22.2695 40.181 22.2695 39.856C22.2695 39.5313 22.378 39.2627 22.595 39.05C22.812 38.837 23.0817 38.7305 23.404 38.7305H37.6155C37.7822 38.7305 37.9263 38.6793 38.048 38.577C38.1697 38.4743 38.2305 38.3397 38.2305 38.173V23.454C38.2305 19.467 36.792 16.1093 33.915 13.381C31.0377 10.6527 27.5667 9.2885 23.502 9.2885C19.4373 9.2885 15.9657 10.6527 13.087 13.381C10.2087 16.1093 8.7695 19.467 8.7695 23.454V34.4615C8.7695 34.6935 8.69917 34.8797 8.5585 35.02C8.41817 35.1603 8.232 35.2305 8 35.2305C7.041 35.2305 6.218 34.8967 5.531 34.229C4.84367 33.561 4.5 32.7475 4.5 31.7885V27.904C4.5 27.2553 4.68467 26.661 5.054 26.121C5.42333 25.5813 5.90533 25.1475 6.5 24.8195L6.5925 22.2655C6.7565 20.0885 7.32183 18.0718 8.2885 16.2155C9.25517 14.3592 10.4948 12.7432 12.0075 11.3675C13.5205 9.99183 15.2667 8.92 17.246 8.152C19.2257 7.384 21.3103 7 23.5 7C25.6897 7 27.7692 7.384 29.7385 8.152C31.7078 8.92 33.454 9.98667 34.977 11.352C36.5 12.7173 37.7397 14.3282 38.696 16.1845C39.6523 18.0412 40.2228 20.0578 40.4075 22.2345L40.5 24.7385C41.082 25.0128 41.5608 25.4052 41.9365 25.9155C42.3122 26.4258 42.5 26.995 42.5 27.623V32.0885C42.5 32.7165 42.3122 33.2857 41.9365 33.796C41.5608 34.3063 41.082 34.6987 40.5 34.973V38.173C40.5 38.9567 40.2158 39.6237 39.6475 40.174C39.0792 40.7247 38.4018 41 37.6155 41H23.404ZM17.8755 27.173C17.4868 27.173 17.1572 27.0412 16.8865 26.7775C16.6162 26.5138 16.481 26.1875 16.481 25.7985C16.481 25.4098 16.6192 25.0833 16.8955 24.819C17.1722 24.555 17.505 24.423 17.894 24.423C18.2827 24.423 18.6122 24.5582 18.8825 24.8285C19.1532 25.0985 19.2885 25.428 19.2885 25.817C19.2885 26.2057 19.1502 26.5288 18.8735 26.7865C18.5968 27.0442 18.2642 27.173 17.8755 27.173ZM29.106 27.173C28.7173 27.173 28.3878 27.0412 28.1175 26.7775C27.8468 26.5138 27.7115 26.1875 27.7115 25.7985C27.7115 25.4098 27.8498 25.0833 28.1265 24.819C28.4032 24.555 28.7358 24.423 29.1245 24.423C29.5132 24.423 29.8428 24.5582 30.1135 24.8285C30.3838 25.0985 30.519 25.428 30.519 25.817C30.519 26.2057 30.3808 26.5288 30.1045 26.7865C29.8278 27.0442 29.495 27.173 29.106 27.173ZM12.2425 24.4C12.0348 21.136 13.0502 18.343 15.2885 16.021C17.5268 13.6993 20.3 12.5385 23.608 12.5385C26.323 12.5385 28.6992 13.4103 30.7365 15.154C32.7738 16.8973 34.0193 19.1062 34.473 21.7805C31.686 21.7472 29.1252 20.9877 26.7905 19.502C24.4558 18.016 22.651 16.0295 21.376 13.5425C20.874 16.0295 19.8128 18.2282 18.1925 20.1385C16.5718 22.0488 14.5885 23.4693 12.2425 24.4Z" fill="white"/>
</svg>
