<svg width="81" height="81" viewBox="0 0 81 81" fill="none" xmlns="http://www.w3.org/2000/svg">
<path d="M23.9811 27.6947H18.8741C17.0845 27.6947 15.568 28.3088 14.3408 29.5365L14.3408 29.5365C13.1151 30.7634 12.5 32.2577 12.5 34.0048V52.1476V52.3976H12.75H23.9811V66.0712V66.3212H24.2311H57.2689H57.5189V66.0712V52.3976H68.75H69V52.1476V34.0048C69 32.258 68.3877 30.7639 67.1671 29.5369L67.167 29.5368C65.9439 28.3085 64.4245 27.6947 62.6259 27.6947H57.5189V14.9287V14.6787H57.2689H24.2311H23.9811V14.9287V27.6947ZM27.0382 27.6947V17.7359H54.4618V27.6947H27.0382ZM62.4064 37.8889L62.4065 37.8888C63.0349 37.2591 63.3555 36.5081 63.3555 35.647C63.3555 34.7858 63.0345 34.0352 62.4054 33.4066C61.7763 32.7781 61.0258 32.4575 60.1652 32.4575C59.264 32.4575 58.4991 32.7758 57.8875 33.4109L57.8874 33.411C57.2815 34.0408 56.9741 34.7909 56.9741 35.6495C56.9741 36.5076 57.2815 37.2571 57.8875 37.8864L57.8876 37.8865C58.4978 38.5195 59.2512 38.8389 60.1328 38.8389C61.0141 38.8389 61.7763 38.5195 62.4064 37.8889ZM16.5103 31.7134L16.5103 31.7133C17.145 31.0725 17.9272 30.7519 18.8741 30.7519H62.6259C63.5742 30.7519 64.357 31.0672 64.9913 31.6959C65.6273 32.3262 65.9428 33.0851 65.9428 33.9874V49.3405H57.5189V44.6174V44.3674H57.2689H24.2311H23.9811V44.6174V49.3405H15.5572V34.0048C15.5572 33.1168 15.8721 32.3572 16.5103 31.7134ZM27.0382 47.4246H54.4618V63.264H27.0382V47.4246Z" fill="white" stroke="white" stroke-width="0.5"/>
</svg>
