<svg width="81" height="81" viewBox="0 0 81 81" fill="none" xmlns="http://www.w3.org/2000/svg">
<path d="M40.7441 52.3834C45.961 52.3834 50.3686 50.5802 53.9824 46.9714C57.5956 43.3627 59.4009 38.9574 59.4009 33.7402C59.4009 28.5234 57.5978 24.1157 53.989 20.5019C50.3803 16.8887 45.975 15.0834 40.7578 15.0834C35.541 15.0834 31.1333 16.8865 27.5195 20.4953L40.7441 52.3834ZM40.7441 52.3834C35.5269 52.3834 31.1216 50.578 27.5129 46.9648C23.9041 43.351 22.101 38.9434 22.101 33.7266C22.101 28.5093 23.9063 24.104 27.5195 20.4953L40.7441 52.3834ZM34.1247 43.5996L33.8937 44.3451L34.5149 43.8726L40.7507 39.1285L46.9693 43.8724L47.5819 44.3397L47.3604 43.6018L45.0493 35.9027L51.176 31.4683L51.8012 31.0158H51.0294H43.3514L40.9907 23.0457L40.7547 22.2489L40.5119 23.0436L38.0763 31.0158H30.4725H29.6949L30.3268 31.4689L36.5094 35.9025L34.1247 43.5996ZM25.4624 68.5V68.8365L25.7846 68.7394L40.751 64.227L55.7173 68.7394L56.0395 68.8365V68.5V48.7617C58.1064 46.7673 59.654 44.4695 60.6797 41.8695L60.4472 41.7778L60.6797 41.8695C61.7159 39.2426 62.2343 36.53 62.2343 33.7334C62.2343 27.7265 60.1559 22.6379 56.0012 18.4832C51.8464 14.3285 46.7578 12.25 40.751 12.25C34.7441 12.25 29.6555 14.3285 25.5008 18.4832C21.346 22.6379 19.2676 27.7265 19.2676 33.7334C19.2676 36.53 19.786 39.2426 20.8222 41.8695L20.8222 41.8695C21.8479 44.4695 23.3955 46.7673 25.4624 48.7617V68.5ZM40.824 61.2782L40.751 61.2559L40.6779 61.2782L28.2958 65.0592V51.1334C30.0372 52.459 31.9369 53.4586 33.9938 54.1313L33.9939 54.1314C36.2081 54.8548 38.4607 55.2168 40.751 55.2168C43.0412 55.2168 45.2938 54.8548 47.508 54.1314L47.5081 54.1313C49.5651 53.4586 51.4647 52.459 53.2061 51.1334V65.0592L40.824 61.2782Z" fill="white" stroke="white" stroke-width="0.5"/>
</svg>
