<svg width="70" height="70" viewBox="0 0 70 70" fill="none" xmlns="http://www.w3.org/2000/svg">
<path fill-rule="evenodd" clip-rule="evenodd" d="M36.0056 38.2549C35.9869 38.3448 35.9677 38.4382 35.9478 38.535C35.9667 38.4426 35.9852 38.3534 36.003 38.2673C36.0039 38.2632 36.0047 38.259 36.0056 38.2549ZM25.4976 47.4723C25.508 47.4955 25.5185 47.5185 25.5292 47.5415C25.5185 47.5185 25.508 47.4955 25.4976 47.4724M21.2202 40.5937C21.2139 40.5947 21.2077 40.5957 21.2014 40.5967C21.2077 40.5957 21.2139 40.5947 21.2202 40.5937C21.2202 40.5937 21.2202 40.5937 21.2202 40.5937ZM30.7451 24.8631C30.776 24.8677 30.8068 24.8725 30.8377 24.8774C30.8068 24.8725 30.776 24.8677 30.7451 24.8631ZM31.0569 24.6099C31.0569 24.6099 31.0569 24.6099 31.0569 24.6099C31.0581 24.6134 31.0593 24.6168 31.0606 24.6202C31.0593 24.6168 31.0581 24.6134 31.0569 24.6099ZM38.945 24.5888C38.9491 24.5773 38.9532 24.5659 38.9572 24.5545C38.9532 24.5659 38.9491 24.5773 38.945 24.5887C38.945 24.5888 38.945 24.5888 38.945 24.5888ZM39.2564 24.8514C39.2194 24.8551 39.1824 24.8592 39.1453 24.8637C39.1506 24.8631 39.1558 24.8624 39.1611 24.8618C39.1929 24.858 39.2247 24.8545 39.2564 24.8514ZM44.9331 28.7779C44.9331 28.7778 44.9331 28.7778 44.9331 28.7778C44.9209 28.7329 44.9083 28.6883 44.8952 28.644C44.9083 28.6883 44.9209 28.7329 44.9331 28.7779ZM44.5039 47.4723C44.5044 47.4712 44.5048 47.4702 44.5053 47.4692C44.5049 47.4702 44.5044 47.4712 44.5039 47.4723C44.5039 47.4723 44.5039 47.4723 44.5039 47.4723ZM21.1643 34.5474C21.5397 33.8926 22.0453 33.3381 22.6849 32.8838C22.7657 33.1195 22.8607 33.364 22.9695 33.6172C23.1 33.921 23.2419 34.1993 23.3957 34.4512C23.1879 34.6357 23.0055 34.8382 22.8491 35.0586C22.7473 35.2021 22.6565 35.3532 22.5769 35.5119C22.3355 35.9932 22.2137 36.501 22.2137 37.0317C22.2137 37.8125 22.3655 38.4788 22.6928 39.0095C22.8309 39.2334 22.9977 39.429 23.1916 39.5964C23.4617 39.8296 23.7844 40.0084 24.1557 40.1335C25.2805 40.5125 26.3929 40.8128 27.4929 41.0341L27.884 41.7024C27.6265 42.4526 27.409 43.0941 27.2316 43.6266C27.0373 44.2107 26.9359 44.7557 26.9359 45.2586C26.9359 46.188 27.2744 47.0041 27.9377 47.6939C28.606 48.3891 29.431 48.7406 30.3949 48.7406C31.5065 48.7406 32.4284 48.2789 33.1409 47.3786C33.8214 46.5187 34.3764 45.5072 34.8082 44.3478C35.2362 43.1982 35.5663 42.0256 35.7981 40.8304C35.9938 39.8216 36.1587 38.9937 36.293 38.3463L37.9341 38.7931C37.729 39.7916 37.4858 40.9274 37.2042 42.2007C36.9004 43.5745 36.4713 44.8786 35.9171 46.1134C35.3689 47.3352 34.6503 48.3632 33.763 49.2018C32.9089 50.009 31.8001 50.4216 30.4093 50.4216C29.3112 50.4216 28.347 50.1136 27.5057 49.5001C26.6594 48.8827 26.0383 48.0652 25.6416 47.0393L25.4358 46.5072L25.1141 46.9783C24.7897 47.4531 24.3639 47.8184 23.8317 48.0762C23.2931 48.3368 22.7357 48.4659 22.1563 48.4659C21.0659 48.4659 20.1587 48.0922 19.4155 47.3427C18.671 46.5919 18.3008 45.687 18.3008 44.6103C18.3008 43.6788 18.6119 42.8352 19.2461 42.0704C19.8708 41.3166 20.6503 40.9153 21.6006 40.8531L22.2125 40.813L21.8053 40.3545C21.3986 39.8967 21.0808 39.3794 20.8515 38.8012C20.6235 38.2269 20.5093 37.6252 20.5093 36.9939C20.5093 36.124 20.7269 35.3101 21.1643 34.5474ZM23.6885 46.1791C23.6947 46.1731 23.7008 46.167 23.7069 46.1609C24.1308 45.7367 24.3452 45.2139 24.3452 44.6103C24.3452 44.0069 24.1308 43.4843 23.7069 43.0601C23.6205 42.9737 23.53 42.8959 23.4355 42.8269C23.0663 42.5574 22.637 42.4214 22.1563 42.4214C21.5529 42.4214 21.0303 42.636 20.6061 43.0601C20.182 43.4842 19.9674 44.0069 19.9674 44.6103C19.9674 45.214 20.182 45.7368 20.6061 46.1609C21.0303 46.5851 21.5529 46.7996 22.1563 46.7996C22.7513 46.7996 23.2677 46.5912 23.6885 46.1791ZM38.8679 25.2113C39.008 25.184 39.1473 25.1636 39.2858 25.15C39.4223 25.1365 39.5803 25.1295 39.7608 25.1295C41.0213 25.1295 42.093 25.512 42.9914 26.273C43.7866 26.9466 44.3251 27.7672 44.611 28.7409C44.3699 28.7192 44.1139 28.7085 43.8434 28.7085C43.4883 28.7085 43.1544 28.7219 42.842 28.749C42.5924 28.2102 42.2193 27.7611 41.7264 27.4053C41.1616 26.9971 40.5044 26.7962 39.7672 26.7962C38.7962 26.7962 37.9946 27.0639 37.4002 27.6318C36.8832 28.1259 36.2056 28.8563 35.3694 29.8184H34.5954C33.7344 28.8173 33.0421 28.0747 32.5213 27.5973C31.9298 27.055 31.1595 26.7962 30.2408 26.7962C29.2533 26.7962 28.4172 27.1234 27.7559 27.7847C27.0946 28.446 26.7674 29.282 26.7674 30.2695C26.7674 30.9069 26.9389 31.5543 27.2688 32.2085C27.5945 32.8542 28.053 33.5298 28.6392 34.2349C29.2242 34.9384 29.9311 35.6837 30.7583 36.4705C31.518 37.1929 32.3631 37.9685 33.2935 38.7971L32.1039 39.9868C31.0975 39.0851 30.1765 38.2399 29.3409 37.4512C28.4529 36.6134 27.6904 35.7981 27.0521 35.0056C26.4176 34.2181 25.9344 33.436 25.5986 32.6596C25.2664 31.8918 25.1008 31.096 25.1008 30.2695C25.1008 28.8154 25.5952 27.6032 26.5848 26.6136C27.5745 25.6239 28.7867 25.1295 30.2408 25.1295C30.4172 25.1295 30.5704 25.1401 30.7007 25.1598C30.8445 25.1813 30.9888 25.2062 31.1337 25.2343L31.7054 25.3454L31.4639 24.8154C31.3612 24.5901 31.2824 24.3624 31.2271 24.1329C31.1729 23.909 31.1452 23.6716 31.1452 23.42C31.1452 22.3444 31.5182 21.4398 32.269 20.6888C33.0198 19.9375 33.9239 19.5645 34.9989 19.5645C36.0742 19.5645 36.9791 19.9376 37.7309 20.689C38.4829 21.4401 38.8563 22.3445 38.8563 23.42C38.8563 23.6753 38.8285 23.9089 38.775 24.1215C38.7199 24.3418 38.641 24.5654 38.5376 24.7925L38.2964 25.3223L38.8679 25.2113ZM39.9336 34.0452C38.6209 34.4004 37.1092 34.861 35.3989 35.4265L34.9532 33.7894C36.6887 33.2373 38.2485 32.7677 39.6331 32.3804C41.0738 31.9773 42.3876 31.7784 43.5763 31.7784C45.1436 31.7784 46.52 32.2402 47.7172 33.1632C48.886 34.0644 49.4776 35.3325 49.4776 37.0083C49.4776 37.6361 49.3657 38.2294 49.1429 38.7907C48.9181 39.357 48.6018 39.8795 48.1924 40.3589L47.8084 40.8087L48.3982 40.8529C49.3509 40.9243 50.1318 41.3269 50.7566 42.0718C51.3893 42.8258 51.7008 43.6686 51.7008 44.6103C51.7008 45.6748 51.3311 46.5776 50.5853 47.3352C49.842 48.0899 48.935 48.4659 47.8452 48.4659C47.2659 48.4659 46.7084 48.3368 46.1698 48.0762C45.6376 47.8184 45.2119 47.4531 44.8875 46.9783L44.5657 46.5072L44.36 47.0393C43.9635 48.0645 43.3379 48.8845 42.4816 49.5069C41.6313 50.1253 40.6497 50.4364 39.5254 50.4364C39.0944 50.4364 38.6683 50.3826 38.2466 50.275C37.9324 50.1946 37.6256 50.0788 37.326 49.927C37.474 49.7161 37.6208 49.4838 37.7666 49.2306C37.9207 48.9629 38.0646 48.7106 38.1982 48.4738C38.3835 48.555 38.5705 48.6177 38.7592 48.6612C39.031 48.7238 39.304 48.7553 39.5776 48.7553C40.551 48.7553 41.3847 48.4052 42.0606 47.7112C42.7334 47.0206 43.0743 46.1902 43.0743 45.2352C43.0743 44.7205 42.9732 44.1745 42.7781 43.5993C42.6012 43.0788 42.3841 42.4441 42.1269 41.6958L42.5296 41.0264C43.6543 40.8048 44.7744 40.5014 45.8899 40.1165C46.5218 39.8986 47.0109 39.5229 47.3375 38.9864C47.6609 38.4549 47.8109 37.7887 47.8109 37.0083C47.8109 35.8125 47.3743 34.8906 46.4731 34.3043C45.6221 33.7507 44.6752 33.4741 43.6402 33.4741C42.5692 33.4741 41.3324 33.6669 39.9336 34.0452ZM45.6563 44.5725C45.6563 45.1792 45.8791 45.7073 46.3134 46.142C46.7481 46.5766 47.2763 46.7996 47.883 46.7996C48.4867 46.7996 49.0051 46.5848 49.418 46.1572C49.8283 45.7323 50.0341 45.2107 50.0341 44.6103C50.0341 44.0071 49.8199 43.4801 49.399 43.0448C48.9757 42.607 48.452 42.3837 47.8452 42.3837C47.2416 42.3837 46.7187 42.5982 46.2946 43.0224C45.8707 43.4465 45.6563 43.9691 45.6563 44.5725ZM35.0008 25.6089C35.6044 25.6089 36.127 25.3946 36.551 24.9706C36.9752 24.5464 37.1897 24.0237 37.1897 23.42C37.1897 22.8165 36.9751 22.2939 36.551 21.8698C36.1271 21.4456 35.6044 21.2311 35.0008 21.2311C34.3971 21.2311 33.8745 21.4456 33.4506 21.8698C33.0264 22.2939 32.8119 22.8165 32.8119 23.42C32.8119 24.0237 33.0264 24.5464 33.4506 24.9706C33.8745 25.3946 34.3972 25.6089 35.0008 25.6089Z" fill="white"/>
</svg>
