<svg width="47" height="47" viewBox="0 0 47 47" fill="none" xmlns="http://www.w3.org/2000/svg">
<path d="M30.5 36.0192L41.5155 25.0037C41.7385 24.7807 42.002 24.6711 42.306 24.6747C42.6097 24.6787 42.8795 24.7986 43.1155 25.0342C43.3512 25.2702 43.469 25.5452 43.469 25.8592C43.469 26.1732 43.3512 26.4419 43.1155 26.6652L31.5115 38.2687C31.2222 38.5561 30.8845 38.6997 30.4985 38.6997C30.1122 38.6997 29.7755 38.5561 29.4885 38.2687L23.8575 32.6382C23.6345 32.4152 23.525 32.1466 23.529 31.8322C23.5327 31.5182 23.6525 31.2432 23.8885 31.0072C24.1245 30.7716 24.3963 30.6537 24.704 30.6537C25.0117 30.6537 25.2833 30.7716 25.519 31.0072L30.5 36.0192ZM9.3845 40.9997C8.5595 40.9997 7.8725 40.7252 7.3235 40.1762C6.7745 39.6272 6.5 38.9402 6.5 38.1152V9.88424C6.5 9.05924 6.7745 8.37223 7.3235 7.82323C7.8725 7.27423 8.5595 6.99973 9.3845 6.99973H19.4845C19.6538 6.0254 20.1135 5.21773 20.8635 4.57673C21.6135 3.93573 22.4923 3.61523 23.5 3.61523C24.514 3.61523 25.3945 3.93573 26.1415 4.57673C26.8882 5.21773 27.3462 6.0254 27.5155 6.99973H37.6155C38.4405 6.99973 39.1275 7.27423 39.6765 7.82323C40.2255 8.37223 40.5 9.05924 40.5 9.88424V18.3882C40.5 18.7096 40.3903 18.9791 40.171 19.1967C39.9517 19.4141 39.6798 19.5227 39.3555 19.5227C39.0312 19.5227 38.7627 19.4141 38.55 19.1967C38.337 18.9791 38.2305 18.7096 38.2305 18.3882V9.88424C38.2305 9.73057 38.1665 9.58957 38.0385 9.46123C37.9102 9.33323 37.7692 9.26924 37.6155 9.26924H33.9615V11.9612C33.9615 12.3699 33.824 12.7124 33.549 12.9887C33.274 13.2654 32.9333 13.4037 32.527 13.4037H14.473C14.0663 13.4037 13.7257 13.2654 13.451 12.9887C13.176 12.7124 13.0385 12.3699 13.0385 11.9612V9.26924H9.3845C9.23083 9.26924 9.08983 9.33323 8.9615 9.46123C8.8335 9.58957 8.7695 9.73057 8.7695 9.88424V38.1152C8.7695 38.2689 8.8335 38.4099 8.9615 38.5382C9.08983 38.6662 9.23083 38.7302 9.3845 38.7302H20.031C20.3523 38.7302 20.6217 38.8401 20.839 39.0597C21.0567 39.2791 21.1655 39.5507 21.1655 39.8747C21.1655 40.1991 21.0567 40.4676 20.839 40.6802C20.6217 40.8932 20.3523 40.9997 20.031 40.9997H9.3845ZM23.5035 9.49973C24.0165 9.49973 24.4455 9.32624 24.7905 8.97924C25.1352 8.6319 25.3075 8.20174 25.3075 7.68874C25.3075 7.17574 25.134 6.74673 24.787 6.40173C24.44 6.05673 24.0098 5.88423 23.4965 5.88423C22.9835 5.88423 22.5545 6.0579 22.2095 6.40523C21.8648 6.75223 21.6925 7.18223 21.6925 7.69523C21.6925 8.20857 21.866 8.63757 22.213 8.98224C22.56 9.32724 22.9902 9.49973 23.5035 9.49973Z" fill="white"/>
</svg>
