<svg width="70" height="70" viewBox="0 0 70 70" fill="none" xmlns="http://www.w3.org/2000/svg">
<g clip-path="url(#clip0_467_4178)">
<path opacity="0.5" d="M35 70C54.33 70 70 54.33 70 35C70 15.67 54.33 0 35 0C15.67 0 0 15.67 0 35C0 54.33 15.67 70 35 70Z" fill="#1D1D1D" fill-opacity="0.9"/>
<path d="M25.0244 41.907C24.2306 42.2886 23.3177 42.3393 22.4865 42.0479C21.6554 41.7565 20.974 41.1468 20.5924 40.353L17.1614 33.214C16.7801 32.4201 16.7297 31.5074 17.0213 30.6765C17.313 29.8455 17.9227 29.1645 18.7164 28.783C19.1094 28.5938 19.5358 28.4838 19.9713 28.4595C20.4068 28.4352 20.8429 28.497 21.2545 28.6413C21.6661 28.7857 22.0452 29.0097 22.3702 29.3006C22.6952 29.5916 22.9596 29.9438 23.1484 30.337L26.5794 37.475C26.7684 37.8681 26.8782 38.2946 26.9023 38.7301C26.9265 39.1656 26.8646 39.6016 26.7202 40.0132C26.5758 40.4248 26.3517 40.8039 26.0607 41.1288C25.7697 41.4538 25.4176 41.7182 25.0244 41.907Z" fill="white"/>
<path d="M23.5882 43.1079C22.7974 43.1055 22.0232 42.8812 21.3537 42.4604C20.6842 42.0396 20.1463 41.4393 19.8012 40.7279L16.3702 33.5889C16.1166 33.0902 15.9653 32.5459 15.925 31.9879C15.8847 31.4299 15.9563 30.8695 16.1355 30.3395C16.3148 29.8096 16.5981 29.3208 16.9689 28.9019C17.3397 28.4829 17.7904 28.1423 18.2946 27.8999C18.7988 27.6576 19.3464 27.5184 19.9052 27.4906C20.4639 27.4627 21.0226 27.5468 21.5484 27.7379C22.0742 27.9289 22.5566 28.2231 22.9671 28.6031C23.3777 28.9831 23.7082 29.4414 23.9392 29.9509L27.3692 37.0899C27.6764 37.7297 27.8165 38.437 27.7763 39.1457C27.7361 39.8544 27.517 40.5413 27.1394 41.1423C26.7618 41.7433 26.238 42.2388 25.617 42.5825C24.996 42.9263 24.298 43.107 23.5882 43.1079ZM20.1532 29.3259C19.787 29.3259 19.4256 29.4089 19.0962 29.5689C18.5125 29.8501 18.0642 30.3514 17.8497 30.9628C17.6353 31.5742 17.6721 32.2457 17.9522 32.8299L21.3822 39.9679C21.5831 40.3822 21.8963 40.7317 22.2861 40.9768C22.676 41.2218 23.1268 41.3525 23.5872 41.3539C24 41.3532 24.4058 41.248 24.7669 41.048C25.128 40.8481 25.4326 40.56 25.6523 40.2105C25.872 39.8611 25.9995 39.4617 26.0231 39.0496C26.0467 38.6375 25.9655 38.2261 25.7872 37.8539L22.3562 30.7149C22.1553 30.3011 21.8424 29.952 21.4529 29.7073C21.0635 29.4627 20.6131 29.3323 20.1532 29.3309V29.3259Z" fill="#555555"/>
<path d="M25.623 35.4998L31.529 18.6638C31.7685 17.9809 32.2695 17.4211 32.9217 17.1076C33.574 16.794 34.324 16.7524 35.007 16.9918C35.6899 17.2316 36.2497 17.7328 36.5633 18.3852C36.8768 19.0376 36.9184 19.7877 36.679 20.4708L32.999 30.9598L34.178 27.5998C34.2967 27.2616 34.4809 26.95 34.72 26.6828C34.9591 26.4157 35.2485 26.1983 35.5717 26.0431C35.8948 25.8878 36.2454 25.7977 36.6034 25.7779C36.9613 25.7582 37.3197 25.8091 37.658 25.9278C37.9961 26.0465 38.3076 26.2307 38.5746 26.4698C38.8416 26.7089 39.0589 26.9982 39.214 27.3213C39.3692 27.6443 39.4592 27.9947 39.4789 28.3526C39.4987 28.7104 39.4477 29.0687 39.329 29.4068L38.15 32.7668L39.076 30.1279C39.1946 29.7896 39.3787 29.478 39.6177 29.2109C39.8568 28.9438 40.1461 28.7264 40.4691 28.5712C40.7922 28.4159 41.1427 28.3258 41.5006 28.306C41.8585 28.2862 42.2168 28.3372 42.555 28.4559C42.8932 28.5745 43.2048 28.7585 43.4719 28.9975C43.739 29.2366 43.9564 29.5259 44.1116 29.849C44.2669 30.1721 44.357 30.5225 44.3768 30.8804C44.3966 31.2383 44.3457 31.5966 44.227 31.9349L43.301 34.5738L43.889 32.8978C44.0077 32.5595 44.1919 32.2479 44.431 31.9808C44.6701 31.7137 44.9595 31.4964 45.2827 31.3411C45.6058 31.1859 45.9564 31.0957 46.3144 31.076C46.6723 31.0562 47.0307 31.1071 47.369 31.2258C48.0518 31.4658 48.6113 31.9671 48.9247 32.6194C49.238 33.2718 49.2795 34.0219 49.04 34.7048L47.431 39.2928L45.091 45.9648C44.1265 48.7134 42.1098 50.9664 39.4844 52.2283C36.8589 53.4902 33.8398 53.6576 31.091 52.6938L28.785 51.8848C27.0876 51.2911 25.5622 50.2894 24.3428 48.9679C23.1234 47.6463 22.2475 46.0454 21.792 44.3058L19.959 39.2059" fill="white"/>
<path d="M34.7351 54.1979C33.3944 54.1967 32.0636 53.9684 30.7991 53.5229L28.4931 52.7139C26.6664 52.0739 25.0241 50.9963 23.7097 49.5753C22.3954 48.1542 21.449 46.433 20.9531 44.5619L19.1331 39.4949C19.0604 39.2774 19.0758 39.04 19.1759 38.8336C19.276 38.6272 19.4529 38.4681 19.6688 38.3905C19.8847 38.3129 20.1224 38.3228 20.331 38.4182C20.5396 38.5136 20.7026 38.6869 20.7851 38.9009L22.6181 44.0009C22.6271 44.0259 22.6341 44.0499 22.6411 44.0749C23.0596 45.6763 23.8652 47.1504 24.9872 48.3674C26.1091 49.5843 27.5129 50.5069 29.0751 51.0539L31.3811 51.8629C33.9097 52.7503 36.6872 52.5973 39.1031 51.4375C41.5189 50.2777 43.3753 48.206 44.2641 45.6779L48.2141 34.4179C48.2962 34.189 48.3324 33.9461 48.3206 33.7031C48.3088 33.4602 48.2493 33.222 48.1454 33.002C48.0416 32.7821 47.8954 32.5848 47.7153 32.4213C47.5351 32.2579 47.3246 32.1315 47.0956 32.0494C46.8667 31.9674 46.6238 31.9311 46.3809 31.9429C46.1379 31.9547 45.8997 32.0143 45.6797 32.1182C45.4598 32.222 45.2625 32.3682 45.099 32.5483C44.9356 32.7284 44.8092 32.939 44.7271 33.1679L44.1271 34.8679C44.0501 35.0875 43.889 35.2675 43.6792 35.3683C43.4694 35.4691 43.2282 35.4824 43.0086 35.4054C42.789 35.3284 42.609 35.1672 42.5082 34.9575C42.4074 34.7477 42.3941 34.5065 42.4711 34.2869L43.0591 32.6109L43.0711 32.5769L43.3971 31.6459C43.5597 31.1818 43.5313 30.6721 43.318 30.2289C43.1048 29.7858 42.7243 29.4455 42.2601 29.2829C41.796 29.1203 41.2863 29.1488 40.8431 29.362C40.4 29.5752 40.0597 29.9558 39.8971 30.4199L38.9711 33.0589C38.8941 33.2785 38.733 33.4585 38.5232 33.5593C38.3134 33.6601 38.0722 33.6735 37.8526 33.5964C37.633 33.5194 37.453 33.3583 37.3522 33.1485C37.2514 32.9387 37.2381 32.6975 37.3151 32.4779L38.4941 29.1179C38.6512 28.6582 38.6214 28.1552 38.4111 27.7172C38.2008 27.2793 37.8268 26.9415 37.3697 26.7767C36.9127 26.612 36.4092 26.6334 35.9678 26.8364C35.5265 27.0394 35.1825 27.4077 35.0101 27.8619L33.8211 31.2519C33.7384 31.464 33.5766 31.6357 33.3698 31.7307C33.1629 31.8258 32.9272 31.8368 32.7124 31.7615C32.4976 31.6861 32.3205 31.5302 32.2184 31.3268C32.1163 31.1233 32.0972 30.8882 32.1651 30.6709L33.3441 27.3109L33.3581 27.2699L35.8451 20.182C36.0077 19.7178 35.9793 19.2081 35.766 18.765C35.5528 18.3218 35.1723 17.9815 34.7081 17.8189C34.244 17.6563 33.7343 17.6848 33.2912 17.898C32.848 18.1112 32.5077 18.4918 32.3451 18.9559L26.4391 35.7919C26.3621 36.0115 26.201 36.1915 25.9912 36.2923C25.7814 36.3931 25.5402 36.4065 25.3206 36.3294C25.101 36.2524 24.921 36.0912 24.8202 35.8815C24.7194 35.6717 24.7061 35.4305 24.7831 35.2109L30.6891 18.3749C30.846 17.9279 31.0894 17.5162 31.4054 17.1632C31.7214 16.8102 32.1038 16.523 32.5308 16.3178C32.9578 16.1126 33.421 15.9936 33.8941 15.9674C34.3671 15.9413 34.8406 16.0085 35.2876 16.1654C35.7347 16.3223 36.1464 16.5657 36.4994 16.8817C36.8523 17.1976 37.1396 17.5801 37.3448 18.0071C37.5499 18.4341 37.669 18.8973 37.6951 19.3704C37.7213 19.8434 37.654 20.3169 37.4971 20.7639L36.0201 24.9729C36.9435 24.7822 37.9047 24.9614 38.6974 25.4719C39.49 25.9824 40.0508 26.7835 40.2591 27.7029C40.7596 27.4959 41.3002 27.404 41.841 27.4341C42.3817 27.4643 42.9088 27.6156 43.3831 27.877C43.8575 28.1384 44.267 28.5031 44.5813 28.9442C44.8957 29.3852 45.1068 29.8913 45.1991 30.4249C45.8411 30.1857 46.538 30.1343 47.2082 30.2769C47.8783 30.4195 48.4939 30.7501 48.9829 31.23C49.4719 31.7099 49.814 32.3191 49.9692 32.9865C50.1244 33.6538 50.0862 34.3515 49.8591 34.9979L45.9091 46.2579C45.094 48.5753 43.5809 50.5831 41.578 52.0053C39.5751 53.4275 37.1806 54.1942 34.7241 54.1999L34.7351 54.1979Z" fill="#555555"/>
<path d="M55.5851 20.6259H42.9911C42.7045 20.6259 42.4295 20.512 42.2268 20.3093C42.024 20.1065 41.9102 19.8316 41.9102 19.5449C41.9102 19.2582 42.024 18.9832 42.2268 18.7805C42.4295 18.5778 42.7045 18.4639 42.9911 18.4639H55.5851C55.8718 18.4639 56.1468 18.5778 56.3495 18.7805C56.5523 18.9832 56.6662 19.2582 56.6662 19.5449C56.6662 19.8316 56.5523 20.1065 56.3495 20.3093C56.1468 20.512 55.8718 20.6259 55.5851 20.6259Z" fill="#FF53A5"/>
<path d="M53.6963 24.0839C53.4826 24.0838 53.2737 24.0203 53.0961 23.9015C52.9185 23.7827 52.78 23.6139 52.6983 23.4165C52.6165 23.2191 52.5951 23.0018 52.6368 22.7922C52.6784 22.5826 52.7813 22.3901 52.9323 22.2389L55.6323 19.5389L52.9323 16.8389C52.8289 16.7392 52.7464 16.6199 52.6896 16.488C52.6328 16.356 52.6029 16.2141 52.6016 16.0704C52.6003 15.9268 52.6277 15.7843 52.6821 15.6514C52.7365 15.5184 52.8168 15.3976 52.9184 15.2961C53.02 15.1945 53.1409 15.1142 53.2739 15.0599C53.4069 15.0056 53.5493 14.9784 53.693 14.9798C53.8366 14.9812 53.9786 15.0111 54.1105 15.068C54.2424 15.1248 54.3617 15.2075 54.4613 15.311L57.9253 18.775C58.0257 18.8753 58.1053 18.9943 58.1596 19.1254C58.214 19.2565 58.2419 19.397 58.2419 19.5389C58.2419 19.6808 58.214 19.8214 58.1596 19.9524C58.1053 20.0835 58.0257 20.2026 57.9253 20.3029L54.4613 23.767C54.361 23.8677 54.2418 23.9476 54.1105 24.002C53.9792 24.0564 53.8384 24.0842 53.6963 24.0839Z" fill="#FF53A5"/>
</g>
<defs>
<clipPath id="clip0_467_4178">
<rect width="70" height="70" fill="white"/>
</clipPath>
</defs>
</svg>
