<svg width="40" height="40" viewBox="0 0 40 40" fill="none" xmlns="http://www.w3.org/2000/svg">
<path d="M12.0213 27.9338H22.7584V25.8396H12.0213V27.9338ZM12.0213 21.0471H27.9788V18.953H12.0213V21.0471ZM12.0213 14.1605H27.9788V12.0663H12.0213V14.1605ZM8.44046 34.1667C7.72407 34.1667 7.11046 33.9113 6.59962 33.4005C6.08879 32.8896 5.83337 32.276 5.83337 31.5596V8.44046C5.83337 7.72407 6.08879 7.11046 6.59962 6.59962C7.11046 6.08879 7.72407 5.83337 8.44046 5.83337H31.5596C32.276 5.83337 32.8896 6.08879 33.4005 6.59962C33.9113 7.11046 34.1667 7.72407 34.1667 8.44046V31.5596C34.1667 32.276 33.9113 32.8896 33.4005 33.4005C32.8896 33.9113 32.276 34.1667 31.5596 34.1667H8.44046ZM8.44046 32.0725H31.5596C31.688 32.0725 31.8056 32.0192 31.9125 31.9125C32.0192 31.8056 32.0725 31.688 32.0725 31.5596V8.44046C32.0725 8.31212 32.0192 8.19448 31.9125 8.08754C31.8056 7.98087 31.688 7.92754 31.5596 7.92754H8.44046C8.31212 7.92754 8.19449 7.98087 8.08754 8.08754C7.98087 8.19448 7.92754 8.31212 7.92754 8.44046V31.5596C7.92754 31.688 7.98087 31.8056 8.08754 31.9125C8.19449 32.0192 8.31212 32.0725 8.44046 32.0725Z" fill="#8E8E8E"/>
</svg>
