<svg width="467" height="107" viewBox="0 0 467 107" fill="none" xmlns="http://www.w3.org/2000/svg">
<path d="M437.38 33.6985C436.767 26.642 431.856 22.6097 421.88 22.6097C412.211 22.6097 407.914 26.0659 407.761 30.9623C407.607 36.2907 412.825 39.3149 423.108 41.3311L432.316 43.3472C456.257 48.0996 466.847 59.0444 467 75.0296C466.847 95.4791 450.118 107 422.033 107C393.335 107 374.765 95.1911 374.458 69.5572L402.389 69.5572C402.85 79.2059 410.063 84.3903 421.573 84.3903C431.549 84.3903 436.92 80.502 437.073 75.0296C436.92 69.9892 432.469 67.109 420.038 64.5168L408.835 62.2126C389.345 58.1803 377.374 49.1077 377.374 32.9785C377.22 13.249 395.79 -4.07577e-07 421.88 -9.06052e-07C448.584 -1.41626e-06 465.312 13.393 465.465 33.6985L437.38 33.6985Z" fill="white" fill-opacity="0.04"/>
<path d="M269.953 23.6191L269.953 1.44141L365.718 1.4414L365.718 23.6191L332.261 23.6191L332.261 105.705L303.409 105.705L303.409 23.6191L269.953 23.6191Z" fill="white" fill-opacity="0.04"/>
<path d="M258.14 1.44141L258.14 105.705L228.981 105.705L228.981 1.44141L258.14 1.44141Z" fill="white" fill-opacity="0.04"/>
<path d="M135.98 105.705L104.366 105.705L141.352 1.44141L181.1 1.4414L217.933 105.705L186.472 105.705L179.873 85.2557L142.58 85.2557L135.98 105.705ZM149.332 64.5181L173.12 64.5181L161.61 29.5235L160.689 29.5235L149.332 64.5181Z" fill="white" fill-opacity="0.04"/>
<path d="M-3.34667e-07 105.705L0 1.44141L29.1592 1.44141L29.1592 44.0686L30.6939 44.0686L65.071 1.44141L99.2946 1.4414L61.2343 47.9569L100.062 105.705L65.071 105.705L39.4416 66.1023L29.1592 78.4872L29.1592 105.705L-3.34667e-07 105.705Z" fill="white" fill-opacity="0.04"/>
</svg>
