<svg width="240" height="63" viewBox="0 0 240 63" fill="none" xmlns="http://www.w3.org/2000/svg">
<g clip-path="url(#clip0_1_201380)">
<path d="M71.9219 21.9583L71.9503 21.9759L71.9633 21.9935L71.9219 21.9583Z" fill="#8E8E8E"/>
<path d="M73.6172 23.0994L73.6402 23.1069L73.6683 23.122L73.6172 23.0994Z" fill="#8E8E8E"/>
<path fill-rule="evenodd" clip-rule="evenodd" d="M20.9663 24.7823L17.7578 27.7198L14.4062 25.4953L17.6172 22.5603L20.9663 24.7823Z" fill="#8E8E8E"/>
<path fill-rule="evenodd" clip-rule="evenodd" d="M16.9573 36.2425L20.0481 39.4017L16.5457 44.3446L0 33.3604L10.8422 18.0632L17.1644 22.2604L13.9509 25.1954L11.9594 23.8753L6.00524 32.2696L15.3595 38.4746L16.9573 36.2425Z" fill="#8E8E8E"/>
<path fill-rule="evenodd" clip-rule="evenodd" d="M22.6587 35.7237L20.3578 38.966L17.3207 35.8572L17.2695 35.8068V35.8043L19.5806 32.572L19.6215 32.6123L22.6587 35.7237Z" fill="#8E8E8E"/>
<path fill-rule="evenodd" clip-rule="evenodd" d="M26.1739 30.7631L26.1841 30.7707L24.2769 33.4386L22.9757 35.2752L19.9385 32.1664L19.936 32.1689L19.9002 32.1286L21.3472 30.1031L18.2129 28.0221L21.4239 25.0872L27.3882 29.0475L26.1739 30.7631Z" fill="#8E8E8E"/>
<path fill-rule="evenodd" clip-rule="evenodd" d="M34.393 25.8228L34.3828 31.9976L37.5733 29.0777L34.393 25.8228ZM17.7578 27.7198L20.9663 24.7823L24.438 21.6054C24.5556 21.5072 24.732 21.5072 24.8317 21.618L28.5182 25.3945L33.984 25.4046L24.7959 16L17.6172 22.5603L14.4037 25.4952L10.5996 28.9719L17.2695 35.8017L17.3207 35.8521L20.3578 38.9634L23.3796 42.0571L28.3776 37.4846L28.3878 32.1915L23.7401 36.4366C23.6225 36.5474 23.4614 36.5348 23.3566 36.4366L22.6561 35.7186L19.619 32.6098L19.5781 32.5694L16.4054 29.3195C16.293 29.2112 16.3057 29.05 16.4054 28.9517L17.7553 27.7173L17.7578 27.7198Z" fill="#8E8E8E"/>
<path d="M58.8592 35.565L58.8437 35.5398L58.8359 35.5247L58.8592 35.565Z" fill="#8E8E8E"/>
<path d="M87.4376 26.5609C87.4427 26.6843 87.3763 26.8657 87.2433 27.0899C86.9723 27.0068 86.6988 26.9715 86.4303 26.9791C85.8705 26.9967 85.4001 27.1856 85.0294 27.5383C84.582 27.9465 84.3775 28.5108 84.4056 29.2313C84.4209 29.6823 84.6817 30.2592 85.1956 30.9495C85.9702 31.9774 86.4534 32.6752 86.6349 33.0355C87.1615 34.018 87.4427 35.0685 87.4836 36.2073C87.5066 36.8698 87.4376 37.5778 87.2714 38.3336C87.0797 39.1649 86.8241 39.7721 86.507 40.1575C85.8296 41.0216 85.0217 41.7598 84.0963 42.3594C83.0967 42.9968 82.1635 43.3293 81.3045 43.3621C81.1154 43.3671 80.6578 42.6743 79.9419 41.2786C79.2261 39.8854 78.8656 39.0339 78.8477 38.719C78.8452 38.6006 78.8963 38.5275 79.0037 38.4973C79.6607 38.3058 80.3305 38.1093 81.008 37.9179C81.8337 37.5223 82.2351 36.9026 82.2044 36.0712C82.184 35.4943 81.9156 34.8342 81.3991 34.0986C80.4839 32.8087 79.9982 32.121 79.9573 32.0429C79.4332 31.1258 79.1545 30.1383 79.1187 29.0978C79.0446 27.1327 79.717 25.4448 81.1179 24.0264C82.3783 22.7643 83.7486 22.1067 85.2314 22.0589C85.3822 22.0538 85.7887 22.7466 86.4406 24.1272C87.095 25.5103 87.4248 26.324 87.4351 26.5583" fill="#8E8E8E"/>
<path d="M59.8659 40.0996L59.8531 46.6674L55.1543 46.6574L55.167 40.7647V40.0517L55.144 39.3791L55.0801 38.777V38.7417L54.9523 38.263C54.9446 38.2379 54.9446 38.2253 54.9446 38.2127L54.7759 37.8348C54.7657 37.8096 54.7529 37.7995 54.7375 37.7718L54.3081 37.21C54.2825 37.1848 54.2697 37.1722 54.2441 37.1495L53.674 36.7313C53.651 36.7162 53.6382 36.7061 53.6101 36.6935L52.9403 36.4214C52.9148 36.4088 52.8892 36.4088 52.8508 36.4088L52.1171 36.3232C52.1018 36.3081 52.0788 36.3081 52.0532 36.3232L51.4831 36.371C51.4703 36.371 51.4473 36.371 51.4218 36.3836L50.8874 36.5398C50.8747 36.5398 50.8619 36.5524 50.8363 36.5524L50.3557 36.7968C50.3557 36.7968 50.3173 36.8195 50.3071 36.8321L49.8623 37.1873C49.8469 37.1999 49.8367 37.2125 49.8214 37.2251L49.4558 37.666C49.443 37.6912 49.4302 37.7038 49.4175 37.729L49.1644 38.2051C49.149 38.2177 49.149 38.2303 49.1388 38.2555L48.9726 38.782V38.8299L48.9189 39.3917C48.9062 39.4169 48.9062 39.427 48.9189 39.4547L48.9701 40.0014C48.9701 40.019 48.9701 40.0417 48.9828 40.0669L49.1465 40.5833C49.1465 40.5959 49.1618 40.6186 49.1618 40.6312L49.4277 41.0973C49.4405 41.1124 49.4532 41.135 49.4635 41.1476L49.8291 41.5608C49.8393 41.5784 49.8546 41.5885 49.8648 41.6011L50.3071 41.9412C50.3352 41.9538 50.3455 41.9664 50.3582 41.979L50.8517 42.2385C50.8772 42.2385 50.8874 42.2511 50.9156 42.2587L51.4703 42.4098H51.5215L52.1171 42.4602C52.1427 42.4703 52.1683 42.4602 52.181 42.4602L52.994 42.3745C53.0196 42.3745 53.0324 42.3745 53.0426 42.3645L53.5871 42.2083L53.5794 46.8287L52.948 46.932L52.1734 46.9798L51.1073 46.9168L50.0949 46.7178L49.1081 46.3979L48.1724 45.9545L47.2853 45.4002L46.526 44.7628L45.8562 44.0398L45.2887 43.216L44.8362 42.3317L44.509 41.3996L44.3172 40.4221L44.2559 39.4018L44.3223 38.3865L44.5294 37.409L44.8592 36.4769L45.3322 35.5699L45.9048 34.7537L46.5746 34.0029L47.3211 33.3554L48.1596 32.8062L49.0595 32.3805L50.0233 32.063L51.0127 31.8691H50.9744L52.0634 31.8086L53.1269 31.8716L54.1419 32.0681L55.1031 32.3754L56.0158 32.8188L56.8467 33.3605L57.6085 33.9979L58.2783 34.7234L58.8407 35.5346L59.3009 36.4416L59.6281 37.3611L59.8173 38.3185L59.8787 39.3237L59.8659 40.0946V40.0996Z" fill="#8E8E8E"/>
<path d="M62.4424 29.4129L62.3555 28.8082L62.4424 28.1356L62.698 27.5209L63.1071 26.9918L63.6082 26.5912L64.2422 26.3368L64.866 26.2537L65.5639 26.3444L66.2005 26.619L66.1391 26.5938L66.7271 27.0321L67.0952 27.4856L67.3432 28.1305L67.4199 28.7578L67.3432 29.3549L67.0671 29.9772L66.6657 30.481L66.1596 30.8413L65.5102 31.1109L64.8966 31.1814L64.2677 31.1084L63.6158 30.8363L63.0687 30.4382L63.1173 30.4962L63.0662 30.4357L62.698 29.9747L62.4424 29.4129Z" fill="#8E8E8E"/>
<path d="M62.5352 32.2753L62.5068 46.8545L67.1955 46.8634L67.2239 32.2842L62.5352 32.2753Z" fill="#8E8E8E"/>
<path d="M77.4777 42.4931L77.4675 46.9674L77.1531 47.0001H76.7312L75.6192 46.9245H75.6652L74.5914 46.6877L74.6272 46.7028L73.6353 46.3274L72.7303 45.8034L71.9455 45.1963L71.2245 44.4052L71.2629 44.4405L70.772 43.6923L70.409 42.9818L70.4192 43.0196L70.1636 42.2437L70.0178 41.3644L69.9156 40.2459L69.8926 38.9005V38.4496L69.913 27.604L74.5863 27.6141L74.5787 31.7911C74.5787 31.9649 74.7167 32.0884 74.8829 32.0884L77.4931 32.0934L77.4828 36.6256L74.8752 36.6206C74.7116 36.6206 74.571 36.7516 74.571 36.9128L74.5659 39.3389V40.0368L74.6119 40.5885L74.7014 41.0923C74.7014 41.1175 74.7142 41.1276 74.7142 41.1553L74.8752 41.5357C74.8752 41.5357 74.9059 41.5685 74.9136 41.5811L75.1283 41.8884C75.1385 41.9237 75.1769 41.9489 75.2152 41.9741L75.8595 42.3671C75.8953 42.3923 75.9336 42.4049 75.9745 42.4049L76.9255 42.5409H77.1019L77.2681 42.5157L77.4701 42.4931H77.4777Z" fill="#8E8E8E"/>
<path d="M42.6737 43.8559L42.6686 46.3802L37.9825 46.3701L37.9876 44.5059V43.8937L37.9902 43.2336L37.939 42.4577L37.8036 41.7246C37.8036 41.712 37.7882 41.6893 37.7882 41.6767L37.5479 41.0645C37.5351 41.0519 37.5351 41.0267 37.5223 41.0166L37.1823 40.4649C37.167 40.4523 37.1568 40.4397 37.1414 40.417L36.5509 39.7771C36.5381 39.7645 36.5253 39.7545 36.4972 39.7393L35.8657 39.3111C35.8376 39.2959 35.8146 39.2859 35.789 39.2758L35.0272 39.0138C35.0144 39.0012 34.9888 39.0012 34.9658 39.0012L34.0532 38.9155C33.9637 38.9029 33.8768 38.9256 33.8128 38.9886C33.7489 39.039 33.7106 39.1221 33.7106 39.1952L33.6978 46.3651L29.0117 46.355L29.0475 26.0369L33.7336 26.0469L33.7157 35.0383C33.7157 35.124 33.754 35.2147 33.818 35.2625C33.8819 35.3205 33.9688 35.3482 34.0583 35.3381L34.8406 35.2651H34.8917L35.5641 35.0812C35.5896 35.0686 35.6024 35.0686 35.6152 35.056L36.1827 34.7763C36.2083 34.7637 36.2339 34.7511 36.2466 34.741L36.717 34.348C36.7426 34.3203 36.7554 34.3128 36.7682 34.2851L37.1363 33.7837C37.1363 33.7837 37.1644 33.7459 37.1747 33.7333L37.4431 33.1337C37.4431 33.1211 37.4559 33.0985 37.4559 33.0859L37.622 32.3754V32.325L37.6578 31.7733L42.3567 31.7834L42.3107 32.2847L42.1445 33.0204L41.9016 33.693L41.5718 34.3052L41.1679 34.867L40.6592 35.3935L40.0482 35.8949L39.34 36.3736C39.2531 36.4214 39.2096 36.5071 39.1994 36.6053C39.1994 36.7036 39.2531 36.7892 39.3272 36.8497L40.4368 37.6357L40.401 37.6005L41.2625 38.4369L41.9272 39.4269L42.3414 40.4926L42.5919 41.7447L42.6814 43.2059L42.6635 43.8534L42.6737 43.8559Z" fill="#8E8E8E"/>
<path d="M100.251 30.5792V32.4385H92.2061V30.5792H95.1179V29.1533H97.4264V30.5792H100.249H100.251ZM92.5998 36.0008C92.5998 35.0863 92.9474 34.3431 93.5815 33.8317C94.2308 33.29 95.1665 32.9953 96.2377 32.9953C97.3088 32.9953 98.2599 33.29 98.9092 33.8317C99.5432 34.3431 99.8909 35.0863 99.8909 36.0008C99.8909 36.9153 99.5432 37.6585 98.9092 38.1699C98.2599 38.6964 97.3242 39.0063 96.2377 39.0063C95.1512 39.0063 94.2308 38.6964 93.5815 38.1699C92.9474 37.6585 92.5998 36.9153 92.5998 36.0008ZM93.3846 39.5177H95.6931V41.9816H104.055V43.9492H93.3846V39.5177ZM94.7881 36.0008C94.7881 36.3258 94.9236 36.6054 95.1358 36.807C95.3915 37.0538 95.7852 37.1949 96.2377 37.1949C96.6902 37.1949 97.0992 37.0564 97.3549 36.807C97.5671 36.6054 97.7025 36.3258 97.7025 36.0008C97.7025 35.6758 97.5671 35.381 97.3549 35.1795C97.0992 34.9326 96.6902 34.8066 96.2377 34.8066C95.7852 34.8066 95.3915 34.9301 95.1358 35.1795C94.9236 35.381 94.7881 35.6607 94.7881 36.0008ZM101.535 29.5715H103.828V33.4286H105.745V35.4591H103.828V40.0443H101.535V29.5715Z" fill="#8E8E8E"/>
<path d="M112.627 37.2403H107.48V35.2728H120.069V37.2403H114.907V39.0694H119.21V44.1029H116.917V41.0193H108.253V39.0668H112.629V37.2378L112.627 37.2403ZM116.911 32.4537V31.7105H108.247V29.7278H119.205V32.3151C119.205 33.1515 119.128 34.003 118.949 34.6379H116.715C116.865 34.003 116.911 33.2271 116.911 32.4537Z" fill="#8E8E8E"/>
<path d="M125.212 29.6496H127.506V31.912C127.506 34.4212 128.592 35.5372 130.343 36.0487V38.0943C128.697 37.8323 127.189 36.9934 126.373 35.9403C125.603 37.0413 124.08 37.9381 122.372 38.248V36.2351C124.197 35.6632 125.21 34.3456 125.21 31.912V29.6496H125.212ZM123.566 38.835H125.874V41.9791H134.237V43.9467H123.566V38.835ZM131.716 29.5715H134.009V33.2422H135.927V35.2727H134.009V39.6109H131.716V29.5715Z" fill="#8E8E8E"/>
<path d="M137.903 33.2749C137.903 31.9421 138.387 30.9042 139.171 30.2844C139.821 29.7428 140.667 29.4783 141.646 29.4783C142.625 29.4783 143.487 29.7428 144.136 30.2844C144.724 30.748 145.118 31.4307 145.299 32.2974H147.171V29.5715H149.464V37.1924H147.171V34.2801H145.299C145.118 35.1316 144.711 35.8143 144.136 36.2779C143.487 36.8044 142.643 37.0689 141.646 37.0689C140.649 37.0689 139.821 36.8044 139.171 36.2779C138.387 35.643 137.903 34.6202 137.903 33.2723V33.2749ZM141.178 39.0995H147.186V37.6887H149.464V44.0247H138.882V37.6887H141.176V39.0995H141.178ZM140.122 33.2749C140.122 33.9248 140.304 34.4211 140.652 34.7461C140.907 34.993 141.24 35.119 141.649 35.119C142.058 35.119 142.403 34.9955 142.661 34.7461C143.009 34.4211 143.19 33.9248 143.19 33.2749C143.19 32.6249 143.009 32.1437 142.661 31.8187C142.405 31.5718 142.058 31.4307 141.649 31.4307C141.24 31.4307 140.91 31.5693 140.652 31.8187C140.304 32.1437 140.122 32.64 140.122 33.2749ZM147.186 42.1201V41.0368H141.178V42.1201H147.186Z" fill="#8E8E8E"/>
<path d="M157.915 33.0582V31.8036H153.268V29.8209H160.196V32.7786C160.196 38.4647 158.158 41.9186 153.193 43.1279V40.9739C156.514 39.9813 157.918 37.2882 157.918 33.0582H157.915ZM162.246 29.5715H164.539V43.8711H162.246V29.5715Z" fill="#8E8E8E"/>
<path d="M180.433 36.7289H175.272V37.52H179.574V41.6718H170.987V42.2764H179.876V44.0273H168.691V39.9234H177.294V39.2885H168.691V37.5225H172.994V36.7314H167.848V34.8722H180.436V36.7314L180.433 36.7289ZM174.124 32.562C173.007 33.6453 170.834 34.3582 168.239 34.4993V32.6401C171 32.4083 172.979 31.4938 172.979 29.8059V29.6497H175.272V29.8059C175.272 31.4938 177.22 32.4083 179.981 32.6401V34.4993C177.414 34.3608 175.241 33.6327 174.124 32.562Z" fill="#8E8E8E"/>
<path d="M186.001 29.8208V32.4081H192.462V29.8208H194.755V38.6358H190.393V41.2836H195.45V43.2814H183.013V41.2836H188.1V38.6358H183.693V29.8208H186.001ZM186.001 36.6355H192.462V34.4034H186.001V36.6355Z" fill="#8E8E8E"/>
<path d="M198.784 36.4971C198.784 35.5372 199.205 34.8091 199.947 34.2977C200.944 33.5999 202.513 33.2749 204.323 33.2749C206.134 33.2749 207.703 33.5999 208.7 34.2977C209.439 34.8091 209.863 35.5372 209.863 36.4971C209.863 37.4569 209.442 38.185 208.7 38.6964C207.931 39.2381 206.798 39.563 205.484 39.6714V41.2812H210.541V43.279H198.104V41.2812H203.191V39.6714C201.862 39.563 200.732 39.2381 199.947 38.6964C199.208 38.185 198.784 37.4569 198.784 36.4971ZM205.469 30.7178H210.163V32.6854H198.479V30.7178H203.142V29.0752H205.466V30.7178H205.469ZM201.077 36.4971C201.077 36.7918 201.228 37.0387 201.483 37.2251C202.028 37.6131 203.068 37.7668 204.321 37.7668C205.574 37.7668 206.614 37.6106 207.159 37.2251C207.414 37.0387 207.565 36.7918 207.565 36.4971C207.565 36.2023 207.414 35.9554 207.159 35.769C206.614 35.381 205.574 35.2273 204.321 35.2273C203.068 35.2273 202.028 35.3835 201.483 35.769C201.228 35.9554 201.077 36.2023 201.077 36.4971Z" fill="#8E8E8E"/>
<path d="M220.969 30.3928V32.2218H213.105V30.3928H215.989V29.1533H218.282V30.3928H220.969ZM213.468 35.1493C213.468 34.3582 213.816 33.7233 214.389 33.29C215.038 32.8088 215.989 32.5468 217.106 32.5468C218.224 32.5468 219.175 32.8113 219.824 33.29C220.397 33.7233 220.744 34.3582 220.744 35.1493C220.744 35.9403 220.397 36.5752 219.824 37.0085C219.175 37.4897 218.224 37.7517 217.106 37.7517C215.989 37.7517 215.038 37.4872 214.389 37.0085C213.816 36.5752 213.468 35.9554 213.468 35.1493ZM216.636 39.3943H222.644V38.2933H224.922V44.0248H214.34V38.2933H216.633V39.3943H216.636ZM215.67 35.1493C215.67 35.381 215.774 35.5675 215.956 35.706C216.212 35.8925 216.621 36.0008 217.104 36.0008C217.587 36.0008 217.994 35.8925 218.252 35.706C218.433 35.5675 218.538 35.381 218.538 35.1493C218.538 34.9175 218.433 34.7462 218.252 34.6076C217.996 34.4061 217.587 34.3128 217.104 34.3128C216.621 34.3128 216.214 34.4061 215.956 34.6076C215.774 34.7462 215.67 34.9175 215.67 35.1493ZM222.644 42.1806V41.2661H216.636V42.1806H222.644ZM224.924 29.5715V37.8298H222.631V36.8372H220.941V34.9779H222.631V34.2196H220.941V32.3453H222.631V29.5715H224.924Z" fill="#8E8E8E"/>
<path d="M228.935 36.5273C228.935 35.4894 229.357 34.6227 230.068 34.0483C230.717 33.5067 231.576 33.2119 232.589 33.2119C233.601 33.2119 234.46 33.5067 235.109 34.0483C235.817 34.6227 236.227 35.4894 236.227 36.5273C236.227 37.5653 235.82 38.4319 235.109 39.0214C234.718 39.3313 234.263 39.5631 233.736 39.7016V41.1427H235.352C236.485 41.1427 237.254 40.9562 237.707 40.538V29.569H240V43.8686H237.707V42.4275C237.239 42.876 236.303 43.1254 234.989 43.1254H228.332V41.1427H231.456V39.7016C230.927 39.5631 230.459 39.3288 230.068 39.0214C229.36 38.4319 228.935 37.5804 228.935 36.5273ZM231.413 30.7808V29.1533H233.721V30.7808H236.559V32.7332H228.575V30.7808H231.413ZM231.185 36.5273C231.185 36.9455 231.321 37.3007 231.576 37.5502C231.817 37.8122 232.18 37.9381 232.589 37.9381C232.998 37.9381 233.343 37.8147 233.586 37.5502C233.841 37.3033 233.992 36.9455 233.992 36.5273C233.992 36.1091 233.841 35.7539 233.586 35.5045C233.345 35.2576 232.982 35.1165 232.589 35.1165C232.195 35.1165 231.819 35.2551 231.576 35.5045C231.321 35.7514 231.185 36.1091 231.185 36.5273Z" fill="#8E8E8E"/>
</g>
<defs>
<clipPath id="clip0_1_201380">
<rect width="240" height="31" fill="white" transform="translate(0 16)"/>
</clipPath>
</defs>
</svg>
