<svg width="161" height="44" viewBox="0 0 161 44" fill="none" xmlns="http://www.w3.org/2000/svg">
<g opacity="0.8" clip-path="url(#clip0_366_2361)">
<g clip-path="url(#clip1_366_2361)">
<path d="M21.1581 44.0021C9.49227 44.0021 0 34.4629 0 22.7354C0 17.5053 1.8304 12.5215 5.1568 8.69939C8.45387 4.90952 13.0739 2.42206 18.1603 1.69459L18.2688 2.46606C8.13707 3.91219 0.777333 12.4394 0.777333 22.7354C0.777333 34.0317 9.92053 43.2247 21.1581 43.2247C32.3957 43.2247 41.5419 34.0346 41.5419 22.7354C41.5419 12.4687 34.1704 3.94152 24.0152 2.45726L24.1267 1.68579C34.6691 3.22579 42.3192 12.0786 42.3192 22.7354C42.3192 34.4629 32.8269 44.0021 21.1581 44.0021Z" fill="#8E8E8E"/>
<path d="M24.9069 31.506C24.8952 31.4854 23.6221 29.4556 21.1053 29.4556C18.5885 29.4556 17.0368 31.3564 17.0221 31.374L16.673 31.0982C16.7405 31.0132 18.348 29.0097 21.1082 29.0097C23.8685 29.0097 25.2354 31.1833 25.2912 31.2742L24.9098 31.506H24.9069ZM28.9285 28.162C20.1666 23.0844 13.3144 28.0945 13.2469 28.1473L12.98 27.7894C13.0504 27.7366 20.1402 22.5476 29.1514 27.7748L28.9285 28.162Z" fill="#8E8E8E"/>
<path d="M21.1053 37.572C12.9682 37.572 6.35065 30.9661 6.35065 22.8467H6.68505C6.68505 30.7813 13.153 37.2376 21.1053 37.2376C29.0576 37.2376 35.5285 30.7813 35.5285 22.8467H35.8629C35.8629 30.9661 29.2424 37.572 21.1053 37.572Z" fill="#8E8E8E"/>
<path d="M21.1112 32.4827C15.7813 32.4827 11.4429 28.1589 11.4429 22.8437C11.4429 17.5285 15.7813 13.2195 21.1112 13.2195C26.4411 13.2195 30.7824 17.5373 30.7824 22.8437C30.7824 28.1501 26.444 32.4827 21.1112 32.4827ZM21.1112 13.6683C16.0248 13.6683 11.8888 17.7867 11.8888 22.8467C11.8888 27.9067 16.0248 32.0397 21.1112 32.0397C26.1976 32.0397 30.3365 27.9155 30.3365 22.8467C30.3365 17.7779 26.1976 13.6683 21.1112 13.6683Z" fill="#8E8E8E"/>
<path d="M21.381 2.36621H20.9352V35.6126H21.381V2.36621Z" fill="#8E8E8E"/>
<path d="M24.2067 2.0379L13.1984 17.2957L13.5599 17.5565L24.5682 2.29877L24.2067 2.0379Z" fill="#8E8E8E"/>
<path d="M18.0534 2.01974L17.691 2.27954L28.8557 17.8512L29.2181 17.5914L18.0534 2.01974Z" fill="#8E8E8E"/>
<path d="M20.9645 32.43C17.9667 29.8839 16.3944 26.9828 16.2917 23.806C16.104 18.0479 20.9059 13.3311 20.9528 13.2842L21.2637 13.6039C21.2168 13.6508 16.5557 18.2356 16.7376 23.7943C16.8373 26.8362 18.3568 29.6287 21.252 32.0898L20.9645 32.43Z" fill="#8E8E8E"/>
<path d="M21.4896 32.43L21.2022 32.0898C24.0974 29.6287 25.6168 26.8362 25.7166 23.7943C25.8984 18.2356 21.2374 13.6479 21.1904 13.6039L21.5014 13.2842C21.5512 13.3311 26.3502 18.0479 26.1624 23.806C26.0598 26.9799 24.4875 29.881 21.4896 32.43Z" fill="#8E8E8E"/>
<path d="M31.9 22.6238H9.93811V23.0696H31.9V22.6238Z" fill="#8E8E8E"/>
<path d="M21.1053 16.6867C18.348 16.6867 16.7376 14.692 16.6701 14.607L17.0192 14.3312C17.0338 14.3488 18.565 16.2438 21.1024 16.2438C23.6397 16.2438 24.8922 14.2168 24.904 14.1963L25.2853 14.428C25.2296 14.5219 23.8773 16.6896 21.1024 16.6896L21.1053 16.6867Z" fill="#8E8E8E"/>
<path d="M20.9469 20.2507C16.1832 20.2507 13.0269 17.9422 12.98 17.907L13.2469 17.5491C13.3144 17.599 20.1784 22.6062 28.9285 17.5344L29.1514 17.9216C26.1389 19.6699 23.3376 20.2507 20.944 20.2507H20.9469Z" fill="#8E8E8E"/>
<path d="M24.596 2.16675H24.1501V0.44782H18.1426V2.09635H17.6968V0.00195312H24.596V2.16675Z" fill="#8E8E8E"/>
<path d="M9.68297 26.3433C9.73283 26.4255 9.7915 26.5487 9.85017 26.7071C9.91177 26.8713 9.94403 27.0033 9.95577 27.1119C9.9675 27.2585 9.92937 27.3465 9.8443 27.3817C9.76217 27.4081 9.67417 27.3641 9.57443 27.2409C9.49523 27.1383 9.42777 27.0151 9.3691 26.8596C9.31043 26.6983 9.2723 26.5575 9.2635 26.4372C9.2547 26.2817 9.29283 26.1908 9.37497 26.1585C9.4747 26.1233 9.57443 26.1849 9.68003 26.3433H9.68297ZM9.76803 26.0001C9.60083 25.8329 9.4307 25.7889 9.25763 25.8535C9.08163 25.918 8.98777 26.0676 8.97603 26.3023C8.96723 26.49 9.00537 26.7012 9.0963 26.9417C9.1931 27.1881 9.30163 27.3788 9.43363 27.5108C9.5979 27.6809 9.77097 27.7249 9.9499 27.6604C10.1318 27.59 10.2286 27.4433 10.2403 27.2116C10.252 27.0297 10.208 26.8185 10.12 26.5751L10.1112 26.5516C10.0232 26.314 9.90884 26.1292 9.77097 25.9943L9.76803 26.0001ZM10.912 26.754C10.9296 26.8039 10.959 26.8391 10.9942 26.8567C11.0323 26.8684 11.0704 26.8713 11.1056 26.8596C11.1408 26.8479 11.1672 26.8215 11.1819 26.7833C11.1966 26.7481 11.1936 26.7041 11.179 26.6572L10.8504 25.7919C10.8358 25.7508 10.8123 25.7215 10.7742 25.7097C10.736 25.6921 10.7038 25.6892 10.6686 25.7097C10.6363 25.7215 10.6099 25.7479 10.5923 25.786C10.5747 25.8153 10.5747 25.8593 10.5923 25.9063L10.912 26.7569V26.754ZM10.5776 27.3729C10.5923 27.4228 10.6216 27.4521 10.6598 27.4697C10.7008 27.4844 10.736 27.4873 10.7683 27.4756C10.8094 27.458 10.8328 27.4345 10.8504 27.3964C10.8651 27.3612 10.8651 27.3201 10.8446 27.2732L10.1875 25.522C10.1699 25.478 10.1406 25.4457 10.1054 25.434C10.0672 25.4193 10.035 25.4164 9.99684 25.434C9.96164 25.4457 9.9323 25.4692 9.91764 25.5103C9.90004 25.5513 9.90004 25.5895 9.91764 25.6393L10.5747 27.3729H10.5776ZM8.7883 26.3052C8.8059 26.2641 8.8059 26.2231 8.7883 26.1791C8.77363 26.1351 8.7443 26.1028 8.70617 26.0823C8.66803 26.0617 8.62697 26.0617 8.5771 26.0764L8.14883 26.2407C7.9699 26.3081 7.92003 26.4343 7.9875 26.622L8.80883 28.8073C8.82643 28.8513 8.85577 28.8836 8.89097 28.8924C8.92617 28.91 8.9643 28.91 8.9995 28.8924C9.04057 28.8836 9.06697 28.8601 9.08163 28.822C9.09923 28.7927 9.09923 28.7487 9.08163 28.7047L8.31017 26.6601C8.29257 26.6073 8.28377 26.578 8.29257 26.5663C8.29843 26.5516 8.32483 26.5369 8.36883 26.5223L8.69737 26.3991C8.74723 26.3815 8.77657 26.3492 8.79123 26.3081L8.7883 26.3052ZM11.6072 27.81C11.6219 27.766 11.6219 27.7249 11.6072 27.6839C11.5896 27.6399 11.5662 27.6135 11.528 27.5871C11.4928 27.5724 11.4518 27.5695 11.4048 27.5841L9.49523 28.3087C9.4483 28.3263 9.41603 28.3556 9.39843 28.3996C9.38377 28.4407 9.38377 28.4817 9.40137 28.5257C9.41603 28.5639 9.44244 28.5991 9.47764 28.6167C9.5187 28.6401 9.55683 28.6401 9.6067 28.6225L10.3254 28.3497L10.3928 28.5316C10.4104 28.5844 10.4368 28.6167 10.475 28.6313C10.5131 28.646 10.5512 28.646 10.5894 28.6313C10.6216 28.6196 10.648 28.5961 10.6656 28.5639C10.6832 28.5287 10.6832 28.4847 10.6656 28.4377L10.5923 28.25L11.5075 27.9039C11.5574 27.8892 11.5867 27.854 11.6014 27.8129" fill="#8E8E8E"/>
<path d="M12.235 33.1926L12.4608 32.9667C12.496 32.9345 12.5078 32.911 12.5019 32.8934C12.5019 32.8787 12.4784 32.8523 12.4462 32.8142L10.9267 31.2742C10.8915 31.239 10.8739 31.2038 10.8739 31.1598C10.8739 31.1158 10.8915 31.0835 10.9179 31.0542C10.9502 31.0219 10.9824 31.0131 11.0206 31.0131C11.0587 31.0131 11.0968 31.0278 11.135 31.0689L12.7835 32.7409C12.8568 32.8113 12.8979 32.8729 12.9096 32.9227C12.9214 32.9638 12.9008 33.0137 12.851 33.0547L12.496 33.4067C12.455 33.4507 12.4139 33.4683 12.364 33.4595C12.32 33.4566 12.2819 33.439 12.2467 33.4038C12.2144 33.3745 12.1998 33.3393 12.191 33.2982C12.191 33.2542 12.2027 33.219 12.235 33.1867V33.1926ZM14.0272 31.4443C14.0566 31.415 14.0712 31.3945 14.0683 31.3798C14.0683 31.3651 14.0507 31.3446 14.0243 31.3153L12.4755 29.743C12.4432 29.7078 12.4256 29.6726 12.4256 29.6286C12.4256 29.5875 12.4432 29.5582 12.4726 29.5289C12.499 29.4995 12.5342 29.4878 12.5723 29.4878C12.6104 29.4878 12.6486 29.5025 12.6838 29.5377L14.3382 31.2155C14.4056 31.2889 14.4379 31.3505 14.435 31.4062C14.435 31.4619 14.4027 31.5235 14.3411 31.5822L13.8278 31.9929C13.7808 32.0222 13.7368 32.0398 13.6958 32.0369C13.6547 32.0339 13.6195 32.0193 13.5931 31.9929C13.5256 31.9195 13.5344 31.8521 13.6195 31.7699L14.0272 31.4414V31.4443ZM13.4552 32.4739L12.6016 31.6086L12.2995 31.9078C12.2643 31.943 12.2232 31.9606 12.1851 31.9547C12.1411 31.9518 12.103 31.9313 12.0678 31.9019C12.0384 31.8667 12.0238 31.8315 12.0179 31.7875C12.015 31.7406 12.0296 31.7025 12.0678 31.6673L12.367 31.371L11.5075 30.4998C11.4752 30.4646 11.4576 30.4235 11.4576 30.3854C11.4576 30.3473 11.4723 30.3091 11.4987 30.2857C11.528 30.2534 11.5632 30.2387 11.6014 30.2387C11.6424 30.2329 11.6776 30.2534 11.7099 30.2857L13.6664 32.2686C13.7016 32.3067 13.7163 32.3419 13.7163 32.3801C13.7163 32.4182 13.7016 32.4505 13.6782 32.4798C13.6488 32.5091 13.6136 32.5238 13.5726 32.5267C13.5315 32.5267 13.4934 32.5091 13.4582 32.4739" fill="#8E8E8E"/>
<path d="M16.7083 32.9199C16.6613 32.8994 16.632 32.873 16.6144 32.8378C16.5997 32.8026 16.5997 32.7674 16.6144 32.7293C16.6261 32.6911 16.6555 32.6677 16.6907 32.6501C16.7259 32.6354 16.7669 32.6354 16.808 32.6471L17.7379 33.0197C17.7848 33.0373 17.8141 33.0637 17.8288 33.0959C17.8464 33.1341 17.8464 33.1693 17.8288 33.2015C17.8112 33.2455 17.7907 33.2719 17.7555 33.2925C17.7203 33.3042 17.6792 33.3042 17.6293 33.2866L16.7053 32.9199H16.7083ZM17.5677 34.1109C17.6675 34.193 17.776 34.2722 17.8992 34.3455C17.9373 34.3631 17.9813 34.3895 18.0283 34.413C18.0781 34.4365 18.1075 34.4687 18.1163 34.5039C18.128 34.5333 18.128 34.5655 18.1163 34.5949C18.1045 34.633 18.0723 34.6623 18.0341 34.6799C17.9931 34.6975 17.952 34.6975 17.8992 34.677C17.8171 34.6477 17.7232 34.5949 17.6176 34.5186C17.5149 34.4453 17.4152 34.3719 17.3301 34.3015C17.2099 34.1959 17.1043 34.0757 17.0133 33.9437C16.984 33.9026 16.9517 33.841 16.9136 33.7647C16.7347 33.841 16.5147 33.8762 16.2624 33.8674C16.0101 33.8615 15.7843 33.8205 15.5907 33.7442C15.5437 33.7237 15.5115 33.6973 15.4939 33.6621C15.4792 33.6239 15.4763 33.5858 15.4909 33.5506C15.5027 33.5154 15.5261 33.489 15.5584 33.4773C15.5877 33.4626 15.6259 33.4597 15.6757 33.4626C15.7197 33.4831 15.7608 33.4978 15.7901 33.5066C15.9661 33.5565 16.1451 33.5799 16.3093 33.5799C16.4501 33.5799 16.5763 33.5623 16.6789 33.5271C16.7141 33.5154 16.7552 33.4978 16.8021 33.4685L15.8781 33.1077C15.8283 33.0871 15.7989 33.0637 15.7813 33.0255C15.7667 32.9903 15.7696 32.9522 15.7843 32.9141C15.7989 32.8789 15.8253 32.8525 15.8547 32.8319C15.8928 32.8143 15.9339 32.8143 15.9779 32.8378L18.2365 33.7295C18.2835 33.7442 18.3128 33.7765 18.3304 33.8087C18.3451 33.8439 18.348 33.8821 18.3304 33.9173C18.3157 33.9525 18.2923 33.9759 18.2541 33.9965C18.216 34.0111 18.172 34.0111 18.1251 33.9965L17.1805 33.6269C17.2011 33.6767 17.2245 33.7295 17.248 33.7647C17.3243 33.8821 17.4211 33.9994 17.5531 34.1138L17.5677 34.1109ZM17.1952 35.8973L17.2803 35.6831C17.2949 35.6509 17.3008 35.6303 17.3008 35.6245C17.3008 35.5951 17.2803 35.5717 17.2363 35.5541L15.1683 34.7386C15.1213 34.721 15.0891 34.6917 15.0773 34.6565C15.0597 34.6213 15.0597 34.5861 15.0773 34.5479C15.092 34.5127 15.1155 34.4834 15.1507 34.4687C15.1859 34.4453 15.2269 34.4482 15.2768 34.4687L17.5032 35.3487C17.5765 35.3722 17.6293 35.4191 17.6587 35.4749C17.6851 35.5306 17.6851 35.5922 17.6587 35.6567L17.5149 36.0263C17.4944 36.0791 17.4651 36.1114 17.424 36.1231C17.3829 36.1407 17.3419 36.1407 17.2979 36.1231C17.2539 36.1055 17.2216 36.0762 17.2011 36.0381C17.1805 35.9941 17.1805 35.9501 17.2011 35.8973H17.1952ZM15.4411 33.8909L17.9432 34.8823C17.9931 34.8999 18.0253 34.9263 18.0371 34.9615C18.0517 34.9938 18.0517 35.0319 18.0371 35.073C18.0224 35.1082 17.996 35.1405 17.9667 35.1551C17.9315 35.1698 17.8963 35.1698 17.8493 35.1551L15.3325 34.1578C15.2885 34.1402 15.2563 34.1138 15.2416 34.0786C15.224 34.0434 15.224 34.0082 15.2416 33.9701C15.2592 33.9378 15.2827 33.9055 15.3179 33.885C15.3531 33.8703 15.3941 33.8703 15.444 33.8879" fill="#8E8E8E"/>
<path d="M27.28 34.3514C27.5176 34.2839 27.6526 34.2869 27.6907 34.3661C27.7318 34.4453 27.6408 34.5597 27.4179 34.7034C27.2918 34.7885 27.0982 34.8882 26.8547 35.0055C26.7022 35.0759 26.5496 35.1405 26.3971 35.1933C26.0598 35.3194 25.8662 35.337 25.8192 35.2373C25.7782 35.1522 25.8691 35.0407 26.092 34.897C26.2182 34.8149 26.4147 34.7151 26.6787 34.5919C26.9104 34.4834 27.1128 34.4042 27.283 34.3543L27.28 34.3514ZM25.2208 34.0229C25.1915 33.9671 25.2062 33.9261 25.2531 33.9055L26.227 33.4479C26.3032 33.4098 26.3531 33.3629 26.3707 33.2925C26.3883 33.2338 26.3766 33.1693 26.3472 33.0959L26.1214 32.6178C26.0891 32.5533 26.0422 32.5063 25.9776 32.4946C25.916 32.4799 25.8574 32.4829 25.7987 32.5122L24.5608 33.093C24.5198 33.1106 24.4934 33.1429 24.4816 33.1751C24.4699 33.2103 24.4758 33.2455 24.4934 33.2837C24.508 33.3159 24.5374 33.3423 24.5696 33.3599C24.6048 33.3746 24.643 33.3746 24.6899 33.3541L25.7518 32.8525C25.8104 32.8261 25.8486 32.8378 25.875 32.8877L25.9923 33.1429C26.0099 33.1693 26.0099 33.1927 26.0011 33.2074C25.9894 33.225 25.9718 33.2397 25.9454 33.2485L24.992 33.7002C24.9128 33.7383 24.86 33.7853 24.8336 33.841C24.8072 33.8997 24.8102 33.9583 24.8424 34.0287L25.0624 34.4951C25.0976 34.5714 25.1446 34.6183 25.2062 34.6418C25.2707 34.6623 25.344 34.6506 25.4379 34.6066C25.7694 34.4511 26.0598 34.3103 26.2944 34.1842C26.535 34.0639 26.755 33.9261 26.9632 33.7853C26.9984 33.7559 27.019 33.7325 27.0248 33.6973C27.0366 33.6679 27.0307 33.6415 27.019 33.6093C27.0014 33.5741 26.975 33.5506 26.9427 33.5389C26.9104 33.5242 26.8723 33.5242 26.8312 33.5418L26.8078 33.5535C26.7491 33.5975 26.6934 33.6386 26.6464 33.665C26.5056 33.7501 26.356 33.8322 26.1918 33.9114C26.0744 33.9671 25.9395 34.0346 25.7928 34.1079C25.6462 34.1871 25.564 34.2253 25.5523 34.2341L25.4936 34.2634C25.4379 34.2898 25.3998 34.2986 25.3792 34.2957C25.3587 34.2957 25.3382 34.2722 25.3147 34.2311L25.215 34.017L25.2208 34.0229ZM27.2008 32.6325L27.3856 32.5445C27.4326 32.5181 27.4678 32.4946 27.4766 32.4565C27.4883 32.4154 27.4824 32.3802 27.4678 32.345C27.456 32.3069 27.4238 32.2834 27.3915 32.2687C27.3534 32.257 27.3152 32.2599 27.2683 32.2834L27.0806 32.3685L26.9339 32.0575C26.9134 32.0106 26.8811 31.9813 26.8371 31.9725C26.796 31.9637 26.755 31.9666 26.711 31.9871C26.6699 32.0018 26.6406 32.0341 26.623 32.0693C26.6054 32.1133 26.6054 32.1543 26.6318 32.1983L27.3504 33.7325C27.371 33.7765 27.4032 33.8029 27.4472 33.8117C27.4912 33.8234 27.5323 33.8205 27.5734 33.7999C27.6144 33.7823 27.6408 33.753 27.6584 33.7119C27.676 33.6709 27.676 33.6327 27.6526 33.5887L27.5792 33.4274L27.7582 33.3394C27.8051 33.3159 27.8344 33.2866 27.8491 33.2543C27.8579 33.2162 27.855 33.1781 27.8403 33.1429C27.8227 33.1018 27.7963 33.0783 27.764 33.0637C27.7259 33.0549 27.6878 33.0549 27.6379 33.0754L27.459 33.1634L27.2038 32.6266L27.2008 32.6325ZM27.3915 34.0581C27.1422 34.1021 26.8518 34.2047 26.5291 34.3514C26.3296 34.4482 26.1419 34.5538 25.963 34.6682C25.784 34.7738 25.6491 34.8911 25.5611 35.0055C25.4496 35.1522 25.4232 35.2842 25.4819 35.4045C25.5406 35.5306 25.6667 35.5951 25.8574 35.5922C26.007 35.5922 26.2006 35.557 26.4352 35.4719C26.5907 35.4221 26.7726 35.3458 26.9808 35.2461C27.1891 35.1493 27.3592 35.0583 27.4912 34.9762C27.6848 34.8501 27.8315 34.7298 27.9166 34.6154C28.0251 34.4687 28.0486 34.3338 27.987 34.2047C27.9136 34.0434 27.7142 33.9994 27.3915 34.0551" fill="#8E8E8E"/>
<path d="M29.7 31.2684C29.747 31.1892 29.8203 31.0807 29.9259 30.9546C30.0344 30.8284 30.1371 30.7346 30.228 30.6759C30.3512 30.5996 30.4509 30.5967 30.5243 30.6554C30.6064 30.7287 30.6093 30.8284 30.5448 30.9663C30.5037 31.0455 30.4216 31.1599 30.2984 31.3095C30.1811 31.4444 30.0784 31.5383 29.9963 31.597C29.8731 31.6762 29.7733 31.685 29.6971 31.6146C29.6149 31.5471 29.615 31.4327 29.703 31.2684H29.7ZM29.3744 31.3652C29.304 31.5735 29.3363 31.7407 29.4742 31.8639C29.6296 31.9959 29.8203 31.993 30.052 31.861C30.2075 31.77 30.3659 31.6292 30.5302 31.4444C30.6944 31.2538 30.8059 31.069 30.8558 30.9018C30.9232 30.6964 30.8851 30.5292 30.7443 30.4119C30.5976 30.2887 30.4275 30.274 30.2251 30.3826C30.0667 30.4618 29.9054 30.5996 29.7323 30.7962L29.703 30.8314C29.5358 31.0279 29.4272 31.201 29.3744 31.3682V31.3652ZM29.48 30.0394C29.5123 30.0042 29.527 29.9572 29.5211 29.9191C29.5152 29.878 29.4976 29.8428 29.4683 29.8164C29.4419 29.7959 29.4096 29.7842 29.3686 29.7871C29.3334 29.79 29.2952 29.8076 29.2659 29.8458L28.6616 30.5498C28.6323 30.585 28.6206 30.6231 28.6235 30.6583C28.6323 30.6964 28.647 30.7287 28.6734 30.758C28.7027 30.7786 28.7379 30.7932 28.776 30.7874C28.8171 30.7815 28.8523 30.7639 28.8875 30.7228L29.48 30.0364V30.0394ZM30.2046 29.9954C30.2368 29.9572 30.2515 29.9191 30.2486 29.878C30.2427 29.8399 30.2222 29.8047 30.1928 29.7754C30.1664 29.749 30.1283 29.7402 30.0902 29.7431C30.052 29.7431 30.0168 29.7666 29.9846 29.7988L28.7672 31.2215C28.7379 31.2596 28.7232 31.2948 28.7291 31.333C28.732 31.374 28.7496 31.4092 28.779 31.4327C28.8112 31.462 28.8464 31.4679 28.8846 31.462C28.9256 31.462 28.9608 31.4415 28.9931 31.4034L30.2016 29.9924L30.2046 29.9954ZM32.1846 31.0396C32.2256 31.0338 32.2608 31.0132 32.2931 30.978C32.3253 30.9428 32.34 30.9018 32.3371 30.8578C32.3371 30.8167 32.3136 30.7756 32.2696 30.7404L31.9411 30.4588C31.8824 30.4031 31.8267 30.3826 31.768 30.3972C31.7152 30.409 31.6595 30.45 31.5979 30.5204L30.0725 32.298C30.0403 32.3332 30.0285 32.3714 30.0315 32.4124C30.0373 32.4564 30.055 32.4828 30.0872 32.5151C30.1166 32.5356 30.1459 32.5474 30.187 32.5474C30.2222 32.5474 30.2603 32.5298 30.2896 32.4946L31.6947 30.8548C31.7299 30.8138 31.7533 30.7932 31.7709 30.7874C31.7915 30.7815 31.815 30.7991 31.8502 30.8284L32.0584 31.0044C32.0966 31.0396 32.1376 31.0514 32.1787 31.0455L32.1846 31.0396ZM30.0608 28.9071C30.0168 28.913 29.9787 28.9364 29.9464 28.9716C29.9229 29.0039 29.9053 29.0391 29.9053 29.0802C29.9053 29.1242 29.923 29.1594 29.964 29.1946L31.2781 30.3268C31.3192 30.362 31.3603 30.3738 31.4072 30.3679C31.4542 30.362 31.4923 30.3415 31.5246 30.3034C31.551 30.2711 31.5656 30.23 31.5656 30.189C31.5627 30.1508 31.5422 30.1127 31.5011 30.0746L31.02 29.661L31.1491 29.5055C31.1872 29.4615 31.2019 29.4234 31.196 29.3823C31.1902 29.3471 31.1725 29.3148 31.1432 29.2826C31.1139 29.2562 31.0757 29.2444 31.0376 29.2503C31.0024 29.2503 30.9643 29.2767 30.932 29.309L30.7971 29.4674L30.187 28.9394C30.1459 28.9071 30.1048 28.8924 30.0608 28.9042" fill="#8E8E8E"/>
<path d="M32.3693 27.0885C32.3429 26.9859 32.3664 26.8333 32.4221 26.6485C32.4779 26.4608 32.5483 26.32 32.6275 26.2291C32.7125 26.1352 32.8035 26.1059 32.9061 26.1352C33.0235 26.1733 33.088 26.2525 33.1027 26.3845C33.1115 26.4843 33.088 26.6309 33.0352 26.8187C32.9883 26.9741 32.9267 27.1003 32.8504 27.1853C32.7624 27.2909 32.6627 27.3261 32.56 27.2909C32.4573 27.2557 32.3928 27.1941 32.3723 27.0885H32.3693ZM31.6477 25.9504C31.6653 25.9035 31.6624 25.8595 31.6448 25.8301C31.6272 25.7949 31.5979 25.7685 31.5627 25.7597C31.5275 25.7509 31.4923 25.7539 31.46 25.7685C31.4277 25.7891 31.4013 25.8213 31.3837 25.8741L31.1256 26.7277C31.1139 26.7776 31.1197 26.8157 31.1373 26.848C31.1608 26.8803 31.1843 26.9037 31.2165 26.9096C31.2517 26.9213 31.2928 26.9184 31.3251 26.8979C31.3573 26.8803 31.3808 26.848 31.3984 26.8011L31.6477 25.9533V25.9504ZM32.3107 25.6013C32.3283 25.5515 32.3253 25.5104 32.3077 25.4723C32.2901 25.4371 32.2579 25.4136 32.2197 25.4048C32.1816 25.3931 32.1464 25.396 32.1141 25.4136C32.0789 25.4312 32.0555 25.4664 32.0408 25.5133L31.4981 27.3056C31.4893 27.3496 31.4893 27.3848 31.5099 27.4229C31.5304 27.4552 31.5568 27.4787 31.592 27.4875C31.6301 27.4992 31.6683 27.4963 31.7035 27.4816C31.7387 27.4581 31.7621 27.4259 31.7797 27.3789L32.3107 25.6043V25.6013ZM31.7475 24.6744C31.7093 24.6979 31.6859 24.7331 31.6712 24.78C31.6565 24.824 31.6595 24.868 31.6771 24.9061C31.6947 24.9472 31.7299 24.9707 31.7827 24.9883L34.408 25.7832C34.4667 25.8008 34.5107 25.7949 34.5488 25.7685C34.584 25.7509 34.6163 25.7157 34.6251 25.6688C34.6397 25.6248 34.6368 25.5867 34.6133 25.5456C34.5928 25.5045 34.5547 25.4781 34.5048 25.4605L31.8824 24.6656C31.8267 24.6509 31.7797 24.6509 31.7445 24.6744H31.7475ZM33.7715 27.1971L33.5456 28.0184C33.5339 28.0595 33.5339 28.0976 33.5515 28.1269C33.5691 28.1504 33.5955 28.1709 33.6248 28.1797C33.66 28.1885 33.6923 28.1827 33.7304 28.1739C33.7685 28.1504 33.792 28.1269 33.8008 28.08L33.8184 28.0272C33.9328 27.6429 34.0267 27.2968 34.1059 26.9888C34.1792 26.6779 34.2349 26.3816 34.2672 26.0912C34.2672 26.0501 34.2584 26.0179 34.2408 25.9915C34.2203 25.9651 34.1997 25.9445 34.1763 25.9387C34.1381 25.9299 34.1059 25.9299 34.0736 25.9475C34.0413 25.9621 34.0237 25.9856 34.012 26.0179V26.0296C33.9856 26.1968 33.9504 26.3845 33.9093 26.5928C33.8947 26.6632 33.8741 26.76 33.8477 26.8773L33.3637 26.7277C33.4224 26.5253 33.4283 26.3464 33.3755 26.188C33.3168 26.0032 33.1819 25.88 32.9795 25.8125C32.8269 25.7685 32.6803 25.8008 32.5483 25.9064C32.3869 26.0413 32.2608 26.2613 32.1699 26.5664C32.0877 26.8275 32.0731 27.0533 32.1171 27.2469C32.164 27.4347 32.2755 27.552 32.4456 27.6048C32.6304 27.6635 32.8005 27.6195 32.9589 27.4845C33.0763 27.3819 33.1819 27.2323 33.2699 27.0387L33.7715 27.1941" fill="#8E8E8E"/>
<path d="M38.151 17.3967C38.1686 17.4553 38.1627 17.514 38.1304 17.5697C38.1011 17.6225 38.0512 17.6607 37.9926 17.6841C37.9192 17.7105 37.8547 17.7135 37.799 17.69C37.7403 17.6695 37.6992 17.6343 37.6816 17.5727C37.6611 17.5169 37.664 17.4553 37.6904 17.4025C37.7227 17.3527 37.7726 17.3116 37.84 17.2823C37.9075 17.2559 37.9691 17.2559 38.0278 17.2823C38.0864 17.3028 38.1275 17.3439 38.148 17.3967" fill="#8E8E8E"/>
<path d="M36.9923 31.3887C36.9688 31.3301 36.9248 31.2802 36.8632 31.245C36.7987 31.2098 36.7341 31.1981 36.6755 31.2127C36.6139 31.2274 36.5699 31.2655 36.5405 31.3183C36.5112 31.3741 36.5083 31.4269 36.5288 31.4855C36.5552 31.5413 36.5963 31.5882 36.6637 31.6263C36.7224 31.6557 36.7811 31.6674 36.8427 31.6557C36.9072 31.6439 36.9512 31.6087 36.9835 31.5559C37.0099 31.5031 37.0099 31.4474 36.9923 31.3917" fill="#8E8E8E"/>
<path d="M3.10052 20.9079C3.10639 20.8433 3.13573 20.7964 3.19146 20.7641C3.24719 20.7231 3.30292 20.7143 3.36746 20.7201C3.44372 20.726 3.49946 20.7495 3.54639 20.7964C3.59039 20.8404 3.60799 20.8932 3.59919 20.9577C3.59333 21.0164 3.56399 21.0663 3.51706 21.1044C3.46719 21.1367 3.40266 21.1484 3.33226 21.1455C3.26186 21.1367 3.20026 21.1103 3.15626 21.0604C3.11519 21.0164 3.09759 20.9636 3.10346 20.9079" fill="#8E8E8E"/>
<path d="M2.4259 19.3063L2.4787 19.0628L3.6579 19.3327L2.68404 18.1682L2.76324 17.822L3.56697 18.8106L5.19204 18.3647L5.12164 18.6786L3.7547 19.0423L4.0627 19.4236L4.9075 19.6143L4.85177 19.8607L2.4259 19.3063Z" fill="#8E8E8E"/>
<path d="M5.23603 17.5493C5.1627 17.7751 5.01604 17.9071 4.79897 17.9453C4.58484 17.9863 4.34723 17.957 4.08323 17.869C3.75763 17.7575 3.5259 17.6197 3.39683 17.4466C3.2707 17.2706 3.23257 17.0917 3.2971 16.9069C3.36163 16.7191 3.49363 16.5989 3.70483 16.5461C3.9131 16.4933 4.15363 16.5138 4.4323 16.6077C4.6963 16.6986 4.91337 16.8277 5.08643 16.989C5.25657 17.1533 5.30643 17.3439 5.2331 17.5522L5.23603 17.5493ZM3.0155 16.8277C2.91283 17.1239 2.9803 17.3967 3.22083 17.6519C3.4115 17.8455 3.66083 17.9951 3.97764 18.1066C4.33257 18.2239 4.64937 18.2533 4.9251 18.1975C5.2155 18.1213 5.4091 17.9453 5.50297 17.6783C5.59977 17.3879 5.53817 17.1151 5.31817 16.8658C5.13337 16.6487 4.86057 16.4874 4.50857 16.3671C4.18297 16.2557 3.8955 16.2234 3.64617 16.2733C3.32937 16.3319 3.11817 16.5167 3.01257 16.8306" fill="#8E8E8E"/>
<path d="M4.6523 15.9153L3.8867 15.5633L4.13897 15.0148C4.17417 14.9385 4.2211 14.8828 4.27097 14.8535C4.36777 14.7977 4.49683 14.8036 4.65523 14.8769C4.8019 14.9444 4.89283 15.0236 4.91923 15.1087C4.94857 15.1967 4.93977 15.2905 4.8899 15.3991L4.6523 15.9153ZM5.7699 16.7103L5.8755 16.4815L4.90457 16.0356L5.13923 15.5252C5.1803 15.4343 5.2243 15.3727 5.27123 15.3463C5.3563 15.2935 5.47363 15.2993 5.62323 15.3609L6.0075 15.5193C6.0955 15.5575 6.16003 15.5809 6.18937 15.5868C6.22163 15.5956 6.25097 15.6044 6.2715 15.6044L6.40057 15.3228L6.35363 15.3023C6.3155 15.3287 6.25683 15.3287 6.18057 15.3111C6.13363 15.3023 6.06617 15.2759 5.97817 15.2407L5.67017 15.1087C5.53817 15.0529 5.4355 15.0265 5.35923 15.0324C5.28883 15.0383 5.21257 15.0676 5.15097 15.1175C5.13337 15.0177 5.08937 14.9297 5.02483 14.8476C4.95737 14.7655 4.8547 14.6892 4.71977 14.6276C4.46163 14.5103 4.25043 14.5073 4.07737 14.6188C3.98937 14.6775 3.91897 14.7713 3.8603 14.8975L3.5083 15.666L5.76403 16.7103" fill="#8E8E8E"/>
<path d="M4.31787 13.9766L5.00427 12.8062L5.26827 12.9616L4.708 13.9179L5.3592 14.2992L5.87547 13.4104L6.1248 13.5542L5.6056 14.443L6.33894 14.8712L6.90507 13.9032L7.16027 14.047L6.46507 15.2379L4.31787 13.9766Z" fill="#8E8E8E"/>
<path d="M6.6 13.073L5.88133 12.1901L6.94027 12.5978L6.6 13.073ZM7.11333 14.1056L7.2688 13.8914L6.78187 13.296L7.2072 12.7005L7.92587 12.9792L8.0872 12.7504L5.67013 11.8557L5.5 12.0904L7.11333 14.1085" fill="#8E8E8E"/>
<path d="M6.2099 11.1252L6.40057 10.9022L8.53897 11.5182L7.0195 10.1982L7.17203 10.0193L9.04937 11.6561L8.87043 11.8673L6.72323 11.263L8.23977 12.583L8.0843 12.762L6.2099 11.1252Z" fill="#8E8E8E"/>
<path d="M9.53335 10.0867C9.62721 10.1894 9.72108 10.2627 9.80615 10.3067C9.97335 10.3771 10.1376 10.3507 10.2931 10.2217C10.3605 10.163 10.4104 10.0985 10.4485 10.0222C10.5131 9.87553 10.4867 9.72887 10.3723 9.59393C10.2843 9.48833 10.1992 9.4326 10.1171 9.42967C10.0349 9.42967 9.92641 9.4502 9.80028 9.50593L9.56855 9.5998C9.41601 9.66433 9.29281 9.69367 9.20481 9.68487C9.05228 9.68487 8.90855 9.59393 8.77655 9.43847C8.63281 9.2654 8.55655 9.08647 8.55068 8.9046C8.54481 8.72273 8.61815 8.56433 8.77655 8.43233C8.92028 8.30913 9.09041 8.2534 9.26935 8.271C9.45121 8.2798 9.63015 8.3942 9.80615 8.60833L9.62428 8.755C9.52748 8.66407 9.44535 8.6054 9.36908 8.57313C9.23121 8.52033 9.09628 8.5526 8.95548 8.66407C8.84988 8.755 8.79708 8.84887 8.80295 8.95447C8.80588 9.06007 8.84695 9.15687 8.91735 9.239C8.99655 9.3358 9.07868 9.3798 9.17548 9.37393C9.23415 9.371 9.34561 9.33287 9.51281 9.26833L9.75921 9.16567C9.87655 9.1158 9.98215 9.0982 10.076 9.107C10.2403 9.12167 10.3899 9.21553 10.5336 9.3886C10.7096 9.59687 10.78 9.79633 10.7448 9.98113C10.7096 10.1659 10.6187 10.3185 10.4661 10.4446C10.296 10.5883 10.1083 10.6411 9.90881 10.6001C9.70935 10.5619 9.52455 10.4387 9.35735 10.2275L9.53628 10.0779" fill="#8E8E8E"/>
<path d="M11.6336 9.20397C11.4371 9.33303 11.2435 9.35063 11.0528 9.25383C10.8563 9.1541 10.6832 8.98983 10.5248 8.7581C10.3342 8.47357 10.2344 8.2213 10.2374 8.00423C10.2374 7.78717 10.3224 7.62877 10.4808 7.5173C10.6451 7.4029 10.827 7.39117 11.0235 7.4733C11.22 7.55837 11.4019 7.7197 11.5662 7.96317C11.7246 8.19197 11.8214 8.42077 11.8566 8.65837C11.8918 8.89303 11.8214 9.07197 11.6336 9.20397ZM10.3019 7.2797C10.0408 7.45863 9.9323 7.7197 9.97044 8.0629C10.0027 8.33277 10.1112 8.60557 10.3019 8.8813C10.5131 9.19223 10.7478 9.4093 11.003 9.52663C11.2816 9.64397 11.5398 9.6205 11.7744 9.4621C12.0296 9.28903 12.144 9.03383 12.1176 8.7053C12.0942 8.42077 11.9798 8.1245 11.7715 7.8165C11.5808 7.52903 11.3696 7.32957 11.1438 7.22103C10.8534 7.07437 10.5747 7.09783 10.299 7.2797" fill="#8E8E8E"/>
<path d="M12.6192 6.203C12.8099 6.28807 12.9654 6.41714 13.0768 6.59607L12.8598 6.7134C12.76 6.5814 12.6515 6.49927 12.5342 6.4582C12.4168 6.4142 12.2936 6.42887 12.1616 6.5022C12.0032 6.58434 11.9152 6.731 11.8947 6.93927C11.8742 7.14167 11.9534 7.40274 12.1206 7.7166C12.2614 7.9718 12.4198 8.1566 12.5899 8.271C12.7659 8.38247 12.939 8.38834 13.115 8.29154C13.2792 8.2006 13.3555 8.05394 13.3526 7.84274C13.3467 7.73127 13.3144 7.59634 13.2646 7.43794L13.4787 7.3206C13.5843 7.56407 13.6254 7.78994 13.6019 8.00407C13.5726 8.26514 13.4464 8.45287 13.2294 8.5702C13.0416 8.67287 12.8392 8.67874 12.628 8.5966C12.3494 8.48807 12.0942 8.21234 11.8654 7.78994C11.6923 7.46434 11.6131 7.16514 11.6307 6.8894C11.6454 6.5902 11.7744 6.37607 12.0179 6.247C12.2262 6.1326 12.4227 6.1238 12.6163 6.20887" fill="#8E8E8E"/>
<path d="M13.0269 5.81581L13.2587 5.71021L14.2912 7.97767L14.0624 8.07447L13.0269 5.81581Z" fill="#8E8E8E"/>
<path d="M13.5872 5.55774L14.8574 5.06494L14.9659 5.35241L13.9363 5.74841L14.2032 6.45534L15.1595 6.08281L15.2592 6.34974L14.3059 6.72227L14.611 7.51134L15.6611 7.10654L15.7667 7.38227L14.4848 7.87801L13.5872 5.55774Z" fill="#8E8E8E"/>
<path d="M16.4677 4.59277L16.5499 4.87731L15.9456 5.05037L16.5528 7.15357L16.3152 7.22691L15.7021 5.12077L15.0949 5.29677L15.0157 5.01224L16.4677 4.59277Z" fill="#8E8E8E"/>
<path d="M16.5323 4.56925L16.8198 4.51351L17.5795 5.58125L17.8699 4.30525L18.1544 4.24951L17.7584 5.83938L17.952 6.82791L17.7086 6.87191L17.512 5.89218L16.5323 4.56925Z" fill="#8E8E8E"/>
<path d="M24.2176 6.59031C23.9888 6.54925 23.8363 6.42605 23.7688 6.21778C23.7013 6.01831 23.6896 5.77485 23.7424 5.50205C23.804 5.16178 23.9096 4.91831 24.068 4.76285C24.2147 4.61325 24.3907 4.55165 24.5813 4.58685C24.7779 4.62205 24.9157 4.73938 25.0008 4.93591C25.08 5.13831 25.0976 5.38178 25.0389 5.66925C24.9891 5.94205 24.8952 6.17671 24.7603 6.37031C24.6253 6.55805 24.4435 6.63431 24.2205 6.59325L24.2176 6.59031ZM24.6195 4.29351C24.3085 4.23485 24.0445 4.34338 23.8304 4.61911C23.6661 4.82738 23.5517 5.10018 23.4931 5.43165C23.4227 5.79831 23.4403 6.11511 23.5371 6.38205C23.6544 6.66365 23.8539 6.82498 24.1355 6.88071C24.4376 6.93645 24.6957 6.83671 24.9157 6.58151C25.0976 6.36445 25.2237 6.07698 25.2912 5.71031C25.3528 5.37005 25.344 5.08551 25.2589 4.84498C25.1563 4.53698 24.9421 4.35218 24.6195 4.29645" fill="#8E8E8E"/>
<path d="M25.8104 4.61328L27.0571 4.96821L26.9749 5.26155L25.9688 4.97408L25.7635 5.70155L26.6523 5.95675L26.5731 6.23835L25.6843 5.98608L25.3763 7.07728L25.1328 7.00981L25.8104 4.61328Z" fill="#8E8E8E"/>
<path d="M27.9048 7.08605C27.8491 7.21512 27.8256 7.32952 27.8256 7.42632C27.8315 7.61112 27.9254 7.74312 28.1102 7.82819C28.1923 7.86339 28.2715 7.88392 28.3566 7.88099C28.5179 7.87512 28.6382 7.79299 28.7115 7.62872C28.7672 7.50259 28.779 7.39992 28.7467 7.32365C28.7144 7.24739 28.647 7.16525 28.5443 7.07139L28.3566 6.90419C28.2304 6.78979 28.1512 6.69299 28.116 6.61379C28.0544 6.47005 28.0691 6.29992 28.1571 6.11512C28.248 5.90685 28.38 5.76605 28.5384 5.68392C28.7027 5.59592 28.8758 5.59592 29.0635 5.68392C29.2395 5.76019 29.3598 5.88632 29.4272 6.05352C29.4947 6.22365 29.4712 6.43485 29.3539 6.68419L29.1398 6.59032C29.1838 6.46419 29.2043 6.36152 29.1955 6.28232C29.1838 6.13565 29.0958 6.02419 28.9374 5.95085C28.8083 5.89219 28.6968 5.88925 28.603 5.93619C28.512 5.98312 28.4416 6.06232 28.3976 6.16499C28.3478 6.27645 28.3448 6.37325 28.3888 6.45539C28.4182 6.50525 28.4974 6.59325 28.6294 6.71352L28.8259 6.88659C28.9198 6.97459 28.9814 7.05965 29.0166 7.14765C29.0694 7.30605 29.0518 7.48205 28.9608 7.68152C28.8464 7.93085 28.6968 8.08045 28.515 8.13032C28.3302 8.18019 28.1542 8.16259 27.9782 8.08045C27.7728 7.98659 27.6438 7.84285 27.5939 7.64339C27.544 7.44979 27.5763 7.22979 27.6878 6.98339L27.9048 7.08605Z" fill="#8E8E8E"/>
<path d="M30.2603 6.34976L29.4917 7.68443C29.4067 7.84283 29.348 7.98363 29.3392 8.10976C29.3128 8.3063 29.3773 8.45003 29.5357 8.53803C29.7205 8.64656 29.8965 8.63483 30.0637 8.50283C30.1517 8.43536 30.2427 8.31803 30.3336 8.16256L31.0992 6.83083L31.3163 6.95403L30.6181 8.1655C30.4656 8.43536 30.3248 8.62016 30.1869 8.73163C29.9376 8.93696 29.6765 8.96043 29.4067 8.80203C29.1309 8.64656 29.0224 8.40896 29.0752 8.0951C29.1016 7.9191 29.1925 7.6991 29.3451 7.4351L30.0432 6.22656L30.2603 6.34976Z" fill="#8E8E8E"/>
<path d="M31.2077 8.25645L31.6976 7.57299L32.1875 7.92205C32.2579 7.97192 32.3019 8.02472 32.3224 8.08339C32.3576 8.18899 32.3312 8.31219 32.2285 8.45592C32.1317 8.58792 32.0379 8.66125 31.9499 8.67299C31.856 8.68472 31.7651 8.65245 31.6712 8.58792L31.2077 8.25645ZM30.2133 9.20979L30.4216 9.35352L31.0435 8.48525L31.4981 8.81085C31.5803 8.86952 31.6301 8.92232 31.6536 8.97512C31.6888 9.07192 31.6595 9.18632 31.5715 9.31832L31.3397 9.66739C31.2899 9.74659 31.2517 9.80232 31.24 9.83459C31.2224 9.86392 31.2107 9.89325 31.2107 9.91965L31.4571 10.0957L31.4923 10.0546C31.4747 10.0135 31.4805 9.95779 31.5157 9.88445C31.5333 9.84045 31.5685 9.77885 31.6243 9.69965L31.8091 9.42099C31.8883 9.30072 31.9352 9.20392 31.9411 9.13059C31.9469 9.05432 31.9352 8.98099 31.8971 8.90472C31.9939 8.90765 32.0965 8.88419 32.1875 8.83432C32.2813 8.78445 32.3693 8.69939 32.4603 8.57912C32.6245 8.34445 32.6656 8.13619 32.5893 7.94845C32.5453 7.85165 32.4691 7.76365 32.3547 7.68152L31.6653 7.18872L30.2163 9.21565" fill="#8E8E8E"/>
<path d="M33.2171 8.33567L32.2403 10.2922L34.0296 9.03967L34.2467 9.22447L32.0995 10.6589L31.8971 10.4829L33.0059 8.15674L33.2171 8.33567Z" fill="#8E8E8E"/>
<path d="M34.4138 9.39746L35.3584 10.3713L35.1413 10.5825L34.3728 9.78759L33.8272 10.3127L34.5429 11.0489L34.3317 11.2484L33.6189 10.5121L33.0117 11.0988L33.792 11.9084L33.5808 12.1137L32.6216 11.1252L34.4138 9.39746Z" fill="#8E8E8E"/>
<path d="M35.4904 10.5151L35.6723 10.7439L35.0797 11.9114L36.344 11.5799L36.5259 11.8058L34.9301 12.1901L34.1499 12.8178L33.9915 12.6183L34.7688 11.9906L35.4904 10.5151Z" fill="#8E8E8E"/>
<path d="M36.6344 11.9905L36.7782 12.1899L34.7483 13.6273L34.6016 13.4219L36.6344 11.9905Z" fill="#8E8E8E"/>
<path d="M36.9893 12.4746L37.1448 12.7269L35.9128 14.5778L37.6347 13.5247L37.7549 13.7271L35.6341 15.0266L35.4875 14.789L36.7048 12.9263L34.9917 13.9735L34.8685 13.7741L36.9893 12.4746Z" fill="#8E8E8E"/>
<path d="M38.4384 15.2466C38.4003 15.4725 38.2477 15.672 37.972 15.845L37.8605 15.6192C38.0131 15.5136 38.104 15.405 38.1392 15.2818C38.1715 15.1616 38.1568 15.0325 38.0952 14.9034C38.0248 14.7509 37.8811 14.6541 37.6816 14.6277C37.4733 14.5984 37.2152 14.6541 36.9101 14.8008C36.6403 14.9269 36.4437 15.0706 36.3176 15.2378C36.1915 15.4021 36.1739 15.584 36.2677 15.7834C36.3381 15.933 36.4584 16.0328 36.6197 16.0738C36.784 16.1178 36.9981 16.0738 37.2592 15.9565L37.0099 15.4285L37.2621 15.3082L37.6141 16.0474L36.4085 16.6194L36.3381 16.4728L36.608 16.2762C36.4584 16.2557 36.3469 16.2264 36.2765 16.1882C36.1533 16.1266 36.0536 16.0181 35.9803 15.8626C35.8864 15.669 35.8923 15.4549 35.9979 15.232C36.1387 14.9768 36.3997 14.7568 36.7811 14.5778C37.1536 14.3989 37.4909 14.3344 37.7872 14.3754C38.0688 14.4194 38.2653 14.5514 38.3739 14.7832C38.4443 14.9386 38.4677 15.097 38.4413 15.2437" fill="#8E8E8E"/>
<path d="M39.8523 20.1452C39.7555 20.3447 39.5501 20.4972 39.2392 20.5911L39.1981 20.3388C39.3741 20.2831 39.4885 20.1951 39.556 20.0895C39.6205 19.9839 39.6411 19.8607 39.6205 19.717C39.5912 19.5468 39.4827 19.4236 39.2949 19.3356C39.1043 19.2447 38.8403 19.23 38.5 19.2887C38.2096 19.3356 37.9808 19.4236 37.8165 19.5468C37.6523 19.673 37.5848 19.8431 37.62 20.0602C37.6464 20.2244 37.7344 20.3506 37.8781 20.4386C38.0248 20.5207 38.2419 20.5442 38.5264 20.5002L38.4296 19.9223L38.7083 19.8754L38.8403 20.682L37.5261 20.902L37.4968 20.7466L37.8107 20.6322C37.6728 20.5706 37.5731 20.5119 37.5144 20.4562C37.4088 20.3564 37.3443 20.2303 37.3179 20.0602C37.2827 19.846 37.3443 19.6466 37.5085 19.4559C37.7139 19.2447 38.0248 19.1068 38.4384 19.0394C38.8491 18.969 39.1893 19.0012 39.4621 19.1244C39.7232 19.2418 39.8699 19.4236 39.9109 19.6759C39.9403 19.846 39.9227 19.9986 39.8552 20.1423" fill="#8E8E8E"/>
<path d="M40.0165 20.9314L40.1045 22.2925L39.8024 22.3101L39.729 21.2013L38.9752 21.2541L39.0426 22.2778L38.7581 22.2954L38.6936 21.2687L37.8458 21.3274L37.9221 22.4509L37.6229 22.4685L37.5349 21.0927L40.0165 20.9314Z" fill="#8E8E8E"/>
<path d="M37.8166 23.4188C37.8283 23.1842 37.928 23.014 38.1246 22.9172C38.3182 22.8204 38.5528 22.7735 38.8286 22.7852C39.1776 22.7999 39.4358 22.8703 39.6088 22.9994C39.7848 23.1284 39.864 23.2898 39.8582 23.4863C39.8494 23.6828 39.7555 23.8383 39.5707 23.9498C39.3888 24.0583 39.1483 24.1111 38.855 24.0994C38.5734 24.0876 38.3299 24.026 38.1187 23.9146C37.9104 23.809 37.8107 23.6388 37.8166 23.4188ZM40.1515 23.4834C40.1691 23.1666 40.0224 22.9231 39.7203 22.75C39.4856 22.618 39.2011 22.5418 38.8667 22.533C38.4912 22.5183 38.1803 22.577 37.931 22.7178C37.6728 22.8703 37.5379 23.0903 37.5262 23.3778C37.5144 23.6828 37.6494 23.9292 37.9339 24.1023C38.1744 24.2548 38.4795 24.3399 38.852 24.3546C39.1952 24.3663 39.4798 24.3164 39.7056 24.1991C39.996 24.0524 40.1456 23.809 40.1544 23.4834" fill="#8E8E8E"/>
<path d="M37.799 24.6478L39.6851 24.9206L39.6235 25.3606C39.5912 25.5601 39.4856 25.6921 39.3038 25.7596C39.1219 25.8241 38.8784 25.8329 38.5763 25.7918C38.4971 25.7801 38.412 25.7596 38.3211 25.7332C38.1686 25.6921 38.0454 25.6364 37.9544 25.5777C37.84 25.4956 37.7696 25.4046 37.7344 25.299C37.7198 25.2433 37.7198 25.1729 37.7344 25.0878L37.799 24.6449V24.6478ZM37.5496 24.3574L37.4411 25.0966C37.4 25.4105 37.5526 25.6598 37.9046 25.8417C38.107 25.9473 38.3387 26.0177 38.5998 26.0588C38.9371 26.1057 39.2216 26.0822 39.4622 25.9913C39.7203 25.8886 39.8699 25.7097 39.9051 25.4574L40.0136 24.7124L37.5496 24.3574Z" fill="#8E8E8E"/>
<path d="M39.7203 26.5899L39.3917 27.9157L39.0984 27.8424L39.3624 26.7629L38.6291 26.5811L38.3827 27.5755L38.1069 27.508L38.3504 26.5107L37.5291 26.3112L37.2592 27.4024L36.9717 27.3349L37.3032 25.9944L39.7203 26.5899Z" fill="#8E8E8E"/>
<path d="M37.6494 27.8364C37.5174 27.7953 37.4029 27.7777 37.3032 27.7924C37.1213 27.8129 36.9981 27.9156 36.9277 28.1033C36.9013 28.1913 36.8896 28.2734 36.9014 28.3585C36.919 28.5198 37.0128 28.6284 37.1859 28.69C37.3149 28.731 37.4147 28.731 37.4909 28.7017C37.5643 28.6577 37.6406 28.5814 37.7256 28.47L37.8723 28.2676C37.972 28.1326 38.06 28.0446 38.1392 28.0036C38.2712 27.9332 38.4384 27.9302 38.635 27.9948C38.8491 28.071 39.0016 28.1825 39.1043 28.338C39.204 28.4934 39.2216 28.6665 39.1512 28.863C39.0926 29.0361 38.9782 29.171 38.8139 29.2532C38.6526 29.3382 38.4384 29.3324 38.1773 29.2444L38.2536 29.0214C38.3856 29.0537 38.4912 29.0625 38.5675 29.0508C38.7141 29.0214 38.8168 28.9246 38.8726 28.7604C38.9224 28.6225 38.9166 28.514 38.8579 28.426C38.7992 28.338 38.7171 28.2734 38.6144 28.2412C38.5 28.2001 38.4032 28.2089 38.324 28.2588C38.2741 28.291 38.1979 28.382 38.0894 28.5257L37.9309 28.734C37.8547 28.8366 37.7755 28.91 37.6904 28.951C37.5408 29.0214 37.3619 29.0214 37.1536 28.9452C36.8926 28.8572 36.7342 28.7193 36.6667 28.5433C36.6051 28.3644 36.6051 28.1825 36.6667 28.0065C36.743 27.7924 36.872 27.6516 37.0656 27.5812C37.2563 27.5137 37.4792 27.5254 37.7344 27.6134L37.6523 27.8393" fill="#8E8E8E"/>
<path d="M38.7699 29.7373L38.6496 30.0042L37.3384 29.9925L38.2038 30.9781L38.0835 31.245L37.0216 29.9866L36.1123 29.5701L36.215 29.3384L37.1272 29.7578L38.7699 29.7373Z" fill="#8E8E8E"/>
<path d="M35.4523 33.9671C35.3261 33.8673 35.2587 33.7705 35.2469 33.6737C35.2381 33.5799 35.2675 33.4889 35.3379 33.398L35.64 32.9991L36.3235 33.5183L36.0213 33.9172C35.9568 33.9964 35.9011 34.0433 35.8395 34.0697C35.728 34.1108 35.596 34.0727 35.4493 33.9671H35.4523ZM34.7307 31.9929L34.5811 32.1924L35.4141 32.826L35.0621 33.2924C34.9507 33.4391 34.9243 33.5975 34.98 33.7559C35.0416 33.9143 35.1472 34.0551 35.3027 34.1695C35.4845 34.3044 35.6547 34.3719 35.816 34.3719C35.9773 34.366 36.1093 34.2956 36.2061 34.1607L36.7136 33.4948L34.7307 31.99" fill="#8E8E8E"/>
<path d="M35.6635 34.8471L35.4934 35.0377L34.7366 34.3367L34.0854 35.0495L34.8392 35.7447L34.6691 35.9295L32.8387 34.2457L33.0088 34.0639L33.8624 34.8471L34.5224 34.1343L33.663 33.3481L33.8331 33.1692L35.6635 34.8471Z" fill="#8E8E8E"/>
<path d="M32.2549 35.0729C32.4309 34.9145 32.6216 34.8734 32.8269 34.9468C33.0323 35.0201 33.2259 35.158 33.4077 35.3662C33.6395 35.6302 33.7656 35.8678 33.792 36.082C33.8184 36.2961 33.7568 36.4662 33.6101 36.5953C33.4576 36.7273 33.2845 36.7654 33.0763 36.7097C32.8709 36.651 32.6715 36.5102 32.4779 36.2902C32.296 36.0849 32.1699 35.8678 32.0995 35.639C32.032 35.4102 32.0819 35.2225 32.252 35.0788L32.2549 35.0729ZM33.8184 36.8065C34.056 36.5953 34.1293 36.3254 34.0472 35.9852C33.9827 35.73 33.8389 35.466 33.6131 35.2137C33.3667 34.9292 33.1085 34.7502 32.8387 34.6681C32.5453 34.583 32.2931 34.6388 32.0789 34.8294C31.8472 35.0318 31.768 35.2988 31.8355 35.6244C31.8912 35.9001 32.0408 36.1817 32.2872 36.4574C32.5131 36.7156 32.7448 36.8886 32.9853 36.9708C33.2904 37.0793 33.5691 37.0206 33.8155 36.8036" fill="#8E8E8E"/>
<path d="M31.7562 38.3261L31.5832 38.0885L32.0906 37.7219L30.8058 35.9443L31.0053 35.7947L32.2989 37.5693L32.8064 37.1997L32.9794 37.4403L31.7562 38.3261Z" fill="#8E8E8E"/>
<path d="M29.7352 36.9063C29.9405 36.7831 30.1341 36.7831 30.3219 36.8916C30.5096 37.0001 30.6768 37.1761 30.8147 37.4137C30.9965 37.7129 31.0757 37.9681 31.064 38.1852C31.0493 38.3993 30.9555 38.5519 30.7912 38.6575C30.6152 38.7572 30.4363 38.7601 30.2427 38.6633C30.052 38.5695 29.8789 38.3993 29.7293 38.1471C29.5856 37.9065 29.5064 37.6689 29.48 37.4313C29.4565 37.1967 29.5416 37.0207 29.7323 36.9063H29.7352ZM30.9555 38.9009C31.2253 38.7396 31.3515 38.4873 31.328 38.1441C31.3133 37.8684 31.2195 37.5897 31.0464 37.3023C30.8557 36.9767 30.6387 36.7537 30.3893 36.6188C30.1136 36.4839 29.8555 36.4927 29.612 36.6393C29.348 36.7919 29.216 37.0412 29.2219 37.3756C29.2277 37.6572 29.3245 37.9593 29.5123 38.282C29.6883 38.5812 29.8877 38.7865 30.1077 38.9127C30.3893 39.0769 30.6709 39.074 30.9555 38.9039" fill="#8E8E8E"/>
<path d="M28.6909 39.91C28.4709 39.8718 28.2744 39.7105 28.1013 39.4318L28.3301 39.3292C28.4299 39.4758 28.5443 39.5726 28.6645 39.6078C28.7819 39.643 28.9109 39.6342 29.04 39.5756C29.1955 39.5052 29.2893 39.3614 29.3245 39.159C29.3568 38.9537 29.3011 38.6956 29.1603 38.3817C29.0341 38.1177 28.8933 37.9153 28.7261 37.7862C28.5648 37.6572 28.38 37.6396 28.1864 37.7276C28.0309 37.798 27.9312 37.9124 27.8901 38.0766C27.8461 38.238 27.8813 38.455 27.9987 38.719L28.5325 38.4756L28.6499 38.7308L27.9048 39.074L27.3504 37.8625L27.4971 37.795L27.6877 38.0678C27.7112 37.9182 27.7405 37.8068 27.7787 37.7334C27.8461 37.6102 27.9547 37.5105 28.1072 37.443C28.3037 37.3521 28.5149 37.3609 28.7379 37.4694C28.9931 37.6132 29.2101 37.8801 29.3832 38.2614C29.5563 38.6369 29.6208 38.9742 29.5709 39.2705C29.524 39.5462 29.3832 39.7369 29.1573 39.8454C28.9989 39.9188 28.8435 39.9422 28.6909 39.91Z" fill="#8E8E8E"/>
<path d="M27.3621 39.2881L27.6349 40.0859L27.0629 40.2766C26.9808 40.3059 26.9104 40.3118 26.8547 40.3001C26.7461 40.2707 26.664 40.171 26.6053 40.0038C26.5525 39.8513 26.5467 39.7281 26.5877 39.6489C26.6347 39.5697 26.7109 39.511 26.8224 39.4729L27.3621 39.291V39.2881ZM27.1656 37.9299L26.9251 38.0091L27.2712 39.0241L26.7403 39.203C26.6493 39.2323 26.5731 39.247 26.5173 39.2294C26.4205 39.203 26.3443 39.115 26.2885 38.9595L26.1389 38.5694C26.1067 38.4785 26.0773 38.4198 26.0627 38.3905C26.0451 38.3553 26.0304 38.3318 26.0128 38.3171L25.7224 38.4169L25.74 38.4726C25.7811 38.4785 25.8221 38.5195 25.8661 38.5899C25.8896 38.631 25.9189 38.6926 25.9483 38.7806L26.0656 39.0945C26.1184 39.2294 26.1712 39.3262 26.2269 39.3761C26.2797 39.423 26.3531 39.4553 26.4323 39.4699C26.3707 39.5521 26.3355 39.643 26.3208 39.7486C26.3061 39.8542 26.3267 39.9745 26.3736 40.1182C26.4645 40.391 26.6112 40.5465 26.8107 40.5934C26.9133 40.6139 27.0307 40.6081 27.1627 40.5611L27.9664 40.2854L27.1656 37.9299Z" fill="#8E8E8E"/>
<path d="M25.5142 39.5141L25.476 40.6551L24.9451 39.6461L25.5142 39.5141ZM25.8075 38.3994L25.5464 38.4581L25.523 39.2266L24.8131 39.3997L24.4523 38.7192L24.1824 38.7837L25.4144 41.0511L25.7019 40.9866L25.8104 38.4024" fill="#8E8E8E"/>
<path d="M24.5256 41.2477L24.1707 41.2946L23.364 39.2794L23.1088 41.4413L22.7539 41.4853L22.4283 39.0154L22.663 38.9861L22.8566 40.444C22.8624 40.4938 22.8712 40.576 22.88 40.6962C22.8947 40.8106 22.9064 40.9338 22.924 41.0717L23.1909 38.9186L23.4403 38.8834L24.2499 40.8957L24.2411 40.8165C24.2323 40.7549 24.2176 40.6669 24.1971 40.5408C24.1795 40.4176 24.1678 40.3266 24.159 40.2709L23.9653 38.813L24.2 38.7808L24.5256 41.2477Z" fill="#8E8E8E"/>
<path d="M22.3491 41.5116L21.9941 41.5175L21.4163 39.426L20.9205 41.541L20.5627 41.5498L20.5187 39.0623L20.7533 39.0564L20.7797 40.529V40.7783C20.7768 40.8956 20.7768 41.0218 20.7797 41.1596L21.2843 39.0447H21.5395L22.1173 41.1332V41.057C22.1115 40.9954 22.1115 40.9015 22.1056 40.7754C22.0968 40.6522 22.0939 40.5612 22.0939 40.4996L22.0675 39.0359L22.3021 39.03L22.3491 41.5146" fill="#8E8E8E"/>
<path d="M20.152 41.5206L18.7939 41.4062L18.8174 41.104L19.9262 41.192L19.9878 40.4411L18.964 40.359L18.9904 40.0686L20.0112 40.1566L20.0816 39.3118L18.9611 39.2208L18.9875 38.9246L20.3574 39.036L20.152 41.5206Z" fill="#8E8E8E"/>
<path d="M17.1395 41.1362L17.1864 40.8429L17.8083 40.9514L18.1749 38.7866L18.4243 38.8306L18.0605 40.9925L18.6795 41.0952L18.6325 41.3826L17.1395 41.1362Z" fill="#8E8E8E"/>
<path d="M16.9429 39.9188L16.7259 40.7342L16.148 40.5788C16.0659 40.5582 16.0043 40.523 15.9632 40.479C15.8899 40.394 15.8723 40.2678 15.9192 40.0948C15.9603 39.9364 16.0219 39.8337 16.1011 39.7926C16.1803 39.7516 16.28 39.7398 16.3915 39.7721L16.9429 39.9158V39.9188ZM17.5296 38.6721L17.2861 38.6105L17.0133 39.643L16.4707 39.5022C16.3739 39.4788 16.3064 39.4436 16.2712 39.4025C16.2037 39.3292 16.1891 39.2118 16.2243 39.0564L16.3152 38.6457C16.3357 38.5489 16.3475 38.4873 16.3533 38.4521C16.3533 38.4169 16.3533 38.3905 16.3533 38.3641L16.0571 38.2878L16.0424 38.3406C16.0747 38.3729 16.0864 38.4257 16.0835 38.5078C16.0776 38.5577 16.0688 38.631 16.0483 38.7161L15.972 39.0476C15.9427 39.1884 15.9339 39.2969 15.9544 39.3673C15.972 39.4377 16.0101 39.5052 16.0717 39.5609C15.9779 39.5961 15.8957 39.6489 15.8253 39.734C15.7579 39.8132 15.7021 39.9276 15.6669 40.0713C15.5936 40.347 15.6288 40.5582 15.7725 40.7049C15.8429 40.7753 15.9485 40.834 16.0805 40.8721L16.9019 41.0862L17.5355 38.678" fill="#8E8E8E"/>
<path d="M15.3032 40.6552L15.0304 40.5584L14.9336 39.2501L14.0243 40.1917L13.7515 40.092L14.916 38.9392L15.2592 37.9946L15.4968 38.0797L15.1536 39.0213L15.3032 40.6552Z" fill="#8E8E8E"/>
<path d="M13.6634 37.531C13.7368 37.5633 13.7896 37.6337 13.8218 37.7276C13.857 37.8273 13.8394 37.9329 13.7808 38.0502C13.725 38.1588 13.6546 38.238 13.5666 38.2878C13.5109 38.323 13.4024 38.3612 13.2498 38.4022L13.1824 37.5985C13.2469 37.5516 13.3232 37.5164 13.4082 37.4958C13.4962 37.4753 13.5784 37.487 13.6634 37.5281V37.531ZM13.021 38.675C13.0298 38.7982 13.0386 38.8892 13.0357 38.9625C13.0328 39.0329 13.0152 39.0945 12.9829 39.1561C12.9653 39.203 12.933 39.2382 12.8978 39.2705C12.8274 39.3292 12.7482 39.338 12.6632 39.294C12.6074 39.2646 12.5752 39.2206 12.5664 39.1561C12.5546 39.0916 12.5693 39.03 12.6016 38.9625C12.6456 38.8804 12.7042 38.8129 12.7834 38.766C12.8333 38.7366 12.9096 38.7073 13.021 38.675ZM13.2674 38.6486C13.4464 38.6134 13.5725 38.5694 13.6546 38.5225C13.7896 38.4521 13.8981 38.3289 13.9802 38.1617C14.0565 38.0092 14.0917 37.8449 14.0741 37.6777C14.0565 37.5134 13.9656 37.3902 13.7925 37.3052C13.6752 37.2436 13.5578 37.2289 13.4288 37.2553C13.3554 37.267 13.2674 37.3052 13.1618 37.3638L13.1296 37.0382L12.8714 36.9092L12.9242 37.5281C12.9389 37.5076 12.892 37.5486 12.7864 37.6572C12.6808 37.7716 12.5869 37.8948 12.5018 38.0326L12.6984 38.1294C12.7424 38.062 12.7776 38.0121 12.804 37.971C12.8362 37.9388 12.8773 37.886 12.9389 37.8097L12.9976 38.4462C12.8656 38.4814 12.7629 38.5196 12.6925 38.5665C12.5693 38.6369 12.4725 38.7425 12.4021 38.8892C12.3405 39.0094 12.3229 39.1326 12.3405 39.2529C12.3581 39.3732 12.4285 39.4641 12.5429 39.5228C12.6661 39.5844 12.7893 39.5873 12.9066 39.5286C13.024 39.47 13.1237 39.3673 13.1941 39.2265C13.2293 39.159 13.2557 39.0828 13.2674 38.9918C13.2792 38.9097 13.2792 38.7924 13.2674 38.6516" fill="#8E8E8E"/>
<path d="M10.0173 37.8009C10.0027 37.5955 10.0467 37.3931 10.1523 37.2113L10.3517 37.3462C10.2901 37.4958 10.2608 37.6337 10.2784 37.7539C10.2989 37.8771 10.3664 37.9798 10.4896 38.0678C10.6392 38.1646 10.8093 38.1793 11 38.0971C11.1877 38.0179 11.3843 37.8273 11.5837 37.5369C11.7451 37.2963 11.8331 37.0734 11.8536 36.8651C11.8712 36.6569 11.7979 36.4985 11.6307 36.3841C11.4781 36.2843 11.3109 36.2843 11.1203 36.3841C11.0205 36.4427 10.9149 36.5337 10.8064 36.6539L10.5981 36.519C10.7653 36.3107 10.9472 36.1699 11.1496 36.0878C11.3901 35.991 11.6131 36.0174 11.8213 36.1553C12.0003 36.2785 12.0971 36.4486 12.1235 36.6774C12.1557 36.9766 12.0355 37.3315 11.7656 37.7275C11.5603 38.0297 11.3315 38.2409 11.0792 38.3553C10.8064 38.4814 10.5571 38.4667 10.3283 38.3083C10.1347 38.1822 10.0291 38.0121 10.0144 37.8009" fill="#8E8E8E"/>
<path d="M10.12 36.2521L9.19013 36.918L9.66826 35.8884L10.12 36.255V36.2521ZM11.1877 35.8092L10.9824 35.639L10.3547 36.0878L9.79146 35.6244L10.1112 34.9233L9.9 34.7502L8.84106 37.1028L9.06693 37.2905L11.1877 35.8092Z" fill="#8E8E8E"/>
<path d="M8.756 35.516L8.16347 36.1144L7.7352 35.689C7.67654 35.6304 7.6384 35.5717 7.62667 35.516C7.60614 35.4016 7.656 35.2842 7.7792 35.1581C7.8936 35.0437 7.9992 34.9821 8.09014 34.988C8.18107 34.988 8.26907 35.0349 8.3512 35.117L8.75307 35.5189L8.756 35.516ZM9.88534 34.7357L9.70934 34.5597L8.95547 35.3165L8.55654 34.9234C8.48614 34.853 8.44507 34.7944 8.43334 34.7328C8.41574 34.636 8.46267 34.5304 8.56827 34.4101L8.8528 34.105C8.9144 34.0288 8.9584 33.9789 8.97894 33.9496C8.99947 33.9232 9.01414 33.8968 9.02 33.8762L8.8 33.6592L8.7648 33.6973C8.77654 33.7442 8.75894 33.797 8.71494 33.8616C8.68854 33.9026 8.64454 33.9584 8.57707 34.0288L8.34827 34.2752C8.25147 34.3808 8.18987 34.4688 8.17227 34.5392C8.15467 34.6125 8.15467 34.6829 8.17814 34.7709C8.0784 34.7474 7.9816 34.7592 7.87894 34.7944C7.7792 34.8266 7.67654 34.897 7.57094 35.0056C7.37147 35.2021 7.2952 35.4045 7.34507 35.6069C7.36854 35.7066 7.43014 35.8093 7.52987 35.9061L8.1312 36.5074L9.8824 34.7386" fill="#8E8E8E"/>
<path d="M6.01044 34.193L6.2363 34.0024L6.64404 34.4893L8.31604 33.0725L8.4803 33.2661L6.80244 34.6741L7.21017 35.1581L6.98724 35.3517L6.01044 34.193Z" fill="#8E8E8E"/>
<path d="M7.28639 32.075C7.41839 32.2686 7.43599 32.4622 7.34212 32.6558C7.24532 32.8494 7.08399 33.0283 6.85519 33.1897C6.57066 33.3862 6.32132 33.483 6.10719 33.4859C5.89305 33.4859 5.72585 33.4038 5.61439 33.2425C5.50292 33.0811 5.48532 32.8993 5.56452 32.7027C5.64665 32.5033 5.80799 32.3214 6.05145 32.1513C6.27732 31.9929 6.50905 31.8902 6.74372 31.8521C6.97545 31.811 7.15732 31.8814 7.28639 32.0691V32.075ZM5.37972 33.4302C5.55865 33.6883 5.82266 33.7969 6.16586 33.7529C6.43572 33.7147 6.70852 33.6033 6.98719 33.4097C7.29225 33.1955 7.50345 32.9609 7.62079 32.6998C7.73519 32.4182 7.71172 32.163 7.54452 31.9283C7.37145 31.6731 7.11625 31.5617 6.78479 31.591C6.50319 31.6174 6.20692 31.7347 5.90186 31.9459C5.62026 32.1425 5.42372 32.3566 5.31226 32.5825C5.17146 32.8758 5.19492 33.1574 5.38265 33.4302" fill="#8E8E8E"/>
<path d="M4.21227 31.2362C4.23574 31.0133 4.3824 30.8079 4.64934 30.6143L4.76667 30.8343C4.62294 30.9458 4.53494 31.0631 4.51147 31.1863C4.48507 31.3154 4.50267 31.4327 4.57307 31.5618C4.65227 31.7143 4.79894 31.7936 5.00427 31.8112C5.21254 31.8317 5.4648 31.7642 5.764 31.597C6.02507 31.4591 6.2128 31.2978 6.33014 31.1247C6.44747 30.9517 6.4504 30.7669 6.34774 30.5821C6.26854 30.4325 6.1424 30.3445 5.97814 30.3063C5.81094 30.277 5.60267 30.3298 5.34454 30.4618L5.62614 30.9781L5.37974 31.113L4.98667 30.3914L6.16 29.7549L6.23627 29.8957L5.98107 30.1069C6.13067 30.1215 6.24507 30.1421 6.32134 30.1773C6.44747 30.236 6.55014 30.3357 6.63227 30.4853C6.73494 30.6759 6.7408 30.8871 6.6528 31.113C6.52374 31.3799 6.2744 31.6146 5.9048 31.8141C5.54107 32.0135 5.2096 32.0986 4.9104 32.0693C4.62587 32.0429 4.4264 31.9197 4.30614 31.6968C4.22694 31.5442 4.19174 31.3888 4.20934 31.2362" fill="#8E8E8E"/>
<path d="M4.74615 29.8605L3.96588 30.1861L3.73708 29.6258C3.70482 29.5525 3.69308 29.4821 3.70482 29.4176C3.72828 29.3061 3.82215 29.221 3.98348 29.1506C4.13308 29.0861 4.25335 29.0714 4.33548 29.1125C4.41762 29.1506 4.48508 29.224 4.52615 29.3296L4.74615 29.8576V29.8605ZM6.08962 29.5818L5.99575 29.3442L5.00428 29.7578L4.79308 29.2416C4.75202 29.1448 4.74028 29.0714 4.74908 29.0157C4.76668 28.916 4.85468 28.8368 4.99842 28.7693L5.37975 28.5992C5.46482 28.561 5.52348 28.5258 5.55575 28.5082C5.58508 28.4906 5.60562 28.473 5.62322 28.4554L5.50588 28.1738L5.45602 28.1885C5.44722 28.2384 5.41202 28.2765 5.34162 28.3264C5.30348 28.3498 5.24188 28.388 5.15682 28.4202L4.85175 28.561C4.71682 28.6168 4.62882 28.6784 4.58188 28.737C4.53495 28.7928 4.51148 28.8632 4.50268 28.9482C4.42055 28.8896 4.32375 28.8632 4.21522 28.8544C4.11255 28.8485 3.98935 28.872 3.85148 28.9306C3.58748 29.0362 3.44082 29.1946 3.40855 29.397C3.39388 29.4997 3.40855 29.617 3.46722 29.7461L3.79282 30.5352L6.08962 29.5848" fill="#8E8E8E"/>
<path d="M4.39998 28.03L3.26185 28.0652L4.22985 27.4727L4.40292 28.033L4.39998 28.03ZM5.53225 28.253L5.45598 27.9978L4.68451 28.0212L4.47331 27.3202L5.13038 26.9183L5.04825 26.6514L2.86292 28.0271L2.94798 28.3087L5.53225 28.253Z" fill="#8E8E8E"/>
<path d="M3.0888 25.877C3.25013 25.8448 3.36453 25.8594 3.44373 25.9181C3.52 25.9709 3.56693 26.0589 3.5904 26.1674L3.6872 26.6544L2.84827 26.8304L2.74853 26.3346C2.728 26.2378 2.73093 26.1645 2.7544 26.1C2.79547 25.9885 2.90987 25.9181 3.08587 25.8741L3.0888 25.877ZM5.0512 26.6368L5.00133 26.3904L3.97173 26.5986L3.8544 26.0237C3.81627 25.8418 3.7224 25.7186 3.56107 25.66C3.39973 25.6013 3.22667 25.5896 3.036 25.6248C2.816 25.6717 2.65173 25.7568 2.54907 25.8829C2.4464 26.009 2.41413 26.1498 2.44347 26.3141L2.6136 27.1296L5.04827 26.6338" fill="#8E8E8E"/>
<path d="M2.2851 25.4457L2.2587 25.1935L3.28536 25.0879L3.1827 24.1257L2.1619 24.2343L2.1355 23.9791L4.61123 23.7239L4.63763 23.9761L3.4819 24.0993L3.58163 25.0556L4.73443 24.9353L4.76083 25.1876L2.2851 25.4457Z" fill="#8E8E8E"/>
<path d="M2.11787 23.7298L2.11494 23.4365L3.30587 22.888L2.10907 22.3658L2.10614 22.0696L3.59921 22.7648L4.59947 22.756V23.0053L3.59921 23.0112L2.11787 23.7298Z" fill="#8E8E8E"/>
<path d="M35.0768 22.7499L31.5099 21.8523V23.6915L35.0768 22.7499Z" fill="#8E8E8E"/>
<path d="M31.5099 23.888C31.4659 23.888 31.4248 23.8734 31.3896 23.847C31.3398 23.8088 31.3134 23.7502 31.3134 23.6915V21.8523C31.3134 21.7907 31.3427 21.735 31.3896 21.6968C31.4366 21.6587 31.5011 21.647 31.5598 21.6616L35.1267 22.5622C35.2147 22.5856 35.2763 22.6619 35.2763 22.7528C35.2763 22.8438 35.2176 22.923 35.1296 22.9464L31.5627 23.888C31.5451 23.891 31.5304 23.8939 31.5128 23.8939L31.5099 23.888ZM31.7064 22.1046V23.4334L34.2848 22.7528L31.7064 22.1016V22.1046Z" fill="#8E8E8E"/>
<path d="M7.14563 22.791L10.7155 23.6915V21.8523L7.14563 22.791Z" fill="#8E8E8E"/>
<path d="M10.7155 23.8881C10.6979 23.8881 10.6832 23.8881 10.6686 23.8822L7.10163 22.9817C7.01363 22.9582 6.95203 22.8819 6.95203 22.791C6.95203 22.7001 7.01069 22.6209 7.09869 22.5974L10.6656 21.6558C10.7243 21.6411 10.7888 21.6558 10.8358 21.691C10.8856 21.7291 10.912 21.7878 10.912 21.8465V23.6857C10.912 23.7473 10.8827 23.803 10.8358 23.8411C10.8006 23.8675 10.7566 23.8822 10.7155 23.8822V23.8881ZM7.94056 22.7881L10.519 23.4393V22.1105L7.94056 22.791V22.7881Z" fill="#8E8E8E"/>
<path d="M21.2167 36.8211L22.1173 33.2542H20.2751L21.2167 36.8211Z" fill="#8E8E8E"/>
<path d="M21.2168 37.0176C21.1258 37.0176 21.0496 36.956 21.0261 36.871L20.0845 33.304C20.0698 33.2453 20.0845 33.1808 20.1197 33.1339C20.1578 33.084 20.2136 33.0576 20.2752 33.0576H22.1144C22.176 33.0576 22.2317 33.0869 22.2698 33.1339C22.308 33.1808 22.3197 33.2453 22.305 33.304L21.4045 36.871C21.384 36.959 21.3048 37.0205 21.2138 37.0205L21.2168 37.0176ZM20.5333 33.4507L21.2138 36.0291L21.865 33.4507H20.5362H20.5333Z" fill="#8E8E8E"/>
<path d="M6.67919 22.8498H6.34479C6.34479 14.2991 13.156 8.68469 19.7413 8.19775L19.7648 8.53215C13.332 9.00735 6.67625 14.4956 6.67625 22.8498H6.67919Z" fill="#8E8E8E"/>
<path d="M35.8629 22.8498H35.5285C35.5285 14.4927 28.8757 9.00735 22.44 8.53215L22.4635 8.19775C29.0488 8.68469 35.86 14.2991 35.86 22.8498H35.8629Z" fill="#8E8E8E"/>
<path d="M23.9741 1.80029H18.2893V2.41043H23.9741V1.80029Z" fill="#8E8E8E"/>
<path d="M24.0973 2.53647H18.1661V1.677H24.0973V2.53647ZM18.4125 2.28714H23.848V1.92634H18.4125V2.28714Z" fill="#8E8E8E"/>
<path d="M24.2264 1.80029H23.983V2.41043H24.2264V1.80029Z" fill="#8E8E8E"/>
<path d="M24.3525 1.677H23.8597V2.53647H24.3525V1.677Z" fill="#8E8E8E"/>
<path d="M18.2336 1.80029H17.9902V2.41043H18.2336V1.80029Z" fill="#8E8E8E"/>
<path d="M18.3597 1.677H17.8669V2.53647H18.3597V1.677Z" fill="#8E8E8E"/>
<path d="M49.5616 22.3948H53.5832V20.3826H56.2056V22.3948H60.2653L60.2448 24.5098H49.5616V22.3948ZM54.9032 32.4767C52.2808 32.4767 50.4474 30.9983 50.4474 28.8218C50.4474 26.6452 52.2808 25.1874 54.9032 25.1874C57.5256 25.1874 59.3589 26.6863 59.3589 28.8218C59.3589 30.9572 57.4874 32.4767 54.9032 32.4767ZM64.504 38.9858H52.1459V33.5034H54.7477V36.8298H64.504V38.9858ZM54.9032 30.4234C56.0853 30.4234 56.8744 29.869 56.8744 28.8218C56.8744 27.7746 56.0853 27.2407 54.9032 27.2407C53.721 27.2407 52.932 27.7746 52.932 28.8218C52.932 29.869 53.721 30.4234 54.9032 30.4234ZM63.8528 28.4111V34.5506H61.2509V20.4002H63.8528V26.17H66.2581V28.4082H63.8528V28.4111Z" fill="#8E8E8E"/>
<path d="M83.2274 32.559V39.3145H80.605V34.6945H70.3354V32.559H75.5802V29.8897H68.681V27.7337H80.2325C80.5669 26.0089 80.6256 24.6332 80.6256 23.3806H70.7109V21.2041H83.1893V22.7236C83.1893 24.1404 83.2098 25.6804 82.8344 27.7337H85.1194V29.8897H78.1821V32.559H83.2274Z" fill="#8E8E8E"/>
<path d="M87.8005 31.943V29.787H104.201V31.943H87.8005ZM94.5032 24.2635H89.3581V22.1691H94.6792V20.4648H97.2811V22.1691H102.623V24.2635H97.4776C97.7944 25.5776 99.5075 26.7891 103.47 27.056L102.702 29.0683C99.2141 28.8219 97.1227 27.8363 95.9992 26.3374C94.8171 27.8363 92.6669 28.8219 89.2584 29.0683L88.4899 27.056C92.4528 26.7891 94.1864 25.5776 94.5032 24.2635ZM102.23 39.3379H99.6277V35.4776H89.6133V33.3422H102.23V39.3379Z" fill="#8E8E8E"/>
<path d="M107.554 23.6887V21.5121H115.831V27.1999H110.155V28.8425C113.092 28.8425 115.104 28.6988 117.371 28.2676L117.589 30.4441C115.086 30.9369 112.74 31.0191 109.132 31.0191H107.574V25.1876H113.271V23.6887H107.554ZM121.39 35.7417C121.39 37.9799 119.005 39.3351 115.239 39.3351C111.473 39.3351 109.088 37.9799 109.088 35.7417C109.088 33.5036 111.434 32.1484 115.239 32.1484C119.043 32.1484 121.39 33.442 121.39 35.7417ZM118.826 35.7417C118.826 34.7356 117.624 34.2223 115.239 34.2223C112.854 34.2223 111.651 34.7356 111.651 35.7417C111.651 36.7479 112.854 37.2612 115.239 37.2612C117.624 37.2612 118.826 36.7479 118.826 35.7417ZM123.617 26.9329V29.13H121.211V31.7993H118.609V20.4033H121.211V22.9495H123.617V25.1465H121.211V26.9329H123.617Z" fill="#8E8E8E"/>
<path d="M126.042 22.0664H130.064V20.3005H132.686V22.0664H136.728V24.2019H126.045V22.0664H126.042ZM131.384 31.7581C128.762 31.7581 126.928 30.3208 126.928 28.2675C126.928 26.2141 128.762 24.7973 131.384 24.7973C134.006 24.7973 135.84 26.2141 135.84 28.2675C135.84 30.3208 134.006 31.7581 131.384 31.7581ZM140.334 39.3349H137.732V35.2077H128.231V33.0312H140.334V39.3349ZM131.384 29.7048C132.566 29.7048 133.355 29.2325 133.355 28.2675C133.355 27.3024 132.566 26.8507 131.384 26.8507C130.202 26.8507 129.413 27.3024 129.413 28.2675C129.413 29.2325 130.202 29.7048 131.384 29.7048ZM140.334 32.2509H137.732V20.4032H140.334V25.2696H142.739V27.5077H140.334V32.2509Z" fill="#8E8E8E"/>
<path d="M156.754 33.442L156.951 35.3927C152.988 36.1524 148.77 36.1729 145.578 36.1729L145.262 33.9759C146.623 33.9759 148.119 33.9964 149.776 33.9348V32.3332C147.805 31.9431 146.564 30.67 146.564 28.9247C146.564 26.7892 148.418 25.3519 151.078 25.3519C153.739 25.3519 155.572 26.7892 155.572 28.9247C155.572 30.67 154.349 31.9431 152.378 32.3332V33.8321C153.877 33.75 155.335 33.6679 156.754 33.442ZM145.617 22.4977H149.776V20.4649H152.378V22.4977H156.517V24.6127H145.617V22.4977ZM151.075 30.4236C152.337 30.4236 153.105 29.8897 153.105 28.9247C153.105 27.9596 152.337 27.4052 151.075 27.4052C149.814 27.4052 149.046 27.9391 149.046 28.9247C149.046 29.9103 149.873 30.4236 151.075 30.4236ZM157.699 39.3145V20.4004H160.301V39.3145H157.699Z" fill="#8E8E8E"/>
<path d="M56.1733 12.3483L55.4635 13.3104C54.3693 12.712 53.5597 11.6091 53.1197 10.1894C52.6797 11.656 51.8349 12.888 50.6645 13.5099L49.9547 12.536C51.5533 11.7264 52.533 9.72004 52.533 7.76058V6.02404H53.6947V7.76058C53.6947 9.64964 54.6509 11.5739 56.1733 12.3483ZM58.0096 10.3419V15.7392H56.848V5.14404H58.0096V9.34458H59.5994V10.3419H58.0096Z" fill="#8E8E8E"/>
<path d="M62.3011 10.999H61.4797V6.01232H66.0088V6.99792H62.6413V10.0017C64.5685 10.0017 65.6597 9.94299 66.8888 9.66139L67.0003 10.6353C65.6715 10.9169 64.4893 10.999 62.3011 10.999ZM69.4085 14.5542V15.5398H62.5592V12.0315H63.7296V14.5542H69.4085ZM70.444 9.16859H69.0008V12.8059H67.8392V5.13232H69.0008V8.17126H70.444V9.16859Z" fill="#8E8E8E"/>
<path d="M80.4144 10.9521H79.2528V8.65232H77.1349V10.5883H72.4474V5.67206H73.5973V7.17392H75.9968V5.68379H77.1349V7.66672H79.2528V5.13232L80.4144 5.14406V10.9521ZM73.5973 8.11259V9.60272H75.9968V8.11259H73.5973ZM80.4144 11.4331V15.5985H73.8027V11.4331H74.9525V12.5595H79.2557V11.4331H80.4173H80.4144ZM74.9496 13.5099V14.6246H79.2528V13.5099H74.9496Z" fill="#8E8E8E"/>
<path d="M85.8088 11.1515C84.2776 11.1515 83.1042 10.0368 83.1042 8.49978C83.1042 6.96271 84.2746 5.84804 85.8088 5.84804C87.3429 5.84804 88.5016 6.93924 88.5016 8.49978C88.5016 10.0603 87.34 11.1515 85.8088 11.1515ZM85.8088 10.1072C86.6976 10.1072 87.3752 9.46191 87.3752 8.49978C87.3752 7.53764 86.7005 6.89231 85.8088 6.89231C84.917 6.89231 84.2424 7.51418 84.2424 8.49978C84.2424 9.48538 84.9082 10.1072 85.8088 10.1072ZM91.5875 15.5398H84.6472V12.0667H85.8176V14.5542H91.5845V15.5398H91.5875ZM90.1354 12.8411V5.14404H91.297V12.8411H90.1354Z" fill="#8E8E8E"/>
</g>
</g>
<defs>
<clipPath id="clip0_366_2361">
<rect width="160.301" height="44" fill="white" transform="translate(0 0.00195312)"/>
</clipPath>
<clipPath id="clip1_366_2361">
<rect width="160.301" height="44" fill="white" transform="translate(0 0.00195312)"/>
</clipPath>
</defs>
</svg>
