<svg width="305" height="40" viewBox="0 0 305 40" fill="none" xmlns="http://www.w3.org/2000/svg">
<g clip-path="url(#clip0_142_6083)">
<path d="M91.4004 7.6875L91.4362 7.71025L91.4524 7.73301L91.4004 7.6875Z" fill="#1C2A54"/>
<path d="M93.5547 9.16016L93.5839 9.16991L93.6197 9.18941L93.5547 9.16016Z" fill="#1C2A54"/>
<path fill-rule="evenodd" clip-rule="evenodd" d="M26.6433 11.332L22.5659 15.1223L18.3066 12.2519L22.3873 8.46484L26.6433 11.332Z" fill="#2D2D2D"/>
<path fill-rule="evenodd" clip-rule="evenodd" d="M21.5499 26.1192L25.4779 30.1956L21.0269 36.5735L0 22.4004L13.7786 2.66211L21.8131 8.07779L17.7292 11.8649L15.1983 10.1615L7.63166 20.9929L19.5194 28.9994L21.5499 26.1192Z" fill="#2D2D2D"/>
<path fill-rule="evenodd" clip-rule="evenodd" d="M28.7959 25.4495L25.8719 29.6331L22.0122 25.6217L21.9473 25.5567V25.5535L24.8843 21.3828L24.9363 21.4348L28.7959 25.4495Z" fill="#2D2D2D"/>
<path fill-rule="evenodd" clip-rule="evenodd" d="M33.2616 19.0494L33.2746 19.0592L30.8509 22.5017L29.1972 24.8715L25.3375 20.8601L25.3343 20.8633L25.2888 20.8113L27.1277 18.1978L23.1445 15.5127L27.2251 11.7256L34.8048 16.8357L33.2616 19.0494Z" fill="#2D2D2D"/>
<path fill-rule="evenodd" clip-rule="evenodd" d="M43.7082 12.6745L43.6952 20.642L47.7498 16.8744L43.7082 12.6745ZM22.5676 15.1223L26.645 11.332L31.057 7.23283C31.2064 7.10605 31.4306 7.10605 31.5573 7.24909L36.2422 12.1219L43.1884 12.1349L31.5118 0L22.3889 8.46485L18.3051 12.2519L13.4707 16.7379L21.9471 25.5506L22.0121 25.6156L25.8717 29.6302L29.7119 33.6221L36.0635 27.7221L36.0765 20.8923L30.17 26.3698C30.0206 26.5128 29.8159 26.4965 29.6827 26.3698L28.7925 25.4433L24.9328 21.4319L24.8808 21.3799L20.8489 17.1865C20.706 17.0467 20.7222 16.8387 20.8489 16.7119L22.5644 15.1191L22.5676 15.1223Z" fill="#8E8E8E"/>
<path d="M74.7988 25.2454L74.7793 25.2129L74.7695 25.1934L74.7988 25.2454Z" fill="#1C2A54"/>
<path d="M111.12 13.6274C111.126 13.7867 111.042 14.0208 110.873 14.3101C110.528 14.2028 110.181 14.1573 109.839 14.167C109.128 14.1898 108.53 14.4336 108.059 14.8887C107.491 15.4153 107.231 16.1435 107.266 17.0732C107.286 17.655 107.617 18.3995 108.27 19.2902C109.255 20.6164 109.869 21.5169 110.099 21.9817C110.769 23.2495 111.126 24.6051 111.178 26.0744C111.207 26.9293 111.12 27.8428 110.908 28.818C110.665 29.8907 110.34 30.6741 109.937 31.1715C109.076 32.2865 108.049 33.239 106.873 34.0126C105.603 34.8351 104.417 35.2641 103.325 35.3064C103.085 35.3129 102.503 34.419 101.594 32.6181C100.684 30.8204 100.226 29.7217 100.203 29.3153C100.2 29.1626 100.265 29.0683 100.401 29.0293C101.236 28.7822 102.088 28.5287 102.949 28.2816C103.998 27.7713 104.508 26.9716 104.469 25.8988C104.443 25.1544 104.102 24.3027 103.446 23.3535C102.283 21.6892 101.665 20.8017 101.613 20.701C100.947 19.5177 100.593 18.2434 100.548 16.9009C100.453 14.3653 101.308 12.1874 103.088 10.3572C104.69 8.72859 106.431 7.88016 108.316 7.81839C108.507 7.81189 109.024 8.70584 109.852 10.4872C110.684 12.2719 111.103 13.3218 111.116 13.6242" fill="#2D2D2D"/>
<path d="M76.08 31.0965L76.0637 39.5711L70.0922 39.5581L70.1085 31.9547V31.0348L70.0792 30.1668L69.998 29.3899V29.3444L69.8356 28.7268C69.8258 28.6943 69.8258 28.678 69.8258 28.6617L69.6114 28.1741C69.5984 28.1416 69.5822 28.1286 69.5627 28.0929L69.0168 27.368C68.9844 27.3355 68.9681 27.3192 68.9356 27.2899L68.2111 26.7503C68.1819 26.7308 68.1656 26.7178 68.1299 26.7016L67.2787 26.3505C67.2462 26.3342 67.2137 26.3342 67.165 26.3342L66.2325 26.2237C66.2131 26.2042 66.1838 26.2042 66.1513 26.2237L65.4268 26.2855C65.4106 26.2855 65.3813 26.2855 65.3488 26.3017L64.6698 26.5033C64.6536 26.5033 64.6373 26.5195 64.6049 26.5195L63.9941 26.8348C63.9941 26.8348 63.9453 26.8641 63.9323 26.8804L63.367 27.3387C63.3475 27.355 63.3345 27.3712 63.315 27.3875L62.8504 27.9563C62.8342 27.9888 62.818 28.0051 62.8017 28.0376L62.4801 28.652C62.4606 28.6682 62.4606 28.6845 62.4476 28.717L62.2364 29.3964V29.4582L62.1682 30.1831C62.1519 30.2156 62.1519 30.2286 62.1682 30.2643L62.2332 30.9697C62.2332 30.9925 62.2332 31.0218 62.2494 31.0543L62.4573 31.7207C62.4573 31.7369 62.4768 31.7662 62.4768 31.7824L62.8147 32.3838C62.8309 32.4033 62.8472 32.4326 62.8602 32.4488L63.3248 32.9819C63.3378 33.0047 63.3573 33.0177 63.3703 33.034L63.9323 33.4728C63.9681 33.4891 63.9811 33.5053 63.9973 33.5216L64.6243 33.8564C64.6568 33.8564 64.6698 33.8726 64.7056 33.8824L65.4106 34.0774H65.4756L66.2325 34.1424C66.265 34.1554 66.2975 34.1424 66.3138 34.1424L67.3469 34.0319C67.3794 34.0319 67.3956 34.0319 67.4086 34.0189L68.1007 33.8174L68.0909 39.7792L67.2884 39.9125L66.304 39.9742L64.9492 39.893L63.6627 39.6361L62.4086 39.2233L61.2195 38.6512L60.0921 37.936L59.1272 37.1136L58.276 36.1806L57.5547 35.1177L56.9797 33.9767L56.5638 32.7739L56.3202 31.5126L56.2422 30.1961L56.3267 28.886L56.5898 27.6248L57.0089 26.422L57.61 25.2517L58.3377 24.1985L59.1889 23.2298L60.1376 22.3944L61.2033 21.6857L62.3469 21.1363L63.5717 20.7268L64.829 20.4765H64.7803L66.1643 20.3984L67.5159 20.4797L68.8057 20.7333L70.0273 21.1298L71.1871 21.702L72.243 22.4009L73.2112 23.2233L74.0624 24.1595L74.7771 25.2062L75.3619 26.3765L75.7778 27.563L76.0182 28.7983L76.0962 30.0953L76.08 31.09V31.0965Z" fill="#555555"/>
<path d="M79.3546 17.3069L79.2441 16.5267L79.3546 15.6587L79.6795 14.8656L80.1993 14.1829L80.8361 13.6661L81.6418 13.3377L82.4346 13.2305L83.3215 13.3475L84.1305 13.7018L84.0525 13.6693L84.7998 14.2349L85.2676 14.8201L85.5827 15.6522L85.6802 16.4617L85.5827 17.2321L85.2319 18.035L84.7218 18.6852L84.0785 19.15L83.2533 19.4978L82.4735 19.5889L81.6743 19.4946L80.8458 19.1435L80.1506 18.6299L80.2123 18.7047L80.1473 18.6266L79.6795 18.0318L79.3546 17.3069Z" fill="#555555"/>
<path d="M79.4716 21.0007L79.4355 39.8125L85.394 39.8239L85.4301 21.0121L79.4716 21.0007Z" fill="#555555"/>
<path d="M98.4617 34.1844L98.4487 39.9576L98.0491 39.9999H97.5131L96.0998 39.9024H96.1583L94.7937 39.5968L94.8392 39.6163L93.5786 39.1319L92.4285 38.4558L91.4311 37.6724L90.5149 36.6516L90.5637 36.6972L89.9399 35.7317L89.4785 34.815L89.4915 34.8638L89.1666 33.8625L88.9815 32.728L88.8515 31.2847L88.8223 29.5488V28.967L88.8483 14.9727L94.7872 14.9857L94.7775 20.3753C94.7775 20.5996 94.9529 20.7589 95.1641 20.7589L98.4812 20.7654L98.4682 26.6135L95.1544 26.6069C94.9464 26.6069 94.7677 26.776 94.7677 26.984L94.7612 30.1145V31.0149L94.8197 31.7268L94.9334 32.377C94.9334 32.4095 94.9497 32.4225 94.9497 32.4582L95.1544 32.9491C95.1544 32.9491 95.1933 32.9913 95.2031 33.0076L95.476 33.4042C95.489 33.4497 95.5377 33.4822 95.5865 33.5147L96.4052 34.0218C96.4507 34.0543 96.4994 34.0706 96.5514 34.0706L97.76 34.2461H97.9841L98.1953 34.2136L98.452 34.1844H98.4617Z" fill="#555555"/>
<path d="M54.2312 35.9434L54.2247 39.2007L48.2695 39.1877L48.276 36.7821V35.9922L48.2793 35.1405L48.2143 34.1393L48.0421 33.1933C48.0421 33.1771 48.0226 33.1478 48.0226 33.1316L47.7172 32.3417C47.701 32.3254 47.701 32.2929 47.6847 32.2799L47.2526 31.568C47.2331 31.5517 47.2201 31.5355 47.2006 31.5062L46.4501 30.6805C46.4339 30.6643 46.4176 30.6513 46.3819 30.6318L45.5794 30.0792C45.5437 30.0597 45.5145 30.0467 45.482 30.0337L44.5138 29.6956C44.4975 29.6793 44.4651 29.6793 44.4358 29.6793L43.276 29.5688C43.1623 29.5526 43.0518 29.5818 42.9706 29.6631C42.8893 29.7281 42.8406 29.8354 42.8406 29.9296L42.8244 39.1812L36.8691 39.1682L36.9146 12.9512L42.8699 12.9642L42.8471 24.566C42.8471 24.6765 42.8958 24.7935 42.9771 24.8553C43.0583 24.93 43.1688 24.9658 43.2825 24.9528L44.2766 24.8585H44.3416L45.1961 24.6212C45.2286 24.605 45.2448 24.605 45.261 24.5887L45.9823 24.2279C46.0148 24.2116 46.0473 24.1954 46.0635 24.1824L46.6613 23.6753C46.6938 23.6395 46.7101 23.6298 46.7263 23.594L47.1941 22.9471C47.1941 22.9471 47.2299 22.8983 47.2429 22.8821L47.584 22.1084C47.584 22.0922 47.6002 22.0629 47.6002 22.0467L47.8114 21.13V21.0649L47.8569 20.353L53.8284 20.366L53.7699 21.0129L53.5587 21.9621L53.2501 22.8301L52.831 23.62L52.3176 24.3449L51.6711 25.0243L50.8946 25.6712L49.9947 26.2888C49.8842 26.3506 49.829 26.4611 49.816 26.5879C49.816 26.7147 49.8842 26.8252 49.9784 26.9032L51.3885 27.9174L51.343 27.8719L52.4379 28.9512L53.2826 30.2287L53.8089 31.6038L54.1273 33.2194L54.241 35.1048L54.2183 35.9402L54.2312 35.9434Z" fill="#555555"/>
<path d="M127.402 18.8116V21.2106H117.178V18.8116H120.878V16.9717H123.812V18.8116H127.399H127.402ZM117.678 25.8071C117.678 24.6271 118.12 23.6681 118.926 23.0082C119.751 22.3093 120.94 21.929 122.301 21.929C123.663 21.929 124.871 22.3093 125.696 23.0082C126.502 23.6681 126.944 24.6271 126.944 25.8071C126.944 26.9871 126.502 27.9461 125.696 28.606C124.871 29.2854 123.682 29.6852 122.301 29.6852C120.92 29.6852 119.751 29.2854 118.926 28.606C118.12 27.9461 117.678 26.9871 117.678 25.8071ZM118.675 30.3451H121.609V33.5243H132.236V36.0631H118.675V30.3451ZM120.459 25.8071C120.459 26.2265 120.631 26.5873 120.901 26.8473C121.226 27.1659 121.726 27.3479 122.301 27.3479C122.876 27.3479 123.396 27.1692 123.721 26.8473C123.991 26.5873 124.163 26.2265 124.163 25.8071C124.163 25.3878 123.991 25.0074 123.721 24.7474C123.396 24.4288 122.876 24.2663 122.301 24.2663C121.726 24.2663 121.226 24.4256 120.901 24.7474C120.631 25.0074 120.459 25.3683 120.459 25.8071ZM129.033 17.5113H131.947V22.4881H134.384V25.1082H131.947V31.0245H129.033V17.5113Z" fill="#555555"/>
<path d="M143.13 27.4065H136.59V24.8677H152.587V27.4065H146.028V29.7665H151.496V36.2614H148.582V32.2826H137.571V29.7633H143.133V27.4033L143.13 27.4065ZM148.575 21.2302V20.2712H137.565V17.7129H151.489V21.0514C151.489 22.1306 151.392 23.2293 151.164 24.0485H148.325C148.517 23.2293 148.575 22.2281 148.575 21.2302Z" fill="#555555"/>
<path d="M159.125 17.6125H162.039V20.5316C162.039 23.7693 163.42 25.2094 165.646 25.8693V28.5089C163.553 28.1708 161.637 27.0883 160.6 25.7295C159.622 27.1501 157.686 28.3073 155.516 28.7072V26.1098C157.835 25.3719 159.122 23.6718 159.122 20.5316V17.6125H159.125ZM157.033 29.4646H159.967V33.5215H170.594V36.0603H157.033V29.4646ZM167.39 17.5117H170.305V22.248H172.741V24.8681H170.305V30.4658H167.39V17.5117Z" fill="#555555"/>
<path d="M175.252 22.2904C175.252 20.5708 175.866 19.2315 176.863 18.4318C177.689 17.7329 178.764 17.3916 180.008 17.3916C181.253 17.3916 182.348 17.7329 183.173 18.4318C183.92 19.03 184.42 19.9109 184.651 21.0291H187.029V17.5119H189.943V27.3453H187.029V23.5875H184.651C184.42 24.6862 183.904 25.5671 183.173 26.1653C182.348 26.8447 181.275 27.186 180.008 27.186C178.741 27.186 177.689 26.8447 176.863 26.1653C175.866 25.3461 175.252 24.0263 175.252 22.2872V22.2904ZM179.414 29.8061H187.049V27.9857H189.943V36.1612H176.496V27.9857H179.411V29.8061H179.414ZM178.072 22.2904C178.072 23.1291 178.303 23.7695 178.745 24.1888C179.069 24.5074 179.492 24.6699 180.012 24.6699C180.531 24.6699 180.97 24.5107 181.298 24.1888C181.74 23.7695 181.971 23.1291 181.971 22.2904C181.971 21.4517 181.74 20.8309 181.298 20.4115C180.973 20.0929 180.531 19.9109 180.012 19.9109C179.492 19.9109 179.073 20.0897 178.745 20.4115C178.303 20.8309 178.072 21.4712 178.072 22.2904ZM187.049 33.7037V32.3059H179.414V33.7037H187.049Z" fill="#555555"/>
<path d="M200.684 22.0107V20.3918H194.778V17.8335H203.582V21.6499C203.582 28.9867 200.993 33.4435 194.684 35.0038V32.2244C198.904 30.9437 200.688 27.4686 200.688 22.0107H200.684ZM206.188 17.5117H209.102V35.9628H206.188V17.5117Z" fill="#555555"/>
<path d="M229.301 26.7468H222.741V27.7675H228.209V33.1247H217.296V33.9049H228.593V36.1641H214.379V30.8687H225.311V30.0495H214.379V27.7708H219.847V26.7501H213.307V24.351H229.304V26.7501L229.301 26.7468ZM221.283 21.3701C219.863 22.7679 217.101 23.6879 213.804 23.8699V21.4709C217.313 21.1718 219.827 19.9918 219.827 17.8138V17.6123H222.741V17.8138C222.741 19.9918 225.217 21.1718 228.726 21.4709V23.8699C225.464 23.6911 222.702 22.7517 221.283 21.3701Z" fill="#555555"/>
<path d="M236.376 17.833V21.1715H244.586V17.833H247.5V29.2072H241.958V32.6237H248.384V35.2016H232.578V32.6237H239.043V29.2072H233.442V17.833H236.376ZM236.376 26.6262H244.586V23.7461H236.376V26.6262Z" fill="#555555"/>
<path d="M252.622 26.4477C252.622 25.2092 253.158 24.2697 254.1 23.6098C255.367 22.7094 257.362 22.29 259.662 22.29C261.963 22.29 263.957 22.7094 265.224 23.6098C266.163 24.2697 266.703 25.2092 266.703 26.4477C266.703 27.6862 266.167 28.6257 265.224 29.2856C264.247 29.9845 262.807 30.4038 261.137 30.5436V32.6208H267.564V35.1986H251.758V32.6208H258.223V30.5436C256.534 30.4038 255.098 29.9845 254.1 29.2856C253.161 28.6257 252.622 27.6862 252.622 26.4477ZM261.118 18.9906H267.083V21.5294H252.235V18.9906H258.161V16.8711H261.115V18.9906H261.118ZM255.536 26.4477C255.536 26.828 255.728 27.1466 256.053 27.3871C256.745 27.8878 258.067 28.086 259.659 28.086C261.251 28.086 262.573 27.8845 263.265 27.3871C263.59 27.1466 263.782 26.828 263.782 26.4477C263.782 26.0674 263.59 25.7488 263.265 25.5082C262.573 25.0076 261.251 24.8093 259.659 24.8093C258.067 24.8093 256.745 25.0109 256.053 25.5082C255.728 25.7488 255.536 26.0674 255.536 26.4477Z" fill="#555555"/>
<path d="M280.816 18.571V20.931H270.822V18.571H274.487V16.9717H277.401V18.571H280.816ZM271.284 24.7084C271.284 23.6876 271.725 22.8685 272.453 22.3093C273.278 21.6885 274.487 21.3504 275.907 21.3504C277.327 21.3504 278.535 21.6917 279.36 22.3093C280.088 22.8685 280.53 23.6876 280.53 24.7084C280.53 25.7291 280.088 26.5483 279.36 27.1074C278.535 27.7283 277.327 28.0664 275.907 28.0664C274.487 28.0664 273.278 27.725 272.453 27.1074C271.725 26.5483 271.284 25.7486 271.284 24.7084ZM275.309 30.1858H282.944V28.7653H285.839V36.1606H272.391V28.7653H275.306V30.1858H275.309ZM274.081 24.7084C274.081 25.0074 274.214 25.248 274.445 25.4268C274.77 25.6673 275.289 25.8071 275.904 25.8071C276.518 25.8071 277.034 25.6673 277.362 25.4268C277.593 25.248 277.726 25.0074 277.726 24.7084C277.726 24.4093 277.593 24.1883 277.362 24.0095C277.037 23.7494 276.518 23.6291 275.904 23.6291C275.289 23.6291 274.773 23.7494 274.445 24.0095C274.214 24.1883 274.081 24.4093 274.081 24.7084ZM282.944 33.7811V32.6011H275.309V33.7811H282.944ZM285.842 17.5113V28.1671H282.928V26.8863H280.78V24.4873H282.928V23.5089H280.78V21.0903H282.928V17.5113H285.842Z" fill="#555555"/>
<path d="M290.939 26.4865C290.939 25.1472 291.475 24.029 292.378 23.2878C293.203 22.5889 294.295 22.2086 295.581 22.2086C296.868 22.2086 297.959 22.5889 298.785 23.2878C299.685 24.029 300.204 25.1472 300.204 26.4865C300.204 27.8258 299.688 28.944 298.785 29.7047C298.288 30.1046 297.709 30.4036 297.04 30.5824V32.4418H299.093C300.533 32.4418 301.511 32.2013 302.086 31.6616V17.508H305V35.9591H302.086V34.0997C301.491 34.6783 300.302 35.0001 298.632 35.0001H290.172V32.4418H294.142V30.5824C293.469 30.4036 292.875 30.1013 292.378 29.7047C291.478 28.944 290.939 27.8453 290.939 26.4865ZM294.087 19.0716V16.9717H297.021V19.0716H300.627V21.5909H290.481V19.0716H294.087ZM293.798 26.4865C293.798 27.0261 293.97 27.4845 294.295 27.8063C294.6 28.1444 295.061 28.3069 295.581 28.3069C296.101 28.3069 296.54 28.1476 296.848 27.8063C297.173 27.4877 297.365 27.0261 297.365 26.4865C297.365 25.9469 297.173 25.4885 296.848 25.1667C296.543 24.8482 296.082 24.6661 295.581 24.6661C295.081 24.6661 294.603 24.8449 294.295 25.1667C293.97 25.4853 293.798 25.9469 293.798 26.4865Z" fill="#555555"/>
</g>
<defs>
<clipPath id="clip0_142_6083">
<rect width="305" height="40" fill="white"/>
</clipPath>
</defs>
</svg>
