<svg width="161" height="45" viewBox="0 0 161 45" fill="none" xmlns="http://www.w3.org/2000/svg">
<g opacity="0.8" clip-path="url(#clip0_366_1498)">
<g clip-path="url(#clip1_366_1498)">
<path d="M21.8574 44.5001C10.1915 44.5001 0.699219 34.9609 0.699219 23.2334C0.699219 18.0033 2.52962 13.0196 5.85602 9.19744C9.15308 5.40757 13.7731 2.9201 18.8595 2.19264L18.968 2.9641C8.83628 4.41024 1.47655 12.9374 1.47655 23.2334C1.47655 34.5297 10.6198 43.7228 21.8574 43.7228C33.095 43.7228 42.2411 34.5326 42.2411 23.2334C42.2411 12.9668 34.8696 4.43957 24.7144 2.9553L24.8259 2.18384C35.3683 3.72384 43.0184 12.5766 43.0184 23.2334C43.0184 34.9609 33.5261 44.5001 21.8574 44.5001Z" fill="white"/>
<path d="M25.6066 32.004C25.5949 31.9835 24.3218 29.9536 21.805 29.9536C19.2882 29.9536 17.7365 31.8544 17.7218 31.872L17.3728 31.5963C17.4402 31.5112 19.0477 29.5077 21.808 29.5077C24.5682 29.5077 25.9352 31.6813 25.9909 31.7723L25.6096 32.004H25.6066ZM29.6282 28.66C20.8664 23.5824 14.0141 28.5925 13.9466 28.6453L13.6797 28.2875C13.7501 28.2347 20.84 23.0456 29.8512 28.2728L29.6282 28.66Z" fill="white"/>
<path d="M21.8045 38.0701C13.6674 38.0701 7.0498 31.4642 7.0498 23.3447H7.38421C7.38421 31.2794 13.8522 37.7357 21.8045 37.7357C29.7567 37.7357 36.2277 31.2794 36.2277 23.3447H36.5621C36.5621 31.4642 29.9415 38.0701 21.8045 38.0701Z" fill="white"/>
<path d="M21.8108 32.9807C16.481 32.9807 12.1426 28.657 12.1426 23.3418C12.1426 18.0266 16.481 13.7175 21.8108 13.7175C27.1407 13.7175 31.482 18.0354 31.482 23.3418C31.482 28.6482 27.1436 32.9807 21.8108 32.9807ZM21.8108 14.1663C16.7244 14.1663 12.5884 18.2847 12.5884 23.3447C12.5884 28.4047 16.7244 32.5378 21.8108 32.5378C26.8972 32.5378 31.0362 28.4135 31.0362 23.3447C31.0362 18.2759 26.8972 14.1663 21.8108 14.1663Z" fill="white"/>
<path d="M22.0806 2.86426H21.6348V36.1107H22.0806V2.86426Z" fill="white"/>
<path d="M24.9058 2.53594L13.8975 17.7937L14.259 18.0546L25.2673 2.79682L24.9058 2.53594Z" fill="white"/>
<path d="M18.753 2.51778L18.3906 2.77759L29.5553 18.3492L29.9176 18.0894L18.753 2.51778Z" fill="white"/>
<path d="M21.6635 32.9281C18.6656 30.382 17.0934 27.4809 16.9907 24.3041C16.803 18.546 21.6048 13.8292 21.6518 13.7822L21.9627 14.102C21.9158 14.1489 17.2547 18.7337 17.4366 24.2924C17.5363 27.3342 19.0558 30.1268 21.951 32.5878L21.6635 32.9281Z" fill="white"/>
<path d="M22.1888 32.9281L21.9014 32.5878C24.7966 30.1268 26.316 27.3342 26.4158 24.2924C26.5976 18.7337 21.9366 14.146 21.8896 14.102L22.2006 13.7822C22.2504 13.8292 27.0494 18.546 26.8616 24.3041C26.759 27.478 25.1867 30.379 22.1888 32.9281Z" fill="white"/>
<path d="M32.5996 23.1218H10.6377V23.5677H32.5996V23.1218Z" fill="white"/>
<path d="M21.8043 17.1847C19.047 17.1847 17.4366 15.1901 17.3691 15.105L17.7182 14.8293C17.7329 14.8469 19.2641 16.7418 21.8014 16.7418C24.3387 16.7418 25.5913 14.7149 25.603 14.6943L25.9843 14.9261C25.9286 15.0199 24.5763 17.1877 21.8014 17.1877L21.8043 17.1847Z" fill="white"/>
<path d="M21.6466 20.7487C16.8829 20.7487 13.7266 18.4402 13.6797 18.405L13.9466 18.0471C14.0141 18.097 20.8781 23.1042 29.6282 18.0325L29.8512 18.4197C26.8386 20.1679 24.0373 20.7487 21.6437 20.7487H21.6466Z" fill="white"/>
<path d="M25.2957 2.6648H24.8498V0.945867H18.8424V2.5944H18.3965V0.5H25.2957V2.6648Z" fill="white"/>
<path d="M10.3825 26.8414C10.4324 26.9235 10.491 27.0467 10.5497 27.2051C10.6113 27.3694 10.6436 27.5014 10.6553 27.6099C10.667 27.7566 10.6289 27.8446 10.5438 27.8798C10.4617 27.9062 10.3737 27.8622 10.274 27.739C10.1948 27.6363 10.1273 27.5131 10.0686 27.3576C10.01 27.1963 9.97183 27.0555 9.96303 26.9352C9.95423 26.7798 9.99236 26.6888 10.0745 26.6566C10.1742 26.6214 10.274 26.683 10.3796 26.8414H10.3825ZM10.4676 26.4982C10.3004 26.331 10.1302 26.287 9.95716 26.3515C9.78116 26.416 9.68729 26.5656 9.67556 26.8003C9.66676 26.988 9.70489 27.1992 9.79583 27.4398C9.89263 27.6862 10.0012 27.8768 10.1332 28.0088C10.2974 28.179 10.4705 28.223 10.6494 28.1584C10.8313 28.088 10.9281 27.9414 10.9398 27.7096C10.9516 27.5278 10.9076 27.3166 10.8196 27.0731L10.8108 27.0496C10.7228 26.812 10.6084 26.6272 10.4705 26.4923L10.4676 26.4982ZM11.6116 27.252C11.6292 27.3019 11.6585 27.3371 11.6937 27.3547C11.7318 27.3664 11.77 27.3694 11.8052 27.3576C11.8404 27.3459 11.8668 27.3195 11.8814 27.2814C11.8961 27.2462 11.8932 27.2022 11.8785 27.1552L11.55 26.2899C11.5353 26.2488 11.5118 26.2195 11.4737 26.2078C11.4356 26.1902 11.4033 26.1872 11.3681 26.2078C11.3358 26.2195 11.3094 26.2459 11.2918 26.284C11.2742 26.3134 11.2742 26.3574 11.2918 26.4043L11.6116 27.255V27.252ZM11.2772 27.871C11.2918 27.9208 11.3212 27.9502 11.3593 27.9678C11.4004 27.9824 11.4356 27.9854 11.4678 27.9736C11.5089 27.956 11.5324 27.9326 11.55 27.8944C11.5646 27.8592 11.5646 27.8182 11.5441 27.7712L10.887 26.02C10.8694 25.976 10.8401 25.9438 10.8049 25.932C10.7668 25.9174 10.7345 25.9144 10.6964 25.932C10.6612 25.9438 10.6318 25.9672 10.6172 26.0083C10.5996 26.0494 10.5996 26.0875 10.6172 26.1374L11.2742 27.871H11.2772ZM9.48782 26.8032C9.50542 26.7622 9.50542 26.7211 9.48782 26.6771C9.47316 26.6331 9.44383 26.6008 9.40569 26.5803C9.36756 26.5598 9.32649 26.5598 9.27663 26.5744L8.84836 26.7387C8.66943 26.8062 8.61956 26.9323 8.68703 27.12L9.50836 29.3054C9.52596 29.3494 9.55529 29.3816 9.59049 29.3904C9.62569 29.408 9.66383 29.408 9.69903 29.3904C9.74009 29.3816 9.76649 29.3582 9.78116 29.32C9.79876 29.2907 9.79876 29.2467 9.78116 29.2027L9.00969 27.1582C8.99209 27.1054 8.98329 27.076 8.99209 27.0643C8.99796 27.0496 9.02436 27.035 9.06836 27.0203L9.39689 26.8971C9.44676 26.8795 9.47609 26.8472 9.49076 26.8062L9.48782 26.8032ZM12.3068 28.308C12.3214 28.264 12.3214 28.223 12.3068 28.1819C12.2892 28.1379 12.2657 28.1115 12.2276 28.0851C12.1924 28.0704 12.1513 28.0675 12.1044 28.0822L10.1948 28.8067C10.1478 28.8243 10.1156 28.8536 10.098 28.8976C10.0833 28.9387 10.0833 28.9798 10.1009 29.0238C10.1156 29.0619 10.142 29.0971 10.1772 29.1147C10.2182 29.1382 10.2564 29.1382 10.3062 29.1206L11.0249 28.8478L11.0924 29.0296C11.11 29.0824 11.1364 29.1147 11.1745 29.1294C11.2126 29.144 11.2508 29.144 11.2889 29.1294C11.3212 29.1176 11.3476 29.0942 11.3652 29.0619C11.3828 29.0267 11.3828 28.9827 11.3652 28.9358L11.2918 28.748L12.207 28.4019C12.2569 28.3872 12.2862 28.352 12.3009 28.311" fill="white"/>
<path d="M12.9343 33.6906L13.1602 33.4648C13.1954 33.4325 13.2071 33.409 13.2012 33.3914C13.2012 33.3768 13.1778 33.3504 13.1455 33.3122L11.626 31.7722C11.5908 31.737 11.5732 31.7018 11.5732 31.6578C11.5732 31.6138 11.5908 31.5816 11.6172 31.5522C11.6495 31.52 11.6818 31.5112 11.7199 31.5112C11.758 31.5112 11.7962 31.5258 11.8343 31.5669L13.4828 33.2389C13.5562 33.3093 13.5972 33.3709 13.609 33.4208C13.6207 33.4618 13.6002 33.5117 13.5503 33.5528L13.1954 33.9048C13.1543 33.9488 13.1132 33.9664 13.0634 33.9576C13.0194 33.9546 12.9812 33.937 12.946 33.9018C12.9138 33.8725 12.8991 33.8373 12.8903 33.7962C12.8903 33.7522 12.902 33.717 12.9343 33.6848V33.6906ZM14.7266 31.9424C14.7559 31.913 14.7706 31.8925 14.7676 31.8778C14.7676 31.8632 14.75 31.8426 14.7236 31.8133L13.1748 30.241C13.1426 30.2058 13.125 30.1706 13.125 30.1266C13.125 30.0856 13.1426 30.0562 13.1719 30.0269C13.1983 29.9976 13.2335 29.9858 13.2716 29.9858C13.3098 29.9858 13.3479 30.0005 13.3831 30.0357L15.0375 31.7136C15.105 31.7869 15.1372 31.8485 15.1343 31.9042C15.1343 31.96 15.102 32.0216 15.0404 32.0802L14.5271 32.4909C14.4802 32.5202 14.4362 32.5378 14.3951 32.5349C14.354 32.532 14.3188 32.5173 14.2924 32.4909C14.225 32.4176 14.2338 32.3501 14.3188 32.268L14.7266 31.9394V31.9424ZM14.1546 32.972L13.301 32.1066L12.9988 32.4058C12.9636 32.441 12.9226 32.4586 12.8844 32.4528C12.8404 32.4498 12.8023 32.4293 12.7671 32.4C12.7378 32.3648 12.7231 32.3296 12.7172 32.2856C12.7143 32.2386 12.729 32.2005 12.7671 32.1653L13.0663 31.869L12.2068 30.9978C12.1746 30.9626 12.157 30.9216 12.157 30.8834C12.157 30.8453 12.1716 30.8072 12.198 30.7837C12.2274 30.7514 12.2626 30.7368 12.3007 30.7368C12.3418 30.7309 12.377 30.7514 12.4092 30.7837L14.3658 32.7666C14.401 32.8048 14.4156 32.84 14.4156 32.8781C14.4156 32.9162 14.401 32.9485 14.3775 32.9778C14.3482 33.0072 14.313 33.0218 14.2719 33.0248C14.2308 33.0248 14.1927 33.0072 14.1575 32.972" fill="white"/>
<path d="M17.4078 33.418C17.3609 33.3974 17.3315 33.371 17.3139 33.3358C17.2993 33.3006 17.2993 33.2654 17.3139 33.2273C17.3257 33.1892 17.355 33.1657 17.3902 33.1481C17.4254 33.1334 17.4665 33.1334 17.5075 33.1452L18.4374 33.5177C18.4843 33.5353 18.5137 33.5617 18.5283 33.594C18.5459 33.6321 18.5459 33.6673 18.5283 33.6996C18.5107 33.7436 18.4902 33.77 18.455 33.7905C18.4198 33.8022 18.3787 33.8022 18.3289 33.7846L17.4049 33.418H17.4078ZM18.2673 34.6089C18.367 34.691 18.4755 34.7702 18.5987 34.8436C18.6369 34.8612 18.6809 34.8876 18.7278 34.911C18.7777 34.9345 18.807 34.9668 18.8158 35.002C18.8275 35.0313 18.8275 35.0636 18.8158 35.0929C18.8041 35.131 18.7718 35.1604 18.7337 35.178C18.6926 35.1956 18.6515 35.1956 18.5987 35.175C18.5166 35.1457 18.4227 35.0929 18.3171 35.0166C18.2145 34.9433 18.1147 34.87 18.0297 34.7996C17.9094 34.694 17.8038 34.5737 17.7129 34.4417C17.6835 34.4006 17.6513 34.339 17.6131 34.2628C17.4342 34.339 17.2142 34.3742 16.9619 34.3654C16.7097 34.3596 16.4838 34.3185 16.2902 34.2422C16.2433 34.2217 16.211 34.1953 16.1934 34.1601C16.1787 34.122 16.1758 34.0838 16.1905 34.0486C16.2022 34.0134 16.2257 33.987 16.2579 33.9753C16.2873 33.9606 16.3254 33.9577 16.3753 33.9606C16.4193 33.9812 16.4603 33.9958 16.4897 34.0046C16.6657 34.0545 16.8446 34.078 17.0089 34.078C17.1497 34.078 17.2758 34.0604 17.3785 34.0252C17.4137 34.0134 17.4547 33.9958 17.5017 33.9665L16.5777 33.6057C16.5278 33.5852 16.4985 33.5617 16.4809 33.5236C16.4662 33.4884 16.4691 33.4502 16.4838 33.4121C16.4985 33.3769 16.5249 33.3505 16.5542 33.33C16.5923 33.3124 16.6334 33.3124 16.6774 33.3358L18.9361 34.2276C18.983 34.2422 19.0123 34.2745 19.0299 34.3068C19.0446 34.342 19.0475 34.3801 19.0299 34.4153C19.0153 34.4505 18.9918 34.474 18.9537 34.4945C18.9155 34.5092 18.8715 34.5092 18.8246 34.4945L17.8801 34.1249C17.9006 34.1748 17.9241 34.2276 17.9475 34.2628C18.0238 34.3801 18.1206 34.4974 18.2526 34.6118L18.2673 34.6089ZM17.8947 36.3953L17.9798 36.1812C17.9945 36.1489 18.0003 36.1284 18.0003 36.1225C18.0003 36.0932 17.9798 36.0697 17.9358 36.0521L15.8678 35.2366C15.8209 35.219 15.7886 35.1897 15.7769 35.1545C15.7593 35.1193 15.7593 35.0841 15.7769 35.046C15.7915 35.0108 15.815 34.9814 15.8502 34.9668C15.8854 34.9433 15.9265 34.9462 15.9763 34.9668L18.2027 35.8468C18.2761 35.8702 18.3289 35.9172 18.3582 35.9729C18.3846 36.0286 18.3846 36.0902 18.3582 36.1548L18.2145 36.5244C18.1939 36.5772 18.1646 36.6094 18.1235 36.6212C18.0825 36.6388 18.0414 36.6388 17.9974 36.6212C17.9534 36.6036 17.9211 36.5742 17.9006 36.5361C17.8801 36.4921 17.8801 36.4481 17.9006 36.3953H17.8947ZM16.1406 34.3889L18.6427 35.3804C18.6926 35.398 18.7249 35.4244 18.7366 35.4596C18.7513 35.4918 18.7513 35.53 18.7366 35.571C18.7219 35.6062 18.6955 35.6385 18.6662 35.6532C18.631 35.6678 18.5958 35.6678 18.5489 35.6532L16.0321 34.6558C15.9881 34.6382 15.9558 34.6118 15.9411 34.5766C15.9235 34.5414 15.9235 34.5062 15.9411 34.4681C15.9587 34.4358 15.9822 34.4036 16.0174 34.383C16.0526 34.3684 16.0937 34.3684 16.1435 34.386" fill="white"/>
<path d="M27.9793 34.8494C28.2169 34.782 28.3518 34.7849 28.39 34.8641C28.431 34.9433 28.3401 35.0577 28.1172 35.2014C27.991 35.2865 27.7974 35.3862 27.554 35.5036C27.4014 35.574 27.2489 35.6385 27.0964 35.6913C26.759 35.8174 26.5654 35.835 26.5185 35.7353C26.4774 35.6502 26.5684 35.5388 26.7913 35.395C26.9174 35.3129 27.114 35.2132 27.378 35.09C27.6097 34.9814 27.8121 34.9022 27.9822 34.8524L27.9793 34.8494ZM25.9201 34.5209C25.8908 34.4652 25.9054 34.4241 25.9524 34.4036L26.9262 33.946C27.0025 33.9078 27.0524 33.8609 27.07 33.7905C27.0876 33.7318 27.0758 33.6673 27.0465 33.594L26.8206 33.1158C26.7884 33.0513 26.7414 33.0044 26.6769 32.9926C26.6153 32.978 26.5566 32.9809 26.498 33.0102L25.2601 33.591C25.219 33.6086 25.1926 33.6409 25.1809 33.6732C25.1692 33.7084 25.175 33.7436 25.1926 33.7817C25.2073 33.814 25.2366 33.8404 25.2689 33.858C25.3041 33.8726 25.3422 33.8726 25.3892 33.8521L26.451 33.3505C26.5097 33.3241 26.5478 33.3358 26.5742 33.3857L26.6916 33.6409C26.7092 33.6673 26.7092 33.6908 26.7004 33.7054C26.6886 33.723 26.671 33.7377 26.6446 33.7465L25.6913 34.1982C25.6121 34.2364 25.5593 34.2833 25.5329 34.339C25.5065 34.3977 25.5094 34.4564 25.5417 34.5268L25.7617 34.9932C25.7969 35.0694 25.8438 35.1164 25.9054 35.1398C25.97 35.1604 26.0433 35.1486 26.1372 35.1046C26.4686 34.9492 26.759 34.8084 26.9937 34.6822C27.2342 34.562 27.4542 34.4241 27.6625 34.2833C27.6977 34.254 27.7182 34.2305 27.7241 34.1953C27.7358 34.166 27.73 34.1396 27.7182 34.1073C27.7006 34.0721 27.6742 34.0486 27.642 34.0369C27.6097 34.0222 27.5716 34.0222 27.5305 34.0398L27.507 34.0516C27.4484 34.0956 27.3926 34.1366 27.3457 34.163C27.2049 34.2481 27.0553 34.3302 26.891 34.4094C26.7737 34.4652 26.6388 34.5326 26.4921 34.606C26.3454 34.6852 26.2633 34.7233 26.2516 34.7321L26.1929 34.7614C26.1372 34.7878 26.099 34.7966 26.0785 34.7937C26.058 34.7937 26.0374 34.7702 26.014 34.7292L25.9142 34.515L25.9201 34.5209ZM27.9001 33.1305L28.0849 33.0425C28.1318 33.0161 28.167 32.9926 28.1758 32.9545C28.1876 32.9134 28.1817 32.8782 28.167 32.843C28.1553 32.8049 28.123 32.7814 28.0908 32.7668C28.0526 32.755 28.0145 32.758 27.9676 32.7814L27.7798 32.8665L27.6332 32.5556C27.6126 32.5086 27.5804 32.4793 27.5364 32.4705C27.4953 32.4617 27.4542 32.4646 27.4102 32.4852C27.3692 32.4998 27.3398 32.5321 27.3222 32.5673C27.3046 32.6113 27.3046 32.6524 27.331 32.6964L28.0497 34.2305C28.0702 34.2745 28.1025 34.3009 28.1465 34.3097C28.1905 34.3214 28.2316 34.3185 28.2726 34.298C28.3137 34.2804 28.3401 34.251 28.3577 34.21C28.3753 34.1689 28.3753 34.1308 28.3518 34.0868L28.2785 33.9254L28.4574 33.8374C28.5044 33.814 28.5337 33.7846 28.5484 33.7524C28.5572 33.7142 28.5542 33.6761 28.5396 33.6409C28.522 33.5998 28.4956 33.5764 28.4633 33.5617C28.4252 33.5529 28.387 33.5529 28.3372 33.5734L28.1582 33.6614L27.903 33.1246L27.9001 33.1305ZM28.0908 34.5561C27.8414 34.6001 27.551 34.7028 27.2284 34.8494C27.0289 34.9462 26.8412 35.0518 26.6622 35.1662C26.4833 35.2718 26.3484 35.3892 26.2604 35.5036C26.1489 35.6502 26.1225 35.7822 26.1812 35.9025C26.2398 36.0286 26.366 36.0932 26.5566 36.0902C26.7062 36.0902 26.8998 36.055 27.1345 35.97C27.29 35.9201 27.4718 35.8438 27.6801 35.7441C27.8884 35.6473 28.0585 35.5564 28.1905 35.4742C28.3841 35.3481 28.5308 35.2278 28.6158 35.1134C28.7244 34.9668 28.7478 34.8318 28.6862 34.7028C28.6129 34.5414 28.4134 34.4974 28.0908 34.5532" fill="white"/>
<path d="M30.3992 31.7665C30.4462 31.6873 30.5195 31.5787 30.6251 31.4526C30.7336 31.3265 30.8363 31.2326 30.9272 31.1739C31.0504 31.0977 31.1502 31.0947 31.2235 31.1534C31.3056 31.2267 31.3086 31.3265 31.244 31.4643C31.203 31.5435 31.1208 31.6579 30.9976 31.8075C30.8803 31.9425 30.7776 32.0363 30.6955 32.095C30.5723 32.1742 30.4726 32.183 30.3963 32.1126C30.3142 32.0451 30.3142 31.9307 30.4022 31.7665H30.3992ZM30.0736 31.8633C30.0032 32.0715 30.0355 32.2387 30.1734 32.3619C30.3288 32.4939 30.5195 32.491 30.7512 32.359C30.9067 32.2681 31.0651 32.1273 31.2294 31.9425C31.3936 31.7518 31.5051 31.567 31.555 31.3998C31.6224 31.1945 31.5843 31.0273 31.4435 30.9099C31.2968 30.7867 31.1267 30.7721 30.9243 30.8806C30.7659 30.9598 30.6046 31.0977 30.4315 31.2942L30.4022 31.3294C30.235 31.5259 30.1264 31.699 30.0736 31.8662V31.8633ZM30.1792 30.5374C30.2115 30.5022 30.2262 30.4553 30.2203 30.4171C30.2144 30.3761 30.1968 30.3409 30.1675 30.3145C30.1411 30.2939 30.1088 30.2822 30.0678 30.2851C30.0326 30.2881 29.9944 30.3057 29.9651 30.3438L29.3608 31.0478C29.3315 31.083 29.3198 31.1211 29.3227 31.1563C29.3315 31.1945 29.3462 31.2267 29.3726 31.2561C29.4019 31.2766 29.4371 31.2913 29.4752 31.2854C29.5163 31.2795 29.5515 31.2619 29.5867 31.2209L30.1792 30.5345V30.5374ZM30.9038 30.4934C30.936 30.4553 30.9507 30.4171 30.9478 30.3761C30.9419 30.3379 30.9214 30.3027 30.892 30.2734C30.8656 30.247 30.8275 30.2382 30.7894 30.2411C30.7512 30.2411 30.716 30.2646 30.6838 30.2969L29.4664 31.7195C29.4371 31.7577 29.4224 31.7929 29.4283 31.831C29.4312 31.8721 29.4488 31.9073 29.4782 31.9307C29.5104 31.9601 29.5456 31.9659 29.5838 31.9601C29.6248 31.9601 29.66 31.9395 29.6923 31.9014L30.9008 30.4905L30.9038 30.4934ZM32.8838 31.5377C32.9248 31.5318 32.96 31.5113 32.9923 31.4761C33.0246 31.4409 33.0392 31.3998 33.0363 31.3558C33.0363 31.3147 33.0128 31.2737 32.9688 31.2385L32.6403 30.9569C32.5816 30.9011 32.5259 30.8806 32.4672 30.8953C32.4144 30.907 32.3587 30.9481 32.2971 31.0185L30.7718 32.7961C30.7395 32.8313 30.7278 32.8694 30.7307 32.9105C30.7366 32.9545 30.7542 32.9809 30.7864 33.0131C30.8158 33.0337 30.8451 33.0454 30.8862 33.0454C30.9214 33.0454 30.9595 33.0278 30.9888 32.9926L32.3939 31.3529C32.4291 31.3118 32.4526 31.2913 32.4702 31.2854C32.4907 31.2795 32.5142 31.2971 32.5494 31.3265L32.7576 31.5025C32.7958 31.5377 32.8368 31.5494 32.8779 31.5435L32.8838 31.5377ZM30.76 29.4051C30.716 29.411 30.6779 29.4345 30.6456 29.4697C30.6222 29.5019 30.6046 29.5371 30.6046 29.5782C30.6046 29.6222 30.6222 29.6574 30.6632 29.6926L31.9774 30.8249C32.0184 30.8601 32.0595 30.8718 32.1064 30.8659C32.1534 30.8601 32.1915 30.8395 32.2238 30.8014C32.2502 30.7691 32.2648 30.7281 32.2648 30.687C32.2619 30.6489 32.2414 30.6107 32.2003 30.5726L31.7192 30.159L31.8483 30.0035C31.8864 29.9595 31.9011 29.9214 31.8952 29.8803C31.8894 29.8451 31.8718 29.8129 31.8424 29.7806C31.8131 29.7542 31.775 29.7425 31.7368 29.7483C31.7016 29.7483 31.6635 29.7747 31.6312 29.807L31.4963 29.9654L30.8862 29.4374C30.8451 29.4051 30.804 29.3905 30.76 29.4022" fill="white"/>
<path d="M33.0692 27.5866C33.0428 27.4839 33.0662 27.3314 33.122 27.1466C33.1777 26.9589 33.2481 26.8181 33.3273 26.7271C33.4124 26.6333 33.5033 26.6039 33.606 26.6333C33.7233 26.6714 33.7878 26.7506 33.8025 26.8826C33.8113 26.9823 33.7878 27.129 33.735 27.3167C33.6881 27.4722 33.6265 27.5983 33.5502 27.6834C33.4622 27.789 33.3625 27.8242 33.2598 27.789C33.1572 27.7538 33.0926 27.6922 33.0721 27.5866H33.0692ZM32.3476 26.4485C32.3652 26.4015 32.3622 26.3575 32.3446 26.3282C32.327 26.293 32.2977 26.2666 32.2625 26.2578C32.2273 26.249 32.1921 26.2519 32.1598 26.2666C32.1276 26.2871 32.1012 26.3194 32.0836 26.3722L31.8254 27.2258C31.8137 27.2757 31.8196 27.3138 31.8372 27.3461C31.8606 27.3783 31.8841 27.4018 31.9164 27.4077C31.9516 27.4194 31.9926 27.4165 32.0249 27.3959C32.0572 27.3783 32.0806 27.3461 32.0982 27.2991L32.3476 26.4514V26.4485ZM33.0105 26.0994C33.0281 26.0495 33.0252 26.0085 33.0076 25.9703C32.99 25.9351 32.9577 25.9117 32.9196 25.9029C32.8814 25.8911 32.8462 25.8941 32.814 25.9117C32.7788 25.9293 32.7553 25.9645 32.7406 26.0114L32.198 27.8037C32.1892 27.8477 32.1892 27.8829 32.2097 27.921C32.2302 27.9533 32.2566 27.9767 32.2918 27.9855C32.33 27.9973 32.3681 27.9943 32.4033 27.9797C32.4385 27.9562 32.462 27.9239 32.4796 27.877L33.0105 26.1023V26.0994ZM32.4473 25.1725C32.4092 25.1959 32.3857 25.2311 32.371 25.2781C32.3564 25.3221 32.3593 25.3661 32.3769 25.4042C32.3945 25.4453 32.4297 25.4687 32.4825 25.4863L35.1078 26.2813C35.1665 26.2989 35.2105 26.293 35.2486 26.2666C35.2838 26.249 35.3161 26.2138 35.3249 26.1669C35.3396 26.1229 35.3366 26.0847 35.3132 26.0437C35.2926 26.0026 35.2545 25.9762 35.2046 25.9586L32.5822 25.1637C32.5265 25.149 32.4796 25.149 32.4444 25.1725H32.4473ZM34.4713 27.6951L34.2454 28.5165C34.2337 28.5575 34.2337 28.5957 34.2513 28.625C34.2689 28.6485 34.2953 28.669 34.3246 28.6778C34.3598 28.6866 34.3921 28.6807 34.4302 28.6719C34.4684 28.6485 34.4918 28.625 34.5006 28.5781L34.5182 28.5253C34.6326 28.141 34.7265 27.7949 34.8057 27.4869C34.879 27.1759 34.9348 26.8797 34.967 26.5893C34.967 26.5482 34.9582 26.5159 34.9406 26.4895C34.9201 26.4631 34.8996 26.4426 34.8761 26.4367C34.838 26.4279 34.8057 26.4279 34.7734 26.4455C34.7412 26.4602 34.7236 26.4837 34.7118 26.5159V26.5277C34.6854 26.6949 34.6502 26.8826 34.6092 27.0909C34.5945 27.1613 34.574 27.2581 34.5476 27.3754L34.0636 27.2258C34.1222 27.0234 34.1281 26.8445 34.0753 26.6861C34.0166 26.5013 33.8817 26.3781 33.6793 26.3106C33.5268 26.2666 33.3801 26.2989 33.2481 26.4045C33.0868 26.5394 32.9606 26.7594 32.8697 27.0645C32.7876 27.3255 32.7729 27.5514 32.8169 27.745C32.8638 27.9327 32.9753 28.0501 33.1454 28.1029C33.3302 28.1615 33.5004 28.1175 33.6588 27.9826C33.7761 27.8799 33.8817 27.7303 33.9697 27.5367L34.4713 27.6922" fill="white"/>
<path d="M38.85 17.8947C38.8676 17.9534 38.8617 18.012 38.8295 18.0678C38.8001 18.1206 38.7503 18.1587 38.6916 18.1822C38.6183 18.2086 38.5537 18.2115 38.498 18.188C38.4393 18.1675 38.3983 18.1323 38.3807 18.0707C38.3601 18.015 38.3631 17.9534 38.3895 17.9006C38.4217 17.8507 38.4716 17.8096 38.5391 17.7803C38.6065 17.7539 38.6681 17.7539 38.7268 17.7803C38.7855 17.8008 38.8265 17.8419 38.8471 17.8947" fill="white"/>
<path d="M37.6915 31.8868C37.6681 31.8281 37.6241 31.7782 37.5625 31.743C37.4979 31.7078 37.4334 31.6961 37.3747 31.7108C37.3131 31.7254 37.2691 31.7636 37.2398 31.8164C37.2105 31.8721 37.2075 31.9249 37.2281 31.9836C37.2545 32.0393 37.2955 32.0862 37.363 32.1244C37.4217 32.1537 37.4803 32.1654 37.5419 32.1537C37.6065 32.142 37.6505 32.1068 37.6828 32.054C37.7092 32.0012 37.7091 31.9454 37.6915 31.8897" fill="white"/>
<path d="M3.7998 21.4059C3.80567 21.3414 3.835 21.2945 3.89074 21.2622C3.94647 21.2211 4.0022 21.2123 4.06674 21.2182C4.143 21.2241 4.19874 21.2475 4.24567 21.2945C4.28967 21.3385 4.30727 21.3913 4.29847 21.4558C4.2926 21.5145 4.26327 21.5643 4.21634 21.6025C4.16647 21.6347 4.10194 21.6465 4.03154 21.6435C3.96114 21.6347 3.89954 21.6083 3.85554 21.5585C3.81447 21.5145 3.79687 21.4617 3.80274 21.4059" fill="white"/>
<path d="M3.125 19.8043L3.1778 19.5609L4.357 19.8307L3.38313 18.6662L3.46233 18.3201L4.26607 19.3086L5.89113 18.8627L5.82073 19.1766L4.4538 19.5403L4.7618 19.9217L5.6066 20.1123L5.55087 20.3587L3.125 19.8043Z" fill="white"/>
<path d="M5.93586 18.0473C5.86253 18.2732 5.71586 18.4052 5.4988 18.4433C5.28466 18.4844 5.04706 18.4551 4.78306 18.3671C4.45746 18.2556 4.22573 18.1177 4.09666 17.9447C3.97053 17.7687 3.9324 17.5897 3.99693 17.4049C4.06146 17.2172 4.19346 17.0969 4.40466 17.0441C4.61293 16.9913 4.85346 17.0119 5.13213 17.1057C5.39613 17.1967 5.6132 17.3257 5.78626 17.4871C5.9564 17.6513 6.00626 17.842 5.93293 18.0503L5.93586 18.0473ZM3.71533 17.3257C3.61266 17.622 3.68013 17.8948 3.92066 18.15C4.11133 18.3436 4.36066 18.4932 4.67746 18.6047C5.0324 18.722 5.3492 18.7513 5.62493 18.6956C5.91533 18.6193 6.10893 18.4433 6.2028 18.1764C6.2996 17.886 6.238 17.6132 6.018 17.3639C5.8332 17.1468 5.5604 16.9855 5.2084 16.8652C4.8828 16.7537 4.59533 16.7215 4.346 16.7713C4.0292 16.83 3.818 17.0148 3.7124 17.3287" fill="white"/>
<path d="M5.35201 16.4134L4.58641 16.0614L4.83867 15.5129C4.87387 15.4366 4.92081 15.3809 4.97067 15.3515C5.06747 15.2958 5.19654 15.3017 5.35494 15.375C5.50161 15.4425 5.59254 15.5217 5.61894 15.6067C5.64827 15.6947 5.63947 15.7886 5.58961 15.8971L5.35201 16.4134ZM6.46961 17.2083L6.57521 16.9795L5.60427 16.5337L5.83894 16.0233C5.88001 15.9323 5.92401 15.8707 5.97094 15.8443C6.05601 15.7915 6.17334 15.7974 6.32294 15.859L6.70721 16.0174C6.79521 16.0555 6.85974 16.079 6.88907 16.0849C6.92134 16.0937 6.95067 16.1025 6.97121 16.1025L7.10027 15.8209L7.05334 15.8003C7.01521 15.8267 6.95654 15.8267 6.88027 15.8091C6.83334 15.8003 6.76587 15.7739 6.67787 15.7387L6.36987 15.6067C6.23787 15.551 6.13521 15.5246 6.05894 15.5305C5.98854 15.5363 5.91227 15.5657 5.85067 15.6155C5.83307 15.5158 5.78907 15.4278 5.72454 15.3457C5.65707 15.2635 5.55441 15.1873 5.41947 15.1257C5.16134 15.0083 4.95014 15.0054 4.77707 15.1169C4.68907 15.1755 4.61867 15.2694 4.56001 15.3955L4.20801 16.1641L6.46374 17.2083" fill="white"/>
<path d="M5.01758 14.4746L5.70398 13.3042L5.96798 13.4597L5.40771 14.4159L6.05891 14.7973L6.57518 13.9085L6.82451 14.0522L6.30531 14.941L7.03864 15.3693L7.60478 14.4013L7.85998 14.545L7.16478 15.7359L5.01758 14.4746Z" fill="white"/>
<path d="M7.29922 13.5711L6.58055 12.6882L7.63949 13.0959L7.29922 13.5711ZM7.81255 14.6036L7.96802 14.3895L7.48109 13.794L7.90642 13.1986L8.62509 13.4772L8.78642 13.2484L6.36935 12.3538L6.19922 12.5884L7.81255 14.6066" fill="white"/>
<path d="M6.90918 11.6232L7.09985 11.4003L9.23825 12.0163L7.71878 10.6963L7.87131 10.5173L9.74865 12.1541L9.56971 12.3653L7.42251 11.7611L8.93905 13.0811L8.78358 13.26L6.90918 11.6232Z" fill="white"/>
<path d="M10.233 10.5848C10.3269 10.6874 10.4207 10.7608 10.5058 10.8048C10.673 10.8752 10.8373 10.8488 10.9927 10.7197C11.0602 10.661 11.1101 10.5965 11.1482 10.5202C11.2127 10.3736 11.1863 10.2269 11.0719 10.092C10.9839 9.98638 10.8989 9.93065 10.8167 9.92771C10.7346 9.92771 10.6261 9.94825 10.4999 10.004L10.2682 10.0978C10.1157 10.1624 9.99246 10.1917 9.90446 10.1829C9.75193 10.1829 9.60819 10.092 9.47619 9.93651C9.33246 9.76345 9.25619 9.58451 9.25033 9.40265C9.24446 9.22078 9.31779 9.06238 9.47619 8.93038C9.61993 8.80718 9.79006 8.75145 9.96899 8.76905C10.1509 8.77785 10.3298 8.89225 10.5058 9.10638L10.3239 9.25305C10.2271 9.16211 10.145 9.10345 10.0687 9.07118C9.93086 9.01838 9.79593 9.05065 9.65513 9.16211C9.54953 9.25305 9.49673 9.34691 9.50259 9.45251C9.50553 9.55811 9.54659 9.65491 9.61699 9.73705C9.69619 9.83385 9.77833 9.87785 9.87513 9.87198C9.93379 9.86905 10.0453 9.83091 10.2125 9.76638L10.4589 9.66371C10.5762 9.61385 10.6818 9.59625 10.7757 9.60505C10.9399 9.61971 11.0895 9.71358 11.2333 9.88665C11.4093 10.0949 11.4797 10.2944 11.4445 10.4792C11.4093 10.664 11.3183 10.8165 11.1658 10.9426C10.9957 11.0864 10.8079 11.1392 10.6085 11.0981C10.409 11.06 10.2242 10.9368 10.057 10.7256L10.2359 10.576" fill="white"/>
<path d="M12.3327 9.70201C12.1362 9.83108 11.9426 9.84868 11.7519 9.75188C11.5554 9.65215 11.3823 9.48788 11.2239 9.25615C11.0333 8.97161 10.9335 8.71935 10.9365 8.50228C10.9365 8.28521 11.0215 8.12681 11.1799 8.01535C11.3442 7.90095 11.5261 7.88921 11.7226 7.97135C11.9191 8.05641 12.101 8.21775 12.2653 8.46121C12.4237 8.69001 12.5205 8.91881 12.5557 9.15641C12.5909 9.39108 12.5205 9.57001 12.3327 9.70201ZM11.001 7.77775C10.7399 7.95668 10.6314 8.21775 10.6695 8.56095C10.7018 8.83081 10.8103 9.10361 11.001 9.37935C11.2122 9.69028 11.4469 9.90735 11.7021 10.0247C11.9807 10.142 12.2389 10.1185 12.4735 9.96015C12.7287 9.78708 12.8431 9.53188 12.8167 9.20335C12.7933 8.91881 12.6789 8.62255 12.4706 8.31455C12.2799 8.02708 12.0687 7.82761 11.8429 7.71908C11.5525 7.57241 11.2738 7.59588 10.9981 7.77775" fill="white"/>
<path d="M13.3191 6.70105C13.5097 6.78612 13.6652 6.91518 13.7767 7.09412L13.5596 7.21145C13.4599 7.07945 13.3513 6.99732 13.234 6.95625C13.1167 6.91225 12.9935 6.92692 12.8615 7.00025C12.7031 7.08238 12.6151 7.22905 12.5945 7.43732C12.574 7.63972 12.6532 7.90078 12.8204 8.21465C12.9612 8.46985 13.1196 8.65465 13.2897 8.76905C13.4657 8.88052 13.6388 8.88638 13.8148 8.78958C13.9791 8.69865 14.0553 8.55198 14.0524 8.34078C14.0465 8.22932 14.0143 8.09438 13.9644 7.93598L14.1785 7.81865C14.2841 8.06212 14.3252 8.28798 14.3017 8.50212C14.2724 8.76318 14.1463 8.95092 13.9292 9.06825C13.7415 9.17092 13.5391 9.17678 13.3279 9.09465C13.0492 8.98612 12.794 8.71038 12.5652 8.28798C12.3921 7.96238 12.3129 7.66318 12.3305 7.38745C12.3452 7.08825 12.4743 6.87412 12.7177 6.74505C12.926 6.63065 13.1225 6.62185 13.3161 6.70692" fill="white"/>
<path d="M13.7266 6.31385L13.9583 6.20825L14.9908 8.47572L14.762 8.57252L13.7266 6.31385Z" fill="white"/>
<path d="M14.2871 6.05579L15.5572 5.56299L15.6658 5.85045L14.6362 6.24645L14.9031 6.95339L15.8594 6.58085L15.9591 6.84779L15.0058 7.22032L15.3108 8.00939L16.361 7.60459L16.4666 7.88032L15.1847 8.37605L14.2871 6.05579Z" fill="white"/>
<path d="M17.1668 5.09082L17.249 5.37535L16.6447 5.54842L17.2519 7.65162L17.0143 7.72495L16.4012 5.61882L15.794 5.79482L15.7148 5.51029L17.1668 5.09082Z" fill="white"/>
<path d="M17.2314 5.06729L17.5189 5.01156L18.2786 6.07929L18.569 4.80329L18.8536 4.74756L18.4576 6.33743L18.6512 7.32596L18.4077 7.36996L18.2112 6.39023L17.2314 5.06729Z" fill="white"/>
<path d="M24.9168 7.08836C24.688 7.04729 24.5354 6.92409 24.468 6.71583C24.4005 6.51636 24.3888 6.27289 24.4416 6.00009C24.5032 5.65983 24.6088 5.41636 24.7672 5.26089C24.9138 5.11129 25.0898 5.04969 25.2805 5.08489C25.477 5.12009 25.6149 5.23743 25.7 5.43396C25.7792 5.63636 25.7968 5.87983 25.7381 6.16729C25.6882 6.44009 25.5944 6.67476 25.4594 6.86836C25.3245 7.05609 25.1426 7.13236 24.9197 7.09129L24.9168 7.08836ZM25.3186 4.79156C25.0077 4.73289 24.7437 4.84143 24.5296 5.11716C24.3653 5.32543 24.2509 5.59823 24.1922 5.9297C24.1218 6.29636 24.1394 6.61316 24.2362 6.88009C24.3536 7.16169 24.553 7.32303 24.8346 7.37876C25.1368 7.43449 25.3949 7.33476 25.6149 7.07956C25.7968 6.86249 25.9229 6.57503 25.9904 6.20836C26.052 5.86809 26.0432 5.58356 25.9581 5.34303C25.8554 5.03503 25.6413 4.85023 25.3186 4.7945" fill="white"/>
<path d="M26.5096 5.11133L27.7563 5.46626L27.6742 5.75959L26.668 5.47213L26.4627 6.19959L27.3515 6.45479L27.2723 6.73639L26.3835 6.48413L26.0755 7.57533L25.832 7.50786L26.5096 5.11133Z" fill="white"/>
<path d="M28.6042 7.5841C28.5485 7.71317 28.525 7.82757 28.525 7.92437C28.5309 8.10917 28.6248 8.24117 28.8096 8.32623C28.8917 8.36143 28.9709 8.38197 29.056 8.37903C29.2173 8.37317 29.3376 8.29103 29.4109 8.12677C29.4666 8.00063 29.4784 7.89797 29.4461 7.8217C29.4138 7.74543 29.3464 7.6633 29.2437 7.56943L29.056 7.40223C28.9298 7.28783 28.8506 7.19103 28.8154 7.11183C28.7538 6.9681 28.7685 6.79797 28.8565 6.61317C28.9474 6.4049 29.0794 6.2641 29.2378 6.18197C29.4021 6.09397 29.5752 6.09397 29.7629 6.18197C29.9389 6.25823 30.0592 6.38437 30.1266 6.55157C30.1941 6.7217 30.1706 6.9329 30.0533 7.18223L29.8392 7.08837C29.8832 6.96223 29.9037 6.85957 29.8949 6.78037C29.8832 6.6337 29.7952 6.52223 29.6368 6.4489C29.5077 6.39023 29.3962 6.3873 29.3024 6.43423C29.2114 6.48117 29.141 6.56037 29.097 6.66303C29.0472 6.7745 29.0442 6.8713 29.0882 6.95343C29.1176 7.0033 29.1968 7.0913 29.3288 7.21157L29.5253 7.38463C29.6192 7.47263 29.6808 7.5577 29.716 7.6457C29.7688 7.8041 29.7512 7.9801 29.6602 8.17957C29.5458 8.4289 29.3962 8.5785 29.2144 8.62837C29.0296 8.67823 28.8536 8.66063 28.6776 8.5785C28.4722 8.48463 28.3432 8.3409 28.2933 8.14143C28.2434 7.94783 28.2757 7.72783 28.3872 7.48143L28.6042 7.5841Z" fill="white"/>
<path d="M30.9597 6.84781L30.1912 8.18248C30.1061 8.34088 30.0475 8.48168 30.0387 8.60781C30.0123 8.80434 30.0768 8.94808 30.2352 9.03608C30.42 9.14461 30.596 9.13288 30.7632 9.00088C30.8512 8.93341 30.9421 8.81608 31.0331 8.66061L31.7987 7.32888L32.0157 7.45208L31.3176 8.66354C31.1651 8.93341 31.0243 9.11821 30.8864 9.22968C30.6371 9.43501 30.376 9.45848 30.1061 9.30008C29.8304 9.14461 29.7219 8.90701 29.7747 8.59314C29.8011 8.41714 29.892 8.19714 30.0445 7.93314L30.7427 6.72461L30.9597 6.84781Z" fill="white"/>
<path d="M31.9075 8.7545L32.3974 8.07103L32.8872 8.4201C32.9576 8.46997 33.0016 8.52277 33.0222 8.58143C33.0574 8.68703 33.031 8.81023 32.9283 8.95397C32.8315 9.08597 32.7376 9.1593 32.6496 9.17103C32.5558 9.18277 32.4648 9.1505 32.371 9.08597L31.9075 8.7545ZM30.9131 9.70783L31.1214 9.85157L31.7432 8.9833L32.1979 9.3089C32.28 9.36757 32.3299 9.42037 32.3534 9.47317C32.3886 9.56997 32.3592 9.68437 32.2712 9.81637L32.0395 10.1654C31.9896 10.2446 31.9515 10.3004 31.9398 10.3326C31.9222 10.362 31.9104 10.3913 31.9104 10.4177L32.1568 10.5937L32.192 10.5526C32.1744 10.5116 32.1803 10.4558 32.2155 10.3825C32.2331 10.3385 32.2683 10.2769 32.324 10.1977L32.5088 9.91903C32.588 9.79877 32.635 9.70197 32.6408 9.62863C32.6467 9.55237 32.635 9.47903 32.5968 9.40277C32.6936 9.4057 32.7963 9.38223 32.8872 9.33237C32.9811 9.2825 33.0691 9.19743 33.16 9.07717C33.3243 8.8425 33.3654 8.63423 33.2891 8.4465C33.2451 8.3497 33.1688 8.2617 33.0544 8.17957L32.3651 7.68677L30.916 9.7137" fill="white"/>
<path d="M33.9167 8.83372L32.9399 10.7903L34.7292 9.53772L34.9463 9.72252L32.7991 11.1569L32.5967 10.9809L33.7055 8.65479L33.9167 8.83372Z" fill="white"/>
<path d="M35.1136 9.89551L36.0581 10.8694L35.841 11.0806L35.0725 10.2856L34.5269 10.8107L35.2426 11.547L35.0314 11.7464L34.3186 11.0102L33.7114 11.5968L34.4917 12.4064L34.2805 12.6118L33.3213 11.6232L35.1136 9.89551Z" fill="white"/>
<path d="M36.1903 11.0132L36.3722 11.242L35.7797 12.4094L37.0439 12.078L37.2258 12.3039L35.6301 12.6881L34.8498 13.3158L34.6914 13.1164L35.4687 12.4886L36.1903 11.0132Z" fill="white"/>
<path d="M37.3336 12.4885L37.4773 12.688L35.4474 14.1253L35.3008 13.92L37.3336 12.4885Z" fill="white"/>
<path d="M37.6892 12.9727L37.8446 13.2249L36.6126 15.0759L38.3345 14.0228L38.4548 14.2252L36.334 15.5247L36.1873 15.2871L37.4046 13.4244L35.6916 14.4716L35.5684 14.2721L37.6892 12.9727Z" fill="white"/>
<path d="M39.1377 15.7447C39.0995 15.9706 38.947 16.17 38.6713 16.3431L38.5598 16.1172C38.7123 16.0116 38.8033 15.9031 38.8385 15.7799C38.8707 15.6596 38.8561 15.5306 38.7945 15.4015C38.7241 15.249 38.5803 15.1522 38.3809 15.1258C38.1726 15.0964 37.9145 15.1522 37.6094 15.2988C37.3395 15.425 37.143 15.5687 37.0169 15.7359C36.8907 15.9002 36.8731 16.082 36.967 16.2815C37.0374 16.4311 37.1577 16.5308 37.319 16.5719C37.4833 16.6159 37.6974 16.5719 37.9585 16.4546L37.7091 15.9266L37.9614 15.8063L38.3134 16.5455L37.1078 17.1175L37.0374 16.9708L37.3073 16.7743C37.1577 16.7538 37.0462 16.7244 36.9758 16.6863C36.8526 16.6247 36.7529 16.5162 36.6795 16.3607C36.5857 16.1671 36.5915 15.953 36.6971 15.73C36.8379 15.4748 37.099 15.2548 37.4803 15.0759C37.8529 14.897 38.1902 14.8324 38.4865 14.8735C38.7681 14.9175 38.9646 15.0495 39.0731 15.2812C39.1435 15.4367 39.167 15.5951 39.1406 15.7418" fill="white"/>
<path d="M40.5518 20.6433C40.455 20.8428 40.2496 20.9953 39.9387 21.0892L39.8976 20.8369C40.0736 20.7812 40.188 20.6932 40.2555 20.5876C40.32 20.482 40.3406 20.3588 40.32 20.215C40.2907 20.0449 40.1822 19.9217 39.9944 19.8337C39.8038 19.7428 39.5398 19.7281 39.1995 19.7868C38.9091 19.8337 38.6803 19.9217 38.516 20.0449C38.3518 20.171 38.2843 20.3412 38.3195 20.5582C38.3459 20.7225 38.4339 20.8486 38.5776 20.9366C38.7243 21.0188 38.9414 21.0422 39.2259 20.9982L39.1291 20.4204L39.4078 20.3734L39.5398 21.1801L38.2256 21.4001L38.1963 21.2446L38.5102 21.1302C38.3723 21.0686 38.2726 21.01 38.2139 20.9542C38.1083 20.8545 38.0438 20.7284 38.0174 20.5582C37.9822 20.3441 38.0438 20.1446 38.208 19.954C38.4134 19.7428 38.7243 19.6049 39.1379 19.5374C39.5486 19.467 39.8888 19.4993 40.1616 19.6225C40.4227 19.7398 40.5694 19.9217 40.6104 20.174C40.6398 20.3441 40.6222 20.4966 40.5547 20.6404" fill="white"/>
<path d="M40.716 21.4294L40.804 22.7905L40.5018 22.8081L40.4285 21.6993L39.6746 21.7521L39.7421 22.7758L39.4576 22.7934L39.393 21.7668L38.5453 21.8254L38.6216 22.9489L38.3224 22.9665L38.2344 21.5908L40.716 21.4294Z" fill="white"/>
<path d="M38.5157 23.9169C38.5274 23.6822 38.6272 23.5121 38.8237 23.4153C39.0173 23.3185 39.252 23.2715 39.5277 23.2833C39.8768 23.2979 40.1349 23.3683 40.308 23.4974C40.484 23.6265 40.5632 23.7878 40.5573 23.9843C40.5485 24.1809 40.4546 24.3363 40.2698 24.4478C40.088 24.5563 39.8474 24.6091 39.5541 24.5974C39.2725 24.5857 39.029 24.5241 38.8178 24.4126C38.6096 24.307 38.5098 24.1369 38.5157 23.9169ZM40.8506 23.9814C40.8682 23.6646 40.7216 23.4211 40.4194 23.2481C40.1848 23.1161 39.9002 23.0398 39.5658 23.031C39.1904 23.0163 38.8794 23.075 38.6301 23.2158C38.372 23.3683 38.237 23.5883 38.2253 23.8758C38.2136 24.1809 38.3485 24.4273 38.633 24.6003C38.8736 24.7529 39.1786 24.8379 39.5512 24.8526C39.8944 24.8643 40.1789 24.8145 40.4048 24.6971C40.6952 24.5505 40.8448 24.307 40.8536 23.9814" fill="white"/>
<path d="M38.4982 25.1459L40.3843 25.4187L40.3227 25.8587C40.2904 26.0581 40.1849 26.1901 40.003 26.2576C39.8211 26.3221 39.5776 26.3309 39.2755 26.2899C39.1963 26.2781 39.1112 26.2576 39.0203 26.2312C38.8678 26.1901 38.7446 26.1344 38.6536 26.0757C38.5392 25.9936 38.4688 25.9027 38.4336 25.7971C38.419 25.7413 38.419 25.6709 38.4336 25.5859L38.4982 25.1429V25.1459ZM38.2488 24.8555L38.1403 25.5947C38.0992 25.9085 38.2518 26.1579 38.6038 26.3397C38.8062 26.4453 39.0379 26.5157 39.299 26.5568C39.6363 26.6037 39.9208 26.5803 40.1614 26.4893C40.4195 26.3867 40.5691 26.2077 40.6043 25.9555L40.7129 25.2104L38.2488 24.8555Z" fill="white"/>
<path d="M40.4194 27.0879L40.0909 28.4138L39.7976 28.3404L40.0616 27.261L39.3282 27.0791L39.0818 28.0735L38.8061 28.006L39.0496 27.0087L38.2282 26.8092L37.9584 27.9004L37.6709 27.833L38.0024 26.4924L40.4194 27.0879Z" fill="white"/>
<path d="M38.3492 28.3344C38.2172 28.2934 38.1028 28.2758 38.003 28.2904C37.8212 28.311 37.698 28.4136 37.6276 28.6014C37.6012 28.6894 37.5894 28.7715 37.6012 28.8566C37.6188 29.0179 37.7126 29.1264 37.8857 29.188C38.0148 29.2291 38.1145 29.2291 38.1908 29.1998C38.2641 29.1558 38.3404 29.0795 38.4254 28.968L38.5721 28.7656C38.6718 28.6307 38.7598 28.5427 38.839 28.5016C38.971 28.4312 39.1382 28.4283 39.3348 28.4928C39.5489 28.5691 39.7014 28.6806 39.8041 28.836C39.9038 28.9915 39.9214 29.1646 39.851 29.3611C39.7924 29.5342 39.678 29.6691 39.5137 29.7512C39.3524 29.8363 39.1382 29.8304 38.8772 29.7424L38.9534 29.5195C39.0854 29.5518 39.191 29.5606 39.2673 29.5488C39.414 29.5195 39.5166 29.4227 39.5724 29.2584C39.6222 29.1206 39.6164 29.012 39.5577 28.924C39.499 28.836 39.4169 28.7715 39.3142 28.7392C39.1998 28.6982 39.103 28.707 39.0238 28.7568C38.974 28.7891 38.8977 28.88 38.7892 29.0238L38.6308 29.232C38.5545 29.3347 38.4753 29.408 38.3902 29.4491C38.2406 29.5195 38.0617 29.5195 37.8534 29.4432C37.5924 29.3552 37.434 29.2174 37.3665 29.0414C37.3049 28.8624 37.3049 28.6806 37.3665 28.5046C37.4428 28.2904 37.5718 28.1496 37.7654 28.0792C37.9561 28.0118 38.179 28.0235 38.4342 28.1115L38.3521 28.3374" fill="white"/>
<path d="M39.4691 30.2354L39.3489 30.5023L38.0377 30.4906L38.903 31.4762L38.7827 31.7431L37.7209 30.4847L36.8115 30.0682L36.9142 29.8364L37.8265 30.2559L39.4691 30.2354Z" fill="white"/>
<path d="M36.1515 34.4651C36.0253 34.3654 35.9579 34.2686 35.9461 34.1718C35.9373 34.0779 35.9667 33.987 36.0371 33.896L36.3392 33.4971L37.0227 34.0163L36.7205 34.4152C36.656 34.4944 36.6003 34.5414 36.5387 34.5678C36.4272 34.6088 36.2952 34.5707 36.1485 34.4651H36.1515ZM35.4299 32.491L35.2803 32.6904L36.1133 33.324L35.7613 33.7904C35.6499 33.9371 35.6235 34.0955 35.6792 34.2539C35.7408 34.4123 35.8464 34.5531 36.0019 34.6675C36.1837 34.8024 36.3539 34.8699 36.5152 34.8699C36.6765 34.864 36.8085 34.7936 36.9053 34.6587L37.4128 33.9928L35.4299 32.488" fill="white"/>
<path d="M36.3629 35.3451L36.1928 35.5358L35.436 34.8347L34.7848 35.5475L35.5386 36.2427L35.3685 36.4275L33.5381 34.7438L33.7082 34.5619L34.5618 35.3451L35.2218 34.6323L34.3624 33.8462L34.5325 33.6672L36.3629 35.3451Z" fill="white"/>
<path d="M32.9544 35.5709C33.1304 35.4125 33.3211 35.3715 33.5264 35.4448C33.7317 35.5181 33.9253 35.656 34.1072 35.8643C34.3389 36.1283 34.4651 36.3659 34.4915 36.58C34.5179 36.7942 34.4563 36.9643 34.3096 37.0934C34.1571 37.2254 33.984 37.2635 33.7757 37.2078C33.5704 37.1491 33.3709 37.0083 33.1773 36.7883C32.9955 36.5829 32.8693 36.3659 32.7989 36.1371C32.7315 35.9083 32.7813 35.7206 32.9515 35.5768L32.9544 35.5709ZM34.5179 37.3046C34.7555 37.0934 34.8288 36.8235 34.7467 36.4832C34.6821 36.228 34.5384 35.964 34.3125 35.7118C34.0661 35.4272 33.808 35.2483 33.5381 35.1662C33.2448 35.0811 32.9925 35.1368 32.7784 35.3275C32.5467 35.5299 32.4675 35.7968 32.5349 36.1224C32.5907 36.3982 32.7403 36.6797 32.9867 36.9555C33.2125 37.2136 33.4443 37.3867 33.6848 37.4688C33.9899 37.5773 34.2685 37.5187 34.5149 37.3016" fill="white"/>
<path d="M32.4563 38.8242L32.2832 38.5866L32.7907 38.2199L31.5059 36.4423L31.7053 36.2927L32.9989 38.0674L33.5064 37.6978L33.6795 37.9383L32.4563 38.8242Z" fill="white"/>
<path d="M30.4344 37.4043C30.6398 37.2811 30.8334 37.2811 31.0211 37.3897C31.2088 37.4982 31.376 37.6742 31.5139 37.9118C31.6958 38.211 31.775 38.4662 31.7632 38.6833C31.7486 38.8974 31.6547 39.0499 31.4904 39.1555C31.3144 39.2553 31.1355 39.2582 30.9419 39.1614C30.7512 39.0675 30.5782 38.8974 30.4286 38.6451C30.2848 38.4046 30.2056 38.167 30.1792 37.9294C30.1558 37.6947 30.2408 37.5187 30.4315 37.4043H30.4344ZM31.6547 39.399C31.9246 39.2377 32.0507 38.9854 32.0272 38.6422C32.0126 38.3665 31.9187 38.0878 31.7456 37.8003C31.555 37.4747 31.3379 37.2518 31.0886 37.1169C30.8128 36.9819 30.5547 36.9907 30.3112 37.1374C30.0472 37.2899 29.9152 37.5393 29.9211 37.8737C29.927 38.1553 30.0238 38.4574 30.2115 38.7801C30.3875 39.0793 30.587 39.2846 30.807 39.4107C31.0886 39.575 31.3702 39.5721 31.6547 39.4019" fill="white"/>
<path d="M29.3903 40.408C29.1703 40.3699 28.9738 40.2086 28.8007 39.9299L29.0295 39.8272C29.1293 39.9739 29.2437 40.0707 29.3639 40.1059C29.4813 40.1411 29.6103 40.1323 29.7394 40.0736C29.8949 40.0032 29.9887 39.8595 30.0239 39.6571C30.0562 39.4518 30.0005 39.1936 29.8597 38.8798C29.7335 38.6158 29.5927 38.4134 29.4255 38.2843C29.2642 38.1552 29.0794 38.1376 28.8858 38.2256C28.7303 38.296 28.6306 38.4104 28.5895 38.5747C28.5455 38.736 28.5807 38.9531 28.6981 39.2171L29.2319 38.9736L29.3493 39.2288L28.6042 39.572L28.0498 38.3606L28.1965 38.2931L28.3871 38.5659C28.4106 38.4163 28.4399 38.3048 28.4781 38.2315C28.5455 38.1083 28.6541 38.0086 28.8066 37.9411C29.0031 37.8502 29.2143 37.859 29.4373 37.9675C29.6925 38.1112 29.9095 38.3782 30.0826 38.7595C30.2557 39.135 30.3202 39.4723 30.2703 39.7686C30.2234 40.0443 30.0826 40.235 29.8567 40.3435C29.6983 40.4168 29.5429 40.4403 29.3903 40.408Z" fill="white"/>
<path d="M28.0616 39.7861L28.3344 40.584L27.7624 40.7746C27.6803 40.804 27.6099 40.8098 27.5541 40.7981C27.4456 40.7688 27.3635 40.669 27.3048 40.5018C27.252 40.3493 27.2461 40.2261 27.2872 40.1469C27.3341 40.0677 27.4104 40.009 27.5219 39.9709L28.0616 39.789V39.7861ZM27.8651 38.428L27.6245 38.5072L27.9707 39.5221L27.4397 39.701C27.3488 39.7304 27.2725 39.745 27.2168 39.7274C27.12 39.701 27.0437 39.613 26.988 39.4576L26.8384 39.0674C26.8061 38.9765 26.7768 38.9178 26.7621 38.8885C26.7445 38.8533 26.7299 38.8298 26.7123 38.8152L26.4219 38.9149L26.4395 38.9706C26.4805 38.9765 26.5216 39.0176 26.5656 39.088C26.5891 39.129 26.6184 39.1906 26.6477 39.2786L26.7651 39.5925C26.8179 39.7274 26.8707 39.8242 26.9264 39.8741C26.9792 39.921 27.0525 39.9533 27.1317 39.968C27.0701 40.0501 27.0349 40.141 27.0203 40.2466C27.0056 40.3522 27.0261 40.4725 27.0731 40.6162C27.164 40.889 27.3107 41.0445 27.5101 41.0914C27.6128 41.112 27.7301 41.1061 27.8621 41.0592L28.6659 40.7834L27.8651 38.428Z" fill="white"/>
<path d="M26.2136 40.0121L26.1754 41.1532L25.6445 40.1441L26.2136 40.0121ZM26.5069 38.8975L26.2458 38.9561L26.2224 39.7247L25.5125 39.8977L25.1517 39.2172L24.8818 39.2817L26.1138 41.5492L26.4013 41.4847L26.5098 38.9004" fill="white"/>
<path d="M25.2253 41.7457L24.8703 41.7927L24.0637 39.7775L23.8085 41.9393L23.4535 41.9833L23.1279 39.5135L23.3626 39.4841L23.5562 40.942C23.5621 40.9919 23.5709 41.074 23.5797 41.1943C23.5943 41.3087 23.6061 41.4319 23.6237 41.5697L23.8906 39.4167L24.1399 39.3815L24.9495 41.3937L24.9407 41.3145C24.9319 41.2529 24.9173 41.1649 24.8967 41.0388C24.8791 40.9156 24.8674 40.8247 24.8586 40.7689L24.665 39.3111L24.8997 39.2788L25.2253 41.7457Z" fill="white"/>
<path d="M23.0482 42.0097L22.6932 42.0155L22.1154 39.9241L21.6196 42.039L21.2618 42.0478L21.2178 39.5603L21.4524 39.5545L21.4788 41.027V41.2763C21.4759 41.3937 21.4759 41.5198 21.4788 41.6577L21.9834 39.5427H22.2386L22.8164 41.6313V41.555C22.8106 41.4934 22.8106 41.3995 22.8047 41.2734C22.7959 41.1502 22.793 41.0593 22.793 40.9977L22.7666 39.5339L23.0012 39.5281L23.0482 42.0126" fill="white"/>
<path d="M20.8513 42.0186L19.4932 41.9042L19.5166 41.6021L20.6254 41.6901L20.687 40.9391L19.6633 40.857L19.6897 40.5666L20.7105 40.6546L20.7809 39.8098L19.6604 39.7189L19.6868 39.4226L21.0566 39.5341L20.8513 42.0186Z" fill="white"/>
<path d="M17.8389 41.6343L17.8858 41.3409L18.5077 41.4495L18.8743 39.2847L19.1237 39.3287L18.7599 41.4905L19.3789 41.5932L19.3319 41.8807L17.8389 41.6343Z" fill="white"/>
<path d="M17.6423 40.4168L17.4252 41.2323L16.8473 41.0768C16.7652 41.0563 16.7036 41.0211 16.6625 40.9771C16.5892 40.892 16.5716 40.7659 16.6185 40.5928C16.6596 40.4344 16.7212 40.3318 16.8004 40.2907C16.8796 40.2496 16.9793 40.2379 17.0908 40.2702L17.6423 40.4139V40.4168ZM18.2289 39.1702L17.9855 39.1086L17.7127 40.1411L17.17 40.0003C17.0732 39.9768 17.0057 39.9416 16.9705 39.9006C16.9031 39.8272 16.8884 39.7099 16.9236 39.5544L17.0145 39.1438C17.0351 39.047 17.0468 38.9854 17.0527 38.9502C17.0527 38.915 17.0527 38.8886 17.0527 38.8622L16.7564 38.7859L16.7417 38.8387C16.774 38.871 16.7857 38.9238 16.7828 39.0059C16.7769 39.0558 16.7681 39.1291 16.7476 39.2142L16.6713 39.5456C16.642 39.6864 16.6332 39.795 16.6537 39.8654C16.6713 39.9358 16.7095 40.0032 16.7711 40.059C16.6772 40.0942 16.5951 40.147 16.5247 40.232C16.4572 40.3112 16.4015 40.4256 16.3663 40.5694C16.2929 40.8451 16.3281 41.0563 16.4719 41.203C16.5423 41.2734 16.6479 41.332 16.7799 41.3702L17.6012 41.5843L18.2348 39.176" fill="white"/>
<path d="M16.0029 41.1532L15.7301 41.0564L15.6333 39.7481L14.724 40.6897L14.4512 40.59L15.6157 39.4372L15.9589 38.4927L16.1965 38.5777L15.8533 39.5193L16.0029 41.1532Z" fill="white"/>
<path d="M14.3626 38.0291C14.4359 38.0614 14.4887 38.1318 14.521 38.2256C14.5562 38.3254 14.5386 38.431 14.4799 38.5483C14.4242 38.6568 14.3538 38.736 14.2658 38.7859C14.2101 38.8211 14.1015 38.8592 13.949 38.9003L13.8815 38.0966C13.9461 38.0496 14.0223 38.0144 14.1074 37.9939C14.1954 37.9734 14.2775 37.9851 14.3626 38.0262V38.0291ZM13.7202 39.1731C13.729 39.2963 13.7378 39.3872 13.7349 39.4606C13.7319 39.531 13.7143 39.5926 13.6821 39.6542C13.6645 39.7011 13.6322 39.7363 13.597 39.7686C13.5266 39.8272 13.4474 39.836 13.3623 39.792C13.3066 39.7627 13.2743 39.7187 13.2655 39.6542C13.2538 39.5896 13.2685 39.528 13.3007 39.4606C13.3447 39.3784 13.4034 39.311 13.4826 39.264C13.5325 39.2347 13.6087 39.2054 13.7202 39.1731ZM13.9666 39.1467C14.1455 39.1115 14.2717 39.0675 14.3538 39.0206C14.4887 38.9502 14.5973 38.827 14.6794 38.6598C14.7557 38.5072 14.7909 38.343 14.7733 38.1758C14.7557 38.0115 14.6647 37.8883 14.4917 37.8032C14.3743 37.7416 14.257 37.727 14.1279 37.7534C14.0546 37.7651 13.9666 37.8032 13.861 37.8619L13.8287 37.5363L13.5706 37.4072L13.6234 38.0262C13.6381 38.0056 13.5911 38.0467 13.4855 38.1552C13.3799 38.2696 13.2861 38.3928 13.201 38.5307L13.3975 38.6275C13.4415 38.56 13.4767 38.5102 13.5031 38.4691C13.5354 38.4368 13.5765 38.384 13.6381 38.3078L13.6967 38.9443C13.5647 38.9795 13.4621 39.0176 13.3917 39.0646C13.2685 39.135 13.1717 39.2406 13.1013 39.3872C13.0397 39.5075 13.0221 39.6307 13.0397 39.751C13.0573 39.8712 13.1277 39.9622 13.2421 40.0208C13.3653 40.0824 13.4885 40.0854 13.6058 40.0267C13.7231 39.968 13.8229 39.8654 13.8933 39.7246C13.9285 39.6571 13.9549 39.5808 13.9666 39.4899C13.9783 39.4078 13.9783 39.2904 13.9666 39.1496" fill="white"/>
<path d="M10.7168 38.2989C10.7021 38.0936 10.7461 37.8912 10.8517 37.7093L11.0512 37.8443C10.9896 37.9939 10.9603 38.1317 10.9779 38.252C10.9984 38.3752 11.0659 38.4779 11.1891 38.5659C11.3387 38.6627 11.5088 38.6773 11.6995 38.5952C11.8872 38.516 12.0837 38.3253 12.2832 38.0349C12.4445 37.7944 12.5325 37.5715 12.5531 37.3632C12.5707 37.1549 12.4973 36.9965 12.3301 36.8821C12.1776 36.7824 12.0104 36.7824 11.8197 36.8821C11.72 36.9408 11.6144 37.0317 11.5059 37.152L11.2976 37.0171C11.4648 36.8088 11.6467 36.668 11.8491 36.5859C12.0896 36.4891 12.3125 36.5155 12.5208 36.6533C12.6997 36.7765 12.7965 36.9467 12.8229 37.1755C12.8552 37.4747 12.7349 37.8296 12.4651 38.2256C12.2597 38.5277 12.0309 38.7389 11.7787 38.8533C11.5059 38.9795 11.2565 38.9648 11.0277 38.8064C10.8341 38.6803 10.7285 38.5101 10.7139 38.2989" fill="white"/>
<path d="M10.8199 36.7502L9.89008 37.416L10.3682 36.3864L10.8199 36.7531V36.7502ZM11.8877 36.3072L11.6823 36.1371L11.0546 36.5859L10.4914 36.1224L10.8111 35.4214L10.5999 35.2483L9.54102 37.6008L9.76688 37.7886L11.8877 36.3072Z" fill="white"/>
<path d="M9.45602 36.014L8.86348 36.6124L8.43522 36.1871C8.37655 36.1284 8.33842 36.0698 8.32668 36.014C8.30615 35.8996 8.35602 35.7823 8.47922 35.6562C8.59362 35.5418 8.69922 35.4802 8.79015 35.486C8.88108 35.486 8.96908 35.533 9.05122 35.6151L9.45308 36.017L9.45602 36.014ZM10.5853 35.2338L10.4093 35.0578L9.65548 35.8146L9.25655 35.4215C9.18615 35.3511 9.14508 35.2924 9.13335 35.2308C9.11575 35.134 9.16268 35.0284 9.26828 34.9082L9.55282 34.6031C9.61442 34.5268 9.65842 34.477 9.67895 34.4476C9.69948 34.4212 9.71415 34.3948 9.72002 34.3743L9.50002 34.1572L9.46482 34.1954C9.47655 34.2423 9.45895 34.2951 9.41495 34.3596C9.38855 34.4007 9.34455 34.4564 9.27708 34.5268L9.04828 34.7732C8.95148 34.8788 8.88988 34.9668 8.87228 35.0372C8.85468 35.1106 8.85468 35.181 8.87815 35.269C8.77842 35.2455 8.68162 35.2572 8.57895 35.2924C8.47922 35.3247 8.37655 35.3951 8.27095 35.5036C8.07148 35.7002 7.99522 35.9026 8.04508 36.105C8.06855 36.2047 8.13015 36.3074 8.22988 36.4042L8.83122 37.0055L10.5824 35.2367" fill="white"/>
<path d="M6.70996 34.6911L6.93583 34.5004L7.34356 34.9874L9.01556 33.5706L9.17983 33.7642L7.50196 35.1722L7.90969 35.6562L7.68676 35.8498L6.70996 34.6911Z" fill="white"/>
<path d="M7.98555 32.5731C8.11755 32.7667 8.13515 32.9603 8.04128 33.1539C7.94448 33.3475 7.78315 33.5264 7.55435 33.6877C7.26981 33.8843 7.02048 33.9811 6.80635 33.984C6.59221 33.984 6.42501 33.9019 6.31355 33.7405C6.20208 33.5792 6.18448 33.3973 6.26368 33.2008C6.34581 33.0013 6.50715 32.8195 6.75061 32.6493C6.97648 32.4909 7.20821 32.3883 7.44288 32.3501C7.67461 32.3091 7.85648 32.3795 7.98555 32.5672V32.5731ZM6.07888 33.9283C6.25781 34.1864 6.52181 34.2949 6.86501 34.2509C7.13488 34.2128 7.40768 34.1013 7.68635 33.9077C7.99141 33.6936 8.20261 33.4589 8.31995 33.1979C8.43435 32.9163 8.41088 32.6611 8.24368 32.4264C8.07061 32.1712 7.81541 32.0597 7.48395 32.0891C7.20235 32.1155 6.90608 32.2328 6.60101 32.444C6.31941 32.6405 6.12288 32.8547 6.01141 33.0805C5.87061 33.3739 5.89408 33.6555 6.08181 33.9283" fill="white"/>
<path d="M4.91167 31.7343C4.93514 31.5113 5.08181 31.306 5.34874 31.1124L5.46607 31.3324C5.32234 31.4439 5.23434 31.5612 5.21087 31.6844C5.18447 31.8135 5.20207 31.9308 5.27247 32.0599C5.35167 32.2124 5.49834 32.2916 5.70367 32.3092C5.91194 32.3297 6.1642 32.2623 6.4634 32.0951C6.72447 31.9572 6.9122 31.7959 7.02954 31.6228C7.14687 31.4497 7.1498 31.2649 7.04714 31.0801C6.96794 30.9305 6.8418 30.8425 6.67754 30.8044C6.51034 30.7751 6.30207 30.8279 6.04394 30.9599L6.32554 31.4761L6.07914 31.6111L5.68607 30.8895L6.85941 30.2529L6.93567 30.3937L6.68047 30.6049C6.83007 30.6196 6.94447 30.6401 7.02074 30.6753C7.14687 30.734 7.24954 30.8337 7.33167 30.9833C7.43434 31.174 7.4402 31.3852 7.35221 31.6111C7.22314 31.878 6.9738 32.1127 6.6042 32.3121C6.24047 32.5116 5.909 32.5967 5.6098 32.5673C5.32527 32.5409 5.12581 32.4177 5.00554 32.1948C4.92634 32.0423 4.89114 31.8868 4.90874 31.7343" fill="white"/>
<path d="M5.44543 30.3585L4.66516 30.6841L4.43636 30.1239C4.4041 30.0505 4.39236 29.9801 4.4041 29.9156C4.42756 29.8041 4.52143 29.7191 4.68276 29.6487C4.83236 29.5841 4.95263 29.5695 5.03476 29.6105C5.1169 29.6487 5.18436 29.722 5.22543 29.8276L5.44543 30.3556V30.3585ZM6.7889 30.0799L6.69503 29.8423L5.70356 30.2559L5.49236 29.7396C5.4513 29.6428 5.43956 29.5695 5.44836 29.5137C5.46596 29.414 5.55396 29.3348 5.6977 29.2673L6.07903 29.0972C6.1641 29.0591 6.22276 29.0239 6.25503 29.0063C6.28436 28.9887 6.3049 28.9711 6.3225 28.9535L6.20516 28.6719L6.1553 28.6865C6.1465 28.7364 6.1113 28.7745 6.0409 28.8244C6.00276 28.8479 5.94116 28.886 5.8561 28.9183L5.55103 29.0591C5.4161 29.1148 5.3281 29.1764 5.28116 29.2351C5.23423 29.2908 5.21076 29.3612 5.20196 29.4463C5.11983 29.3876 5.02303 29.3612 4.9145 29.3524C4.81183 29.3465 4.68863 29.37 4.55076 29.4287C4.28676 29.5343 4.1401 29.6927 4.10783 29.8951C4.09316 29.9977 4.10783 30.1151 4.1665 30.2441L4.4921 31.0332L6.7889 30.0828" fill="white"/>
<path d="M5.09957 28.5281L3.96143 28.5633L4.92943 27.9707L5.1025 28.531L5.09957 28.5281ZM6.23183 28.751L6.15557 28.4958L5.3841 28.5193L5.1729 27.8182L5.82997 27.4163L5.74783 27.1494L3.5625 28.5251L3.64757 28.8067L6.23183 28.751Z" fill="white"/>
<path d="M3.78851 26.3751C3.94984 26.3428 4.06424 26.3575 4.14344 26.4162C4.21971 26.469 4.26664 26.557 4.29011 26.6655L4.38691 27.1524L3.54797 27.3284L3.44824 26.8327C3.42771 26.7359 3.43064 26.6626 3.45411 26.598C3.49517 26.4866 3.60957 26.4162 3.78557 26.3722L3.78851 26.3751ZM5.75091 27.1348L5.70104 26.8884L4.67144 27.0967L4.55411 26.5218C4.51597 26.3399 4.42211 26.2167 4.26077 26.158C4.09944 26.0994 3.92637 26.0876 3.73571 26.1228C3.51571 26.1698 3.35144 26.2548 3.24877 26.381C3.14611 26.5071 3.11384 26.6479 3.14317 26.8122L3.31331 27.6276L5.74797 27.1319" fill="white"/>
<path d="M2.98456 25.9438L2.95816 25.6915L3.98483 25.5859L3.88216 24.6238L2.86136 24.7323L2.83496 24.4771L5.31069 24.2219L5.33709 24.4742L4.18136 24.5974L4.28109 25.5537L5.43389 25.4334L5.46029 25.6857L2.98456 25.9438Z" fill="white"/>
<path d="M2.8174 24.2279L2.81446 23.9346L4.0054 23.386L2.8086 22.8639L2.80566 22.5676L4.29873 23.2628L5.299 23.254V23.5034L4.29873 23.5092L2.8174 24.2279Z" fill="white"/>
<path d="M35.7759 23.2479L32.209 22.3503V24.1895L35.7759 23.2479Z" fill="white"/>
<path d="M32.2092 24.3861C32.1652 24.3861 32.1242 24.3714 32.089 24.345C32.0391 24.3069 32.0127 24.2482 32.0127 24.1895V22.3503C32.0127 22.2887 32.042 22.233 32.089 22.1949C32.1359 22.1567 32.2004 22.145 32.2591 22.1597L35.826 23.0602C35.914 23.0837 35.9756 23.1599 35.9756 23.2509C35.9756 23.3418 35.917 23.421 35.829 23.4445L32.262 24.3861C32.2444 24.389 32.2298 24.3919 32.2122 24.3919L32.2092 24.3861ZM32.4058 22.6026V23.9314L34.9842 23.2509L32.4058 22.5997V22.6026Z" fill="white"/>
<path d="M7.84473 23.289L11.4146 24.1895V22.3503L7.84473 23.289Z" fill="white"/>
<path d="M11.4148 24.3861C11.3972 24.3861 11.3826 24.3861 11.3679 24.3802L7.80097 23.4797C7.71297 23.4562 7.65137 23.38 7.65137 23.289C7.65137 23.1981 7.71003 23.1189 7.79803 23.0954L11.365 22.1538C11.4236 22.1392 11.4882 22.1538 11.5351 22.189C11.585 22.2272 11.6114 22.2858 11.6114 22.3445V24.1837C11.6114 24.2453 11.582 24.301 11.5351 24.3392C11.4999 24.3656 11.4559 24.3802 11.4148 24.3802V24.3861ZM8.6399 23.2861L11.2183 23.9373V22.6085L8.6399 23.289V23.2861Z" fill="white"/>
<path d="M21.9162 37.3191L22.8167 33.7522H20.9746L21.9162 37.3191Z" fill="white"/>
<path d="M21.9162 37.5157C21.8253 37.5157 21.749 37.4541 21.7256 37.369L20.784 33.8021C20.7693 33.7434 20.784 33.6789 20.8192 33.6319C20.8573 33.5821 20.913 33.5557 20.9746 33.5557H22.8138C22.8754 33.5557 22.9312 33.585 22.9693 33.6319C23.0074 33.6789 23.0192 33.7434 23.0045 33.8021L22.104 37.369C22.0834 37.457 22.0042 37.5186 21.9133 37.5186L21.9162 37.5157ZM21.2328 33.9487L21.9133 36.5271L22.5645 33.9487H21.2357H21.2328Z" fill="white"/>
<path d="M7.37835 23.3478H7.04395C7.04395 14.7971 13.8551 9.18273 20.4405 8.6958L20.4639 9.0302C14.0311 9.5054 7.37541 14.9937 7.37541 23.3478H7.37835Z" fill="white"/>
<path d="M36.5626 23.3478H36.2282C36.2282 14.9907 29.5754 9.5054 23.1396 9.0302L23.1631 8.6958C29.7484 9.18273 36.5596 14.7971 36.5596 23.3478H36.5626Z" fill="white"/>
<path d="M24.6731 2.29834H18.9883V2.90847H24.6731V2.29834Z" fill="white"/>
<path d="M24.7964 3.03452H18.8652V2.17505H24.7964V3.03452ZM19.1116 2.78518H24.5471V2.42438H19.1116V2.78518Z" fill="white"/>
<path d="M24.9251 2.29834H24.6816V2.90847H24.9251V2.29834Z" fill="white"/>
<path d="M25.0514 2.17505H24.5586V3.03452H25.0514V2.17505Z" fill="white"/>
<path d="M18.9329 2.29834H18.6895V2.90847H18.9329V2.29834Z" fill="white"/>
<path d="M19.0592 2.17505H18.5664V3.03452H19.0592V2.17505Z" fill="white"/>
<path d="M50.2607 22.8929H54.2823V20.8806H56.9047V22.8929H60.9645L60.9439 25.0078H50.2607V22.8929ZM55.6023 32.9747C52.9799 32.9747 51.1466 31.4963 51.1466 29.3198C51.1466 27.1433 52.9799 25.6854 55.6023 25.6854C58.2247 25.6854 60.0581 27.1843 60.0581 29.3198C60.0581 31.4553 58.1866 32.9747 55.6023 32.9747ZM65.2031 39.4838H52.845V34.0014H55.4469V37.3278H65.2031V39.4838ZM55.6023 30.9214C56.7845 30.9214 57.5735 30.367 57.5735 29.3198C57.5735 28.2726 56.7845 27.7387 55.6023 27.7387C54.4202 27.7387 53.6311 28.2726 53.6311 29.3198C53.6311 30.367 54.4202 30.9214 55.6023 30.9214ZM64.5519 28.9091V35.0486H61.9501V20.8982H64.5519V26.6681H66.9573V28.9062H64.5519V28.9091Z" fill="white"/>
<path d="M83.9263 33.0571V39.8125H81.3039V35.1925H71.0343V33.0571H76.2791V30.3877H69.3799V28.2317H80.9313C81.2657 26.5069 81.3244 25.1312 81.3244 23.8787H71.4097V21.7021H83.8882V23.2216C83.8882 24.6384 83.9087 26.1784 83.5332 28.2317H85.8183V30.3877H78.8809V33.0571H83.9263Z" fill="white"/>
<path d="M88.4995 32.441V30.285H104.9V32.441H88.4995ZM95.2022 24.7616H90.0571V22.6672H95.3782V20.9629H97.98V22.6672H103.322V24.7616H98.1766C98.4934 26.0757 100.206 27.2872 104.169 27.5541L103.401 29.5664C99.9131 29.32 97.8216 28.3344 96.6982 26.8354C95.516 28.3344 93.3659 29.32 89.9574 29.5664L89.1888 27.5541C93.1518 27.2872 94.8854 26.0757 95.2022 24.7616ZM102.929 39.836H100.327V35.9757H90.3123V33.8402H102.929V39.836Z" fill="white"/>
<path d="M108.253 24.1867V22.0102H116.531V27.6979H110.855V29.3406C113.791 29.3406 115.803 29.1968 118.071 28.7656L118.288 30.9422C115.786 31.435 113.439 31.5171 109.831 31.5171H108.273V25.6856H113.97V24.1867H108.253ZM122.089 36.2398C122.089 38.4779 119.705 39.8331 115.938 39.8331C112.172 39.8331 109.787 38.4779 109.787 36.2398C109.787 34.0016 112.134 32.6464 115.938 32.6464C119.743 32.6464 122.089 33.94 122.089 36.2398ZM119.526 36.2398C119.526 35.2336 118.323 34.7203 115.938 34.7203C113.553 34.7203 112.351 35.2336 112.351 36.2398C112.351 37.2459 113.553 37.7592 115.938 37.7592C118.323 37.7592 119.526 37.2459 119.526 36.2398ZM124.316 27.431V29.628H121.911V32.2974H119.309V20.9014H121.911V23.4475H124.316V25.6446H121.911V27.431H124.316Z" fill="white"/>
<path d="M126.742 22.5645H130.763V20.7986H133.386V22.5645H137.428V24.6999H126.745V22.5645H126.742ZM132.083 32.2562C129.461 32.2562 127.628 30.8189 127.628 28.7655C127.628 26.7122 129.461 25.2954 132.083 25.2954C134.706 25.2954 136.539 26.7122 136.539 28.7655C136.539 30.8189 134.706 32.2562 132.083 32.2562ZM141.033 39.833H138.431V35.7058H128.93V33.5293H141.033V39.833ZM132.083 30.2029C133.265 30.2029 134.054 29.7306 134.054 28.7655C134.054 27.8005 133.265 27.3487 132.083 27.3487C130.901 27.3487 130.112 27.8005 130.112 28.7655C130.112 29.7306 130.901 30.2029 132.083 30.2029ZM141.033 32.749H138.431V20.9013H141.033V25.7677H143.438V28.0058H141.033V32.749Z" fill="white"/>
<path d="M157.454 33.94L157.65 35.8907C153.687 36.6504 149.469 36.671 146.278 36.671L145.961 34.4739C147.322 34.4739 148.818 34.4944 150.475 34.4328V32.8312C148.504 32.4411 147.263 31.168 147.263 29.4227C147.263 27.2872 149.117 25.8499 151.778 25.8499C154.438 25.8499 156.272 27.2872 156.272 29.4227C156.272 31.168 155.048 32.4411 153.077 32.8312V34.3302C154.576 34.248 156.034 34.1659 157.454 33.94ZM146.316 22.9958H150.475V20.963H153.077V22.9958H157.216V25.1107H146.316V22.9958ZM151.775 30.9216C153.036 30.9216 153.805 30.3878 153.805 29.4227C153.805 28.4576 153.036 27.9032 151.775 27.9032C150.513 27.9032 149.745 28.4371 149.745 29.4227C149.745 30.4083 150.572 30.9216 151.775 30.9216ZM158.398 39.8126V20.8984H161V39.8126H158.398Z" fill="white"/>
<path d="M56.873 12.8464L56.1631 13.8085C55.069 13.2101 54.2594 12.1072 53.8194 10.6874C53.3794 12.1541 52.5346 13.3861 51.3642 14.008L50.6543 13.0341C52.253 12.2245 53.2327 10.2181 53.2327 8.25862V6.52209H54.3943V8.25862C54.3943 10.1477 55.3506 12.072 56.873 12.8464ZM58.7092 10.84V16.2373H57.5476V5.64209H58.7092V9.84262H60.2991V10.84H58.7092Z" fill="white"/>
<path d="M63.001 11.497H62.1797V6.51037H66.7088V7.49597H63.3413V10.4997C65.2685 10.4997 66.3597 10.441 67.5888 10.1594L67.7002 11.1333C66.3714 11.4149 65.1893 11.497 63.001 11.497ZM70.1085 15.0522V16.0378H63.2592V12.5296H64.4296V15.0522H70.1085ZM71.144 9.66664H69.7008V13.304H68.5392V5.63037H69.7008V8.6693H71.144V9.66664Z" fill="white"/>
<path d="M81.1139 11.4501H79.9523V9.15037H77.8344V11.0864H73.147V6.1701H74.2968V7.67197H76.6963V6.18184H77.8344V8.16477H79.9523V5.63037L81.1139 5.6421V11.4501ZM74.2968 8.61064V10.1008H76.6963V8.61064H74.2968ZM81.1139 11.9312V16.0965H74.5022V11.9312H75.652V13.0576H79.9552V11.9312H81.1168H81.1139ZM75.6491 14.008V15.1226H79.9523V14.008H75.6491Z" fill="white"/>
<path d="M86.5082 11.6496C84.977 11.6496 83.8037 10.5349 83.8037 8.99782C83.8037 7.46076 84.9741 6.34609 86.5082 6.34609C88.0424 6.34609 89.201 7.43729 89.201 8.99782C89.201 10.5584 88.0394 11.6496 86.5082 11.6496ZM86.5082 10.6053C87.397 10.6053 88.0746 9.95996 88.0746 8.99782C88.0746 8.03569 87.4 7.39036 86.5082 7.39036C85.6165 7.39036 84.9418 8.01222 84.9418 8.99782C84.9418 9.98342 85.6077 10.6053 86.5082 10.6053ZM92.2869 16.0378H85.3466V12.5648H86.517V15.0522H92.284V16.0378H92.2869ZM90.8349 13.3392V5.64209H91.9965V13.3392H90.8349Z" fill="white"/>
</g>
</g>
<defs>
<clipPath id="clip0_366_1498">
<rect width="160.301" height="44" fill="white" transform="translate(0.699219 0.5)"/>
</clipPath>
<clipPath id="clip1_366_1498">
<rect width="160.301" height="44" fill="white" transform="translate(0.699219 0.5)"/>
</clipPath>
</defs>
</svg>
