<svg width="30" height="30" viewBox="0 0 30 30" fill="none" xmlns="http://www.w3.org/2000/svg">
<path d="M12.9701 3.80322C11.1588 3.80322 9.3882 4.34034 7.88216 5.34664C6.37611 6.35295 5.20229 7.78325 4.50914 9.45668C3.81598 11.1301 3.63462 12.9715 3.98799 14.748C4.34135 16.5245 5.21358 18.1563 6.49437 19.4371C7.77515 20.7179 9.40697 21.5901 11.1835 21.9435C12.96 22.2969 14.8014 22.1155 16.4748 21.4223C18.1482 20.7292 19.5785 19.5554 20.5848 18.0493C21.5911 16.5433 22.1282 14.7726 22.1282 12.9613C22.1281 10.5325 21.1632 8.20319 19.4457 6.48574C17.7283 4.7683 15.399 3.80338 12.9701 3.80322V3.80322Z" stroke="white" stroke-width="2" stroke-miterlimit="10"/>
<path d="M19.8052 19.7964L26.2011 26.1923" stroke="white" stroke-width="2" stroke-miterlimit="10"/>
</svg>
