<svg width="20" height="20" viewBox="0 0 20 20" fill="none" xmlns="http://www.w3.org/2000/svg">
<path d="M8.64692 2.53564C7.43938 2.53564 6.25896 2.89372 5.25493 3.56459C4.2509 4.23546 3.46836 5.189 3.00625 6.30462C2.54415 7.42023 2.42324 8.64783 2.65882 9.83216C2.8944 11.0165 3.47588 12.1044 4.32974 12.9582C5.1836 13.8121 6.27148 14.3936 7.45581 14.6292C8.64015 14.8647 9.86774 14.7438 10.9834 14.2817C12.099 13.8196 13.0525 13.0371 13.7234 12.033C14.3943 11.029 14.7523 9.84859 14.7523 8.64106C14.7522 7.02183 14.1089 5.46896 12.964 4.32399C11.819 3.17903 10.2661 2.53575 8.64692 2.53564V2.53564Z" stroke="#1D1D1D" stroke-width="1.6" stroke-miterlimit="10"/>
<path d="M13.2036 13.1978L17.4676 17.4617" stroke="#1D1D1D" stroke-width="1.6" stroke-miterlimit="10"/>
</svg>
