<svg width="20" height="20" viewBox="0 0 20 20" fill="none" xmlns="http://www.w3.org/2000/svg">
<path d="M8.64643 2.53564C7.43889 2.53564 6.25847 2.89372 5.25444 3.56459C4.25042 4.23546 3.46787 5.189 3.00577 6.30462C2.54366 7.42023 2.42275 8.64783 2.65833 9.83216C2.89391 11.0165 3.47539 12.1044 4.32925 12.9582C5.18311 13.8121 6.27099 14.3936 7.45532 14.6292C8.63966 14.8647 9.86725 14.7438 10.9829 14.2817C12.0985 13.8196 13.052 13.0371 13.7229 12.033C14.3938 11.029 14.7518 9.84859 14.7518 8.64106C14.7517 7.02183 14.1085 5.46896 12.9635 4.32399C11.8185 3.17903 10.2657 2.53575 8.64643 2.53564V2.53564Z" stroke="white" stroke-width="1.6" stroke-miterlimit="10"/>
<path d="M13.2031 13.1978L17.4671 17.4617" stroke="white" stroke-width="1.6" stroke-miterlimit="10"/>
</svg>
