<svg width="290" height="40" viewBox="0 0 290 40" fill="none" xmlns="http://www.w3.org/2000/svg">
<g clip-path="url(#clip0_567_24433)">
<path d="M84.3076 14.8472H90.5135L90.6609 20.3403L94.3807 20.5964L94.2482 26.5906L90.827 26.8917L90.6329 30.1318L91.2134 32.353L92.559 33.1719H94.3807L94.2482 39.5251L90.8979 39.1792L87.1782 37.5601L84.8283 33.9909L84.3076 28.9427V14.8472Z" fill="white"/>
<path d="M94.2482 39.5664H94.2445L90.8942 39.2206C90.8942 39.2206 90.8868 39.2206 90.8812 39.2168L87.1614 37.5977C87.1614 37.5977 87.1483 37.5902 87.1427 37.5827L84.7948 34.0154C84.7948 34.0154 84.7892 34.0041 84.7873 33.9967L84.2666 28.9485V14.8492C84.2666 14.8268 84.2853 14.8081 84.3077 14.8081H90.5135C90.5359 14.8081 90.5546 14.8268 90.5546 14.8492L90.7001 20.305L94.3826 20.5574C94.405 20.5574 94.4218 20.5779 94.4218 20.6004L94.2893 26.5946C94.2893 26.6152 94.2725 26.6339 94.2519 26.6357L90.8681 26.933L90.6759 30.132L91.2507 32.3289L92.5722 33.1329H94.3807C94.3919 33.1329 94.4031 33.1366 94.4106 33.146C94.418 33.1534 94.4218 33.1647 94.4218 33.1759L94.2893 39.5291C94.2893 39.5403 94.2837 39.5515 94.2743 39.559C94.2669 39.5665 94.2575 39.5702 94.2463 39.5702L94.2482 39.5664ZM90.9073 39.1383L94.2071 39.4786L94.3378 33.2133H92.5591C92.5591 33.2133 92.5442 33.2114 92.5367 33.2077L91.191 32.3887C91.191 32.3887 91.1761 32.3738 91.1723 32.3644L90.5919 30.1451C90.5919 30.1451 90.5919 30.1358 90.5919 30.132L90.786 26.8919C90.786 26.8713 90.8028 26.8545 90.8233 26.8526L94.2071 26.5553L94.3378 20.6378L90.6572 20.3854C90.6367 20.3854 90.6199 20.3667 90.618 20.3461L90.4724 14.8922H84.3487V28.9467L84.8676 33.9798L87.2043 37.5285L90.9073 39.1402V39.1383Z" fill="white"/>
<path d="M81.9264 20.5962H75.1719V39.1771H81.9264V20.5962Z" fill="white"/>
<path d="M81.9265 39.2203H75.1719C75.1495 39.2203 75.1309 39.2016 75.1309 39.1792V20.5983C75.1309 20.5758 75.1495 20.5571 75.1719 20.5571H81.9265C81.9489 20.5571 81.9675 20.5758 81.9675 20.5983V39.1792C81.9675 39.2016 81.9489 39.2203 81.9265 39.2203ZM75.213 39.1362H81.8854V20.6375H75.213V39.1362Z" fill="white"/>
<path d="M75.332 15.5165L76.2018 13.6917L78.4433 13.1626L81.2654 13.9217L82.1444 16.1765L82.0418 18.1341L80.1063 19.6859L77.652 19.7981L75.5093 18.5024L75.332 15.5165Z" fill="white"/>
<path d="M77.652 19.8394C77.652 19.8394 77.6371 19.8376 77.6315 19.8338L75.4889 18.5381C75.4777 18.5307 75.4702 18.5194 75.4683 18.5045L75.291 15.5186C75.291 15.5186 75.291 15.5036 75.2948 15.498L76.1645 13.6751C76.1701 13.6639 76.1794 13.6564 76.1925 13.6527L78.4341 13.1235C78.4341 13.1235 78.4471 13.1235 78.4546 13.1235L81.2766 13.8826C81.2897 13.8864 81.299 13.8957 81.3046 13.9069L82.1837 16.1618C82.1837 16.1618 82.1874 16.173 82.1874 16.1786L82.0848 18.1362C82.0848 18.1474 82.0792 18.1586 82.0698 18.1661L80.1325 19.7179C80.1325 19.7179 80.1176 19.7273 80.1082 19.7273L77.6539 19.8394H77.652ZM75.5505 18.4783L77.6632 19.7553L80.0914 19.6431L82.0026 18.1118L82.1034 16.1823L81.2356 13.9555L78.4434 13.2058L76.2317 13.7274L75.375 15.5242L75.5505 18.4783Z" fill="white"/>
<path d="M65.2273 32.9421L62.7188 33.1347L60.3429 31.8596L59.6579 29.9413L60.0797 27.9202L61.795 26.4412H63.6688L65.33 27.105L66.2538 28.0529L66.6495 31.6221V39.0504H72.8572V28.238L71.6627 24.8819L69.4193 22.2382L66.1493 20.5966L63.2321 20.2339L59.3948 20.8116L56.3077 22.6607L54.5122 25.2521L53.1143 28.7933L53.6051 32.6785L55.2774 35.8233L58.4447 38.3343L62.6386 39.5253L65.4625 39.0504L65.2273 32.9421Z" fill="white"/>
<path d="M62.6386 39.5662C62.6386 39.5662 62.6312 39.5662 62.6274 39.5662L58.4317 38.3771C58.4317 38.3771 58.4224 38.3733 58.4168 38.3696L55.2514 35.8586C55.2514 35.8586 55.2439 35.8511 55.2402 35.8455L53.5678 32.7007C53.5678 32.7007 53.5641 32.6914 53.5641 32.6858L53.0732 28.8006C53.0732 28.8006 53.0732 28.7856 53.0751 28.78L54.4731 25.2388L56.2723 22.64C56.2723 22.64 56.2797 22.6306 56.2853 22.6287L59.3724 20.7778C59.3724 20.7778 59.3817 20.774 59.3873 20.7722L63.2247 20.1963C63.2247 20.1963 63.2321 20.1963 63.2359 20.1963L66.1531 20.559C66.1531 20.559 66.1624 20.559 66.1662 20.5627L69.438 22.2043C69.438 22.2043 69.4473 22.2099 69.451 22.2137L71.6945 24.8574C71.6945 24.8574 71.7001 24.8649 71.7019 24.8705L72.8965 28.2266C72.8965 28.2266 72.8983 28.2359 72.8983 28.2397V39.052C72.8983 39.0745 72.8797 39.0932 72.8573 39.0932H66.6496C66.6272 39.0932 66.6085 39.0745 66.6085 39.052V31.6219L66.2147 28.0733L65.3076 27.1422L63.6614 26.484H61.8118L60.119 27.9443L59.7028 29.9392L60.3784 31.8313L62.7282 33.0934L65.2255 32.9027C65.2255 32.9027 65.2479 32.9045 65.2553 32.9139C65.2628 32.9214 65.2684 32.9326 65.2684 32.9438L65.5036 39.052C65.5036 39.0726 65.4886 39.0913 65.4681 39.095L62.6442 39.5681C62.6442 39.5681 62.6405 39.5681 62.6368 39.5681L62.6386 39.5662ZM58.4635 38.2967L62.6424 39.4821L65.4196 39.0165L65.1881 32.9868L62.7226 33.1756C62.7226 33.1756 62.7077 33.1756 62.7002 33.17L60.3261 31.8949C60.3261 31.8949 60.3093 31.8818 60.3075 31.8725L59.6225 29.9542C59.6225 29.9542 59.6188 29.9392 59.6225 29.9317L60.0443 27.9125C60.0443 27.9125 60.0518 27.8956 60.0574 27.89L61.7726 26.4092C61.7726 26.4092 61.7894 26.3999 61.7987 26.3999H63.6726C63.6726 26.3999 63.6838 26.3999 63.6876 26.4036L65.3505 27.0674C65.3505 27.0674 65.3599 27.073 65.3655 27.0767L66.2893 28.0247C66.2893 28.0247 66.3005 28.0396 66.3005 28.049L66.6962 31.6163V39.009H72.8218V28.2453L71.6329 24.9023L69.4007 22.2716L66.1419 20.6375L63.2377 20.2767L59.4135 20.8507L56.3413 22.6923L54.5514 25.2743L53.161 28.7987L53.65 32.6652L55.3148 35.7969L58.4672 38.2986L58.4635 38.2967Z" fill="white"/>
<path fill-rule="evenodd" clip-rule="evenodd" d="M13.1321 3.35791L33.1699 16.8795L20.0397 35.7128L0 22.1912L13.1321 3.35791ZM14.4853 10.5113L7.27342 20.8469L18.6866 28.5444L25.8984 18.2088L14.4853 10.5113Z" fill="#171C61"/>
<path fill-rule="evenodd" clip-rule="evenodd" d="M45.7369 16.932L28.0843 33.3403L12.1582 16.7806L29.8257 0.353516L45.7369 16.9339V16.932ZM38.0193 16.7226L29.598 7.95752L19.8702 16.9918L28.2934 25.7569L38.0174 16.7226H38.0193Z" fill="#CACED3"/>
<path d="M46.2103 16.7094C46.3335 16.8422 46.3335 17.0385 46.1954 17.1581L28.5241 33.587C28.4028 33.703 28.1901 33.703 28.0687 33.5702L12.1407 16.9917C12.0194 16.8721 12.0194 16.6589 12.1575 16.5411L29.8232 0.129061C29.9482 0.00940169 30.1591 0.0112714 30.2842 0.145889L46.2103 16.7094ZM29.8082 0.583394L30.2692 0.596482L12.5962 17.0123L12.613 16.5561L28.5372 33.1364L28.0781 33.1196L45.7474 16.6926L45.7325 17.16L29.8082 0.583394ZM38.0167 16.4813V16.9319L29.5936 8.17057L30.0546 8.1874L20.3324 17.2198L20.3455 16.7674L28.7686 25.5324L28.2908 25.5156L38.0167 16.4813ZM28.7537 25.983C28.6119 26.1195 28.414 26.1046 28.2908 25.983L19.8696 17.2198C19.7333 17.0852 19.7501 16.8889 19.8696 16.7674L29.5936 7.7181C29.7355 7.59657 29.9501 7.59844 30.0695 7.73306L38.4908 16.4981C38.614 16.6178 38.5953 16.8291 38.4759 16.9487L28.7519 25.983H28.7537Z" fill="white"/>
<path d="M28.3019 33.7143C28.3019 33.7143 28.2925 33.7143 28.2888 33.7143C28.1899 33.7105 28.1003 33.6694 28.035 33.5984L12.1089 17.0217C12.0417 16.9563 12.0043 16.861 12.0081 16.7637C12.0118 16.6646 12.0547 16.5749 12.1294 16.5113L29.795 0.0992413C29.8641 0.0338024 29.9593 -0.00359127 30.0582 0.00201778C30.1571 0.00575714 30.2486 0.0468902 30.3139 0.119808L46.2381 16.6815C46.3091 16.7581 46.3445 16.8516 46.3389 16.9488C46.3333 17.0404 46.2923 17.1264 46.2195 17.19L28.5482 33.617C28.4848 33.6787 28.3952 33.7124 28.3019 33.7124V33.7143ZM30.0451 0.0824141C29.9723 0.0824141 29.9033 0.110459 29.8529 0.157201L12.1854 16.5693C12.1275 16.6198 12.0939 16.6871 12.0921 16.7637C12.0902 16.8385 12.1182 16.9096 12.1686 16.96L28.0966 33.5385C28.147 33.5927 28.216 33.6245 28.2925 33.6283C28.3728 33.6283 28.4419 33.604 28.4941 33.5553L46.1672 17.1264C46.2232 17.0778 46.2568 17.0124 46.2605 16.9432C46.2643 16.8684 46.2363 16.7955 46.1821 16.7357L30.2542 0.175898C30.2019 0.119808 30.1328 0.0861535 30.0544 0.0842838C30.0507 0.0842838 30.047 0.0842838 30.0451 0.0842838V0.0824141ZM28.5389 33.1758L28.0798 33.159C28.063 33.159 28.048 33.1478 28.0424 33.1328C28.0368 33.1178 28.0424 33.0991 28.0536 33.0879L28.2552 32.8991L12.8368 16.846L12.6259 17.0423C12.6128 17.0535 12.596 17.0573 12.5811 17.0498C12.5661 17.0423 12.5568 17.0274 12.5568 17.0105L12.5736 16.5543C12.5736 16.5375 12.5848 16.5225 12.5997 16.5169C12.6165 16.5113 12.6333 16.5151 12.6445 16.5263L12.8386 16.7301L29.9723 0.81533L29.7782 0.613404C29.767 0.602186 29.7633 0.583489 29.7707 0.568532C29.7782 0.553574 29.7931 0.542356 29.8099 0.544226L30.2709 0.557314C30.2877 0.557314 30.3027 0.568532 30.3083 0.583489C30.3139 0.598447 30.3083 0.617143 30.2971 0.628362L30.0899 0.820939L45.5046 16.8628L45.7211 16.6628C45.7323 16.6515 45.751 16.6478 45.7659 16.6553C45.7809 16.6628 45.7902 16.6777 45.7902 16.6945L45.7753 17.162C45.7753 17.1788 45.7641 17.1938 45.7491 17.1994C45.7342 17.205 45.7155 17.2012 45.7043 17.19L45.5028 16.9806L28.3728 32.9066L28.5688 33.1104C28.58 33.1216 28.5837 33.1403 28.5762 33.1552C28.5688 33.1702 28.5538 33.1795 28.5389 33.1795V33.1758ZM28.1824 33.0804L28.4381 33.0898L28.3131 32.9589L28.1824 33.0804ZM12.8965 16.7899L28.3149 32.843L45.4449 16.917L30.0302 0.87516L12.8965 16.7899ZM45.5625 16.9208L45.695 17.0591L45.7043 16.7899L45.5625 16.9226V16.9208ZM12.652 16.6534L12.6426 16.9114L12.7789 16.7843L12.652 16.6534ZM29.9089 0.628362L30.0339 0.759239L30.1683 0.63584L29.9089 0.628362ZM28.5221 26.1215C28.4288 26.1215 28.3355 26.0841 28.2608 26.0112L19.8396 17.2461C19.7705 17.1769 19.7313 17.0872 19.7313 16.9937C19.7313 16.8983 19.7705 16.8049 19.8396 16.7357L29.5654 7.68642C29.7278 7.54619 29.9686 7.55554 30.1011 7.70511L38.5224 16.4702C38.5821 16.53 38.6176 16.6123 38.6176 16.7058C38.6176 16.8086 38.5784 16.9077 38.5056 16.9806L28.7797 26.0149C28.705 26.0878 28.6117 26.1234 28.5184 26.1234L28.5221 26.1215ZM29.8323 7.66959C29.7595 7.66959 29.6849 7.69576 29.6233 7.74811L19.8993 16.7955C19.847 16.8479 19.8153 16.9208 19.8153 16.9937C19.8153 17.0666 19.8451 17.1339 19.8993 17.1881L28.3205 25.9532C28.4344 26.0673 28.608 26.0673 28.7256 25.9532L38.4496 16.9189C38.5037 16.8647 38.5354 16.7843 38.5354 16.7058C38.5354 16.6366 38.5093 16.573 38.4645 16.5281L30.0414 7.7612C29.9873 7.6995 29.9107 7.66959 29.8305 7.66959H29.8323ZM28.7685 25.5737L28.2907 25.5568C28.2739 25.5568 28.259 25.5456 28.2534 25.5307C28.2478 25.5157 28.2534 25.497 28.2646 25.4858L28.4773 25.2876L20.5693 17.0591L20.3621 17.2517C20.3491 17.2629 20.3323 17.2648 20.3174 17.2592C20.3024 17.2517 20.2931 17.2368 20.2931 17.2199L20.3062 16.7675C20.3062 16.7506 20.3174 16.7357 20.3323 16.7301C20.3472 16.7245 20.3659 16.7282 20.3771 16.7394L20.5731 16.9432L29.7633 8.40437L29.5654 8.19871C29.5542 8.18749 29.5505 8.16879 29.558 8.15384C29.5654 8.13888 29.5804 8.12953 29.5972 8.12953L30.0582 8.14636C30.075 8.14636 30.0899 8.15757 30.0955 8.17253C30.1011 8.18749 30.0955 8.20619 30.0843 8.21741L29.8809 8.40624L37.7907 16.6347L37.9904 16.4496C38.0016 16.4384 38.0203 16.4347 38.0352 16.4421C38.0502 16.4496 38.0595 16.4646 38.0595 16.4795V16.9301C38.0595 16.947 38.0483 16.9619 38.0334 16.9694C38.0184 16.975 37.9998 16.9713 37.9886 16.96L37.787 16.7506L28.5949 25.2876L28.8002 25.5008C28.8114 25.512 28.8151 25.5307 28.8077 25.5456C28.8002 25.5606 28.7853 25.5699 28.7703 25.5699L28.7685 25.5737ZM28.3933 25.4764L28.6696 25.4858L28.5333 25.3456L28.3933 25.4764ZM20.629 17.0012L28.537 25.2296L37.7291 16.6927L29.8193 8.4642L20.629 17.003V17.0012ZM20.3845 16.8666L20.3771 17.1227L20.5096 16.9993L20.3827 16.8684L20.3845 16.8666ZM37.8467 16.6964L37.9755 16.8292V16.5749L37.8467 16.6945V16.6964ZM29.6961 8.21554L29.823 8.34828L29.9555 8.22488L29.6961 8.21554Z" fill="white"/>
<path fill-rule="evenodd" clip-rule="evenodd" d="M17.3037 30.3375L27.3581 16.04L31.7106 19.0016L21.6525 33.3028L17.3037 30.3375Z" fill="#171C61"/>
<path d="M63.0137 19.686L64.393 19.7646L65.7126 20.0076L66.9724 20.4152L68.165 20.9911L69.2699 21.6903L70.2498 22.5354L71.1214 23.5189L71.8885 24.6089C71.8997 24.6239 71.8997 24.6388 71.9165 24.6519L72.482 25.7831L72.9095 27.0077L73.167 28.2754L73.2417 29.6028V30.5994L73.2249 39.0466C73.2249 39.2579 73.0681 39.4112 72.8553 39.4112L66.4293 39.4C66.2296 39.4 66.0616 39.2467 66.0616 39.0354L66.0746 31.4183V30.5414L66.0448 29.7281L65.9869 29.0475V29.0924L65.832 28.5053L65.8488 28.567L65.6491 28.0959L65.6976 28.1763L65.175 27.4789L65.2534 27.5537L64.5628 27.0395L64.6394 27.0862L63.8312 26.7534L63.9376 26.7684L63.0473 26.66H63.1257L62.4351 26.7198L62.5098 26.7048L61.864 26.8974L61.9256 26.8824L61.3433 27.1816L61.4067 27.1367L60.8673 27.5742L60.914 27.5312L60.4698 28.0734L60.5165 27.9986L60.2066 28.5876L60.2216 28.5278L60.0181 29.1765L60.0387 29.1148L59.9715 29.8085V29.73L60.0368 30.4105L60.0163 30.3376L60.2178 30.9696L60.1861 30.9097L60.5109 31.4819L60.4773 31.422L60.9215 31.9362L60.8599 31.8913L61.3974 32.3176L61.347 32.269L61.9443 32.5868L61.8696 32.5569L62.5452 32.7402H62.4837L63.2041 32.8H63.1276L64.1112 32.6916H64.0458L65.1844 32.3644C65.2907 32.3363 65.4139 32.3644 65.5054 32.4279C65.595 32.5027 65.6435 32.6074 65.6416 32.714L65.6304 39.185C65.6304 39.3663 65.511 39.5196 65.3374 39.5458L64.2642 39.7253L63.2433 39.787L61.8584 39.7085L60.5407 39.4617L59.251 39.0391L58.0229 38.4595L56.8919 37.7547L55.8784 36.9058L55.0068 35.9242L54.2584 34.851L53.6406 33.6731L53.2169 32.4373L52.9593 31.1378L52.8828 29.7954L52.9631 28.4548L53.2094 27.1535L53.6443 25.9177L54.2416 24.7136L54.9937 23.6161L55.8411 22.6364L56.8098 21.7782L57.9147 21.0416L59.098 20.4582L60.3541 20.0375L61.6456 19.7683H61.6923L63.0137 19.6935V19.686ZM61.7371 20.4694H61.7856L60.5874 20.7069L59.4209 21.0976L58.3327 21.6212L57.3174 22.2999L56.4122 23.0982L55.6003 24.02L54.9079 25.0259L54.3368 26.1421L53.9373 27.2882L53.6872 28.4922L53.6089 29.7449L53.6835 30.9995L53.9149 32.2036L54.3125 33.3516L54.8612 34.4378L55.5481 35.4512L56.3599 36.3412L57.2782 37.1264L58.3514 37.8089L59.4862 38.353L60.6788 38.7456L61.9069 38.9905L63.1966 39.069L64.1336 39.0092L65.2049 38.8297L64.8988 39.1756L64.91 32.7046L65.3859 33.0524L64.2493 33.3833C64.2362 33.3964 64.2194 33.3964 64.1896 33.3964L63.206 33.5011C63.1929 33.5011 63.1593 33.5142 63.1294 33.5011L62.409 33.4394C62.3941 33.4394 62.3754 33.4394 62.3455 33.4394L61.6718 33.2543C61.6382 33.2431 61.6251 33.2282 61.5952 33.2282L60.9961 32.9084C60.9793 32.8916 60.9663 32.8785 60.9327 32.8617L60.3951 32.441C60.3821 32.4242 60.3634 32.4111 60.3503 32.3905L59.908 31.8801C59.8949 31.8651 59.8781 31.8352 59.8632 31.8184L59.5422 31.2444C59.5422 31.2276 59.5254 31.1995 59.5254 31.1846L59.3257 30.5489C59.3107 30.519 59.3108 30.4909 59.3108 30.4704L59.2492 29.7973C59.2342 29.7636 59.2342 29.7487 59.2492 29.7188L59.3126 29.0251C59.3126 29.0101 59.3126 28.9802 59.3126 28.9653L59.5142 28.3165C59.5291 28.2847 59.5291 28.2679 59.5459 28.2529L59.8539 27.6658C59.8707 27.6378 59.8856 27.6191 59.9024 27.5892L60.3429 27.047C60.3597 27.032 60.3727 27.0171 60.3914 27.0002L60.9308 26.5627C60.9439 26.5478 60.9775 26.5347 60.9905 26.5197L61.5728 26.2187C61.6064 26.2187 61.6214 26.2019 61.6363 26.2019L62.2821 26.0112C62.3138 25.9962 62.3418 25.9962 62.3567 25.9962L63.0492 25.9364C63.079 25.9177 63.1089 25.9177 63.1276 25.9364L64.0141 26.043C64.0589 26.043 64.0906 26.043 64.1224 26.0579L64.9324 26.3926C64.966 26.4075 64.9791 26.4206 65.0089 26.4375L65.6995 26.9516C65.7294 26.9797 65.7443 26.9946 65.776 27.0245L66.2949 27.7182C66.3135 27.75 66.3303 27.7631 66.3415 27.7949L66.5468 28.2604C66.5468 28.2754 66.5468 28.2922 66.5562 28.324L66.7092 28.9111V28.9559L66.7857 29.6963L66.8137 30.5246V31.4015L66.7988 39.0186L66.4311 38.654L72.8572 38.6652L72.4895 39.0279L72.5044 30.5807L72.5194 29.6309L72.4466 28.3931L72.2189 27.2152L71.8213 26.086L71.2558 24.9511L71.2857 24.9997L70.582 23.9713L69.7701 23.0795L68.8481 22.2942L67.8421 21.6268L66.7372 21.0808L65.5744 20.705L64.3463 20.462L63.0585 20.3834L61.7371 20.4582V20.4694Z" fill="#171C61"/>
<path d="M63.2324 39.9665L61.8232 39.8843L60.4813 39.6319L59.1711 39.2018L57.9243 38.6129L56.7727 37.893L55.7406 37.0255L54.8559 36.0271L54.0963 34.9333L53.4673 33.7293L53.038 32.4691L52.7767 31.1454L52.7002 29.7824L52.7823 28.4175L53.0362 27.0882L53.4804 25.8299L54.0907 24.6033L54.8559 23.489L55.7201 22.4906L56.7093 21.6156L57.8366 20.8658L59.0423 20.2732L60.3189 19.8469L61.6478 19.5739H61.6945L63.0252 19.501L64.4269 19.5832L65.7688 19.8319L67.0529 20.2488L68.2642 20.8341L69.3916 21.5483L70.3901 22.4121L71.2766 23.4124L72.0437 24.5024C72.0568 24.5192 72.0661 24.5398 72.0699 24.5491C72.0699 24.5473 72.0587 24.5248 72.0344 24.5061L72.0848 24.5678L72.6596 25.7195L73.0945 26.9685L73.3558 28.2623L73.4305 29.5898L73.4137 39.0448C73.4137 39.3589 73.1748 39.5963 72.8575 39.5963L66.4314 39.5851C66.1197 39.5851 65.8771 39.3421 65.879 39.0317L65.8939 30.5377L65.8622 29.7319L65.8099 29.1373L65.6737 28.6232L65.5038 28.223L65.0727 27.6472L64.5183 27.234L63.7942 26.9367L63.0793 26.8507L62.5063 26.9012L62.0117 27.0489L61.4686 27.3275L61.0337 27.6808L60.6474 28.152L60.3712 28.6736L60.2237 29.1467L60.164 29.7693L60.22 30.3564L60.388 30.8836L60.6306 31.3099L61.0655 31.8128L61.4369 32.1082V32.1045L61.9819 32.3924L62.5997 32.5607L63.1633 32.6093L64.0013 32.5177V32.514L65.138 32.1868C65.2966 32.1456 65.4739 32.1793 65.6158 32.2765C65.7595 32.3962 65.8342 32.5532 65.8342 32.7178L65.823 39.1887C65.823 39.4655 65.6307 39.6954 65.3694 39.7347L64.2794 39.916L63.2361 39.9777L63.2324 39.9665ZM61.8792 39.5159L63.2417 39.5926L64.2421 39.5328L65.306 39.3551C65.3881 39.3421 65.4441 39.271 65.4441 39.1775L65.4553 33.1141L65.4348 33.2338L65.0913 33.3329L65.082 38.6615L65.1716 38.6465L65.3414 38.955L65.0353 39.3009L64.7087 39.1757V39.1009L64.1432 39.1943L63.1839 39.2542L61.8699 39.1719L60.6194 38.9214L59.4044 38.5194L58.2509 37.9641L57.1572 37.2667L56.2221 36.4646L55.3934 35.5541L54.6935 34.5201L54.1336 33.4095L53.7305 32.2354L53.4972 31.007L53.4225 29.73L53.5046 28.4511L53.7622 27.2246L54.1728 26.0542L54.757 24.9174L55.4625 23.8947L56.2912 22.9562L57.2169 22.1428L58.2547 21.4511L59.3652 20.9182L60.5541 20.5218L61.7318 20.2881V20.2806L63.0737 20.2058L64.3858 20.2881L65.6345 20.5368L66.8234 20.9238L67.9488 21.481L68.9735 22.1615L69.9123 22.9636L70.7391 23.876L71.4148 24.8651H71.4166L71.4465 24.9118H71.4427L71.9989 26.0355L72.404 27.1929L72.6354 28.3951L72.7082 29.6328L72.6932 30.5975L72.6783 38.4913H72.8594L72.99 38.8111L72.6223 39.1738L72.305 39.041V38.8653L66.9876 38.8559V39.0317L66.6685 39.1644L66.3008 38.7998L66.4333 38.4801H66.6143L66.6293 30.5377L66.6013 29.7169L66.5247 28.9485L66.3773 28.3838C66.3698 28.3595 66.3661 28.3371 66.3624 28.3165L66.172 27.8828C66.1589 27.8622 66.1496 27.8491 66.1421 27.836L65.5822 27.1068L64.9084 26.6058C64.8972 26.5983 64.8879 26.5927 64.8804 26.5871C64.8748 26.5833 64.8692 26.5796 64.8599 26.574L64.0555 26.2412C64.0461 26.2393 64.0331 26.2412 64.0181 26.2412H63.9957L63.0924 26.1271L63.0681 26.1346L62.3533 26.1963L61.687 26.3945C61.6739 26.4001 61.6553 26.4076 61.631 26.4113L61.0953 26.688C61.0804 26.6993 61.0673 26.7067 61.058 26.7123C61.0524 26.7161 61.058 26.7123 61.0692 26.6993L61.0487 26.718L60.4832 27.1816L60.0576 27.7033C60.0483 27.7182 60.0408 27.7313 60.0315 27.7425L60.0147 27.7668L59.7011 28.3577C59.6974 28.367 59.6937 28.3782 59.6899 28.3876L59.4996 29.0289L59.4286 29.7599L59.4342 29.7824L59.5033 30.4947L59.7049 31.1435C59.7086 31.1547 59.7142 31.1659 59.7179 31.179L60.0184 31.7156C60.0259 31.7268 60.0352 31.7381 60.0427 31.7493L60.5074 32.2896C60.5074 32.2896 60.5167 32.299 60.5223 32.3046L61.0356 32.7065C61.0673 32.7234 61.0879 32.7402 61.1065 32.757L61.6534 33.0487C61.6851 33.0562 61.7075 33.0674 61.7225 33.0749L62.3682 33.2544H62.4074L63.1559 33.3198C63.1652 33.3198 63.1745 33.3179 63.182 33.3161L64.1917 33.2058L64.7162 33.0524V32.7065L64.8058 32.6617L64.1283 32.8561V32.8711L63.2007 32.9795L63.1241 32.9739L62.4653 32.9197V32.9066L61.8755 32.7458L61.8718 32.7533L61.7971 32.7234V32.7159L61.2894 32.4448L61.2782 32.4579L60.7407 32.0316L60.75 32.0204L60.3544 31.5623L60.345 31.5679L60.0501 31.05H60.0483L60.0165 30.9902L60.024 30.9864L59.8542 30.4517H59.8504L59.8318 30.3788L59.8411 30.3751L59.7795 29.8011L59.787 29.7225L59.8467 29.1149L59.8374 29.1111L60.0408 28.4642L60.052 28.468L60.3152 27.9706L60.3096 27.9669L60.3562 27.8921L60.3656 27.8977L60.7444 27.4359L60.7407 27.4303L60.7874 27.3873H60.7911L61.239 27.0265V27.0227L61.2988 26.9778L61.3044 26.9853L61.8139 26.7236L61.8102 26.7123L62.4 26.5366V26.531L62.4728 26.516V26.5235L63.126 26.4674V26.4749L63.8576 26.5628L63.964 26.5759V26.5964L64.6546 26.8825L64.6621 26.8731L64.7386 26.9199L64.7348 26.9274L65.2966 27.3462L65.306 27.3387L65.3844 27.4135L65.375 27.4247L65.8043 27.9987L65.8118 27.9949L65.8603 28.0753L65.851 28.081L66.0096 28.4549H66.0171L66.0339 28.5147L66.1683 29.0289H66.1776L66.2354 29.7076L66.2672 30.5284L66.2522 39.0298C66.2522 39.1457 66.3456 39.2074 66.4333 39.2074L72.8594 39.2187C72.9695 39.2187 73.0423 39.1495 73.0423 39.041L73.0591 29.5973L72.9844 28.2941L72.7324 27.0526L72.3125 25.8523L71.7638 24.7567C71.7488 24.7361 71.7395 24.7193 71.7339 24.7062L70.978 23.633L70.1213 22.6664L69.162 21.8381L68.0776 21.1519L66.9074 20.5873L65.6718 20.189L64.3765 19.9497L63.0196 19.873L61.6721 19.946L60.4104 20.2096L59.1767 20.6228L58.0158 21.1949L56.9314 21.9185L55.9814 22.7617L55.1489 23.7246L54.4098 24.8034L53.8219 25.9869L53.3964 27.1985L53.1556 28.4736L53.0772 29.7917L53.1519 31.1098L53.4038 32.3831L53.8182 33.5946L54.4229 34.7501L55.1583 35.8046L56.0131 36.7675L57.006 37.5995L58.1165 38.2913L59.3241 38.8615L60.5895 39.2766L61.8848 39.5178L61.8792 39.5159ZM61.9278 38.8073L63.1932 38.884L64.1096 38.826L64.7087 38.7251L64.7181 33.4432L64.3261 33.5573C64.2776 33.5834 64.2291 33.5853 64.1955 33.5853L63.2212 33.6881C63.1932 33.6937 63.1447 33.7012 63.0887 33.6881L62.3888 33.6283H62.3421L62.2936 33.6227L61.6198 33.4376C61.5862 33.4264 61.5713 33.4189 61.5563 33.4114C61.5563 33.4114 61.5657 33.417 61.5918 33.417L61.506 33.3946L60.8172 33.0113L60.2499 32.5607C60.2349 32.5458 60.22 32.5308 60.2051 32.5102L59.7683 32.0073C59.759 31.9961 59.7459 31.9774 59.7329 31.9605L59.7011 31.9157L59.3801 31.3417L59.3558 31.2501C59.3558 31.2725 59.3614 31.2893 59.3614 31.2912C59.3558 31.2744 59.3484 31.2557 59.3428 31.2332L59.1505 30.6219C59.1263 30.5639 59.1244 30.5134 59.1244 30.4835L59.0665 29.8459C59.0479 29.788 59.0479 29.7356 59.0665 29.6814L59.1281 29.0158V28.9728L59.1356 28.9167L59.3465 28.2436C59.3558 28.2174 59.367 28.1857 59.3913 28.1557L59.6881 27.5874C59.703 27.5631 59.7105 27.55 59.7198 27.5369C59.7254 27.5275 59.7329 27.5182 59.7385 27.507L59.7571 27.4789L60.2312 26.9031C60.2424 26.8918 60.2536 26.8806 60.2666 26.8694L60.8042 26.4319C60.8247 26.4132 60.8471 26.4001 60.862 26.3908C60.8676 26.387 60.862 26.3908 60.8508 26.4038L60.9031 26.3646L61.4854 26.0636L61.5713 26.043C61.5526 26.043 61.5395 26.0486 61.5377 26.0486C61.5507 26.043 61.5694 26.0355 61.5937 26.0299L62.2171 25.8448C62.2805 25.8186 62.3328 25.8186 62.3552 25.8186L62.9991 25.7625C63.0625 25.7382 63.1297 25.7401 63.1876 25.7644L64.0256 25.8635C64.0779 25.8635 64.1357 25.8654 64.2011 25.8953L65.0055 26.2262C65.0428 26.2431 65.0633 26.2561 65.0839 26.2692L65.1212 26.2935L65.9256 26.9199L66.4669 27.6472C66.4799 27.6659 66.5005 27.6939 66.5173 27.7388L66.717 28.1931L66.7319 28.2679L66.8943 28.9541L66.9689 29.6851L66.9988 30.5265L66.9857 38.4764L72.3032 38.4857L72.3181 30.5882L72.333 29.6347L72.2621 28.425L72.0381 27.2732L71.6499 26.1664L71.1049 25.0708L70.4368 24.0948L69.6417 23.2216L68.7364 22.4513L67.7491 21.7969L66.6666 21.2622L65.5262 20.8939L64.3205 20.6564L63.0569 20.5798L61.8214 20.6508L60.6343 20.8864L59.4902 21.2697L58.4245 21.782L57.4297 22.4457L56.5432 23.2273L55.7462 24.1322L55.0668 25.1175L54.5069 26.2113L54.1149 27.3331L53.8704 28.511L53.7939 29.7394L53.8667 30.9715L54.0925 32.1513L54.4808 33.2749L55.0183 34.3407L55.6902 35.3316L56.4853 36.2029L57.3849 36.9732L58.4376 37.6425L59.5518 38.1772L60.7221 38.5643L61.9259 38.8036L61.9278 38.8073ZM63.1633 33.3235L63.1839 33.3292C63.1839 33.3292 63.1689 33.3235 63.1633 33.3235ZM64.1805 33.2132C64.1675 33.217 64.1376 33.2282 64.1115 33.2562L64.1805 33.2132ZM65.0615 32.5906L65.4553 32.8786V32.7103C65.4553 32.6561 65.431 32.6075 65.3862 32.5682C65.3489 32.5439 65.2817 32.5289 65.2332 32.542L65.0615 32.5906ZM59.423 29.7842L59.4156 29.8085C59.4156 29.8085 59.4212 29.7936 59.423 29.7842ZM59.4193 29.7244L59.423 29.7394C59.423 29.7394 59.4212 29.7281 59.4193 29.7244ZM59.6881 28.3782H59.6899C59.6899 28.3782 59.6974 28.367 59.6993 28.3633L59.6881 28.3782ZM62.9953 26.0804C63.0196 26.1047 63.0495 26.1178 63.0775 26.1197L62.9953 26.0804ZM63.1465 26.1066L63.1073 26.1197C63.1223 26.1197 63.1372 26.114 63.1465 26.1066ZM71.7339 24.7118C71.7339 24.7118 71.7376 24.7174 71.7395 24.7193L71.7339 24.7118Z" fill="#171C61"/>
<path d="M74.9959 20.5945C74.9959 20.3963 75.1676 20.2337 75.3636 20.2337L81.7766 20.2449C81.9931 20.2449 82.1443 20.4094 82.1443 20.6076L82.1107 39.2839C82.1107 39.4933 81.9595 39.6466 81.743 39.6466L75.33 39.6354C75.1321 39.6354 74.9623 39.4802 74.9623 39.2708L74.9959 20.5945ZM75.6995 39.2727L75.3318 38.9081L81.7448 38.9193L81.3772 39.282L81.4108 20.6057L81.7784 20.9685L75.3654 20.9572L75.7331 20.5964L75.6995 39.2727ZM78.5047 12.8316C78.5383 12.8185 78.5682 12.8185 78.613 12.8316L79.5462 12.955C79.5779 12.955 79.6097 12.9699 79.6395 12.9849L80.4719 13.3458C80.4999 13.3458 80.5298 13.3607 80.5447 13.3757L81.2633 13.9216C81.2969 13.9515 81.3118 13.9702 81.3286 13.9983L81.8736 14.6938C81.9091 14.7275 81.924 14.7555 81.9389 14.7854L82.26 15.6286C82.2749 15.6586 82.2749 15.6922 82.2749 15.7203L82.3776 16.5971C82.3944 16.6289 82.3944 16.6401 82.3776 16.6701L82.2712 17.5301C82.2712 17.575 82.2562 17.6086 82.2562 17.6367L81.9016 18.45C81.8867 18.4799 81.8662 18.4967 81.8512 18.5285L81.3006 19.2353C81.2689 19.2633 81.2521 19.2764 81.2241 19.3082L80.5167 19.8205C80.4869 19.8354 80.4719 19.8485 80.4421 19.8635L79.6115 20.2131C79.5779 20.2131 79.5462 20.2262 79.5014 20.2262L78.6298 20.329C78.5962 20.344 78.5831 20.344 78.5514 20.329L77.6611 20.2225C77.6201 20.2225 77.5846 20.2094 77.5566 20.2094L76.7242 19.856C76.698 19.841 76.6813 19.8279 76.6551 19.813L75.9328 19.282C75.8992 19.2521 75.8843 19.2353 75.8694 19.2053L75.3337 18.5266C75.3057 18.5154 75.2852 18.4836 75.2852 18.4519L74.9362 17.6666C74.9212 17.6367 74.9063 17.6068 74.9063 17.5768L74.7831 16.7467C74.7663 16.7168 74.7663 16.6869 74.7831 16.642L74.9082 15.7053C74.9082 15.6773 74.9082 15.6604 74.9231 15.6286L75.2628 14.7873C75.274 14.7574 75.2889 14.7256 75.3094 14.6957L75.8432 13.9871C75.86 13.974 75.8899 13.9403 75.9048 13.9235L76.6122 13.3532C76.6402 13.3233 76.6738 13.3102 76.7055 13.2953L77.5193 12.9643C77.5473 12.9643 77.5809 12.9494 77.6107 12.9494L78.4991 12.8297L78.5047 12.8316ZM77.7227 13.6599L77.816 13.6449L77.0041 13.9758L77.0993 13.9123L76.3901 14.4863L76.4517 14.4264L75.9123 15.135L75.9608 15.0416L75.6193 15.8848L75.6342 15.81L75.511 16.7448V16.6401L75.6305 17.4703L75.6006 17.3787L75.9534 18.1658L75.9048 18.0891L76.4424 18.766L76.3808 18.6931L77.0993 19.224L77.0228 19.1754L77.8496 19.5251L77.7432 19.5082L78.6335 19.6167H78.5533L79.4268 19.512L79.3204 19.5288L80.1491 19.1829L80.0725 19.2315L80.7799 18.7192L80.7015 18.794L81.254 18.0873L81.2073 18.1621L81.5638 17.3487L81.5451 17.4553L81.6553 16.5971V16.6701L81.547 15.7969L81.5657 15.8885L81.2446 15.0397L81.3081 15.1294L80.7556 14.4377L80.8172 14.5124L80.0987 13.9684L80.1733 13.9964L79.3446 13.6337L79.4361 13.6636L78.4991 13.5402H78.6093L77.719 13.6599H77.7227Z" fill="#171C61"/>
<path d="M81.7434 39.8334L75.3303 39.8222C75.1848 39.8222 75.0485 39.7661 74.944 39.667C74.8358 39.5623 74.7779 39.4221 74.7779 39.2706L74.8115 20.5963C74.8115 20.299 75.0653 20.0484 75.3658 20.0484H76.704L76.6368 20.0204C76.62 20.011 76.6051 20.0017 76.592 19.9923C76.5846 19.9867 76.5771 19.983 76.5678 19.9774L76.5491 19.9643L75.8119 19.4221C75.7764 19.3903 75.7466 19.3604 75.7186 19.3099L75.2146 18.6686C75.1624 18.6293 75.125 18.5695 75.112 18.5041L74.7742 17.745C74.7592 17.7151 74.7331 17.6627 74.7294 17.5973L74.6118 16.8027C74.5801 16.7185 74.5969 16.6419 74.6118 16.6007L74.7331 15.6939C74.7331 15.6509 74.7387 15.6079 74.7667 15.55L75.1027 14.718C75.1232 14.6694 75.1437 14.6282 75.168 14.5927L75.7391 13.843C75.7484 13.8336 75.7652 13.8149 75.7764 13.8018L75.8007 13.7775L76.5006 13.2129C76.5473 13.168 76.5958 13.1456 76.6294 13.1287L76.648 13.1213L77.4618 12.7903L77.5327 12.7772C77.5514 12.7716 77.5775 12.7641 77.6074 12.7623L78.4697 12.6464C78.5443 12.6239 78.6078 12.6333 78.6582 12.6464L79.5708 12.766C79.6362 12.7698 79.6884 12.7941 79.7276 12.8128L80.5302 13.1605C80.5824 13.1699 80.6347 13.1942 80.6739 13.2297L81.385 13.77C81.441 13.8186 81.4671 13.8504 81.4951 13.8953L82.0233 14.5665C82.0718 14.617 82.0961 14.6619 82.1166 14.7011L82.4451 15.5593C82.4713 15.6079 82.4731 15.6696 82.4731 15.707L82.572 16.5446C82.5944 16.6045 82.5944 16.6606 82.572 16.7204L82.4713 17.5412C82.4713 17.5805 82.4638 17.6122 82.4582 17.6328L82.4414 17.7076L82.0868 18.5209C82.07 18.5546 82.0569 18.5751 82.042 18.5957L82.014 18.6406L81.4223 19.3884C81.4074 19.4034 81.3962 19.4127 81.3794 19.4314L81.3495 19.4576L80.616 19.9867C80.616 19.9867 80.6011 19.9942 80.5955 19.9998C80.5787 20.0092 80.5619 20.0204 80.5414 20.0316L80.4817 20.0559H81.7919C82.1017 20.0596 82.3462 20.3008 82.3443 20.6075L82.3107 39.2837C82.3107 39.596 82.0718 39.8334 81.7564 39.8334H81.7434ZM75.1829 20.5963L75.1493 39.2725C75.1493 39.3342 75.1773 39.3753 75.2016 39.3978C75.2352 39.4314 75.2818 39.4501 75.3303 39.4501L81.7434 39.4614C81.8553 39.4614 81.9244 39.394 81.9244 39.2856L81.958 20.6093C81.958 20.5252 81.902 20.4355 81.777 20.4355L79.3898 20.4317L78.6787 20.5159C78.6208 20.5364 78.5667 20.5364 78.507 20.5159L77.7772 20.4298L75.3621 20.4261C75.265 20.4261 75.181 20.5084 75.181 20.6L75.1829 20.5963ZM77.8015 20.0522H79.3693L79.5037 20.041C79.5167 20.041 79.5261 20.0391 79.5354 20.0372C79.5466 20.0353 79.5578 20.0335 79.569 20.0316L80.3715 19.6932C80.3715 19.6932 80.3771 19.6895 80.3827 19.6857C80.3939 19.6782 80.407 19.6708 80.4201 19.6633L81.1013 19.1697C81.1218 19.1472 81.1386 19.1323 81.161 19.1136L81.1648 19.1099L81.6948 18.4293C81.706 18.4106 81.7172 18.3956 81.7284 18.3807L82.0737 17.5917C82.0737 17.5805 82.0774 17.5692 82.0793 17.5599C82.0812 17.5487 82.083 17.5393 82.083 17.5337V17.5113L82.195 16.6363L82.1913 16.6213L82.0868 15.7201C82.0868 15.7201 82.0868 15.707 82.0868 15.6995L81.7639 14.8545C81.7639 14.8545 81.7564 14.8432 81.7452 14.832L81.7266 14.8115L81.1816 14.1159C81.1629 14.0879 81.1592 14.0823 81.1386 14.0636L80.4313 13.527L80.3977 13.5195L79.5652 13.1586C79.5484 13.1512 79.5391 13.1456 79.5279 13.1418L78.5611 13.0128C78.5611 13.0128 78.5648 13.0091 78.5704 13.0072L78.5275 13.0184L77.6148 13.14C77.6018 13.1437 77.5868 13.1474 77.57 13.1512L76.7806 13.4709C76.7694 13.4765 76.7563 13.4821 76.7507 13.4858L76.7339 13.5008L76.0377 14.0617C76.0228 14.0785 76.0041 14.0991 75.9873 14.1141L75.4629 14.8096C75.4629 14.8096 75.4498 14.8339 75.4405 14.8582L75.097 15.7313L74.9645 16.6998L74.972 16.7204L75.0952 17.5618C75.0952 17.5618 75.1026 17.5767 75.1064 17.5842L75.4647 18.3975L75.4834 18.4125L76.0396 19.1229C76.0396 19.1229 76.0489 19.1323 76.0545 19.1379L76.7619 19.6558C76.775 19.6633 76.7862 19.6708 76.7974 19.6782L76.8142 19.6895L77.6074 20.026C77.6167 20.026 77.6279 20.0297 77.6391 20.0316C77.6466 20.0316 77.6559 20.0353 77.6671 20.0353L77.8052 20.0503L77.8015 20.0522ZM75.4685 18.4087L75.4778 18.4517C75.4778 18.4368 75.4741 18.4218 75.4685 18.4087ZM75.4087 18.3545L75.4554 18.39C75.4442 18.3751 75.4274 18.362 75.4087 18.3545ZM75.097 17.5655V17.5786C75.097 17.5786 75.097 17.5692 75.097 17.5655ZM74.9515 16.6568L74.9627 16.6886C74.9627 16.6793 74.9571 16.668 74.9515 16.6568ZM82.2081 16.6624C82.2081 16.6624 82.2118 16.6793 82.2156 16.6867L82.2081 16.6624ZM82.2174 16.5783C82.2174 16.5783 82.21 16.5951 82.2081 16.6045L82.2174 16.5783ZM80.4387 13.527C80.4387 13.527 80.4593 13.5345 80.4742 13.5345L80.4387 13.527ZM80.4145 13.5083C80.4145 13.5083 80.4219 13.5158 80.4275 13.5195L80.4145 13.5083ZM81.5082 39.4146L81.1909 39.2819V39.1061L75.8865 39.0968V39.2725L75.5674 39.4053L75.1997 39.0407L75.3322 38.721H75.5133L75.545 21.1441H75.3639L75.2333 20.8225L75.601 20.4616L75.9183 20.5963V20.7701L81.2226 20.7795V20.6056L81.5399 20.4729L81.9076 20.8356L81.777 21.1553H81.5959L81.5642 38.7322H81.7452L81.8759 39.0519L81.5082 39.4146ZM75.8865 38.7228L81.1909 38.7322L81.2226 21.1553L75.9183 21.1459L75.8865 38.7228ZM78.6358 19.8072L78.5555 19.7998L77.822 19.7119V19.7156L77.7156 19.6988L77.7194 19.6782L77.0083 19.3772L77.0008 19.3884L76.9243 19.3398V19.3342L76.3121 18.8799L76.2972 18.8911L76.2356 18.8182L75.7988 18.2666L75.7914 18.2704L75.7428 18.1937L75.7522 18.1881L75.4573 17.5318H75.4479L75.4181 17.4421L75.4311 17.4365L75.3322 16.7503H75.3191V16.6456H75.3303L75.433 15.8547H75.4293L75.4442 15.7781H75.4554L75.7466 15.0582L75.7391 15.0526L75.7876 14.9592L75.8026 14.9666L76.2617 14.3627L76.2542 14.3552L76.3158 14.2954L76.3214 14.2992L76.9019 13.8299L76.8963 13.8205L76.9915 13.7569L77.0027 13.7719L77.6914 13.4896V13.4728L77.781 13.4578L78.4977 13.3643V13.3512H78.6078V13.3643L79.3935 13.4671L79.3991 13.4541L79.4925 13.484V13.4933L80.2465 13.8243L80.239 13.8411L80.8848 14.3291L80.8979 14.3179L80.9595 14.3926L81.3906 14.9348L81.3962 14.9311L81.4597 15.0209L81.4429 15.0339L81.7191 15.7612H81.7322L81.7508 15.8491H81.7452L81.8441 16.5951L81.8367 16.668L81.7452 17.3767H81.749L81.7303 17.4832L81.7098 17.4795L81.4055 18.1769L81.4149 18.1825L81.3682 18.2573L81.3607 18.2535L80.9016 18.8406L80.9109 18.8518L80.8325 18.9266L80.8232 18.9173L80.2465 19.3342V19.3398L80.1718 19.3884L80.1644 19.3791L79.4514 19.6764L79.4551 19.6969L79.3487 19.7138V19.71L78.632 19.8035L78.6358 19.8072ZM77.8855 19.3417L78.5947 19.4277L79.2872 19.3454L80.0337 19.0332L80.6067 18.6181L81.064 18.0329L81.3775 17.315L81.4653 16.6344L81.3757 15.909L81.0901 15.1573L80.6832 14.6469L79.9908 14.1253L79.3506 13.8448L78.5555 13.7401L77.85 13.8336L77.1277 14.129L76.5585 14.589L76.09 15.2041L75.8007 15.9202L75.6999 16.6942L75.7988 17.386L76.09 18.0367L76.5118 18.5695L77.1352 19.0295L77.8799 19.3436L77.8855 19.3417Z" fill="#171C61"/>
<path d="M83.9419 14.8452C83.9419 14.6489 84.1099 14.4844 84.3077 14.4844L90.7058 14.4956C90.9204 14.4956 91.0716 14.662 91.0716 14.8583L91.0623 20.3645L90.6964 19.9999L94.224 20.0055C94.4386 20.0055 94.5935 20.1757 94.5935 20.3701L94.5823 26.6747C94.5823 26.8841 94.4255 27.0374 94.2109 27.0374L90.6834 27.0318L91.0492 26.6691L91.0436 29.655V30.5132L91.0865 31.1489L91.1948 31.678L91.178 31.6013L91.3758 32.0687L91.3292 32.007L91.5923 32.3847L91.4822 32.2819L92.2661 32.7643L92.1261 32.7194L93.2758 32.8858L93.2124 32.8708H93.3225L93.274 32.8858L93.4774 32.8577L94.1624 32.7811C94.2706 32.768 94.364 32.7998 94.4386 32.8727C94.5319 32.9344 94.5655 33.041 94.5655 33.1307L94.5543 39.3605C94.5543 39.5587 94.4143 39.7083 94.2296 39.7214L93.5073 39.7943L92.9399 39.8092L91.5289 39.7027C91.4971 39.7027 91.4803 39.7027 91.4654 39.7027L90.1627 39.411C90.1496 39.411 90.1291 39.3979 90.116 39.3979L88.8879 38.9286C88.8748 38.9137 88.8394 38.9137 88.8244 38.9006L87.6952 38.2312L86.637 37.4011C86.6239 37.3861 86.6034 37.3712 86.5903 37.3543L85.7019 36.3597C85.7019 36.3428 85.687 36.3298 85.6721 36.3111L85.0767 35.3912L84.6007 34.4545C84.5877 34.4395 84.5877 34.4227 84.5877 34.4096L84.2797 33.4579L84.0707 32.28L83.9512 30.8441L83.9102 29.124V28.5556L83.9344 14.8396L83.9419 14.8452ZM84.653 28.5631V29.1184L84.6791 30.7749L84.8023 32.151L84.9815 33.2336L85.2894 34.189L85.2782 34.1422L85.7169 35.0191L86.3122 35.939L86.2656 35.896L87.1559 36.8907L87.1073 36.8458L88.0891 37.6161L89.2201 38.2798L89.1604 38.2499L90.3848 38.7229L90.3418 38.7042L91.6427 38.9959H91.5867L92.9324 39.0894H93.4419L94.1586 39.0127L93.8227 39.3605L93.8339 33.1307L94.2482 33.4953L93.5894 33.5664L93.3878 33.5981H93.218C93.2068 33.5981 93.1918 33.5981 93.175 33.5981L92.0253 33.4317C91.9749 33.4317 91.9301 33.4149 91.8854 33.3831L91.1071 32.9008C91.0604 32.869 91.0137 32.8391 91.0007 32.7961L90.7394 32.4165C90.7282 32.4015 90.7058 32.3716 90.6908 32.3604L90.4949 31.8911C90.4949 31.8593 90.4781 31.8444 90.4781 31.8145L90.3698 31.1937L90.312 30.5132V29.655L90.3194 26.6691C90.3194 26.4728 90.4893 26.3101 90.689 26.3101L94.2165 26.3157L93.847 26.6747L93.8582 20.3701L94.2277 20.7347L90.7002 20.7291C90.5005 20.7291 90.3306 20.5777 90.3325 20.3645L90.3418 14.8564L90.7095 15.221L84.3114 15.2098L84.6791 14.8471L84.6549 28.5631H84.653Z" fill="#171C61"/>
<path d="M92.9533 40.0002H92.9347L91.5236 39.8936H91.4751L91.4341 39.8899L90.1425 39.6001C90.1145 39.5964 90.094 39.587 90.0809 39.5814C90.0809 39.5814 90.0996 39.5889 90.1276 39.5889L90.0604 39.5758L88.8323 39.1065L88.7595 39.056C88.7856 39.0859 88.8155 39.0972 88.8192 39.0972C88.7968 39.0916 88.7651 39.0822 88.7334 39.0598L87.5911 38.3811L86.5067 37.5266C86.4843 37.5061 86.4694 37.4911 86.4563 37.4743L85.5735 36.4871L85.5269 36.3618C85.5269 36.4123 85.5493 36.4441 85.5549 36.4497L85.5269 36.4142L84.9203 35.4775L84.4499 34.5557C84.4238 34.5164 84.4145 34.4753 84.4107 34.4473L84.1046 33.4956L83.8956 32.3177L83.7724 30.8631L83.7295 29.1318L83.7538 14.8418C83.7538 14.5445 84.0076 14.2939 84.3062 14.2939L90.7043 14.3052C90.8573 14.3052 90.9973 14.3631 91.1018 14.4697C91.2026 14.5725 91.2568 14.709 91.2568 14.8549L91.2474 19.8095L94.2225 19.8151C94.3755 19.8151 94.5174 19.8749 94.6219 19.9797C94.7246 20.0844 94.7805 20.2208 94.7787 20.3667L94.7675 26.6712C94.7675 26.8227 94.7096 26.9629 94.607 27.0639C94.5043 27.1648 94.3643 27.2191 94.2113 27.2191L91.2362 27.2135L91.2306 30.5097L91.2754 31.1192L91.3631 31.5455L91.5498 31.9868L91.686 32.1812L92.2833 32.5495L93.2184 32.6841V32.6804L93.3303 32.686L93.4591 32.6692L94.1478 32.5925C94.3065 32.5738 94.4483 32.6187 94.564 32.7253C94.6872 32.815 94.76 32.9627 94.76 33.1273L94.7488 39.3589C94.7488 39.6506 94.5342 39.8862 94.2505 39.9049L93.5338 39.9778L92.9515 39.9946L92.9533 40.0002ZM91.4957 39.5197H91.5367L92.9515 39.6263L93.5095 39.6113L94.2169 39.5384C94.3139 39.5309 94.3737 39.4617 94.3737 39.3645L94.3849 33.1329C94.3849 33.1217 94.383 33.06 94.3419 33.0319L94.3139 33.0095C94.2803 32.9758 94.243 32.9627 94.1908 32.9702L93.9593 32.9964L94.3699 33.3554L94.2673 33.6826L94.0172 33.7106L94.0078 38.8448L94.1366 38.8317L94.2897 39.1476L93.9537 39.4954L93.6327 39.3645V39.2617L93.4386 39.2804H92.9291L91.5703 39.185V39.1738L90.3179 38.8934V38.899L89.1365 38.4428V38.4484L89.0749 38.4185V38.4147L87.9719 37.7641L87.0293 37.0237L87.0256 37.0274L86.9771 36.9826L86.9808 36.9788L86.1241 36.0215L86.1334 36.0122L85.5455 35.1035L85.1162 34.2453H85.1088L84.7934 33.2656L84.6142 32.1831L84.4891 30.792L84.4611 29.1224L84.4854 15.3989H84.3044L84.1737 15.0792L84.5414 14.7165L84.8587 14.8492V15.025L90.1462 15.0343V14.8586L90.4635 14.7258L90.8312 15.0904L90.7006 15.4101H90.5177L90.5083 20.3667C90.5083 20.4826 90.5998 20.5424 90.6912 20.5424L93.6626 20.548V20.3723L93.9799 20.2395L94.3494 20.6041L94.2188 20.9238H94.0358L94.0265 26.1309H94.2094L94.3382 26.4525L93.9687 26.8115L93.6514 26.6769V26.5048L90.68 26.4992C90.6315 26.4992 90.5867 26.5179 90.5512 26.5516C90.5177 26.5852 90.4971 26.6264 90.4971 26.6712L90.4897 30.5172L90.5475 31.1809L90.6539 31.7942C90.6595 31.8073 90.6651 31.826 90.6688 31.8465L90.8405 32.2579C90.8499 32.2691 90.8611 32.2822 90.8704 32.2953L90.8835 32.314L91.156 32.7178C91.1672 32.7272 91.1802 32.7365 91.1952 32.7458L91.9735 33.2282C92.0033 33.2488 92.0127 33.2488 92.0164 33.2488H92.0425L93.1922 33.4152H93.3639L93.6364 33.3778V33.1366L93.9313 33.0039L93.2967 33.0805V33.0674H93.2482V33.0805L92.2161 32.9309L92.2068 32.9515L92.0668 32.9066L92.0742 32.8767L91.4845 32.514L91.4639 32.5327L91.3538 32.4299L91.3706 32.4074L91.1746 32.1251L91.1858 32.1158L91.0197 31.725H91.0085L90.9917 31.6502L90.8947 31.1716L90.8499 30.5359L90.8555 27.2265H90.6763L90.5456 26.9068L90.9115 26.5441L91.2288 26.6769V26.8526L94.2038 26.8582C94.2598 26.8582 94.3065 26.8414 94.3382 26.8096C94.3699 26.7778 94.3867 26.7348 94.3867 26.6843L94.3979 20.3798C94.3979 20.333 94.3793 20.2882 94.3475 20.2545C94.3233 20.2302 94.2803 20.2003 94.215 20.2003L91.24 20.1947V20.3723L90.9208 20.505L90.555 20.1404L90.6875 19.8207H90.8667L90.876 14.8661C90.876 14.8193 90.8592 14.7745 90.8275 14.7427C90.7939 14.709 90.7491 14.6903 90.6968 14.6903L84.2988 14.6791C84.2036 14.6791 84.1196 14.7595 84.1196 14.853L84.0953 29.1374L84.1364 30.8519L84.2558 32.2766L84.4611 33.4245L84.7672 34.3818L85.2376 35.3073L85.8217 36.2085C85.8348 36.2235 85.8516 36.244 85.8647 36.2702L86.7288 37.2387C86.7438 37.2537 86.7531 37.263 86.7624 37.2705L87.8002 38.0838L88.9125 38.7419C88.9293 38.7475 88.9517 38.755 88.976 38.7681L90.1668 39.2243C90.1817 39.228 90.1948 39.2318 90.2041 39.2355L91.4863 39.5234L91.4957 39.5197ZM90.191 39.2299H90.2078C90.2078 39.2299 90.1985 39.2299 90.191 39.2299ZM91.6842 38.8167L92.9459 38.9046H93.433L93.6364 38.884L93.6458 33.7517L93.3285 33.7873H93.1474L92.0089 33.6209C91.9268 33.6171 91.8503 33.5909 91.7756 33.5386L91.0067 33.0618C90.9413 33.017 90.8704 32.9683 90.8331 32.8861L90.5848 32.5234C90.5848 32.5234 90.5718 32.5065 90.5662 32.4991L90.5195 32.4336L90.3235 31.9643L90.3086 31.8914C90.3086 31.9064 90.3123 31.9176 90.3123 31.9194C90.3049 31.9008 90.2955 31.8727 90.2918 31.8353L90.1854 31.2258L90.1257 30.5303L90.1313 26.6675C90.1313 26.5217 90.191 26.3852 90.2974 26.2805C90.4038 26.1777 90.54 26.1216 90.6856 26.1216L93.657 26.1272L93.6663 20.9201L90.695 20.9145C90.3833 20.9145 90.1388 20.6714 90.1406 20.3629L90.15 15.4064L84.8624 15.3971L84.8381 29.1187L84.8643 30.7715L84.9875 32.1345L85.161 33.1908L85.441 34.0602L85.8759 34.9259L86.4657 35.8364H86.4638L87.2608 36.7283L88.194 37.4612L89.2672 38.0913L90.3851 38.5232L91.6842 38.813V38.8167ZM88.9349 38.7457L88.9573 38.7625C88.9573 38.7625 88.9405 38.7494 88.9349 38.7457ZM84.7803 34.3912L84.784 34.4136C84.784 34.4136 84.784 34.3986 84.7803 34.3912ZM84.7504 34.3351L84.7691 34.3631C84.7635 34.3538 84.7579 34.3444 84.7504 34.3351ZM91.1653 32.7178L91.1784 32.744C91.1746 32.7309 91.169 32.7215 91.1653 32.7178ZM90.6614 31.796V31.8147C90.6614 31.8147 90.6614 31.8017 90.6614 31.796Z" fill="#171C61"/>
<path d="M105.895 13.819C105.9 13.9705 105.822 14.1948 105.658 14.4715C105.331 14.3706 104.999 14.3257 104.674 14.3351C103.995 14.3575 103.427 14.5875 102.978 15.025C102.435 15.526 102.188 16.2216 102.22 17.1078C102.239 17.6631 102.556 18.3717 103.177 19.2224C104.116 20.4901 104.7 21.3482 104.921 21.7914C105.557 23.001 105.899 24.2949 105.949 25.6971C105.977 26.5123 105.893 27.3854 105.693 28.3128C105.46 29.3355 105.152 30.0853 104.769 30.5602C103.948 31.6259 102.972 32.5327 101.85 33.2712C100.641 34.0546 99.5099 34.4641 98.4684 34.5033C98.2388 34.5108 97.6845 33.6582 96.8166 31.9381C95.9506 30.2236 95.512 29.1729 95.4933 28.7858C95.4896 28.64 95.5512 28.5484 95.68 28.5129C96.4769 28.2773 97.2888 28.0361 98.1082 27.8005C99.1067 27.3125 99.5938 26.5516 99.5565 25.5289C99.5322 24.8184 99.2056 24.0051 98.5822 23.1001C97.4736 21.5109 96.8857 20.6639 96.8371 20.5686C96.2026 19.4393 95.8666 18.224 95.8199 16.9414C95.7322 14.5239 96.5422 12.4429 98.2426 10.6985C99.7693 9.14482 101.43 8.33525 103.222 8.27542C103.405 8.26981 103.896 9.12238 104.685 10.8219C105.479 12.5233 105.878 13.5274 105.889 13.8153" fill="#E1881D"/>
<path fill-rule="evenodd" clip-rule="evenodd" d="M34.7736 12.9268H41.2855V24.0215H43.4114L44.7328 22.4135L45.4663 20.1662L49.1301 20.0185L51.6292 19.9829L50.9946 23.296L49.341 25.5322L47.7937 26.3604L49.6228 27.7702L51.8755 31.1898L52.0491 34.961V38.6891H45.75L45.7369 33.1343L44.4509 31.1188L42.3755 29.7333L41.1455 29.5688L41.25 38.6891H34.5664L34.7736 12.9268Z" fill="white"/>
<path d="M52.0483 38.7303H45.7491C45.7267 38.7303 45.7081 38.7116 45.7081 38.6892L45.695 33.1474L44.4221 31.1487L42.3616 29.7726L41.1876 29.6156L41.2921 38.6873C41.2921 38.6985 41.2884 38.7097 41.2809 38.7172C41.2735 38.7247 41.2623 38.7303 41.2511 38.7303H34.5674C34.5562 38.7303 34.545 38.7265 34.5376 38.7172C34.5301 38.7097 34.5264 38.6985 34.5264 38.6873L34.7354 12.9249C34.7354 12.9025 34.7541 12.8838 34.7765 12.8838H41.2865C41.3089 12.8838 41.3276 12.9025 41.3276 12.9249V23.9804H43.3937L44.6983 22.393L45.43 20.1512C45.4356 20.1344 45.4505 20.1232 45.4673 20.1232L49.1311 19.9755L51.6302 19.94C51.647 19.94 51.6545 19.9456 51.6619 19.9549C51.6694 19.9643 51.6731 19.9774 51.6713 19.9886L51.0385 23.3017C51.0385 23.3017 51.0348 23.3129 51.0311 23.3185L49.3774 25.5546C49.3774 25.5546 49.37 25.564 49.3644 25.5659L47.8731 26.3642L49.6518 27.7347C49.6518 27.7347 49.6593 27.7403 49.6611 27.744L51.912 31.1618C51.912 31.1618 51.9195 31.1749 51.9195 31.1824L52.0931 34.9535V38.6835C52.0931 38.706 52.0744 38.7247 52.052 38.7247L52.0483 38.7303ZM45.7902 38.648H52.0054V34.961L51.8318 31.2029L49.5902 27.8001L47.7667 26.3941C47.7555 26.3848 47.7499 26.3717 47.7499 26.3586C47.7499 26.3455 47.7593 26.3324 47.7723 26.3249L49.3121 25.5004L50.9546 23.2792L51.5761 20.026L49.1292 20.0615L45.4953 20.2073L44.7711 22.4285C44.7711 22.4285 44.7674 22.4379 44.7637 22.4416L43.4422 24.0495C43.4348 24.0589 43.4236 24.0645 43.4105 24.0645H41.2847C41.2623 24.0645 41.2436 24.0458 41.2436 24.0234V12.9679H34.8157L34.6085 38.648H41.21L41.1055 29.5688C41.1055 29.5576 41.1111 29.5445 41.1204 29.5371C41.1297 29.5296 41.1409 29.5258 41.154 29.5277L42.3858 29.6922C42.3858 29.6922 42.3989 29.696 42.4026 29.6997L44.4781 31.0852C44.4781 31.0852 44.4874 31.0926 44.4893 31.0982L45.7734 33.1138C45.7734 33.1138 45.7809 33.1287 45.7809 33.1362L45.7939 38.6499L45.7902 38.648Z" fill="white"/>
<path d="M34.4482 12.9251C34.4482 12.7269 34.6199 12.5586 34.8196 12.5586L41.2308 12.5698C41.4454 12.5698 41.5985 12.74 41.5985 12.9363L41.5779 24.3656L41.1804 24.0216L42.1341 23.9319H42.0688L42.8844 23.7075L42.8228 23.7374L43.5115 23.3897L43.435 23.4345L44.0024 22.9522L43.9408 23.0307L44.3887 22.4118L44.344 22.4735L44.6668 21.735L44.6519 21.7967L44.8516 20.9198V20.9796L44.9169 19.97C44.9169 19.7737 45.0849 19.6241 45.266 19.6241L51.6958 19.6353C51.8022 19.6353 51.9085 19.6821 51.9701 19.7569C52.0485 19.8298 52.0803 19.9345 52.0635 20.0429L51.9683 21.0507L51.7686 22.0155L51.4457 22.9391L51.0145 23.7823L50.4602 24.5676L49.7827 25.3024L48.982 25.9829L48.0619 26.5962L48.0768 26.011L49.4299 26.9776C49.443 26.9907 49.4579 27.0075 49.4579 27.0075L50.5479 28.0826C50.574 28.1125 50.5909 28.1274 50.6058 28.1443L51.4177 29.3652C51.4177 29.3951 51.4326 29.41 51.4494 29.4418L51.9832 30.831C51.9832 30.8441 51.9963 30.8591 51.9963 30.8927L52.3173 32.4894L52.4199 34.3741V35.2192L52.4125 38.6893C52.4125 38.8987 52.2594 39.0501 52.0467 39.0501L45.6355 39.0389C45.4339 39.0389 45.2641 38.8856 45.266 38.6762L45.2697 36.0175V35.264L45.2716 34.4507L45.2268 33.5439L45.0588 32.7287L45.0737 32.7886L44.7844 32.0332L44.8143 32.0949L44.3999 31.4125L44.4485 31.4779L43.7299 30.6889L43.7896 30.7375L43.0263 30.2065L43.1177 30.2533L42.1957 29.9373L42.276 29.9504L41.171 29.8401L41.5705 29.4792L41.5537 38.6687C41.5537 38.8781 41.4006 39.0296 41.186 39.0296L34.7748 39.0183C34.5751 39.0183 34.4034 38.865 34.4053 38.6556L34.4501 12.9232L34.4482 12.9251ZM35.1407 38.6594L34.773 38.2966L41.1841 38.3079L40.8146 38.6706L40.8314 29.483C40.8314 29.3913 40.878 29.2885 40.9564 29.2268C41.0348 29.1502 41.1393 29.1202 41.2476 29.1371L42.3506 29.2418C42.3805 29.2418 42.4122 29.2418 42.4253 29.2567L43.3473 29.5783C43.3772 29.5914 43.407 29.6045 43.4406 29.6232L44.204 30.1504C44.2394 30.1673 44.2544 30.1804 44.2712 30.1953L44.986 30.9843C45.0047 31.0124 45.0177 31.0292 45.0345 31.0441L45.447 31.7247C45.4619 31.7378 45.4619 31.7677 45.4769 31.7827L45.768 32.538C45.768 32.553 45.7848 32.581 45.7848 32.5979L45.9509 33.5028L46.0125 34.4563V35.2696L46.0088 36.0231L46.0051 38.6818L45.6374 38.3172L52.0485 38.3284L51.6771 38.6912L51.6827 35.221L51.7032 34.4227L51.595 32.624L51.2777 31.0255L51.2908 31.0853L50.7588 29.698L50.7868 29.7709L49.9787 28.5481L50.0253 28.593L48.9391 27.5198L48.982 27.5647L47.6382 26.598C47.5467 26.5233 47.4833 26.4186 47.4833 26.297C47.4963 26.1755 47.5486 26.0708 47.655 26.0128L48.5135 25.422L49.2508 24.805L49.8667 24.1581L50.3557 23.4663L50.7551 22.7147L51.05 21.8864L51.2497 20.9815L51.3449 19.9663L51.6976 20.3627L45.2678 20.3514L45.6392 20.0186L45.5758 21.0301C45.5758 21.0451 45.5758 21.06 45.5758 21.0937L45.3724 21.9668C45.3724 21.9818 45.3593 22.0098 45.3593 22.0248L45.0345 22.7633C45.0215 22.7783 45.0028 22.8119 44.9879 22.8269L44.5437 23.4439C44.5269 23.4757 44.5138 23.4869 44.4821 23.5205L43.9128 24.0048C43.8979 24.016 43.8662 24.0328 43.8344 24.0478L43.1457 24.3918C43.1289 24.4086 43.114 24.4086 43.0823 24.4236L42.2685 24.6498C42.2517 24.6498 42.2237 24.6498 42.205 24.6498L41.2569 24.7396C41.1487 24.7545 41.0441 24.719 40.9657 24.648C40.8874 24.5881 40.8426 24.4778 40.8426 24.3731L40.8631 12.9437L41.2308 13.3009L34.8196 13.2896L35.1873 12.9344L35.1425 38.6668L35.1407 38.6594Z" fill="#171C61"/>
<path d="M52.0467 39.2391L45.6355 39.2279C45.3238 39.2279 45.0793 38.9848 45.0793 38.6782L45.0868 34.4546L45.0439 33.5721L44.8908 32.8317L44.6314 32.1567L44.2731 31.5659L43.6235 30.8536L42.9852 30.4104L42.1771 30.1337L41.7534 30.0926L41.7385 38.6745C41.7385 38.9867 41.4996 39.2223 41.1841 39.2223L34.773 39.2111C34.4594 39.2111 34.2149 38.968 34.2168 38.6614L34.2616 12.9289C34.2616 12.7849 34.3232 12.6429 34.4277 12.5381C34.5341 12.4334 34.6741 12.3811 34.8197 12.3755L41.2308 12.3867C41.5406 12.3867 41.7851 12.6298 41.7833 12.9401L41.7646 23.7824L42.0184 23.7581V23.7544L42.8098 23.5356L43.3473 23.2645L43.8494 22.8382L44.1779 22.3858L44.484 21.6846L44.6687 20.8807L44.7285 19.9608C44.7285 19.8318 44.7845 19.699 44.8852 19.5981C44.986 19.4971 45.1297 19.4429 45.266 19.4392L51.6958 19.4504C51.8544 19.4504 52.0093 19.5195 52.1064 19.6317C52.224 19.7476 52.2744 19.9084 52.2464 20.0786L52.1512 21.0938L51.944 22.0829L51.6118 23.0289L51.1676 23.8946L50.5983 24.6986L49.9059 25.4502L49.0884 26.1438L48.8252 26.3196L49.5643 26.8506C49.5811 26.8674 49.5998 26.888 49.5998 26.888L50.6823 27.9537C50.7047 27.9799 50.7159 27.9911 50.7253 28.0004L50.7645 28.0453L51.5763 29.2662L51.6081 29.369C51.6081 29.3485 51.6006 29.3298 51.5969 29.3223L51.6267 29.3784L52.1643 30.7844C52.1699 30.7993 52.1811 30.8311 52.1848 30.8723L52.5077 32.4821L52.6103 34.3667L52.6029 38.6931C52.6029 39.0054 52.364 39.241 52.0504 39.241L52.0467 39.2391ZM45.2548 32.7476L45.4153 33.5384L45.4601 34.4452L45.4526 38.6782C45.4526 38.7922 45.5478 38.8521 45.6374 38.8539L52.0485 38.8652C52.1568 38.8652 52.2277 38.796 52.2277 38.6913L52.2352 34.3742L52.1344 32.512L51.8134 30.9097C51.8134 30.9097 51.8078 30.8928 51.804 30.8816L51.2815 29.5205C51.2684 29.4962 51.2516 29.47 51.2423 29.4363L50.4546 28.2566C50.4416 28.2435 50.4266 28.2285 50.408 28.2061L49.3068 27.1198L48.4912 26.5365L48.1701 26.7515L49.0623 27.3928L49.0697 27.3872L50.156 28.4604L50.1485 28.4678L50.9212 29.6364L50.9324 29.6327L51.4532 30.9882H51.4606L51.4737 31.0461L51.7817 32.6148L51.8899 34.4134L51.8712 35.2268L51.8656 38.1435H52.0504L52.1811 38.465L51.8096 38.8278L51.4924 38.6931V38.5174L46.1936 38.5081V38.6838L45.8744 38.8165L45.5068 38.452L45.6393 38.1322H45.8203L45.8278 34.4583L45.7681 33.5272L45.6038 32.6335C45.5982 32.6204 45.5945 32.6073 45.5907 32.5905L45.3127 31.8725C45.3015 31.8538 45.294 31.837 45.2903 31.8239L44.889 31.1621C44.8722 31.1452 44.8572 31.1247 44.8404 31.1004L44.1349 30.3226C44.1349 30.3226 44.1349 30.3244 44.1275 30.3226L44.1013 30.3076L43.3473 29.786C43.3231 29.7729 43.2988 29.7617 43.2764 29.7523L42.3562 29.4307L41.2345 29.3242C41.1879 29.3167 41.1337 29.3186 41.0908 29.3616L41.0759 29.3746C41.0404 29.4027 41.0218 29.4513 41.0218 29.4831L41.0068 38.121H41.1897L41.3204 38.4426L40.9508 38.8053L40.6335 38.6707V38.495L35.3329 38.4856V38.6614L35.0138 38.7941L34.6461 38.4314L34.7786 38.1117H34.9596L35.0026 13.473H34.8215L34.6927 13.1514L35.0604 12.7962L35.3759 12.9308V13.1009L40.6765 13.1103V12.9401L40.9938 12.8055L41.3614 13.1626L41.2308 13.4842H41.0479L41.0292 24.3695C41.0292 24.4256 41.0554 24.4779 41.0796 24.4966C41.13 24.5434 41.1823 24.5583 41.2327 24.5509L42.2088 24.4593H42.2443L43.0188 24.2442C43.0282 24.2405 43.0375 24.2368 43.045 24.233C43.045 24.233 43.0394 24.2349 43.0319 24.2405L43.0618 24.2218L43.7505 23.8778C43.7729 23.8666 43.7915 23.8591 43.8027 23.8516L44.3533 23.3823C44.3682 23.3674 44.372 23.3636 44.3757 23.358L44.3906 23.3337L44.8554 22.6924C44.8554 22.6924 44.8647 22.6774 44.8684 22.67L45.1745 21.9688C45.1783 21.9576 45.1801 21.9464 45.1839 21.9389C45.1839 21.9389 45.1839 21.9445 45.1839 21.9539L45.1876 21.924L45.3854 21.0303L45.4153 20.5385H45.2623L45.1391 20.2113L45.5105 19.8785L45.8203 20.03L45.8129 20.1646L51.134 20.1739L51.1545 19.9496L51.4793 19.843L51.832 20.2394L51.6921 20.5516H51.4737L51.4289 21.0246L51.2217 21.952L50.9156 22.8046L50.505 23.5768L49.9974 24.2891L49.3646 24.951L48.6274 25.568L48.1907 25.869L48.4949 26.0877L48.8682 25.8391L49.6521 25.1735L50.3128 24.4555L50.8522 23.6908L51.2703 22.87L51.5838 21.9707L51.7798 21.0284L51.8731 20.03C51.8806 19.9832 51.8787 19.9346 51.8395 19.8972L51.8227 19.8785C51.8003 19.8524 51.7499 19.8262 51.6921 19.8262L45.2623 19.815C45.2193 19.815 45.1783 19.8337 45.1465 19.8654C45.126 19.886 45.0999 19.9234 45.0999 19.9739L45.0346 20.9947H45.0234L44.8423 21.7837L44.8274 21.8454H44.8199L44.525 22.5185L44.5362 22.526L44.1424 23.0701H44.1443L44.0827 23.1505L44.0696 23.1411L43.5937 23.545L43.5993 23.5562L43.5228 23.6011L43.519 23.5973L42.9572 23.8796L42.8956 23.9096L42.8919 23.9002L42.1416 24.1059V24.1208L41.7571 24.1564V24.3676L41.4473 24.5097L41.0498 24.1657L41.1543 23.8385L41.3838 23.8179L41.4025 12.9401C41.4025 12.8541 41.3391 12.7606 41.2215 12.7606L34.8103 12.7494C34.7637 12.7494 34.717 12.77 34.6815 12.8036C34.6461 12.8373 34.6274 12.8822 34.6274 12.927L34.5826 38.6595C34.5826 38.7735 34.6778 38.8352 34.7674 38.8352L41.1785 38.8465C41.2905 38.8465 41.3596 38.7792 41.3596 38.6726L41.3745 30.0533L41.1449 30.0309L41.0386 29.7056L41.438 29.3447L41.7497 29.4831V29.7131L42.2181 29.7598V29.7542L42.2984 29.7673V29.7785L43.0972 30.0533L43.1047 30.0421L43.1961 30.0889L43.1905 30.1001L43.8382 30.5488L43.8419 30.5451L43.9016 30.5937L43.896 30.6012L44.54 31.3079L44.5456 31.3042L44.5941 31.3696L44.5885 31.3733L44.9431 31.9585H44.9487L44.9786 32.0184H44.9748L45.2324 32.6896H45.238L45.2529 32.7476H45.2511H45.2548ZM46.1917 38.1285L51.4924 38.1378L51.498 35.2174L51.5185 34.4153L51.4121 32.6466L51.1116 31.1284L50.6226 29.8552L49.835 28.6642L48.8719 27.7125L47.53 26.7459C47.375 26.6187 47.2967 26.4617 47.2967 26.2934V26.2728C47.319 26.0821 47.4105 25.9326 47.5561 25.8503L48.4072 25.2651L49.1239 24.6649L49.723 24.0348L50.1971 23.3636L50.5834 22.6344L50.869 21.8305L51.0649 20.948L51.1023 20.5441L45.7923 20.5348L45.7569 21.1312L45.5572 21.9931C45.5534 22.0156 45.5478 22.0343 45.5441 22.0474C45.5441 22.0474 45.546 22.0361 45.546 22.0193L45.531 22.0941L45.1764 22.8812C45.1633 22.9018 45.1503 22.9205 45.1353 22.9373L44.7042 23.5356C44.6799 23.5786 44.6557 23.6029 44.6314 23.6291L44.6053 23.6534L44.036 24.1377C44.0174 24.1526 43.9894 24.1713 43.9166 24.2068L43.2484 24.5396C43.2204 24.5602 43.1943 24.5696 43.1775 24.5752L43.1327 24.592L42.2704 24.8238H42.2163L41.2775 24.9117C41.1225 24.9342 40.962 24.8818 40.8426 24.7715C40.7343 24.6892 40.6578 24.5266 40.6578 24.3583L40.6765 13.473L35.3759 13.4636L35.3329 38.1042L40.6335 38.1135L40.6485 29.4756C40.6485 29.326 40.7213 29.1765 40.837 29.0792C40.9546 28.9689 41.1151 28.9203 41.2812 28.9465L42.3749 29.0493C42.401 29.0493 42.4608 29.0493 42.5186 29.083L43.4145 29.3952C43.463 29.4158 43.4966 29.4307 43.5358 29.4513L43.5526 29.4625L44.3048 29.9823C44.3514 30.0066 44.3776 30.029 44.4018 30.0515L45.1484 30.8779C45.1596 30.8966 45.1633 30.9003 45.1652 30.9022L45.1969 30.9414L45.6019 31.6089C45.6262 31.6407 45.6355 31.6706 45.6411 31.6874C45.6411 31.6874 45.6337 31.6669 45.6113 31.6463L45.6523 31.7099L45.9491 32.4895C45.9566 32.5101 45.9659 32.5363 45.9696 32.5662L46.1357 33.4842L46.1973 34.4377L46.1917 38.1229V38.1285ZM45.5982 32.6036C45.5982 32.6036 45.5982 32.6204 45.6001 32.626V32.6036H45.5982ZM45.2921 31.8277C45.2921 31.8277 45.2996 31.8408 45.3071 31.8482L45.2903 31.8277H45.2921ZM51.8096 30.8966C51.8096 30.8966 51.8096 30.9022 51.8096 30.9059V30.8966ZM42.2853 29.3803C42.3077 29.4046 42.332 29.4195 42.3506 29.4251L42.2853 29.3803ZM47.6681 26.3046C47.6718 26.3738 47.7241 26.4262 47.7539 26.4523L47.8771 26.5402L47.8883 26.0747L47.7409 26.1756C47.7259 26.1831 47.6811 26.2074 47.6681 26.3065V26.3046Z" fill="#171C61"/>
<path d="M121.324 18.7452V21.0262H111.615V18.7452H115.132V16.9971H117.918V18.7452H121.324ZM112.089 25.3994C112.089 24.2776 112.509 23.3652 113.273 22.7389C114.057 22.0733 115.186 21.7124 116.479 21.7124C117.773 21.7124 118.92 22.0733 119.702 22.7389C120.468 23.3671 120.886 24.2795 120.886 25.3994C120.886 26.5194 120.466 27.4336 119.702 28.06C118.919 28.7069 117.789 29.0864 116.479 29.0864C115.169 29.0864 114.057 28.7069 113.273 28.06C112.507 27.4318 112.089 26.5194 112.089 25.3994ZM113.036 29.7147H115.822V32.7379H125.914V35.1517H113.036V29.7147ZM114.73 25.3994C114.73 25.7977 114.895 26.1398 115.15 26.3885C115.46 26.6932 115.934 26.8634 116.479 26.8634C117.024 26.8634 117.517 26.6914 117.827 26.3885C118.082 26.1417 118.247 25.7995 118.247 25.3994C118.247 24.9993 118.082 24.6385 117.827 24.3917C117.517 24.0869 117.026 23.9355 116.479 23.9355C115.932 23.9355 115.46 24.0869 115.15 24.3917C114.895 24.6385 114.73 24.9806 114.73 25.3994ZM122.872 17.5112H125.639V22.2453H127.952V24.7357H125.639V30.3616H122.872V17.5112Z" fill="white"/>
<path d="M136.261 26.9197H130.05V24.5059H145.241V26.9197H139.01V29.1633H144.201V35.3407H141.433V31.5584H130.977V29.1633H136.259V26.9197H136.261ZM141.435 21.047V20.1346H130.979V17.7021H144.203V20.8769C144.203 21.9033 144.111 22.9485 143.893 23.7281H141.198C141.381 22.9485 141.435 21.9987 141.435 21.0489V21.047Z" fill="white"/>
<path d="M151.452 17.6047H154.22V20.3793C154.22 23.4587 155.532 24.8273 157.645 25.4555V27.9646C155.659 27.6412 153.837 26.6147 152.854 25.3228C151.924 26.6727 150.086 27.7758 148.027 28.1553V25.6836C150.232 24.9806 151.452 23.3652 151.452 20.3793V17.6047ZM149.468 28.877H152.255V32.7361H162.346V35.1498H149.468V28.877ZM159.304 17.5112H162.072V22.0172H164.385V24.5076H162.072V29.8306H159.304V17.5131V17.5112Z" fill="white"/>
<path d="M166.771 22.0529C166.771 20.4188 167.354 19.1437 168.302 18.3846C169.086 17.719 170.105 17.3955 171.29 17.3955C172.475 17.3955 173.513 17.719 174.295 18.3846C175.006 18.9548 175.478 19.7906 175.697 20.8563H177.955V17.5114H180.723V26.8636H177.955V23.2906H175.697C175.478 24.3358 174.986 25.1715 174.295 25.7436C173.511 26.3906 172.492 26.7121 171.29 26.7121C170.088 26.7121 169.086 26.3887 168.302 25.7436C167.354 24.964 166.771 23.7094 166.771 22.0566V22.0529ZM170.725 29.2007H177.974V27.4712H180.725V35.2454H167.957V27.4712H170.725V29.2007ZM169.45 22.0529C169.45 22.8512 169.668 23.4589 170.088 23.859C170.398 24.1638 170.799 24.3152 171.29 24.3152C171.781 24.3152 172.201 24.1638 172.511 23.859C172.931 23.4608 173.149 22.8512 173.149 22.0529C173.149 21.2545 172.931 20.6656 172.511 20.2655C172.201 19.9607 171.783 19.7906 171.29 19.7906C170.797 19.7906 170.398 19.9626 170.088 20.2655C169.668 20.6656 169.45 21.2732 169.45 22.0529ZM177.974 32.9083V31.5771H170.725V32.9083H177.974Z" fill="white"/>
<path d="M190.925 21.7872V20.2466H185.314V17.8141H193.676V21.445C193.676 28.4208 191.218 32.6613 185.225 34.1439V31.5021C189.232 30.2849 190.927 26.9774 190.927 21.7891L190.925 21.7872ZM196.152 17.5112H198.92V35.0563H196.152V17.5112Z" fill="white"/>
<path d="M218.104 26.2934H211.874V27.2619H217.064V32.3568H206.7V33.0972H217.428V35.2454H203.93V30.2085H214.313V29.4289H203.93V27.2619H209.121V26.2934H202.909V24.0124H218.1V26.2934H218.104ZM210.489 21.1798C209.141 22.511 206.517 23.3842 203.385 23.5562V21.2752C206.719 20.9891 209.106 19.8692 209.106 17.7957V17.605H211.874V17.7957C211.874 19.8673 214.223 20.9891 217.557 21.2752V23.5562C214.46 23.3842 211.836 22.4923 210.489 21.1798Z" fill="white"/>
<path d="M224.824 17.8145V20.9892H232.621V17.8145H235.388V28.6306H230.123V31.8819H236.225V34.335H221.215V31.8819H227.353V28.6306H222.034V17.8145H224.821H224.824ZM224.824 26.1794H232.621V23.4422H224.824V26.1794Z" fill="white"/>
<path d="M240.253 26.0072C240.253 24.8293 240.762 23.9356 241.654 23.3074C242.856 22.4511 244.751 22.0528 246.936 22.0528C249.122 22.0528 251.016 22.4511 252.218 23.3074C253.111 23.9337 253.62 24.8274 253.62 26.0072C253.62 27.187 253.111 28.0788 252.218 28.707C251.289 29.3726 249.923 29.7709 248.338 29.9055V31.8818H254.439V34.3348H239.43V31.8818H245.568V29.9055C243.965 29.7728 242.599 29.3726 241.653 28.707C240.76 28.0788 240.251 27.187 240.251 26.0072H240.253ZM248.323 18.9174H253.988V21.3311H239.889V18.9174H245.518V16.9019H248.323V18.9174ZM243.023 26.0072C243.023 26.3681 243.205 26.6728 243.515 26.9009C244.17 27.3758 245.428 27.5665 246.94 27.5665C248.452 27.5665 249.708 27.3758 250.365 26.9009C250.675 26.6728 250.858 26.3681 250.858 26.0072C250.858 25.6464 250.675 25.3416 250.365 25.1135C249.71 24.6386 248.452 24.4479 246.94 24.4479C245.428 24.4479 244.172 24.6386 243.515 25.1135C243.205 25.3416 243.023 25.6464 243.023 26.0072Z" fill="white"/>
<path d="M267.03 18.5171V20.7607H257.539V18.5171H261.018V16.9971H263.786V18.5171H267.028H267.03ZM257.976 24.3543C257.976 23.3839 258.394 22.6061 259.086 22.0733C259.87 21.4843 261.016 21.1609 262.366 21.1609C263.715 21.1609 264.861 21.4843 265.645 22.0733C266.337 22.6061 266.755 23.3839 266.755 24.3543C266.755 25.3246 266.335 26.1024 265.645 26.6353C264.861 27.2242 263.715 27.5477 262.366 27.5477C261.016 27.5477 259.87 27.2242 259.086 26.6353C258.394 26.1024 257.976 25.3433 257.976 24.3543ZM261.802 29.5613H269.051V28.2114H271.802V35.2452H259.034V28.2114H261.802V29.5613ZM260.635 24.3543C260.635 24.6385 260.762 24.8684 260.981 25.0386C261.291 25.2667 261.781 25.3994 262.366 25.3994C262.95 25.3994 263.441 25.2667 263.751 25.0386C263.969 24.8666 264.096 24.6385 264.096 24.3543C264.096 24.0701 263.969 23.8607 263.751 23.6887C263.441 23.4419 262.95 23.3278 262.366 23.3278C261.781 23.3278 261.291 23.4419 260.981 23.6887C260.762 23.8607 260.635 24.0682 260.635 24.3543ZM269.051 32.9829V31.861H261.802V32.9829H269.051ZM271.802 17.5112V27.643H269.034V26.4259H266.994V24.1449H269.034V23.2138H266.994V20.9141H269.034V17.5112H271.802Z" fill="white"/>
<path d="M276.648 26.0445C276.648 24.7712 277.157 23.7074 278.014 23.0025C278.798 22.3369 279.836 21.976 281.056 21.976C282.277 21.976 283.315 22.3369 284.099 23.0025C284.955 23.7055 285.446 24.7712 285.446 26.0445C285.446 27.3177 284.955 28.3834 284.099 29.1051C283.625 29.4847 283.078 29.7707 282.441 29.9409V31.7096H284.39C285.756 31.7096 286.685 31.4815 287.232 30.9692V17.5112H290V35.0563H287.232V33.2876C286.667 33.8392 285.538 34.1439 283.953 34.1439H275.92V31.7115H279.69V29.9428C279.052 29.7707 278.488 29.4866 278.014 29.107C277.157 28.3853 276.648 27.3383 276.648 26.0463V26.0445ZM279.634 18.9939V16.9971H282.421V18.9939H285.846V21.389H276.209V18.9939H279.634ZM279.362 26.0445C279.362 26.5586 279.526 26.9943 279.836 27.299C280.127 27.6225 280.564 27.7739 281.056 27.7739C281.549 27.7739 281.967 27.6225 282.258 27.299C282.568 26.9943 282.749 26.5568 282.749 26.0445C282.749 25.5322 282.566 25.0947 282.258 24.7899C281.967 24.4851 281.53 24.315 281.056 24.315C280.582 24.315 280.127 24.487 279.836 24.7899C279.526 25.0947 279.362 25.5322 279.362 26.0445Z" fill="white"/>
</g>
<defs>
<clipPath id="clip0_567_24433">
<rect width="290" height="40" fill="white"/>
</clipPath>
</defs>
</svg>
