<svg width="290" height="40" viewBox="0 0 290 40" fill="none" xmlns="http://www.w3.org/2000/svg">
<g clip-path="url(#clip0_612_43073)">
<path d="M84.3079 14.8472H90.5137L90.6611 20.3403L94.3809 20.5964L94.2484 26.5906L90.8273 26.8917L90.6331 30.1318L91.2136 32.353L92.5593 33.1719H94.3809L94.2484 39.5251L90.8982 39.1792L87.1784 37.5601L84.8286 33.9909L84.3079 28.9427V14.8472Z" fill="white"/>
<path d="M94.2484 39.5664H94.2447L90.8945 39.2206C90.8945 39.2206 90.887 39.2206 90.8814 39.2168L87.1617 37.5977C87.1617 37.5977 87.1486 37.5902 87.143 37.5827L84.795 34.0154C84.795 34.0154 84.7894 34.0041 84.7876 33.9967L84.2668 28.9485V14.8492C84.2668 14.8268 84.2855 14.8081 84.3079 14.8081H90.5137C90.5361 14.8081 90.5548 14.8268 90.5548 14.8492L90.7004 20.305L94.3828 20.5574C94.4052 20.5574 94.422 20.5779 94.422 20.6004L94.2895 26.5946C94.2895 26.6152 94.2727 26.6339 94.2522 26.6357L90.8684 26.933L90.6761 30.132L91.251 32.3289L92.5724 33.1329H94.381C94.3922 33.1329 94.4034 33.1366 94.4108 33.146C94.4183 33.1534 94.422 33.1647 94.422 33.1759L94.2895 39.5291C94.2895 39.5403 94.2839 39.5515 94.2746 39.559C94.2671 39.5665 94.2578 39.5702 94.2466 39.5702L94.2484 39.5664ZM90.9076 39.1383L94.2074 39.4786L94.338 33.2133H92.5593C92.5593 33.2133 92.5444 33.2114 92.5369 33.2077L91.1913 32.3887C91.1913 32.3887 91.1763 32.3738 91.1726 32.3644L90.5921 30.1451C90.5921 30.1451 90.5921 30.1358 90.5921 30.132L90.7862 26.8919C90.7862 26.8713 90.803 26.8545 90.8236 26.8526L94.2074 26.5553L94.338 20.6378L90.6575 20.3854C90.6369 20.3854 90.6201 20.3667 90.6183 20.3461L90.4727 14.8922H84.349V28.9467L84.8678 33.9798L87.2046 37.5285L90.9076 39.1402V39.1383Z" fill="white"/>
<path d="M81.9264 20.5962H75.1719V39.1771H81.9264V20.5962Z" fill="white"/>
<path d="M81.9262 39.2203H75.1717C75.1493 39.2203 75.1306 39.2016 75.1306 39.1792V20.5983C75.1306 20.5758 75.1493 20.5571 75.1717 20.5571H81.9262C81.9486 20.5571 81.9673 20.5758 81.9673 20.5983V39.1792C81.9673 39.2016 81.9486 39.2203 81.9262 39.2203ZM75.2127 39.1362H81.8852V20.6375H75.2127V39.1362Z" fill="white"/>
<path d="M75.3323 15.5165L76.202 13.6917L78.4436 13.1626L81.2656 13.9217L82.1447 16.1765L82.042 18.1341L80.1066 19.6859L77.6522 19.7981L75.5096 18.5024L75.3323 15.5165Z" fill="white"/>
<path d="M77.6523 19.8394C77.6523 19.8394 77.6373 19.8376 77.6317 19.8338L75.4891 18.5381C75.4779 18.5307 75.4704 18.5194 75.4686 18.5045L75.2913 15.5186C75.2913 15.5186 75.2913 15.5036 75.295 15.498L76.1647 13.6751C76.1703 13.6639 76.1797 13.6564 76.1927 13.6527L78.4343 13.1235C78.4343 13.1235 78.4474 13.1235 78.4548 13.1235L81.2769 13.8826C81.2899 13.8864 81.2993 13.8957 81.3049 13.9069L82.1839 16.1618C82.1839 16.1618 82.1877 16.173 82.1877 16.1786L82.085 18.1362C82.085 18.1474 82.0794 18.1586 82.0701 18.1661L80.1327 19.7179C80.1327 19.7179 80.1178 19.7273 80.1085 19.7273L77.6541 19.8394H77.6523ZM75.5507 18.4783L77.6635 19.7553L80.0917 19.6431L82.0029 18.1118L82.1037 16.1823L81.2358 13.9555L78.4436 13.2058L76.2319 13.7274L75.3753 15.5242L75.5507 18.4783Z" fill="white"/>
<path d="M65.2275 32.9421L62.7191 33.1347L60.3431 31.8596L59.6582 29.9413L60.08 27.9202L61.7952 26.4412H63.6691L65.3302 27.105L66.2541 28.0529L66.6498 31.6221V39.0504H72.8575V28.238L71.6629 24.8819L69.4195 22.2382L66.1496 20.5966L63.2323 20.2339L59.395 20.8116L56.3079 22.6607L54.5125 25.2521L53.1145 28.7933L53.6054 32.6785L55.2777 35.8233L58.445 38.3343L62.6388 39.5253L65.4627 39.0504L65.2275 32.9421Z" fill="white"/>
<path d="M62.6389 39.5662C62.6389 39.5662 62.6314 39.5662 62.6277 39.5662L58.432 38.3771C58.432 38.3771 58.4226 38.3733 58.417 38.3696L55.2516 35.8586C55.2516 35.8586 55.2441 35.8511 55.2404 35.8455L53.5681 32.7007C53.5681 32.7007 53.5644 32.6914 53.5644 32.6858L53.0735 28.8006C53.0735 28.8006 53.0735 28.7856 53.0754 28.78L54.4733 25.2388L56.2725 22.64C56.2725 22.64 56.28 22.6306 56.2856 22.6287L59.3726 20.7778C59.3726 20.7778 59.382 20.774 59.3876 20.7722L63.2249 20.1963C63.2249 20.1963 63.2324 20.1963 63.2361 20.1963L66.1533 20.559C66.1533 20.559 66.1627 20.559 66.1664 20.5627L69.4382 22.2043C69.4382 22.2043 69.4476 22.2099 69.4513 22.2137L71.6947 24.8574C71.6947 24.8574 71.7003 24.8649 71.7022 24.8705L72.8967 28.2266C72.8967 28.2266 72.8986 28.2359 72.8986 28.2397V39.052C72.8986 39.0745 72.8799 39.0932 72.8575 39.0932H66.6498C66.6274 39.0932 66.6087 39.0745 66.6087 39.052V31.6219L66.2149 28.0733L65.3078 27.1422L63.6617 26.484H61.812L60.1192 27.9443L59.703 29.9392L60.3786 31.8313L62.7285 33.0934L65.2257 32.9027C65.2257 32.9027 65.2481 32.9045 65.2556 32.9139C65.2631 32.9214 65.2687 32.9326 65.2687 32.9438L65.5038 39.052C65.5038 39.0726 65.4889 39.0913 65.4684 39.095L62.6445 39.5681C62.6445 39.5681 62.6407 39.5681 62.637 39.5681L62.6389 39.5662ZM58.4637 38.2967L62.6426 39.4821L65.4198 39.0165L65.1884 32.9868L62.7229 33.1756C62.7229 33.1756 62.7079 33.1756 62.7005 33.17L60.3264 31.8949C60.3264 31.8949 60.3096 31.8818 60.3077 31.8725L59.6227 29.9542C59.6227 29.9542 59.619 29.9392 59.6227 29.9317L60.0446 27.9125C60.0446 27.9125 60.052 27.8956 60.0576 27.89L61.7729 26.4092C61.7729 26.4092 61.7896 26.3999 61.799 26.3999H63.6729C63.6729 26.3999 63.6841 26.3999 63.6878 26.4036L65.3508 27.0674C65.3508 27.0674 65.3601 27.073 65.3657 27.0767L66.2896 28.0247C66.2896 28.0247 66.3008 28.0396 66.3008 28.049L66.6965 31.6163V39.009H72.822V28.2453L71.6331 24.9023L69.4009 22.2716L66.1421 20.6375L63.238 20.2767L59.4137 20.8507L56.3416 22.6923L54.5517 25.2743L53.1612 28.7987L53.6502 32.6652L55.3151 35.7969L58.4674 38.2986L58.4637 38.2967Z" fill="white"/>
<path fill-rule="evenodd" clip-rule="evenodd" d="M13.1321 3.35791L33.1699 16.8795L20.0397 35.7128L0 22.1912L13.1321 3.35791ZM14.4853 10.5113L7.27342 20.8469L18.6866 28.5444L25.8984 18.2088L14.4853 10.5113Z" fill="#171C61"/>
<path fill-rule="evenodd" clip-rule="evenodd" d="M45.7364 16.932L28.0838 33.3403L12.1577 16.7806L29.8252 0.353516L45.7364 16.9339V16.932ZM38.0188 16.7226L29.5975 7.95752L19.8697 16.9918L28.2929 25.7569L38.0169 16.7226H38.0188Z" fill="#CACED3"/>
<path d="M46.2105 16.7094C46.3337 16.8422 46.3337 17.0385 46.1956 17.1581L28.5244 33.587C28.4031 33.703 28.1903 33.703 28.069 33.5702L12.141 16.9917C12.0197 16.8721 12.0197 16.6589 12.1578 16.5411L29.8234 0.129061C29.9485 0.00940169 30.1594 0.0112714 30.2844 0.145889L46.2105 16.7094ZM29.8085 0.583394L30.2695 0.596482L12.5964 17.0123L12.6132 16.5561L28.5375 33.1364L28.0783 33.1196L45.7477 16.6926L45.7327 17.16L29.8085 0.583394ZM38.017 16.4813V16.9319L29.5938 8.17057L30.0549 8.1874L20.3327 17.2198L20.3458 16.7674L28.7689 25.5324L28.2911 25.5156L38.017 16.4813ZM28.754 25.983C28.6121 26.1195 28.4143 26.1046 28.2911 25.983L19.8698 17.2198C19.7336 17.0852 19.7504 16.8889 19.8698 16.7674L29.5938 7.7181C29.7357 7.59657 29.9503 7.59844 30.0698 7.73306L38.491 16.4981C38.6142 16.6178 38.5956 16.8291 38.4761 16.9487L28.7521 25.983H28.754Z" fill="white"/>
<path d="M28.3024 33.7143C28.3024 33.7143 28.293 33.7143 28.2893 33.7143C28.1904 33.7105 28.1008 33.6694 28.0355 33.5984L12.1093 17.0217C12.0422 16.9563 12.0048 16.861 12.0086 16.7637C12.0123 16.6646 12.0552 16.5749 12.1299 16.5113L29.7955 0.0992413C29.8646 0.0338024 29.9597 -0.00359127 30.0587 0.00201778C30.1576 0.00575714 30.249 0.0468902 30.3144 0.119808L46.2386 16.6815C46.3096 16.7581 46.345 16.8516 46.3394 16.9488C46.3338 17.0404 46.2928 17.1264 46.22 17.19L28.5487 33.617C28.4853 33.6787 28.3957 33.7124 28.3024 33.7124V33.7143ZM30.0456 0.0824141C29.9728 0.0824141 29.9038 0.110459 29.8534 0.157201L12.1859 16.5693C12.128 16.6198 12.0944 16.6871 12.0925 16.7637C12.0907 16.8385 12.1187 16.9096 12.1691 16.96L28.0971 33.5385C28.1475 33.5927 28.2165 33.6245 28.293 33.6283C28.3733 33.6283 28.4423 33.604 28.4946 33.5553L46.1677 17.1264C46.2237 17.0778 46.2573 17.0124 46.261 16.9432C46.2648 16.8684 46.2368 16.7955 46.1826 16.7357L30.2546 0.175898C30.2024 0.119808 30.1333 0.0861535 30.0549 0.0842838C30.0512 0.0842838 30.0475 0.0842838 30.0456 0.0842838V0.0824141ZM28.5394 33.1758L28.0803 33.159C28.0635 33.159 28.0485 33.1478 28.0429 33.1328C28.0373 33.1178 28.0429 33.0991 28.0541 33.0879L28.2557 32.8991L12.8372 16.846L12.6263 17.0423C12.6133 17.0535 12.5965 17.0573 12.5815 17.0498C12.5666 17.0423 12.5573 17.0274 12.5573 17.0105L12.5741 16.5543C12.5741 16.5375 12.5853 16.5225 12.6002 16.5169C12.617 16.5113 12.6338 16.5151 12.645 16.5263L12.8391 16.7301L29.9728 0.81533L29.7787 0.613404C29.7675 0.602186 29.7638 0.583489 29.7712 0.568532C29.7787 0.553574 29.7936 0.542356 29.8104 0.544226L30.2714 0.557314C30.2882 0.557314 30.3032 0.568532 30.3088 0.583489C30.3144 0.598447 30.3088 0.617143 30.2976 0.628362L30.0904 0.820939L45.5051 16.8628L45.7216 16.6628C45.7328 16.6515 45.7515 16.6478 45.7664 16.6553C45.7814 16.6628 45.7907 16.6777 45.7907 16.6945L45.7758 17.162C45.7758 17.1788 45.7646 17.1938 45.7496 17.1994C45.7347 17.205 45.716 17.2012 45.7048 17.19L45.5033 16.9806L28.3733 32.9066L28.5693 33.1104C28.5805 33.1216 28.5842 33.1403 28.5767 33.1552C28.5693 33.1702 28.5543 33.1795 28.5394 33.1795V33.1758ZM28.1829 33.0804L28.4386 33.0898L28.3136 32.9589L28.1829 33.0804ZM12.897 16.7899L28.3154 32.843L45.4454 16.917L30.0307 0.87516L12.897 16.7899ZM45.563 16.9208L45.6955 17.0591L45.7048 16.7899L45.563 16.9226V16.9208ZM12.6525 16.6534L12.6431 16.9114L12.7794 16.7843L12.6525 16.6534ZM29.9094 0.628362L30.0344 0.759239L30.1688 0.63584L29.9094 0.628362ZM28.5226 26.1215C28.4293 26.1215 28.336 26.0841 28.2613 26.0112L19.84 17.2461C19.771 17.1769 19.7318 17.0872 19.7318 16.9937C19.7318 16.8983 19.771 16.8049 19.84 16.7357L29.5659 7.68642C29.7283 7.54619 29.9691 7.55554 30.1016 7.70511L38.5229 16.4702C38.5826 16.53 38.618 16.6123 38.618 16.7058C38.618 16.8086 38.5789 16.9077 38.5061 16.9806L28.7802 26.0149C28.7055 26.0878 28.6122 26.1234 28.5189 26.1234L28.5226 26.1215ZM29.8328 7.66959C29.76 7.66959 29.6854 7.69576 29.6238 7.74811L19.8998 16.7955C19.8475 16.8479 19.8158 16.9208 19.8158 16.9937C19.8158 17.0666 19.8456 17.1339 19.8998 17.1881L28.321 25.9532C28.4349 26.0673 28.6085 26.0673 28.726 25.9532L38.4501 16.9189C38.5042 16.8647 38.5359 16.7843 38.5359 16.7058C38.5359 16.6366 38.5098 16.573 38.465 16.5281L30.0419 7.7612C29.9877 7.6995 29.9112 7.66959 29.831 7.66959H29.8328ZM28.769 25.5737L28.2912 25.5568C28.2744 25.5568 28.2594 25.5456 28.2538 25.5307C28.2482 25.5157 28.2538 25.497 28.265 25.4858L28.4778 25.2876L20.5698 17.0591L20.3626 17.2517C20.3496 17.2629 20.3328 17.2648 20.3178 17.2592C20.3029 17.2517 20.2936 17.2368 20.2936 17.2199L20.3066 16.7675C20.3066 16.7506 20.3178 16.7357 20.3328 16.7301C20.3477 16.7245 20.3664 16.7282 20.3776 16.7394L20.5735 16.9432L29.7638 8.40437L29.5659 8.19871C29.5547 8.18749 29.551 8.16879 29.5585 8.15384C29.5659 8.13888 29.5809 8.12953 29.5977 8.12953L30.0587 8.14636C30.0755 8.14636 30.0904 8.15757 30.096 8.17253C30.1016 8.18749 30.096 8.20619 30.0848 8.21741L29.8814 8.40624L37.7912 16.6347L37.9909 16.4496C38.0021 16.4384 38.0208 16.4347 38.0357 16.4421C38.0507 16.4496 38.06 16.4646 38.06 16.4795V16.9301C38.06 16.947 38.0488 16.9619 38.0339 16.9694C38.0189 16.975 38.0003 16.9713 37.9891 16.96L37.7875 16.7506L28.5954 25.2876L28.8007 25.5008C28.8119 25.512 28.8156 25.5307 28.8082 25.5456C28.8007 25.5606 28.7858 25.5699 28.7708 25.5699L28.769 25.5737ZM28.3938 25.4764L28.6701 25.4858L28.5338 25.3456L28.3938 25.4764ZM20.6295 17.0012L28.5375 25.2296L37.7296 16.6927L29.8198 8.4642L20.6295 17.003V17.0012ZM20.385 16.8666L20.3776 17.1227L20.5101 16.9993L20.3832 16.8684L20.385 16.8666ZM37.8472 16.6964L37.976 16.8292V16.5749L37.8472 16.6945V16.6964ZM29.6966 8.21554L29.8235 8.34828L29.956 8.22488L29.6966 8.21554Z" fill="white"/>
<path fill-rule="evenodd" clip-rule="evenodd" d="M17.3035 30.3375L27.3579 16.04L31.7103 19.0016L21.6522 33.3028L17.3035 30.3375Z" fill="#171C61"/>
<path d="M63.014 19.686L64.3932 19.7646L65.7128 20.0076L66.9726 20.4152L68.1653 20.9911L69.2702 21.6903L70.2501 22.5354L71.1217 23.5189L71.8888 24.6089C71.9 24.6239 71.9 24.6388 71.9168 24.6519L72.4823 25.7831L72.9097 27.0077L73.1673 28.2754L73.2419 29.6028V30.5994L73.2251 39.0466C73.2251 39.2579 73.0683 39.4112 72.8556 39.4112L66.4295 39.4C66.2298 39.4 66.0618 39.2467 66.0618 39.0354L66.0749 31.4183V30.5414L66.045 29.7281L65.9872 29.0475V29.0924L65.8323 28.5053L65.849 28.567L65.6493 28.0959L65.6979 28.1763L65.1753 27.4789L65.2537 27.5537L64.5631 27.0395L64.6396 27.0862L63.8315 26.7534L63.9378 26.7684L63.0476 26.66H63.1259L62.4354 26.7198L62.51 26.7048L61.8642 26.8974L61.9258 26.8824L61.3435 27.1816L61.407 27.1367L60.8676 27.5742L60.9142 27.5312L60.47 28.0734L60.5167 27.9986L60.2069 28.5876L60.2218 28.5278L60.0184 29.1765L60.0389 29.1148L59.9717 29.8085V29.73L60.037 30.4105L60.0165 30.3376L60.2181 30.9696L60.1863 30.9097L60.5111 31.4819L60.4775 31.422L60.9217 31.9362L60.8601 31.8913L61.3976 32.3176L61.3473 32.269L61.9445 32.5868L61.8698 32.5569L62.5455 32.7402H62.4839L63.2043 32.8H63.1278L64.1114 32.6916H64.0461L65.1846 32.3644C65.291 32.3363 65.4142 32.3644 65.5056 32.4279C65.5952 32.5027 65.6437 32.6074 65.6419 32.714L65.6307 39.185C65.6307 39.3663 65.5112 39.5196 65.3377 39.5458L64.2645 39.7253L63.2435 39.787L61.8587 39.7085L60.541 39.4617L59.2513 39.0391L58.0232 38.4595L56.8921 37.7547L55.8787 36.9058L55.007 35.9242L54.2586 34.851L53.6408 33.6731L53.2171 32.4373L52.9596 31.1378L52.8831 29.7954L52.9633 28.4548L53.2097 27.1535L53.6446 25.9177L54.2418 24.7136L54.994 23.6161L55.8413 22.6364L56.81 21.7782L57.9149 21.0416L59.0982 20.4582L60.3543 20.0375L61.6459 19.7683H61.6925L63.014 19.6935V19.686ZM61.7373 20.4694H61.7859L60.5876 20.7069L59.4211 21.0976L58.333 21.6212L57.3177 22.2999L56.4125 23.0982L55.6006 24.02L54.9081 25.0259L54.337 26.1421L53.9376 27.2882L53.6875 28.4922L53.6091 29.7449L53.6838 30.9995L53.9152 32.2036L54.3127 33.3516L54.8615 34.4378L55.5483 35.4512L56.3602 36.3412L57.2785 37.1264L58.3517 37.8089L59.4864 38.353L60.6791 38.7456L61.9072 38.9905L63.1969 39.069L64.1338 39.0092L65.2051 38.8297L64.899 39.1756L64.9102 32.7046L65.3862 33.0524L64.2495 33.3833C64.2365 33.3964 64.2197 33.3964 64.1898 33.3964L63.2062 33.5011C63.1931 33.5011 63.1595 33.5142 63.1297 33.5011L62.4092 33.4394C62.3943 33.4394 62.3757 33.4394 62.3458 33.4394L61.672 33.2543C61.6384 33.2431 61.6253 33.2282 61.5955 33.2282L60.9964 32.9084C60.9796 32.8916 60.9665 32.8785 60.9329 32.8617L60.3954 32.441C60.3823 32.4242 60.3637 32.4111 60.3506 32.3905L59.9082 31.8801C59.8952 31.8651 59.8784 31.8352 59.8635 31.8184L59.5424 31.2444C59.5424 31.2276 59.5256 31.1995 59.5256 31.1846L59.3259 30.5489C59.311 30.519 59.311 30.4909 59.311 30.4704L59.2494 29.7973C59.2345 29.7636 59.2345 29.7487 59.2494 29.7188L59.3129 29.0251C59.3129 29.0101 59.3129 28.9802 59.3129 28.9653L59.5144 28.3165C59.5294 28.2847 59.5294 28.2679 59.5462 28.2529L59.8541 27.6658C59.8709 27.6378 59.8859 27.6191 59.9027 27.5892L60.3431 27.047C60.3599 27.032 60.373 27.0171 60.3917 27.0002L60.931 26.5627C60.9441 26.5478 60.9777 26.5347 60.9908 26.5197L61.5731 26.2187C61.6067 26.2187 61.6216 26.2019 61.6365 26.2019L62.2823 26.0112C62.3141 25.9962 62.3421 25.9962 62.357 25.9962L63.0494 25.9364C63.0793 25.9177 63.1092 25.9177 63.1278 25.9364L64.0144 26.043C64.0592 26.043 64.0909 26.043 64.1226 26.0579L64.9326 26.3926C64.9662 26.4075 64.9793 26.4206 65.0092 26.4375L65.6997 26.9516C65.7296 26.9797 65.7445 26.9946 65.7763 27.0245L66.2951 27.7182C66.3138 27.75 66.3306 27.7631 66.3418 27.7949L66.5471 28.2604C66.5471 28.2754 66.5471 28.2922 66.5564 28.324L66.7095 28.9111V28.9559L66.786 29.6963L66.814 30.5246V31.4015L66.7991 39.0186L66.4314 38.654L72.8574 38.6652L72.4898 39.0279L72.5047 30.5807L72.5196 29.6309L72.4468 28.3931L72.2191 27.2152L71.8216 26.086L71.2561 24.9511L71.2859 24.9997L70.5823 23.9713L69.7704 23.0795L68.8484 22.2942L67.8424 21.6268L66.7375 21.0808L65.5747 20.705L64.3466 20.462L63.0588 20.3834L61.7373 20.4582V20.4694Z" fill="#171C61"/>
<path d="M63.2324 39.9665L61.8232 39.8843L60.4813 39.6319L59.1711 39.2018L57.9243 38.6129L56.7727 37.893L55.7406 37.0255L54.8559 36.0271L54.0963 34.9333L53.4673 33.7293L53.038 32.4691L52.7767 31.1454L52.7002 29.7824L52.7823 28.4175L53.0362 27.0882L53.4804 25.8299L54.0907 24.6033L54.8559 23.489L55.7201 22.4906L56.7093 21.6156L57.8366 20.8658L59.0423 20.2732L60.3189 19.8469L61.6478 19.5739H61.6945L63.0252 19.501L64.4269 19.5832L65.7688 19.8319L67.0529 20.2488L68.2642 20.8341L69.3916 21.5483L70.3901 22.4121L71.2766 23.4124L72.0437 24.5024C72.0568 24.5192 72.0661 24.5398 72.0699 24.5491C72.0699 24.5473 72.0587 24.5248 72.0344 24.5061L72.0848 24.5678L72.6596 25.7195L73.0945 26.9685L73.3558 28.2623L73.4305 29.5898L73.4137 39.0448C73.4137 39.3589 73.1748 39.5963 72.8575 39.5963L66.4314 39.5851C66.1197 39.5851 65.8771 39.3421 65.879 39.0317L65.8939 30.5377L65.8622 29.7319L65.8099 29.1373L65.6737 28.6232L65.5038 28.223L65.0727 27.6472L64.5183 27.234L63.7942 26.9367L63.0793 26.8507L62.5063 26.9012L62.0117 27.0489L61.4686 27.3275L61.0337 27.6808L60.6474 28.152L60.3712 28.6736L60.2237 29.1467L60.164 29.7693L60.22 30.3564L60.388 30.8836L60.6306 31.3099L61.0655 31.8128L61.4369 32.1082V32.1045L61.9819 32.3924L62.5997 32.5607L63.1633 32.6093L64.0013 32.5177V32.514L65.138 32.1868C65.2966 32.1456 65.4739 32.1793 65.6158 32.2765C65.7595 32.3962 65.8342 32.5532 65.8342 32.7178L65.823 39.1887C65.823 39.4655 65.6307 39.6954 65.3694 39.7347L64.2794 39.916L63.2361 39.9777L63.2324 39.9665ZM61.8792 39.5159L63.2417 39.5926L64.2421 39.5328L65.306 39.3551C65.3881 39.3421 65.4441 39.271 65.4441 39.1775L65.4553 33.1141L65.4348 33.2338L65.0913 33.3329L65.082 38.6615L65.1716 38.6465L65.3414 38.955L65.0353 39.3009L64.7087 39.1757V39.1009L64.1432 39.1943L63.1839 39.2542L61.8699 39.1719L60.6194 38.9214L59.4044 38.5194L58.2509 37.9641L57.1572 37.2667L56.2221 36.4646L55.3934 35.5541L54.6935 34.5201L54.1336 33.4095L53.7305 32.2354L53.4972 31.007L53.4225 29.73L53.5046 28.4511L53.7622 27.2246L54.1728 26.0542L54.757 24.9174L55.4625 23.8947L56.2912 22.9562L57.2169 22.1428L58.2547 21.4511L59.3652 20.9182L60.5541 20.5218L61.7318 20.2881V20.2806L63.0737 20.2058L64.3858 20.2881L65.6345 20.5368L66.8234 20.9238L67.9488 21.481L68.9735 22.1615L69.9123 22.9636L70.7391 23.876L71.4148 24.8651H71.4166L71.4465 24.9118H71.4427L71.9989 26.0355L72.404 27.1929L72.6354 28.3951L72.7082 29.6328L72.6932 30.5975L72.6783 38.4913H72.8594L72.99 38.8111L72.6223 39.1738L72.305 39.041V38.8653L66.9876 38.8559V39.0317L66.6685 39.1644L66.3008 38.7998L66.4333 38.4801H66.6143L66.6293 30.5377L66.6013 29.7169L66.5247 28.9485L66.3773 28.3838C66.3698 28.3595 66.3661 28.3371 66.3624 28.3165L66.172 27.8828C66.1589 27.8622 66.1496 27.8491 66.1421 27.836L65.5822 27.1068L64.9084 26.6058C64.8972 26.5983 64.8879 26.5927 64.8804 26.5871C64.8748 26.5833 64.8692 26.5796 64.8599 26.574L64.0555 26.2412C64.0461 26.2393 64.0331 26.2412 64.0181 26.2412H63.9957L63.0924 26.1271L63.0681 26.1346L62.3533 26.1963L61.687 26.3945C61.6739 26.4001 61.6553 26.4076 61.631 26.4113L61.0953 26.688C61.0804 26.6993 61.0673 26.7067 61.058 26.7123C61.0524 26.7161 61.058 26.7123 61.0692 26.6993L61.0487 26.718L60.4832 27.1816L60.0576 27.7033C60.0483 27.7182 60.0408 27.7313 60.0315 27.7425L60.0147 27.7668L59.7011 28.3577C59.6974 28.367 59.6937 28.3782 59.6899 28.3876L59.4996 29.0289L59.4286 29.7599L59.4342 29.7824L59.5033 30.4947L59.7049 31.1435C59.7086 31.1547 59.7142 31.1659 59.7179 31.179L60.0184 31.7156C60.0259 31.7268 60.0352 31.7381 60.0427 31.7493L60.5074 32.2896C60.5074 32.2896 60.5167 32.299 60.5223 32.3046L61.0356 32.7065C61.0673 32.7234 61.0879 32.7402 61.1065 32.757L61.6534 33.0487C61.6851 33.0562 61.7075 33.0674 61.7225 33.0749L62.3682 33.2544H62.4074L63.1559 33.3198C63.1652 33.3198 63.1745 33.3179 63.182 33.3161L64.1917 33.2058L64.7162 33.0524V32.7065L64.8058 32.6617L64.1283 32.8561V32.8711L63.2007 32.9795L63.1241 32.9739L62.4653 32.9197V32.9066L61.8755 32.7458L61.8718 32.7533L61.7971 32.7234V32.7159L61.2894 32.4448L61.2782 32.4579L60.7407 32.0316L60.75 32.0204L60.3544 31.5623L60.345 31.5679L60.0501 31.05H60.0483L60.0165 30.9902L60.024 30.9864L59.8542 30.4517H59.8504L59.8318 30.3788L59.8411 30.3751L59.7795 29.8011L59.787 29.7225L59.8467 29.1149L59.8374 29.1111L60.0408 28.4642L60.052 28.468L60.3152 27.9706L60.3096 27.9669L60.3562 27.8921L60.3656 27.8977L60.7444 27.4359L60.7407 27.4303L60.7874 27.3873H60.7911L61.239 27.0265V27.0227L61.2988 26.9778L61.3044 26.9853L61.8139 26.7236L61.8102 26.7123L62.4 26.5366V26.531L62.4728 26.516V26.5235L63.126 26.4674V26.4749L63.8576 26.5628L63.964 26.5759V26.5964L64.6546 26.8825L64.6621 26.8731L64.7386 26.9199L64.7348 26.9274L65.2966 27.3462L65.306 27.3387L65.3844 27.4135L65.375 27.4247L65.8043 27.9987L65.8118 27.9949L65.8603 28.0753L65.851 28.081L66.0096 28.4549H66.0171L66.0339 28.5147L66.1683 29.0289H66.1776L66.2354 29.7076L66.2672 30.5284L66.2522 39.0298C66.2522 39.1457 66.3456 39.2074 66.4333 39.2074L72.8594 39.2187C72.9695 39.2187 73.0423 39.1495 73.0423 39.041L73.0591 29.5973L72.9844 28.2941L72.7324 27.0526L72.3125 25.8523L71.7638 24.7567C71.7488 24.7361 71.7395 24.7193 71.7339 24.7062L70.978 23.633L70.1213 22.6664L69.162 21.8381L68.0776 21.1519L66.9074 20.5873L65.6718 20.189L64.3765 19.9497L63.0196 19.873L61.6721 19.946L60.4104 20.2096L59.1767 20.6228L58.0158 21.1949L56.9314 21.9185L55.9814 22.7617L55.1489 23.7246L54.4098 24.8034L53.8219 25.9869L53.3964 27.1985L53.1556 28.4736L53.0772 29.7917L53.1519 31.1098L53.4038 32.3831L53.8182 33.5946L54.4229 34.7501L55.1583 35.8046L56.0131 36.7675L57.006 37.5995L58.1165 38.2913L59.3241 38.8615L60.5895 39.2766L61.8848 39.5178L61.8792 39.5159ZM61.9278 38.8073L63.1932 38.884L64.1096 38.826L64.7087 38.7251L64.7181 33.4432L64.3261 33.5573C64.2776 33.5834 64.2291 33.5853 64.1955 33.5853L63.2212 33.6881C63.1932 33.6937 63.1447 33.7012 63.0887 33.6881L62.3888 33.6283H62.3421L62.2936 33.6227L61.6198 33.4376C61.5862 33.4264 61.5713 33.4189 61.5563 33.4114C61.5563 33.4114 61.5657 33.417 61.5918 33.417L61.506 33.3946L60.8172 33.0113L60.2499 32.5607C60.2349 32.5458 60.22 32.5308 60.2051 32.5102L59.7683 32.0073C59.759 31.9961 59.7459 31.9774 59.7329 31.9605L59.7011 31.9157L59.3801 31.3417L59.3558 31.2501C59.3558 31.2725 59.3614 31.2893 59.3614 31.2912C59.3558 31.2744 59.3484 31.2557 59.3428 31.2332L59.1505 30.6219C59.1263 30.5639 59.1244 30.5134 59.1244 30.4835L59.0665 29.8459C59.0479 29.788 59.0479 29.7356 59.0665 29.6814L59.1281 29.0158V28.9728L59.1356 28.9167L59.3465 28.2436C59.3558 28.2174 59.367 28.1857 59.3913 28.1557L59.6881 27.5874C59.703 27.5631 59.7105 27.55 59.7198 27.5369C59.7254 27.5275 59.7329 27.5182 59.7385 27.507L59.7571 27.4789L60.2312 26.9031C60.2424 26.8918 60.2536 26.8806 60.2666 26.8694L60.8042 26.4319C60.8247 26.4132 60.8471 26.4001 60.862 26.3908C60.8676 26.387 60.862 26.3908 60.8508 26.4038L60.9031 26.3646L61.4854 26.0636L61.5713 26.043C61.5526 26.043 61.5395 26.0486 61.5377 26.0486C61.5507 26.043 61.5694 26.0355 61.5937 26.0299L62.2171 25.8448C62.2805 25.8186 62.3328 25.8186 62.3552 25.8186L62.9991 25.7625C63.0625 25.7382 63.1297 25.7401 63.1876 25.7644L64.0256 25.8635C64.0779 25.8635 64.1357 25.8654 64.2011 25.8953L65.0055 26.2262C65.0428 26.2431 65.0633 26.2561 65.0839 26.2692L65.1212 26.2935L65.9256 26.9199L66.4669 27.6472C66.4799 27.6659 66.5005 27.6939 66.5173 27.7388L66.717 28.1931L66.7319 28.2679L66.8943 28.9541L66.9689 29.6851L66.9988 30.5265L66.9857 38.4764L72.3032 38.4857L72.3181 30.5882L72.333 29.6347L72.2621 28.425L72.0381 27.2732L71.6499 26.1664L71.1049 25.0708L70.4368 24.0948L69.6417 23.2216L68.7364 22.4513L67.7491 21.7969L66.6666 21.2622L65.5262 20.8939L64.3205 20.6564L63.0569 20.5798L61.8214 20.6508L60.6343 20.8864L59.4902 21.2697L58.4245 21.782L57.4297 22.4457L56.5432 23.2273L55.7462 24.1322L55.0668 25.1175L54.5069 26.2113L54.1149 27.3331L53.8704 28.511L53.7939 29.7394L53.8667 30.9715L54.0925 32.1513L54.4808 33.2749L55.0183 34.3407L55.6902 35.3316L56.4853 36.2029L57.3849 36.9732L58.4376 37.6425L59.5518 38.1772L60.7221 38.5643L61.9259 38.8036L61.9278 38.8073ZM63.1633 33.3235L63.1839 33.3292C63.1839 33.3292 63.1689 33.3235 63.1633 33.3235ZM64.1805 33.2132C64.1675 33.217 64.1376 33.2282 64.1115 33.2562L64.1805 33.2132ZM65.0615 32.5906L65.4553 32.8786V32.7103C65.4553 32.6561 65.431 32.6075 65.3862 32.5682C65.3489 32.5439 65.2817 32.5289 65.2332 32.542L65.0615 32.5906ZM59.423 29.7842L59.4156 29.8085C59.4156 29.8085 59.4212 29.7936 59.423 29.7842ZM59.4193 29.7244L59.423 29.7394C59.423 29.7394 59.4212 29.7281 59.4193 29.7244ZM59.6881 28.3782H59.6899C59.6899 28.3782 59.6974 28.367 59.6993 28.3633L59.6881 28.3782ZM62.9953 26.0804C63.0196 26.1047 63.0495 26.1178 63.0775 26.1197L62.9953 26.0804ZM63.1465 26.1066L63.1073 26.1197C63.1223 26.1197 63.1372 26.114 63.1465 26.1066ZM71.7339 24.7118C71.7339 24.7118 71.7376 24.7174 71.7395 24.7193L71.7339 24.7118Z" fill="#171C61"/>
<path d="M74.9964 20.5945C74.9964 20.3963 75.1681 20.2337 75.3641 20.2337L81.7771 20.2449C81.9936 20.2449 82.1447 20.4094 82.1447 20.6076L82.1111 39.2839C82.1111 39.4933 81.96 39.6466 81.7435 39.6466L75.3305 39.6354C75.1326 39.6354 74.9628 39.4802 74.9628 39.2708L74.9964 20.5945ZM75.7 39.2727L75.3323 38.9081L81.7453 38.9193L81.3776 39.282L81.4112 20.6057L81.7789 20.9685L75.3659 20.9572L75.7336 20.5964L75.7 39.2727ZM78.5052 12.8316C78.5388 12.8185 78.5687 12.8185 78.6135 12.8316L79.5467 12.955C79.5784 12.955 79.6101 12.9699 79.64 12.9849L80.4724 13.3458C80.5004 13.3458 80.5303 13.3607 80.5452 13.3757L81.2638 13.9216C81.2974 13.9515 81.3123 13.9702 81.3291 13.9983L81.8741 14.6938C81.9096 14.7275 81.9245 14.7555 81.9394 14.7854L82.2605 15.6286C82.2754 15.6586 82.2754 15.6922 82.2754 15.7203L82.378 16.5971C82.3948 16.6289 82.3948 16.6401 82.378 16.6701L82.2717 17.5301C82.2717 17.575 82.2567 17.6086 82.2567 17.6367L81.9021 18.45C81.8872 18.4799 81.8666 18.4967 81.8517 18.5285L81.3011 19.2353C81.2694 19.2633 81.2526 19.2764 81.2246 19.3082L80.5172 19.8205C80.4874 19.8354 80.4724 19.8485 80.4426 19.8635L79.612 20.2131C79.5784 20.2131 79.5467 20.2262 79.5019 20.2262L78.6303 20.329C78.5967 20.344 78.5836 20.344 78.5519 20.329L77.6616 20.2225C77.6205 20.2225 77.5851 20.2094 77.5571 20.2094L76.7247 19.856C76.6985 19.841 76.6817 19.8279 76.6556 19.813L75.9333 19.282C75.8997 19.2521 75.8848 19.2353 75.8698 19.2053L75.3342 18.5266C75.3062 18.5154 75.2857 18.4836 75.2857 18.4519L74.9366 17.6666C74.9217 17.6367 74.9068 17.6068 74.9068 17.5768L74.7836 16.7467C74.7668 16.7168 74.7668 16.6869 74.7836 16.642L74.9086 15.7053C74.9086 15.6773 74.9086 15.6604 74.9236 15.6286L75.2633 14.7873C75.2745 14.7574 75.2894 14.7256 75.3099 14.6957L75.8437 13.9871C75.8605 13.974 75.8904 13.9403 75.9053 13.9235L76.6127 13.3532C76.6407 13.3233 76.6743 13.3102 76.706 13.2953L77.5198 12.9643C77.5478 12.9643 77.5814 12.9494 77.6112 12.9494L78.4996 12.8297L78.5052 12.8316ZM77.7232 13.6599L77.8165 13.6449L77.0046 13.9758L77.0998 13.9123L76.3906 14.4863L76.4522 14.4264L75.9128 15.135L75.9613 15.0416L75.6198 15.8848L75.6347 15.81L75.5115 16.7448V16.6401L75.6309 17.4703L75.6011 17.3787L75.9538 18.1658L75.9053 18.0891L76.4428 18.766L76.3812 18.6931L77.0998 19.224L77.0233 19.1754L77.8501 19.5251L77.7437 19.5082L78.634 19.6167H78.5538L79.4272 19.512L79.3209 19.5288L80.1495 19.1829L80.073 19.2315L80.7804 18.7192L80.702 18.794L81.2545 18.0873L81.2078 18.1621L81.5643 17.3487L81.5456 17.4553L81.6557 16.5971V16.6701L81.5475 15.7969L81.5661 15.8885L81.2451 15.0397L81.3086 15.1294L80.7561 14.4377L80.8177 14.5124L80.0991 13.9684L80.1738 13.9964L79.3451 13.6337L79.4366 13.6636L78.4996 13.5402H78.6097L77.7195 13.6599H77.7232Z" fill="#171C61"/>
<path d="M81.7434 39.8334L75.3303 39.8222C75.1848 39.8222 75.0485 39.7661 74.944 39.667C74.8358 39.5623 74.7779 39.4221 74.7779 39.2706L74.8115 20.5963C74.8115 20.299 75.0653 20.0484 75.3658 20.0484H76.704L76.6368 20.0204C76.62 20.011 76.6051 20.0017 76.592 19.9923C76.5846 19.9867 76.5771 19.983 76.5678 19.9774L76.5491 19.9643L75.8119 19.4221C75.7764 19.3903 75.7466 19.3604 75.7186 19.3099L75.2146 18.6686C75.1624 18.6293 75.125 18.5695 75.112 18.5041L74.7742 17.745C74.7592 17.7151 74.7331 17.6627 74.7294 17.5973L74.6118 16.8027C74.5801 16.7185 74.5969 16.6419 74.6118 16.6007L74.7331 15.6939C74.7331 15.6509 74.7387 15.6079 74.7667 15.55L75.1027 14.718C75.1232 14.6694 75.1437 14.6282 75.168 14.5927L75.7391 13.843C75.7484 13.8336 75.7652 13.8149 75.7764 13.8018L75.8007 13.7775L76.5006 13.2129C76.5473 13.168 76.5958 13.1456 76.6294 13.1287L76.648 13.1213L77.4618 12.7903L77.5327 12.7772C77.5514 12.7716 77.5775 12.7641 77.6074 12.7623L78.4697 12.6464C78.5443 12.6239 78.6078 12.6333 78.6582 12.6464L79.5708 12.766C79.6362 12.7698 79.6884 12.7941 79.7276 12.8128L80.5302 13.1605C80.5824 13.1699 80.6347 13.1942 80.6739 13.2297L81.385 13.77C81.441 13.8186 81.4671 13.8504 81.4951 13.8953L82.0233 14.5665C82.0718 14.617 82.0961 14.6619 82.1166 14.7011L82.4451 15.5593C82.4713 15.6079 82.4731 15.6696 82.4731 15.707L82.572 16.5446C82.5944 16.6045 82.5944 16.6606 82.572 16.7204L82.4713 17.5412C82.4713 17.5805 82.4638 17.6122 82.4582 17.6328L82.4414 17.7076L82.0868 18.5209C82.07 18.5546 82.0569 18.5751 82.042 18.5957L82.014 18.6406L81.4223 19.3884C81.4074 19.4034 81.3962 19.4127 81.3794 19.4314L81.3495 19.4576L80.616 19.9867C80.616 19.9867 80.6011 19.9942 80.5955 19.9998C80.5787 20.0092 80.5619 20.0204 80.5414 20.0316L80.4817 20.0559H81.7919C82.1017 20.0596 82.3462 20.3008 82.3443 20.6075L82.3107 39.2837C82.3107 39.596 82.0718 39.8334 81.7564 39.8334H81.7434ZM75.1829 20.5963L75.1493 39.2725C75.1493 39.3342 75.1773 39.3753 75.2016 39.3978C75.2352 39.4314 75.2818 39.4501 75.3303 39.4501L81.7434 39.4614C81.8553 39.4614 81.9244 39.394 81.9244 39.2856L81.958 20.6093C81.958 20.5252 81.902 20.4355 81.777 20.4355L79.3898 20.4317L78.6787 20.5159C78.6208 20.5364 78.5667 20.5364 78.507 20.5159L77.7772 20.4298L75.3621 20.4261C75.265 20.4261 75.181 20.5084 75.181 20.6L75.1829 20.5963ZM77.8015 20.0522H79.3693L79.5037 20.041C79.5167 20.041 79.5261 20.0391 79.5354 20.0372C79.5466 20.0353 79.5578 20.0335 79.569 20.0316L80.3715 19.6932C80.3715 19.6932 80.3771 19.6895 80.3827 19.6857C80.3939 19.6782 80.407 19.6708 80.4201 19.6633L81.1013 19.1697C81.1218 19.1472 81.1386 19.1323 81.161 19.1136L81.1648 19.1099L81.6948 18.4293C81.706 18.4106 81.7172 18.3956 81.7284 18.3807L82.0737 17.5917C82.0737 17.5805 82.0774 17.5692 82.0793 17.5599C82.0812 17.5487 82.083 17.5393 82.083 17.5337V17.5113L82.195 16.6363L82.1913 16.6213L82.0868 15.7201C82.0868 15.7201 82.0868 15.707 82.0868 15.6995L81.7639 14.8545C81.7639 14.8545 81.7564 14.8432 81.7452 14.832L81.7266 14.8115L81.1816 14.1159C81.1629 14.0879 81.1592 14.0823 81.1386 14.0636L80.4313 13.527L80.3977 13.5195L79.5652 13.1586C79.5484 13.1512 79.5391 13.1456 79.5279 13.1418L78.5611 13.0128C78.5611 13.0128 78.5648 13.0091 78.5704 13.0072L78.5275 13.0184L77.6148 13.14C77.6018 13.1437 77.5868 13.1474 77.57 13.1512L76.7806 13.4709C76.7694 13.4765 76.7563 13.4821 76.7507 13.4858L76.7339 13.5008L76.0377 14.0617C76.0228 14.0785 76.0041 14.0991 75.9873 14.1141L75.4629 14.8096C75.4629 14.8096 75.4498 14.8339 75.4405 14.8582L75.097 15.7313L74.9645 16.6998L74.972 16.7204L75.0952 17.5618C75.0952 17.5618 75.1026 17.5767 75.1064 17.5842L75.4647 18.3975L75.4834 18.4125L76.0396 19.1229C76.0396 19.1229 76.0489 19.1323 76.0545 19.1379L76.7619 19.6558C76.775 19.6633 76.7862 19.6708 76.7974 19.6782L76.8142 19.6895L77.6074 20.026C77.6167 20.026 77.6279 20.0297 77.6391 20.0316C77.6466 20.0316 77.6559 20.0353 77.6671 20.0353L77.8052 20.0503L77.8015 20.0522ZM75.4685 18.4087L75.4778 18.4517C75.4778 18.4368 75.4741 18.4218 75.4685 18.4087ZM75.4087 18.3545L75.4554 18.39C75.4442 18.3751 75.4274 18.362 75.4087 18.3545ZM75.097 17.5655V17.5786C75.097 17.5786 75.097 17.5692 75.097 17.5655ZM74.9515 16.6568L74.9627 16.6886C74.9627 16.6793 74.9571 16.668 74.9515 16.6568ZM82.2081 16.6624C82.2081 16.6624 82.2118 16.6793 82.2156 16.6867L82.2081 16.6624ZM82.2174 16.5783C82.2174 16.5783 82.21 16.5951 82.2081 16.6045L82.2174 16.5783ZM80.4387 13.527C80.4387 13.527 80.4593 13.5345 80.4742 13.5345L80.4387 13.527ZM80.4145 13.5083C80.4145 13.5083 80.4219 13.5158 80.4275 13.5195L80.4145 13.5083ZM81.5082 39.4146L81.1909 39.2819V39.1061L75.8865 39.0968V39.2725L75.5674 39.4053L75.1997 39.0407L75.3322 38.721H75.5133L75.545 21.1441H75.3639L75.2333 20.8225L75.601 20.4616L75.9183 20.5963V20.7701L81.2226 20.7795V20.6056L81.5399 20.4729L81.9076 20.8356L81.777 21.1553H81.5959L81.5642 38.7322H81.7452L81.8759 39.0519L81.5082 39.4146ZM75.8865 38.7228L81.1909 38.7322L81.2226 21.1553L75.9183 21.1459L75.8865 38.7228ZM78.6358 19.8072L78.5555 19.7998L77.822 19.7119V19.7156L77.7156 19.6988L77.7194 19.6782L77.0083 19.3772L77.0008 19.3884L76.9243 19.3398V19.3342L76.3121 18.8799L76.2972 18.8911L76.2356 18.8182L75.7988 18.2666L75.7914 18.2704L75.7428 18.1937L75.7522 18.1881L75.4573 17.5318H75.4479L75.4181 17.4421L75.4311 17.4365L75.3322 16.7503H75.3191V16.6456H75.3303L75.433 15.8547H75.4293L75.4442 15.7781H75.4554L75.7466 15.0582L75.7391 15.0526L75.7876 14.9592L75.8026 14.9666L76.2617 14.3627L76.2542 14.3552L76.3158 14.2954L76.3214 14.2992L76.9019 13.8299L76.8963 13.8205L76.9915 13.7569L77.0027 13.7719L77.6914 13.4896V13.4728L77.781 13.4578L78.4977 13.3643V13.3512H78.6078V13.3643L79.3935 13.4671L79.3991 13.4541L79.4925 13.484V13.4933L80.2465 13.8243L80.239 13.8411L80.8848 14.3291L80.8979 14.3179L80.9595 14.3926L81.3906 14.9348L81.3962 14.9311L81.4597 15.0209L81.4429 15.0339L81.7191 15.7612H81.7322L81.7508 15.8491H81.7452L81.8441 16.5951L81.8367 16.668L81.7452 17.3767H81.749L81.7303 17.4832L81.7098 17.4795L81.4055 18.1769L81.4149 18.1825L81.3682 18.2573L81.3607 18.2535L80.9016 18.8406L80.9109 18.8518L80.8325 18.9266L80.8232 18.9173L80.2465 19.3342V19.3398L80.1718 19.3884L80.1644 19.3791L79.4514 19.6764L79.4551 19.6969L79.3487 19.7138V19.71L78.632 19.8035L78.6358 19.8072ZM77.8855 19.3417L78.5947 19.4277L79.2872 19.3454L80.0337 19.0332L80.6067 18.6181L81.064 18.0329L81.3775 17.315L81.4653 16.6344L81.3757 15.909L81.0901 15.1573L80.6832 14.6469L79.9908 14.1253L79.3506 13.8448L78.5555 13.7401L77.85 13.8336L77.1277 14.129L76.5585 14.589L76.09 15.2041L75.8007 15.9202L75.6999 16.6942L75.7988 17.386L76.09 18.0367L76.5118 18.5695L77.1352 19.0295L77.8799 19.3436L77.8855 19.3417Z" fill="#171C61"/>
<path d="M83.9421 14.8452C83.9421 14.6489 84.1101 14.4844 84.3079 14.4844L90.706 14.4956C90.9207 14.4956 91.0718 14.662 91.0718 14.8583L91.0625 20.3645L90.6967 19.9999L94.2242 20.0055C94.4389 20.0055 94.5938 20.1757 94.5938 20.3701L94.5826 26.6747C94.5826 26.8841 94.4258 27.0374 94.2112 27.0374L90.6836 27.0318L91.0494 26.6691L91.0438 29.655V30.5132L91.0868 31.1489L91.195 31.678L91.1782 31.6013L91.3761 32.0687L91.3294 32.007L91.5926 32.3847L91.4825 32.2819L92.2663 32.7643L92.1264 32.7194L93.2761 32.8858L93.2126 32.8708H93.3227L93.2742 32.8858L93.4777 32.8577L94.1626 32.7811C94.2709 32.768 94.3642 32.7998 94.4389 32.8727C94.5322 32.9344 94.5658 33.041 94.5658 33.1307L94.5546 39.3605C94.5546 39.5587 94.4146 39.7083 94.2298 39.7214L93.5075 39.7943L92.9401 39.8092L91.5291 39.7027C91.4974 39.7027 91.4806 39.7027 91.4657 39.7027L90.1629 39.411C90.1498 39.411 90.1293 39.3979 90.1162 39.3979L88.8881 38.9286C88.8751 38.9137 88.8396 38.9137 88.8247 38.9006L87.6955 38.2312L86.6372 37.4011C86.6242 37.3861 86.6036 37.3712 86.5906 37.3543L85.7022 36.3597C85.7022 36.3428 85.6872 36.3298 85.6723 36.3111L85.0769 35.3912L84.601 34.4545C84.5879 34.4395 84.5879 34.4227 84.5879 34.4096L84.28 33.4579L84.0709 32.28L83.9515 30.8441L83.9104 29.124V28.5556L83.9347 14.8396L83.9421 14.8452ZM84.6532 28.5631V29.1184L84.6794 30.7749L84.8025 32.151L84.9817 33.2336L85.2897 34.189L85.2785 34.1422L85.7171 35.0191L86.3125 35.939L86.2658 35.896L87.1561 36.8907L87.1076 36.8458L88.0893 37.6161L89.2204 38.2798L89.1606 38.2499L90.385 38.7229L90.3421 38.7042L91.643 38.9959H91.587L92.9327 39.0894H93.4422L94.1589 39.0127L93.8229 39.3605L93.8341 33.1307L94.2485 33.4953L93.5896 33.5664L93.3881 33.5981H93.2182C93.207 33.5981 93.1921 33.5981 93.1753 33.5981L92.0256 33.4317C91.9752 33.4317 91.9304 33.4149 91.8856 33.3831L91.1073 32.9008C91.0606 32.869 91.014 32.8391 91.0009 32.7961L90.7396 32.4165C90.7284 32.4015 90.706 32.3716 90.6911 32.3604L90.4951 31.8911C90.4951 31.8593 90.4783 31.8444 90.4783 31.8145L90.3701 31.1937L90.3122 30.5132V29.655L90.3197 26.6691C90.3197 26.4728 90.4895 26.3101 90.6892 26.3101L94.2168 26.3157L93.8472 26.6747L93.8584 20.3701L94.2279 20.7347L90.7004 20.7291C90.5007 20.7291 90.3309 20.5777 90.3327 20.3645L90.3421 14.8564L90.7098 15.221L84.3117 15.2098L84.6794 14.8471L84.6551 28.5631H84.6532Z" fill="#171C61"/>
<path d="M92.9531 40.0002H92.9344L91.5234 39.8936H91.4749L91.4338 39.8899L90.1423 39.6001C90.1143 39.5964 90.0937 39.587 90.0807 39.5814C90.0807 39.5814 90.0993 39.5889 90.1273 39.5889L90.0601 39.5758L88.832 39.1065L88.7592 39.056C88.7854 39.0859 88.8152 39.0972 88.819 39.0972C88.7966 39.0916 88.7648 39.0822 88.7331 39.0598L87.5909 38.3811L86.5065 37.5266C86.4841 37.5061 86.4691 37.4911 86.4561 37.4743L85.5733 36.4871L85.5266 36.3618C85.5266 36.4123 85.549 36.4441 85.5546 36.4497L85.5266 36.4142L84.92 35.4775L84.4497 34.5557C84.4236 34.5164 84.4142 34.4753 84.4105 34.4473L84.1044 33.4956L83.8954 32.3177L83.7722 30.8631L83.7292 29.1318L83.7535 14.8418C83.7535 14.5445 84.0073 14.2939 84.306 14.2939L90.704 14.3052C90.8571 14.3052 90.9971 14.3631 91.1016 14.4697C91.2024 14.5725 91.2565 14.709 91.2565 14.8549L91.2472 19.8095L94.2222 19.8151C94.3753 19.8151 94.5171 19.8749 94.6217 19.9797C94.7243 20.0844 94.7803 20.2208 94.7784 20.3667L94.7672 26.6712C94.7672 26.8227 94.7094 26.9629 94.6067 27.0639C94.5041 27.1648 94.3641 27.2191 94.211 27.2191L91.236 27.2135L91.2304 30.5097L91.2752 31.1192L91.3629 31.5455L91.5495 31.9868L91.6858 32.1812L92.283 32.5495L93.2181 32.6841V32.6804L93.3301 32.686L93.4589 32.6692L94.1476 32.5925C94.3062 32.5738 94.4481 32.6187 94.5638 32.7253C94.687 32.815 94.7598 32.9627 94.7598 33.1273L94.7486 39.3589C94.7486 39.6506 94.5339 39.8862 94.2502 39.9049L93.5335 39.9778L92.9512 39.9946L92.9531 40.0002ZM91.4954 39.5197H91.5365L92.9512 39.6263L93.5093 39.6113L94.2166 39.5384C94.3137 39.5309 94.3734 39.4617 94.3734 39.3645L94.3846 33.1329C94.3846 33.1217 94.3828 33.06 94.3417 33.0319L94.3137 33.0095C94.2801 32.9758 94.2428 32.9627 94.1905 32.9702L93.9591 32.9964L94.3697 33.3554L94.267 33.6826L94.0169 33.7106L94.0076 38.8448L94.1364 38.8317L94.2894 39.1476L93.9535 39.4954L93.6325 39.3645V39.2617L93.4383 39.2804H92.9288L91.5701 39.185V39.1738L90.3177 38.8934V38.899L89.1363 38.4428V38.4484L89.0747 38.4185V38.4147L87.9716 37.7641L87.0291 37.0237L87.0253 37.0274L86.9768 36.9826L86.9805 36.9788L86.1239 36.0215L86.1332 36.0122L85.5453 35.1035L85.116 34.2453H85.1085L84.7931 33.2656L84.6139 32.1831L84.4889 30.792L84.4609 29.1224L84.4851 15.3989H84.3041L84.1735 15.0792L84.5411 14.7165L84.8584 14.8492V15.025L90.146 15.0343V14.8586L90.4633 14.7258L90.831 15.0904L90.7003 15.4101H90.5174L90.5081 20.3667C90.5081 20.4826 90.5995 20.5424 90.691 20.5424L93.6623 20.548V20.3723L93.9796 20.2395L94.3492 20.6041L94.2185 20.9238H94.0356L94.0263 26.1309H94.2092L94.338 26.4525L93.9684 26.8115L93.6511 26.6769V26.5048L90.6798 26.4992C90.6313 26.4992 90.5865 26.5179 90.551 26.5516C90.5174 26.5852 90.4969 26.6264 90.4969 26.6712L90.4894 30.5172L90.5473 31.1809L90.6537 31.7942C90.6593 31.8073 90.6649 31.826 90.6686 31.8465L90.8403 32.2579C90.8496 32.2691 90.8608 32.2822 90.8702 32.2953L90.8832 32.314L91.1557 32.7178C91.1669 32.7272 91.18 32.7365 91.1949 32.7458L91.9732 33.2282C92.0031 33.2488 92.0124 33.2488 92.0161 33.2488H92.0423L93.192 33.4152H93.3637L93.6362 33.3778V33.1366L93.9311 33.0039L93.2965 33.0805V33.0674H93.248V33.0805L92.2158 32.9309L92.2065 32.9515L92.0665 32.9066L92.074 32.8767L91.4842 32.514L91.4637 32.5327L91.3536 32.4299L91.3704 32.4074L91.1744 32.1251L91.1856 32.1158L91.0195 31.725H91.0083L90.9915 31.6502L90.8944 31.1716L90.8496 30.5359L90.8552 27.2265H90.676L90.5454 26.9068L90.9112 26.5441L91.2285 26.6769V26.8526L94.2036 26.8582C94.2596 26.8582 94.3062 26.8414 94.338 26.8096C94.3697 26.7778 94.3865 26.7348 94.3865 26.6843L94.3977 20.3798C94.3977 20.333 94.379 20.2882 94.3473 20.2545C94.323 20.2302 94.2801 20.2003 94.2148 20.2003L91.2397 20.1947V20.3723L90.9206 20.505L90.5547 20.1404L90.6873 19.8207H90.8664L90.8758 14.8661C90.8758 14.8193 90.859 14.7745 90.8272 14.7427C90.7936 14.709 90.7488 14.6903 90.6966 14.6903L84.2985 14.6791C84.2033 14.6791 84.1193 14.7595 84.1193 14.853L84.0951 29.1374L84.1361 30.8519L84.2556 32.2766L84.4609 33.4245L84.767 34.3818L85.2373 35.3073L85.8215 36.2085C85.8346 36.2235 85.8514 36.244 85.8644 36.2702L86.7286 37.2387C86.7435 37.2537 86.7528 37.263 86.7622 37.2705L87.7999 38.0838L88.9123 38.7419C88.9291 38.7475 88.9515 38.755 88.9757 38.7681L90.1665 39.2243C90.1815 39.228 90.1945 39.2318 90.2038 39.2355L91.4861 39.5234L91.4954 39.5197ZM90.1908 39.2299H90.2076C90.2076 39.2299 90.1983 39.2299 90.1908 39.2299ZM91.6839 38.8167L92.9456 38.9046H93.4327L93.6362 38.884L93.6455 33.7517L93.3282 33.7873H93.1472L92.0087 33.6209C91.9265 33.6171 91.85 33.5909 91.7754 33.5386L91.0064 33.0618C90.9411 33.017 90.8702 32.9683 90.8328 32.8861L90.5846 32.5234C90.5846 32.5234 90.5715 32.5065 90.5659 32.4991L90.5193 32.4336L90.3233 31.9643L90.3084 31.8914C90.3084 31.9064 90.3121 31.9176 90.3121 31.9194C90.3046 31.9008 90.2953 31.8727 90.2916 31.8353L90.1852 31.2258L90.1255 30.5303L90.1311 26.6675C90.1311 26.5217 90.1908 26.3852 90.2972 26.2805C90.4036 26.1777 90.5398 26.1216 90.6854 26.1216L93.6567 26.1272L93.666 20.9201L90.6947 20.9145C90.383 20.9145 90.1385 20.6714 90.1404 20.3629L90.1497 15.4064L84.8622 15.3971L84.8379 29.1187L84.864 30.7715L84.9872 32.1345L85.1608 33.1908L85.4408 34.0602L85.8756 34.9259L86.4654 35.8364H86.4636L87.2605 36.7283L88.1937 37.4612L89.2669 38.0913L90.3849 38.5232L91.6839 38.813V38.8167ZM88.9347 38.7457L88.9571 38.7625C88.9571 38.7625 88.9403 38.7494 88.9347 38.7457ZM84.78 34.3912L84.7838 34.4136C84.7838 34.4136 84.7838 34.3986 84.78 34.3912ZM84.7502 34.3351L84.7688 34.3631C84.7632 34.3538 84.7576 34.3444 84.7502 34.3351ZM91.1651 32.7178L91.1781 32.744C91.1744 32.7309 91.1688 32.7215 91.1651 32.7178ZM90.6611 31.796V31.8147C90.6611 31.8147 90.6611 31.8017 90.6611 31.796Z" fill="#171C61"/>
<path d="M105.895 13.819C105.9 13.9705 105.822 14.1948 105.658 14.4715C105.331 14.3706 104.999 14.3257 104.674 14.3351C103.995 14.3575 103.427 14.5875 102.978 15.025C102.435 15.526 102.188 16.2216 102.22 17.1078C102.239 17.6631 102.556 18.3717 103.177 19.2224C104.116 20.4901 104.7 21.3482 104.921 21.7914C105.557 23.001 105.899 24.2949 105.949 25.6971C105.977 26.5123 105.893 27.3854 105.693 28.3128C105.46 29.3355 105.152 30.0853 104.769 30.5602C103.948 31.6259 102.972 32.5327 101.85 33.2712C100.641 34.0546 99.5099 34.4641 98.4684 34.5033C98.2388 34.5108 97.6845 33.6582 96.8166 31.9381C95.9506 30.2236 95.512 29.1729 95.4933 28.7858C95.4896 28.64 95.5512 28.5484 95.68 28.5129C96.4769 28.2773 97.2888 28.0361 98.1082 27.8005C99.1067 27.3125 99.5938 26.5516 99.5565 25.5289C99.5322 24.8184 99.2056 24.0051 98.5822 23.1001C97.4736 21.5109 96.8857 20.6639 96.8371 20.5686C96.2026 19.4393 95.8666 18.224 95.8199 16.9414C95.7322 14.5239 96.5422 12.4429 98.2426 10.6985C99.7693 9.14482 101.43 8.33525 103.222 8.27542C103.405 8.26981 103.896 9.12238 104.685 10.8219C105.479 12.5233 105.878 13.5274 105.889 13.8153" fill="#E1881D"/>
<path fill-rule="evenodd" clip-rule="evenodd" d="M34.7731 12.9268H41.285V24.0215H43.4109L44.7323 22.4135L45.4658 20.1662L49.1296 20.0185L51.6287 19.9829L50.9941 23.296L49.3405 25.5322L47.7932 26.3604L49.6223 27.7702L51.8751 31.1898L52.0486 34.961V38.6891H45.7495L45.7364 33.1343L44.4505 31.1188L42.375 29.7333L41.145 29.5688L41.2496 38.6891H34.5659L34.7731 12.9268Z" fill="white"/>
<path d="M52.0488 38.7303H45.7496C45.7272 38.7303 45.7086 38.7116 45.7086 38.6892L45.6955 33.1474L44.4226 31.1487L42.3621 29.7726L41.1881 29.6156L41.2926 38.6873C41.2926 38.6985 41.2889 38.7097 41.2814 38.7172C41.2739 38.7247 41.2628 38.7303 41.2516 38.7303H34.5679C34.5567 38.7303 34.5455 38.7265 34.5381 38.7172C34.5306 38.7097 34.5269 38.6985 34.5269 38.6873L34.7359 12.9249C34.7359 12.9025 34.7546 12.8838 34.777 12.8838H41.287C41.3094 12.8838 41.3281 12.9025 41.3281 12.9249V23.9804H43.3942L44.6988 22.393L45.4305 20.1512C45.4361 20.1344 45.451 20.1232 45.4678 20.1232L49.1316 19.9755L51.6307 19.94C51.6475 19.94 51.655 19.9456 51.6624 19.9549C51.6699 19.9643 51.6736 19.9774 51.6718 19.9886L51.039 23.3017C51.039 23.3017 51.0353 23.3129 51.0316 23.3185L49.3779 25.5546C49.3779 25.5546 49.3705 25.564 49.3649 25.5659L47.8736 26.3642L49.6523 27.7347C49.6523 27.7347 49.6598 27.7403 49.6616 27.744L51.9125 31.1618C51.9125 31.1618 51.92 31.1749 51.92 31.1824L52.0936 34.9535V38.6835C52.0936 38.706 52.0749 38.7247 52.0525 38.7247L52.0488 38.7303ZM45.7907 38.648H52.0058V34.961L51.8323 31.2029L49.5907 27.8001L47.7672 26.3941C47.756 26.3848 47.7504 26.3717 47.7504 26.3586C47.7504 26.3455 47.7597 26.3324 47.7728 26.3249L49.3126 25.5004L50.955 23.2792L51.5766 20.026L49.1297 20.0615L45.4958 20.2073L44.7716 22.4285C44.7716 22.4285 44.7679 22.4379 44.7641 22.4416L43.4427 24.0495C43.4353 24.0589 43.4241 24.0645 43.411 24.0645H41.2851C41.2627 24.0645 41.2441 24.0458 41.2441 24.0234V12.9679H34.8161L34.609 38.648H41.2105L41.106 29.5688C41.106 29.5576 41.1116 29.5445 41.1209 29.5371C41.1302 29.5296 41.1414 29.5258 41.1545 29.5277L42.3863 29.6922C42.3863 29.6922 42.3994 29.696 42.4031 29.6997L44.4786 31.0852C44.4786 31.0852 44.4879 31.0926 44.4898 31.0982L45.7739 33.1138C45.7739 33.1138 45.7813 33.1287 45.7813 33.1362L45.7944 38.6499L45.7907 38.648Z" fill="white"/>
<path d="M34.4485 12.9251C34.4485 12.7269 34.6202 12.5586 34.8199 12.5586L41.231 12.5698C41.4457 12.5698 41.5987 12.74 41.5987 12.9363L41.5782 24.3656L41.1806 24.0216L42.1344 23.9319H42.069L42.8847 23.7075L42.8231 23.7374L43.5118 23.3897L43.4353 23.4345L44.0026 22.9522L43.9411 23.0307L44.389 22.4118L44.3442 22.4735L44.6671 21.735L44.6522 21.7967L44.8519 20.9198V20.9796L44.9172 19.97C44.9172 19.7737 45.0852 19.6241 45.2662 19.6241L51.696 19.6353C51.8024 19.6353 51.9088 19.6821 51.9704 19.7569C52.0488 19.8298 52.0805 19.9345 52.0637 20.0429L51.9685 21.0507L51.7688 22.0155L51.4459 22.9391L51.0148 23.7823L50.4604 24.5676L49.7829 25.3024L48.9822 25.9829L48.0621 26.5962L48.077 26.011L49.4302 26.9776C49.4432 26.9907 49.4582 27.0075 49.4582 27.0075L50.5482 28.0826C50.5743 28.1125 50.5911 28.1274 50.606 28.1443L51.4179 29.3652C51.4179 29.3951 51.4328 29.41 51.4496 29.4418L51.9834 30.831C51.9834 30.8441 51.9965 30.8591 51.9965 30.8927L52.3175 32.4894L52.4202 34.3741V35.2192L52.4127 38.6893C52.4127 38.8987 52.2597 39.0501 52.0469 39.0501L45.6358 39.0389C45.4342 39.0389 45.2643 38.8856 45.2662 38.6762L45.2699 36.0175V35.264L45.2718 34.4507L45.227 33.5439L45.059 32.7287L45.074 32.7886L44.7847 32.0332L44.8145 32.0949L44.4002 31.4125L44.4487 31.4779L43.7301 30.6889L43.7899 30.7375L43.0265 30.2065L43.118 30.2533L42.196 29.9373L42.2762 29.9504L41.1713 29.8401L41.5707 29.4792L41.5539 38.6687C41.5539 38.8781 41.4009 39.0296 41.1862 39.0296L34.7751 39.0183C34.5754 39.0183 34.4037 38.865 34.4055 38.6556L34.4503 12.9232L34.4485 12.9251ZM35.1409 38.6594L34.7732 38.2966L41.1844 38.3079L40.8148 38.6706L40.8316 29.483C40.8316 29.3913 40.8783 29.2885 40.9567 29.2268C41.035 29.1502 41.1396 29.1202 41.2478 29.1371L42.3509 29.2418C42.3807 29.2418 42.4125 29.2418 42.4255 29.2567L43.3475 29.5783C43.3774 29.5914 43.4073 29.6045 43.4409 29.6232L44.2042 30.1504C44.2397 30.1673 44.2546 30.1804 44.2714 30.1953L44.9862 30.9843C45.0049 31.0124 45.018 31.0292 45.0348 31.0441L45.4473 31.7247C45.4622 31.7378 45.4622 31.7677 45.4771 31.7827L45.7683 32.538C45.7683 32.553 45.7851 32.581 45.7851 32.5979L45.9512 33.5028L46.0128 34.4563V35.2696L46.009 36.0231L46.0053 38.6818L45.6376 38.3172L52.0488 38.3284L51.6773 38.6912L51.6829 35.221L51.7035 34.4227L51.5952 32.624L51.2779 31.0255L51.291 31.0853L50.7591 29.698L50.7871 29.7709L49.9789 28.5481L50.0256 28.593L48.9393 27.5198L48.9822 27.5647L47.6384 26.598C47.547 26.5233 47.4835 26.4186 47.4835 26.297C47.4966 26.1755 47.5488 26.0708 47.6552 26.0128L48.5138 25.422L49.251 24.805L49.8669 24.1581L50.3559 23.4663L50.7553 22.7147L51.0502 21.8864L51.2499 20.9815L51.3451 19.9663L51.6979 20.3627L45.2681 20.3514L45.6395 20.0186L45.576 21.0301C45.576 21.0451 45.576 21.06 45.576 21.0937L45.3726 21.9668C45.3726 21.9818 45.3595 22.0098 45.3595 22.0248L45.0348 22.7633C45.0217 22.7783 45.003 22.8119 44.9881 22.8269L44.5439 23.4439C44.5271 23.4757 44.514 23.4869 44.4823 23.5205L43.9131 24.0048C43.8981 24.016 43.8664 24.0328 43.8347 24.0478L43.146 24.3918C43.1292 24.4086 43.1142 24.4086 43.0825 24.4236L42.2687 24.6498C42.2519 24.6498 42.224 24.6498 42.2053 24.6498L41.2571 24.7396C41.1489 24.7545 41.0444 24.719 40.966 24.648C40.8876 24.5881 40.8428 24.4778 40.8428 24.3731L40.8633 12.9437L41.231 13.3009L34.8199 13.2896L35.1876 12.9344L35.1428 38.6668L35.1409 38.6594Z" fill="#171C61"/>
<path d="M52.0469 39.2391L45.6358 39.2279C45.3241 39.2279 45.0796 38.9848 45.0796 38.6782L45.0871 34.4546L45.0441 33.5721L44.8911 32.8317L44.6317 32.1567L44.2733 31.5659L43.6238 30.8536L42.9855 30.4104L42.1773 30.1337L41.7536 30.0926L41.7387 38.6745C41.7387 38.9867 41.4998 39.2223 41.1844 39.2223L34.7732 39.2111C34.4597 39.2111 34.2152 38.968 34.2171 38.6614L34.2618 12.9289C34.2618 12.7849 34.3234 12.6429 34.428 12.5381C34.5343 12.4334 34.6743 12.3811 34.8199 12.3755L41.231 12.3867C41.5409 12.3867 41.7854 12.6298 41.7835 12.9401L41.7648 23.7824L42.0187 23.7581V23.7544L42.81 23.5356L43.3476 23.2645L43.8496 22.8382L44.1781 22.3858L44.4842 21.6846L44.669 20.8807L44.7287 19.9608C44.7287 19.8318 44.7847 19.699 44.8855 19.5981C44.9863 19.4971 45.13 19.4429 45.2662 19.4392L51.696 19.4504C51.8547 19.4504 52.0096 19.5195 52.1066 19.6317C52.2242 19.7476 52.2746 19.9084 52.2466 20.0786L52.1514 21.0938L51.9443 22.0829L51.612 23.0289L51.1678 23.8946L50.5986 24.6986L49.9061 25.4502L49.0887 26.1438L48.8255 26.3196L49.5646 26.8506C49.5814 26.8674 49.6001 26.888 49.6001 26.888L50.6826 27.9537C50.705 27.9799 50.7162 27.9911 50.7255 28.0004L50.7647 28.0453L51.5766 29.2662L51.6083 29.369C51.6083 29.3485 51.6009 29.3298 51.5971 29.3223L51.627 29.3784L52.1645 30.7844C52.1701 30.7993 52.1813 30.8311 52.185 30.8723L52.5079 32.4821L52.6106 34.3667L52.6031 38.6931C52.6031 39.0054 52.3642 39.241 52.0507 39.241L52.0469 39.2391ZM45.255 32.7476L45.4155 33.5384L45.4603 34.4452L45.4529 38.6782C45.4529 38.7922 45.5481 38.8521 45.6377 38.8539L52.0488 38.8652C52.157 38.8652 52.228 38.796 52.228 38.6913L52.2354 34.3742L52.1346 32.512L51.8136 30.9097C51.8136 30.9097 51.808 30.8928 51.8043 30.8816L51.2817 29.5205C51.2686 29.4962 51.2518 29.47 51.2425 29.4363L50.4549 28.2566C50.4418 28.2435 50.4269 28.2285 50.4082 28.2061L49.307 27.1198L48.4914 26.5365L48.1704 26.7515L49.0625 27.3928L49.07 27.3872L50.1562 28.4604L50.1488 28.4678L50.9215 29.6364L50.9327 29.6327L51.4534 30.9882H51.4609L51.4739 31.0461L51.7819 32.6148L51.8901 34.4134L51.8715 35.2268L51.8659 38.1435H52.0507L52.1813 38.465L51.8099 38.8278L51.4926 38.6931V38.5174L46.1938 38.5081V38.6838L45.8747 38.8165L45.507 38.452L45.6395 38.1322H45.8206L45.828 34.4583L45.7683 33.5272L45.6041 32.6335C45.5985 32.6204 45.5947 32.6073 45.591 32.5905L45.3129 31.8725C45.3017 31.8538 45.2942 31.837 45.2905 31.8239L44.8892 31.1621C44.8724 31.1452 44.8575 31.1247 44.8407 31.1004L44.1352 30.3226C44.1352 30.3226 44.1352 30.3244 44.1277 30.3226L44.1016 30.3076L43.3476 29.786C43.3233 29.7729 43.299 29.7617 43.2766 29.7523L42.3565 29.4307L41.2348 29.3242C41.1881 29.3167 41.134 29.3186 41.0911 29.3616L41.0761 29.3746C41.0407 29.4027 41.022 29.4513 41.022 29.4831L41.0071 38.121H41.19L41.3206 38.4426L40.9511 38.8053L40.6338 38.6707V38.495L35.3332 38.4856V38.6614L35.014 38.7941L34.6463 38.4314L34.7788 38.1117H34.9599L35.0028 13.473H34.8218L34.693 13.1514L35.0607 12.7962L35.3761 12.9308V13.1009L40.6767 13.1103V12.9401L40.994 12.8055L41.3617 13.1626L41.231 13.4842H41.0481L41.0295 24.3695C41.0295 24.4256 41.0556 24.4779 41.0799 24.4966C41.1303 24.5434 41.1825 24.5583 41.2329 24.5509L42.209 24.4593H42.2445L43.0191 24.2442C43.0284 24.2405 43.0377 24.2368 43.0452 24.233C43.0452 24.233 43.0396 24.2349 43.0321 24.2405L43.062 24.2218L43.7507 23.8778C43.7731 23.8666 43.7918 23.8591 43.803 23.8516L44.3536 23.3823C44.3685 23.3674 44.3722 23.3636 44.376 23.358L44.3909 23.3337L44.8556 22.6924C44.8556 22.6924 44.865 22.6774 44.8687 22.67L45.1748 21.9688C45.1785 21.9576 45.1804 21.9464 45.1841 21.9389C45.1841 21.9389 45.1841 21.9445 45.1841 21.9539L45.1878 21.924L45.3857 21.0303L45.4155 20.5385H45.2625L45.1393 20.2113L45.5107 19.8785L45.8206 20.03L45.8131 20.1646L51.1342 20.1739L51.1548 19.9496L51.4795 19.843L51.8323 20.2394L51.6923 20.5516H51.4739L51.4291 21.0246L51.222 21.952L50.9159 22.8046L50.5053 23.5768L49.9976 24.2891L49.3649 24.951L48.6277 25.568L48.1909 25.869L48.4951 26.0877L48.8684 25.8391L49.6523 25.1735L50.313 24.4555L50.8524 23.6908L51.2705 22.87L51.5841 21.9707L51.78 21.0284L51.8733 20.03C51.8808 19.9832 51.8789 19.9346 51.8398 19.8972L51.823 19.8785C51.8006 19.8524 51.7502 19.8262 51.6923 19.8262L45.2625 19.815C45.2196 19.815 45.1785 19.8337 45.1468 19.8654C45.1263 19.886 45.1001 19.9234 45.1001 19.9739L45.0348 20.9947H45.0236L44.8426 21.7837L44.8276 21.8454H44.8202L44.5253 22.5185L44.5365 22.526L44.1427 23.0701H44.1445L44.0829 23.1505L44.0699 23.1411L43.5939 23.545L43.5995 23.5562L43.523 23.6011L43.5193 23.5973L42.9575 23.8796L42.8959 23.9096L42.8922 23.9002L42.1419 24.1059V24.1208L41.7574 24.1564V24.3676L41.4475 24.5097L41.05 24.1657L41.1545 23.8385L41.3841 23.8179L41.4028 12.9401C41.4028 12.8541 41.3393 12.7606 41.2217 12.7606L34.8106 12.7494C34.7639 12.7494 34.7173 12.77 34.6818 12.8036C34.6463 12.8373 34.6277 12.8822 34.6277 12.927L34.5829 38.6595C34.5829 38.7735 34.6781 38.8352 34.7676 38.8352L41.1788 38.8465C41.2908 38.8465 41.3598 38.7792 41.3598 38.6726L41.3748 30.0533L41.1452 30.0309L41.0388 29.7056L41.4382 29.3447L41.7499 29.4831V29.7131L42.2184 29.7598V29.7542L42.2986 29.7673V29.7785L43.0975 30.0533L43.1049 30.0421L43.1964 30.0889L43.1908 30.1001L43.8384 30.5488L43.8422 30.5451L43.9019 30.5937L43.8963 30.6012L44.5402 31.3079L44.5458 31.3042L44.5943 31.3696L44.5887 31.3733L44.9433 31.9585H44.9489L44.9788 32.0184H44.9751L45.2326 32.6896H45.2382L45.2532 32.7476H45.2513H45.255ZM46.192 38.1285L51.4926 38.1378L51.4982 35.2174L51.5187 34.4153L51.4123 32.6466L51.1119 31.1284L50.6229 29.8552L49.8352 28.6642L48.8722 27.7125L47.5302 26.7459C47.3753 26.6187 47.2969 26.4617 47.2969 26.2934V26.2728C47.3193 26.0821 47.4107 25.9326 47.5563 25.8503L48.4074 25.2651L49.1241 24.6649L49.7232 24.0348L50.1973 23.3636L50.5837 22.6344L50.8692 21.8305L51.0652 20.948L51.1025 20.5441L45.7926 20.5348L45.7571 21.1312L45.5574 21.9931C45.5537 22.0156 45.5481 22.0343 45.5443 22.0474C45.5443 22.0474 45.5462 22.0361 45.5462 22.0193L45.5313 22.0941L45.1766 22.8812C45.1636 22.9018 45.1505 22.9205 45.1356 22.9373L44.7044 23.5356C44.6802 23.5786 44.6559 23.6029 44.6317 23.6291L44.6055 23.6534L44.0363 24.1377C44.0176 24.1526 43.9896 24.1713 43.9168 24.2068L43.2486 24.5396C43.2206 24.5602 43.1945 24.5696 43.1777 24.5752L43.1329 24.592L42.2706 24.8238H42.2165L41.2777 24.9117C41.1228 24.9342 40.9623 24.8818 40.8428 24.7715C40.7346 24.6892 40.6581 24.5266 40.6581 24.3583L40.6767 13.473L35.3761 13.4636L35.3332 38.1042L40.6338 38.1135L40.6487 29.4756C40.6487 29.326 40.7215 29.1765 40.8372 29.0792C40.9548 28.9689 41.1153 28.9203 41.2814 28.9465L42.3752 29.0493C42.4013 29.0493 42.461 29.0493 42.5189 29.083L43.4148 29.3952C43.4633 29.4158 43.4969 29.4307 43.5361 29.4513L43.5529 29.4625L44.305 29.9823C44.3517 30.0066 44.3778 30.029 44.4021 30.0515L45.1487 30.8779C45.1598 30.8966 45.1636 30.9003 45.1655 30.9022L45.1972 30.9414L45.6022 31.6089C45.6265 31.6407 45.6358 31.6706 45.6414 31.6874C45.6414 31.6874 45.6339 31.6669 45.6115 31.6463L45.6526 31.7099L45.9493 32.4895C45.9568 32.5101 45.9661 32.5363 45.9699 32.5662L46.136 33.4842L46.1976 34.4377L46.192 38.1229V38.1285ZM45.5985 32.6036C45.5985 32.6036 45.5985 32.6204 45.6003 32.626V32.6036H45.5985ZM45.2924 31.8277C45.2924 31.8277 45.2998 31.8408 45.3073 31.8482L45.2905 31.8277H45.2924ZM51.8099 30.8966C51.8099 30.8966 51.8099 30.9022 51.8099 30.9059V30.8966ZM42.2856 29.3803C42.308 29.4046 42.3322 29.4195 42.3509 29.4251L42.2856 29.3803ZM47.6683 26.3046C47.672 26.3738 47.7243 26.4262 47.7542 26.4523L47.8773 26.5402L47.8885 26.0747L47.7411 26.1756C47.7262 26.1831 47.6814 26.2074 47.6683 26.3065V26.3046Z" fill="#171C61"/>
<path d="M121.325 18.7452V21.0262H111.615V18.7452H115.132V16.9971H117.918V18.7452H121.325ZM112.09 25.3994C112.09 24.2776 112.509 23.3652 113.273 22.7389C114.057 22.0733 115.186 21.7124 116.479 21.7124C117.773 21.7124 118.921 22.0733 119.703 22.7389C120.468 23.3671 120.886 24.2795 120.886 25.3994C120.886 26.5194 120.466 27.4336 119.703 28.06C118.919 28.7069 117.79 29.0864 116.479 29.0864C115.169 29.0864 114.057 28.7069 113.273 28.06C112.508 27.4318 112.09 26.5194 112.09 25.3994ZM113.036 29.7147H115.822V32.7379H125.914V35.1517H113.036V29.7147ZM114.731 25.3994C114.731 25.7977 114.895 26.1398 115.15 26.3885C115.46 26.6932 115.934 26.8634 116.479 26.8634C117.024 26.8634 117.517 26.6914 117.827 26.3885C118.083 26.1417 118.247 25.7995 118.247 25.3994C118.247 24.9993 118.083 24.6385 117.827 24.3917C117.517 24.0869 117.026 23.9355 116.479 23.9355C115.932 23.9355 115.46 24.0869 115.15 24.3917C114.895 24.6385 114.731 24.9806 114.731 25.3994ZM122.872 17.5112H125.64V22.2453H127.952V24.7357H125.64V30.3616H122.872V17.5112Z" fill="#171C61"/>
<path d="M136.261 26.9197H130.05V24.5059H145.241V26.9197H139.011V29.1633H144.201V35.3407H141.433V31.5584H130.978V29.1633H136.26V26.9197H136.261ZM141.435 21.047V20.1346H130.98V17.7021H144.203V20.8769C144.203 21.9033 144.112 22.9485 143.893 23.7281H141.198C141.381 22.9485 141.435 21.9987 141.435 21.0489V21.047Z" fill="#171C61"/>
<path d="M151.452 17.6047H154.22V20.3793C154.22 23.4587 155.532 24.8273 157.645 25.4555V27.9646C155.659 27.6412 153.837 26.6147 152.854 25.3228C151.924 26.6727 150.086 27.7758 148.027 28.1553V25.6836C150.232 24.9806 151.452 23.3652 151.452 20.3793V17.6047ZM149.468 28.877H152.255V32.7361H162.346V35.1498H149.468V28.877ZM159.304 17.5112H162.072V22.0172H164.385V24.5076H162.072V29.8306H159.304V17.5131V17.5112Z" fill="#171C61"/>
<path d="M166.772 22.0529C166.772 20.4188 167.354 19.1437 168.302 18.3846C169.086 17.719 170.105 17.3955 171.29 17.3955C172.476 17.3955 173.513 17.719 174.295 18.3846C175.006 18.9548 175.479 19.7906 175.697 20.8563H177.955V17.5114H180.723V26.8636H177.955V23.2906H175.697C175.479 24.3358 174.986 25.1715 174.295 25.7436C173.511 26.3906 172.492 26.7121 171.29 26.7121C170.088 26.7121 169.086 26.3887 168.302 25.7436C167.354 24.964 166.772 23.7094 166.772 22.0566V22.0529ZM170.725 29.2007H177.974V27.4712H180.725V35.2454H167.957V27.4712H170.725V29.2007ZM169.45 22.0529C169.45 22.8512 169.668 23.4589 170.088 23.859C170.398 24.1638 170.799 24.3152 171.29 24.3152C171.781 24.3152 172.201 24.1638 172.511 23.859C172.931 23.4608 173.149 22.8512 173.149 22.0529C173.149 21.2545 172.931 20.6656 172.511 20.2655C172.201 19.9607 171.783 19.7906 171.29 19.7906C170.798 19.7906 170.398 19.9626 170.088 20.2655C169.668 20.6656 169.45 21.2732 169.45 22.0529ZM177.974 32.9083V31.5771H170.725V32.9083H177.974Z" fill="#171C61"/>
<path d="M190.925 21.7872V20.2466H185.315V17.8141H193.676V21.445C193.676 28.4208 191.218 32.6613 185.225 34.1439V31.5021C189.232 30.2849 190.927 26.9774 190.927 21.7891L190.925 21.7872ZM196.153 17.5112H198.921V35.0563H196.153V17.5112Z" fill="#171C61"/>
<path d="M218.104 26.2934H211.874V27.2619H217.064V32.3568H206.7V33.0972H217.428V35.2454H203.93V30.2085H214.313V29.4289H203.93V27.2619H209.121V26.2934H202.909V24.0124H218.1V26.2934H218.104ZM210.489 21.1798C209.141 22.511 206.517 23.3842 203.385 23.5562V21.2752C206.719 20.9891 209.106 19.8692 209.106 17.7957V17.605H211.874V17.7957C211.874 19.8673 214.224 20.9891 217.557 21.2752V23.5562C214.461 23.3842 211.836 22.4923 210.489 21.1798Z" fill="#171C61"/>
<path d="M224.825 17.8145V20.9892H232.621V17.8145H235.389V28.6306H230.123V31.8819H236.225V34.335H221.215V31.8819H227.354V28.6306H222.034V17.8145H224.821H224.825ZM224.825 26.1794H232.621V23.4422H224.825V26.1794Z" fill="#171C61"/>
<path d="M240.253 26.0072C240.253 24.8293 240.762 23.9356 241.654 23.3074C242.856 22.4511 244.751 22.0528 246.936 22.0528C249.122 22.0528 251.016 22.4511 252.218 23.3074C253.11 23.9337 253.62 24.8274 253.62 26.0072C253.62 27.187 253.11 28.0788 252.218 28.707C251.289 29.3726 249.922 29.7709 248.338 29.9055V31.8818H254.439V34.3348H239.429V31.8818H245.568V29.9055C243.965 29.7728 242.599 29.3726 241.652 28.707C240.76 28.0788 240.251 27.187 240.251 26.0072H240.253ZM248.323 18.9174H253.987V21.3311H239.889V18.9174H245.518V16.9019H248.323V18.9174ZM243.022 26.0072C243.022 26.3681 243.205 26.6728 243.515 26.9009C244.17 27.3758 245.428 27.5665 246.94 27.5665C248.452 27.5665 249.708 27.3758 250.365 26.9009C250.675 26.6728 250.858 26.3681 250.858 26.0072C250.858 25.6464 250.675 25.3416 250.365 25.1135C249.71 24.6386 248.452 24.4479 246.94 24.4479C245.428 24.4479 244.172 24.6386 243.515 25.1135C243.205 25.3416 243.022 25.6464 243.022 26.0072Z" fill="#171C61"/>
<path d="M267.03 18.5171V20.7607H257.539V18.5171H261.018V16.9971H263.786V18.5171H267.028H267.03ZM257.976 24.3543C257.976 23.3839 258.394 22.6061 259.087 22.0733C259.87 21.4843 261.016 21.1609 262.366 21.1609C263.715 21.1609 264.861 21.4843 265.645 22.0733C266.338 22.6061 266.756 23.3839 266.756 24.3543C266.756 25.3246 266.336 26.1024 265.645 26.6353C264.861 27.2242 263.715 27.5477 262.366 27.5477C261.016 27.5477 259.87 27.2242 259.087 26.6353C258.394 26.1024 257.976 25.3433 257.976 24.3543ZM261.802 29.5613H269.051V28.2114H271.802V35.2452H259.034V28.2114H261.802V29.5613ZM260.636 24.3543C260.636 24.6385 260.763 24.8684 260.981 25.0386C261.291 25.2667 261.782 25.3994 262.366 25.3994C262.95 25.3994 263.441 25.2667 263.751 25.0386C263.969 24.8666 264.096 24.6385 264.096 24.3543C264.096 24.0701 263.969 23.8607 263.751 23.6887C263.441 23.4419 262.95 23.3278 262.366 23.3278C261.782 23.3278 261.291 23.4419 260.981 23.6887C260.763 23.8607 260.636 24.0682 260.636 24.3543ZM269.051 32.9829V31.861H261.802V32.9829H269.051ZM271.802 17.5112V27.643H269.035V26.4259H266.995V24.1449H269.035V23.2138H266.995V20.9141H269.035V17.5112H271.802Z" fill="#171C61"/>
<path d="M276.648 26.0445C276.648 24.7712 277.157 23.7074 278.014 23.0025C278.798 22.3369 279.836 21.976 281.056 21.976C282.277 21.976 283.315 22.3369 284.098 23.0025C284.955 23.7055 285.446 24.7712 285.446 26.0445C285.446 27.3177 284.955 28.3834 284.098 29.1051C283.624 29.4847 283.078 29.7707 282.441 29.9409V31.7096H284.39C285.756 31.7096 286.685 31.4815 287.232 30.9692V17.5112H290V35.0563H287.232V33.2876C286.667 33.8392 285.537 34.1439 283.953 34.1439H275.92V31.7115H279.69V29.9428C279.052 29.7707 278.488 29.4866 278.014 29.107C277.157 28.3853 276.648 27.3383 276.648 26.0463V26.0445ZM279.634 18.9939V16.9971H282.421V18.9939H285.845V21.389H276.209V18.9939H279.634ZM279.361 26.0445C279.361 26.5586 279.526 26.9943 279.836 27.299C280.127 27.6225 280.563 27.7739 281.056 27.7739C281.549 27.7739 281.967 27.6225 282.258 27.299C282.568 26.9943 282.749 26.5568 282.749 26.0445C282.749 25.5322 282.566 25.0947 282.258 24.7899C281.967 24.4851 281.53 24.315 281.056 24.315C280.582 24.315 280.127 24.487 279.836 24.7899C279.526 25.0947 279.361 25.5322 279.361 26.0445Z" fill="#171C61"/>
</g>
<defs>
<clipPath id="clip0_612_43073">
<rect width="290" height="40" fill="white"/>
</clipPath>
</defs>
</svg>
